<svg width="285" height="290" viewBox="0 0 285 290" fill="none" xmlns="http://www.w3.org/2000/svg">
<g clip-path="url(#clip0_3595_8275)">
<path d="M83.8001 82.0601L75.8501 76.8101L82.5301 80.2201L90.5001 85.4601L83.8001 82.0501V82.0601Z" fill="#BACFD6"/>
<path d="M55.23 88.7298L47.29 88.8098L75.84 76.7998L83.79 82.0498L55.22 88.7198L55.23 88.7298Z" fill="#EBF3F6"/>
<path d="M27.0103 79.6998L37.1603 67.8398L43.0503 68.9698L32.9103 80.7999L27.0103 79.6998Z" fill="#EBF3F6" stroke="#29256A" stroke-width="0.75" stroke-linecap="round" stroke-linejoin="round"/>
<path d="M18.75 94.1901L28.89 82.3601L31.52 82.3101L21.38 94.1401L18.75 94.1901Z" fill="url(#paint0_linear_3595_8275)" stroke="#29256A" stroke-width="0.75" stroke-linecap="round" stroke-linejoin="round"/>
<path d="M9.00023 100.61L19.1302 88.75L25.0302 89.87L14.8802 101.73L8.99023 100.6L9.00023 100.61Z" fill="#EBF3F6" stroke="#29256A" stroke-width="0.75" stroke-linecap="round" stroke-linejoin="round"/>
<g opacity="0.3">
<path d="M67.7599 65.8598C62.0599 68.9498 57.3399 74.6798 54.7899 79.2198C53.0299 82.3298 54.4199 86.2298 57.6499 87.7098C60.3199 88.9498 63.6999 89.4898 67.5599 87.8998C74.9299 84.8498 81.3599 80.5098 79.3699 73.9398L77.7799 69.3898C77.7799 69.3898 75.4699 61.6698 67.7599 65.8598Z" fill="#CADDFF"/>
</g>
<path d="M118.03 136.31L117.22 134.8L134.49 156.05L133.92 155.71L118.03 136.31Z" fill="#CEE0E8" stroke="#29256A" stroke-width="0.75" stroke-linecap="round" stroke-linejoin="round"/>
<path d="M110.26 142.95L113.26 141.87L129.14 161.3L127.52 164.19L110.25 142.95H110.26Z" fill="#BACFD6" stroke="#29256A" stroke-width="0.75" stroke-linecap="round" stroke-linejoin="round"/>
<path d="M113.26 141.87L118.04 136.31L133.93 155.71L129.14 161.3L113.26 141.87Z" fill="#CEE0E8" stroke="#29256A" stroke-width="0.75" stroke-linecap="round" stroke-linejoin="round"/>
<path d="M150.79 175.48L154.45 176.39L126.05 171.03L125.47 170.68L150.79 175.48Z" fill="#1F787D" stroke="#29256A" stroke-width="0.75" stroke-linecap="round" stroke-linejoin="round"/>
<path d="M111.83 138.54L116.62 132.95L118.03 136.31L113.25 141.87L111.83 138.54Z" fill="#CEE0E8" stroke="#29256A" stroke-width="0.75" stroke-linecap="round" stroke-linejoin="round"/>
<path d="M103.37 143.64L103.05 142.91L95.4902 125.1L97.1102 128.63L103.37 143.64Z" fill="#04555B" stroke="#29256A" stroke-width="0.75" stroke-linecap="round" stroke-linejoin="round"/>
<path d="M108.01 137.57L111.84 138.54L113.26 141.87L110.26 142.95L108.01 137.57Z" fill="#BACFD6" stroke="#29256A" stroke-width="0.75" stroke-linecap="round" stroke-linejoin="round"/>
<path d="M148.24 168.13L150.61 165.35L154.45 176.39L150.79 175.48L148.24 168.13Z" fill="#1F787D" stroke="#29256A" stroke-width="0.75" stroke-linecap="round" stroke-linejoin="round"/>
<path d="M150.6 165.35L155.39 159.79L159.21 170.83L154.44 176.4L150.6 165.36V165.35Z" fill="#CEE0E8" stroke="#29256A" stroke-width="0.75" stroke-linecap="round" stroke-linejoin="round"/>
<path d="M129.14 161.3L133.93 155.71L155.4 159.79L150.61 165.35L129.15 161.3H129.14Z" fill="#EBF3F6" stroke="#29256A" stroke-width="0.75" stroke-linecap="round" stroke-linejoin="round"/>
<path d="M127.53 164.2L129.14 161.3L150.6 165.35L148.23 168.13L127.52 164.2H127.53Z" fill="#1F787D" stroke="#29256A" stroke-width="0.75" stroke-linecap="round" stroke-linejoin="round"/>
<path d="M214.14 194.75L218.02 195.27L207.73 195.76L207.26 195.09L214.14 194.75Z" fill="#1F787D" stroke="#29256A" stroke-width="0.75" stroke-linecap="round" stroke-linejoin="round"/>
<path d="M182.26 151.63L182.49 151.91L111.84 138.53L108.01 137.56L182.26 151.63Z" fill="#BACFD6" stroke="#29256A" stroke-width="0.75" stroke-linecap="round" stroke-linejoin="round"/>
<path d="M185.75 145.42L214.13 194.76L207.25 195.1L182.26 151.64L108.01 137.57L110.26 142.95L127.53 164.19L148.25 168.14L150.8 175.49L125.48 170.69L103.39 143.65L97.1299 128.64L185.77 145.42H185.75Z" fill="#CEE0E8" stroke="#29256A" stroke-width="0.75" stroke-linecap="round" stroke-linejoin="round"/>
<path d="M95.4902 125.1L100.26 119.52L192.5 136.99L187.73 142.57L95.4902 125.1Z" fill="#EBF3F6" stroke="#29256A" stroke-width="0.75" stroke-linecap="round" stroke-linejoin="round"/>
<path d="M97.1102 128.64L95.4902 125.11L187.73 142.58L185.75 145.42L97.1102 128.64Z" fill="#BACFD6" stroke="#29256A" stroke-width="0.75" stroke-linecap="round" stroke-linejoin="round"/>
<path d="M185.75 145.42L187.73 142.58L218.02 195.28L214.14 194.76L185.76 145.42H185.75Z" fill="#BACFD6" stroke="#29256A" stroke-width="0.75" stroke-linecap="round" stroke-linejoin="round"/>
<path d="M187.73 142.58L192.5 137L222.81 189.69L218.02 195.28L187.73 142.58Z" fill="#CEE0E8" stroke="#29256A" stroke-width="0.75" stroke-linecap="round" stroke-linejoin="round"/>
<path d="M229.25 187.96L226.29 179.5L221.57 178.5L229.25 187.96Z" fill="#EBF3F6" stroke="#29256A" stroke-width="0.75" stroke-linecap="round" stroke-linejoin="round"/>
<path d="M65.4302 231.53L126.28 160.45L132.14 177.33L71.2902 248.41L65.4302 231.53Z" fill="#09C8D6" stroke="#29256A" stroke-width="0.75" stroke-linecap="round" stroke-linejoin="round"/>
<path d="M40.1001 198.74L100.95 127.66L126.28 160.45L65.4301 231.53L40.1001 198.74Z" fill="#CEE0E8" stroke="#29256A" stroke-width="0.75" stroke-linecap="round" stroke-linejoin="round"/>
<path d="M12.0203 138.94L55.2303 88.73L100.94 127.65L40.0903 198.73L12.0103 138.94H12.0203Z" fill="#CEE0E8" stroke="#29256A" stroke-width="0.75" stroke-linecap="round" stroke-linejoin="round"/>
<path d="M24.9302 133.12L47.1302 107.31C51.9602 101.68 60.4502 101.01 66.1002 105.84L92.5202 128.32L41.6002 187.82L22.9002 148.01C20.5702 143.09 21.3702 137.24 24.9302 133.12Z" fill="url(#paint1_linear_3595_8275)" stroke="#29256A" stroke-width="0.75" stroke-linecap="round" stroke-linejoin="round"/>
<path d="M4.09033 139.03L47.3003 88.8202L55.2403 88.7402L12.0303 138.95L4.09033 139.04V139.03Z" fill="#EBF3F6" stroke="#29256A" stroke-width="0.75" stroke-linecap="round" stroke-linejoin="round"/>
<path d="M12.0203 138.94L8.05029 138.99L29.6703 200.83L40.0903 198.74L12.0103 138.95L12.0203 138.94Z" fill="#BACFD6" stroke="#29256A" stroke-width="0.75" stroke-linecap="round" stroke-linejoin="round"/>
<path d="M5.5 143.07L22.05 195.32L29.68 200.82L8.06 138.98L5.5 143.06V143.07Z" fill="#BACFD6" stroke="#29256A" stroke-width="0.75" stroke-linecap="round" stroke-linejoin="round"/>
<path d="M40.1002 198.73L29.6802 200.82L65.1902 244.42L65.4402 231.52L40.1102 198.73H40.1002Z" fill="#08AAB6" stroke="#29256A" stroke-width="0.75" stroke-linecap="round" stroke-linejoin="round"/>
<path d="M65.1903 244.43L29.6803 200.83L22.0503 195.33L59.5303 246.13L71.2903 248.41L65.1803 244.44L65.1903 244.43Z" fill="#BACFD6" stroke="#29256A" stroke-width="0.75" stroke-linecap="round" stroke-linejoin="round"/>
<path d="M73.8501 248.4L134.7 177.33L135.58 177.99L74.7301 249.07L73.8501 248.4Z" fill="#09C8D6" stroke="#29256A" stroke-width="0.75" stroke-linecap="round" stroke-linejoin="round"/>
<path d="M76.2803 244.12L137.13 173.04L134.71 177.33L73.8604 248.4L76.2803 244.12Z" fill="#09C8D6" stroke="#29256A" stroke-width="0.75" stroke-linecap="round" stroke-linejoin="round"/>
<path d="M76.2803 244.12L137.13 173.04L146.49 180.06L85.6403 251.13L76.2803 244.13V244.12Z" fill="#09C8D6" stroke="#29256A" stroke-width="0.75" stroke-linecap="round" stroke-linejoin="round"/>
<path d="M215.23 203.48L222.19 192.9L240.96 215.97L232.6 224.7L215.23 203.47V203.48Z" fill="#CEE0E8" stroke="#29256A" stroke-width="0.75" stroke-linecap="round" stroke-linejoin="round"/>
<path d="M211.04 193.59L218.82 184.88L222.19 192.91L215.23 203.49L211.04 193.6V193.59Z" fill="#068791" stroke="#29256A" stroke-width="0.75" stroke-linecap="round" stroke-linejoin="round"/>
<path d="M204.49 192.83L216.02 184.56L218.82 184.88L211.04 193.59L204.49 192.83Z" fill="#068A94" stroke="#29256A" stroke-width="0.75" stroke-linecap="round" stroke-linejoin="round"/>
<path d="M255.53 229.07L263.1 220.19L264.07 222.96L257.76 235.53L255.53 229.08V229.07Z" fill="#CEE0E8" stroke="#29256A" stroke-width="0.75" stroke-linecap="round" stroke-linejoin="round"/>
<path d="M232.6 224.71L240.96 215.98L263.1 220.18L255.53 229.06L232.6 224.71Z" fill="#EBF3F6" stroke="#29256A" stroke-width="0.75" stroke-linecap="round" stroke-linejoin="round"/>
<path d="M176.57 248.66L215.23 203.48L232.6 224.71L193.94 269.89L176.57 248.66Z" fill="url(#paint2_linear_3595_8275)" stroke="#29256A" stroke-width="0.75" stroke-linecap="round" stroke-linejoin="round"/>
<path d="M176.57 248.66L215.23 203.48L232.6 224.71L193.94 269.89L176.57 248.66Z" fill="url(#paint3_linear_3595_8275)" stroke="#29256A" stroke-width="0.75" stroke-linecap="round" stroke-linejoin="round"/>
<path d="M172.35 238.76L211.04 193.59L215.23 203.48L176.57 248.66L172.35 238.76Z" fill="#068993" stroke="#29256A" stroke-width="0.75" stroke-linecap="round" stroke-linejoin="round"/>
<path d="M165.82 238.01L204.48 192.83L211.03 193.59L172.34 238.76L165.81 238.01H165.82Z" fill="#078C96" stroke="#29256A" stroke-width="0.75" stroke-linecap="round" stroke-linejoin="round"/>
<path d="M165.78 258.81L176.57 248.66L193.94 269.89L184.54 281.87L165.77 258.81H165.78Z" fill="#CEE0E8" stroke="#29256A" stroke-width="0.75" stroke-linecap="round" stroke-linejoin="round"/>
<path d="M216.84 274.24L255.52 229.07L257.75 235.52L219.08 280.68L216.83 274.24H216.84Z" fill="#CEE0E8" stroke="#29256A" stroke-width="0.75" stroke-linecap="round" stroke-linejoin="round"/>
<path d="M193.94 269.89L232.6 224.71L255.53 229.06L216.85 274.23L193.95 269.88L193.94 269.89Z" fill="url(#paint4_linear_3595_8275)" stroke="#29256A" stroke-width="0.75" stroke-linecap="round" stroke-linejoin="round"/>
<path d="M162.41 250.79L172.35 238.76L176.57 248.66L165.78 258.81L162.42 250.79H162.41Z" fill="#068993" stroke="#29256A" stroke-width="0.75" stroke-linecap="round" stroke-linejoin="round"/>
<path d="M159.6 250.45L165.82 238.01L172.35 238.76L162.41 250.79L159.6 250.45Z" fill="#078C96" stroke="#29256A" stroke-width="0.75" stroke-linecap="round" stroke-linejoin="round"/>
<path d="M184.54 281.87L193.94 269.89L216.84 274.24L206.7 286.08L184.54 281.87Z" fill="#EBF3F6" stroke="#29256A" stroke-width="0.75" stroke-linecap="round" stroke-linejoin="round"/>
<path d="M162.41 250.79L165.77 258.81L184.54 281.87L206.7 286.08L207.64 288.84L183.77 284.32L163.14 259.08L159.59 250.46L162.4 250.8L162.41 250.79Z" fill="#BACFD6" stroke="#29256A" stroke-width="0.75" stroke-linecap="round" stroke-linejoin="round"/>
<path d="M206.71 286.08L216.85 274.24L219.1 280.68L207.65 288.84L206.71 286.08Z" fill="#CEE0E8" stroke="#29256A" stroke-width="0.75" stroke-linecap="round" stroke-linejoin="round"/>
<path d="M163.54 265.9L224.39 194.82L227.19 192.29L166.34 263.37L163.54 265.9Z" fill="#09C8D6" stroke="#29256A" stroke-width="0.75" stroke-linecap="round" stroke-linejoin="round"/>
<path d="M153.3 263.94L214.15 192.86L221.08 186.58L160.23 257.66L153.3 263.94Z" fill="#09C8D6" stroke="#29256A" stroke-width="0.75" stroke-linecap="round" stroke-linejoin="round"/>
<path d="M85.6399 251.13L146.49 180.06L184.5 208.48L123.65 279.56L85.6299 251.13H85.6399Z" fill="#EBF3F6" stroke="#29256A" stroke-width="0.75" stroke-linecap="round" stroke-linejoin="round"/>
<path d="M125.06 286.28L185.91 215.2L198.13 217.52L137.28 288.6L125.06 286.28Z" fill="#09C8D6" stroke="#29256A" stroke-width="0.75" stroke-linecap="round" stroke-linejoin="round"/>
<path d="M123.66 279.56L184.51 208.48C186.41 209.91 188.42 210.8 190.23 211.16C192.17 211.53 193.89 211.23 194.99 210.24L134.14 281.32C133.03 282.32 131.32 282.61 129.38 282.23C127.58 281.89 125.56 280.99 123.67 279.56H123.66Z" fill="#EBF3F6" stroke="#29256A" stroke-width="0.75" stroke-linecap="round" stroke-linejoin="round"/>
<path d="M134.13 281.32L194.98 210.24L214.14 192.86L153.29 263.94L134.13 281.32Z" fill="#EBF3F6" stroke="#29256A" stroke-width="0.75" stroke-linecap="round" stroke-linejoin="round"/>
<path d="M160.23 257.66L166.34 263.37L163.54 265.9L140.24 287.03C139.42 287.77 138.42 288.29 137.29 288.62L125.05 286.31C123.77 285.62 122.5 284.81 121.25 283.88L74.7501 249.11L73.8701 248.45L76.2901 244.17L85.6501 251.17L123.67 279.6C125.57 281.03 127.58 281.92 129.38 282.27C131.32 282.65 133.05 282.35 134.14 281.36L153.29 264.02L160.22 257.74V257.67L160.23 257.66Z" fill="#BACFD6" stroke="#29256A" stroke-width="0.75" stroke-linecap="round" stroke-linejoin="round"/>
<path d="M160.23 257.66L221.08 186.58L227.19 192.29L166.34 263.37L160.23 257.66Z" fill="#09C8D6" stroke="#29256A" stroke-width="0.75" stroke-linecap="round" stroke-linejoin="round"/>
<path d="M168.4 259.05L229.25 187.97L227.43 195.4L166.58 266.48L168.4 259.05Z" fill="#BACFD6" stroke="#29256A" stroke-width="0.75" stroke-linecap="round" stroke-linejoin="round"/>
<path d="M65.4302 231.53L126.28 160.45L221.57 178.51L160.72 249.59L65.4302 231.53Z" fill="#EBF3F6" stroke="#29256A" stroke-width="0.75" stroke-linecap="round" stroke-linejoin="round"/>
<path d="M160.72 249.59L221.57 178.51L229.25 187.97L168.4 259.05L160.72 249.59Z" fill="#CEE0E8" stroke="#29256A" stroke-width="0.75" stroke-linecap="round" stroke-linejoin="round"/>
<path d="M166.58 266.47L168.4 259.04L163.83 258.47L157.51 262.13L166.58 266.46V266.47Z" fill="#BACFD6" stroke="#29256A" stroke-width="0.75" stroke-linecap="round" stroke-linejoin="round"/>
<path d="M65.4302 231.53L65.1802 244.43L157.51 262.14L160.72 249.59L65.4302 231.53Z" fill="#CEE0E8" stroke="#29256A" stroke-width="0.75" stroke-linecap="round" stroke-linejoin="round"/>
<path d="M157.51 262.14L65.1802 244.43L71.2902 248.42L166.58 266.48L157.51 262.15V262.14Z" fill="#BACFD6" stroke="#29256A" stroke-width="0.75" stroke-linecap="round" stroke-linejoin="round"/>
<path d="M35.6 189.13L27.09 190.11L1.70996 169.68L15.81 169.04L35.61 189.14L35.6 189.13Z" fill="#BACFD6" stroke="#29256A" stroke-width="0.75" stroke-linecap="round" stroke-linejoin="round"/>
<path d="M15.7999 169.04L1.70988 169.68L0.379883 159.28L14.4799 158.66L15.7999 169.03V169.04Z" fill="#CEE0E8" stroke="#29256A" stroke-width="0.75" stroke-linecap="round" stroke-linejoin="round"/>
<path d="M4.08012 139.03L0.370117 159.29L14.4701 158.67L12.0101 138.95L4.07012 139.04L4.08012 139.03Z" fill="#EBF3F6" stroke="#29256A" stroke-width="0.75" stroke-linecap="round" stroke-linejoin="round"/>
<path d="M12.02 138.94L27.29 169.56L35.6 189.13L15.8 169.03L14.48 158.66L12.02 138.94Z" fill="#CEE0E8" stroke="#29256A" stroke-width="0.75" stroke-linecap="round" stroke-linejoin="round"/>
<path d="M83.8 82.0601L90.5 85.4701L93.03 120.8L78.49 110.25L55.23 88.7301L83.8 82.0601Z" fill="#CEE0E8"/>
<path d="M59.0901 90.5099L83.0101 85.1499L87.0601 87.7499L90.6401 117.64L90.6201 117.83L59.0801 90.5099H59.0901Z" fill="#BACFD6"/>
<path d="M32.8999 80.79L43.0399 68.96L62.6799 108.56L52.5399 120.4L32.8999 80.79Z" fill="#CEE0E8" stroke="#29256A" stroke-width="0.75" stroke-linecap="round" stroke-linejoin="round"/>
<path d="M32.9 80.7899L52.54 120.4L41.21 105.84L34.49 104.55L27 79.6899L32.9 80.7899Z" fill="#BACFD6" stroke="#29256A" stroke-width="0.75" stroke-linecap="round" stroke-linejoin="round"/>
<path d="M21.3799 94.1298L31.5199 82.2998L45.2399 111L35.0899 122.86L21.3799 94.1298Z" fill="url(#paint5_linear_3595_8275)" stroke="#29256A" stroke-width="0.75" stroke-linecap="round" stroke-linejoin="round"/>
<path d="M21.38 94.1299L35.09 122.86L24.9 115.21L18.75 94.1799L21.38 94.1299Z" fill="#056B73" stroke="#29256A" stroke-width="0.75" stroke-linecap="round" stroke-linejoin="round"/>
<path d="M14.8901 101.74L25.0401 89.8799L44.6801 129.49L34.5401 141.32L14.8901 101.74Z" fill="#CEE0E8" stroke="#29256A" stroke-width="0.75" stroke-linecap="round" stroke-linejoin="round"/>
<path d="M14.8903 101.74L34.5403 141.32L22.4603 126.65L16.5003 125.49L9.01025 100.61L14.9003 101.74H14.8903Z" fill="#BACFD6" stroke="#29256A" stroke-width="0.75" stroke-linecap="round" stroke-linejoin="round"/>
<path d="M41.5801 187.83L92.5201 128.32L122.3 165.08L71.0001 225.04L41.5801 187.82V187.83Z" fill="url(#paint6_linear_3595_8275)" stroke="#29256A" stroke-width="0.38" stroke-linecap="round" stroke-linejoin="round"/>
<path d="M217.04 183.79L122.31 165.11L70.9902 225.06L164.53 245.15L164.64 245.03C165.99 245.44 174.84 247.67 182.75 237.77C191.93 226.29 186.37 219.44 186.37 219.44L148.35 212.08L160.64 200.42L196.19 208.49C196.19 208.49 205.16 211.96 214 201.42C223.16 190.49 217.02 183.84 217.02 183.84V183.8L217.04 183.79Z" fill="url(#paint7_linear_3595_8275)" stroke="#29256A" stroke-width="0.75" stroke-linecap="round" stroke-linejoin="round"/>
<path d="M160.72 249.59L168.4 259.05L157.51 262.15L160.72 249.6V249.59Z" fill="#EBF3F6" stroke="#29256A" stroke-width="0.75" stroke-linecap="round" stroke-linejoin="round"/>
<path d="M209.84 270.53L213.9 276.47L220.59 281.49C220.59 281.49 224.06 291.61 229.9 288.34C235.73 285.06 236.8 277.11 236.8 277.11C236.8 277.11 247.47 266.19 247.14 261.72C246.8 257.23 243.23 255.4 239.57 257.86C235.91 260.32 226.27 265.26 223.52 264.67C222.68 264.49 220.73 262.11 220.73 262.11C217.64 260.37 213.43 258.78 213.43 258.78L209.85 270.52L209.84 270.53Z" fill="url(#paint8_linear_3595_8275)" stroke="#29256A" stroke-width="0.75" stroke-linecap="round" stroke-linejoin="round"/>
<path d="M229.19 288.91C229.46 288.82 229.74 288.7 230.01 288.54C235.87 285.27 239.13 277.44 239.16 277.34C239.47 276.95 247.73 266.2 247.37 261.66C247.35 261.6 247.32 261.52 247.28 261.46C247.24 261.42 247.15 261.4 247.09 261.4C246.92 261.42 246.73 261.47 246.53 261.54C244.48 262.26 241.59 265.5 241.04 266.15C240.69 266.56 240.17 267.22 239.54 268.03C237.81 270.23 235.19 273.57 232.94 275.58C229.99 278.22 225.77 286.53 227.96 289.04C228.03 289.1 228.1 289.13 228.19 289.13C228.51 289.07 228.85 289 229.2 288.88V288.92L229.19 288.91Z" fill="#29256A"/>
<path d="M247.13 261.7C247.47 266.18 238.91 277.24 238.91 277.24C238.91 277.24 235.7 285.07 229.87 288.33C229.6 288.49 229.34 288.6 229.09 288.69C228.76 288.8 228.44 288.87 228.14 288.92C226.14 286.6 230.03 278.56 233.12 275.81C236.2 273.03 239.9 267.93 241.25 266.36C242.48 264.94 244.93 262.4 246.63 261.8C246.8 261.74 246.96 261.7 247.13 261.7ZM240.86 266.01C240.51 266.43 239.99 267.1 239.35 267.91C237.62 270.11 235.02 273.39 232.78 275.42C229.8 278.1 225.43 286.53 227.77 289.23C227.88 289.36 228.05 289.4 228.21 289.39C228.58 289.33 228.92 289.26 229.26 289.14C229.57 289.03 229.85 288.91 230.14 288.75C235.85 285.55 239.04 278.29 239.38 277.49C240.1 276.54 247.99 266.14 247.64 261.63C247.62 261.51 247.55 261.38 247.45 261.28C247.34 261.22 247.22 261.18 247.07 261.18C246.88 261.2 246.66 261.25 246.45 261.32C244.34 262.06 241.43 265.37 240.86 266.01Z" fill="#29256A"/>
<path d="M249.92 233.8L256.96 237.86C256.96 237.86 264.14 249.71 269.02 245.2C273.91 240.7 282.81 223.61 284.1 219.34C285.39 215.07 281.88 215.33 279 216.15C276.13 216.98 267.3 222.78 260.96 222.33C259.08 222.19 256.46 220.17 256.46 220.17L239.14 215.61L249.91 233.79L249.92 233.8Z" fill="url(#paint9_linear_3595_8275)" stroke="#29256A" stroke-width="0.75" stroke-linecap="round" stroke-linejoin="round"/>
<path d="M71.7603 86.81C71.7603 86.81 81.4703 77.25 91.7803 80.62C102.07 84.01 105.85 89.62 109.4 91.59C112.93 93.56 128.8 99.41 128.8 99.41C128.8 99.41 140.04 99.45 153.97 105.14C153.97 105.14 155.57 110.22 159.72 117.09C159.72 117.09 139.69 120.76 124.02 116.67C108.36 112.59 89.8203 103.83 89.8203 103.83C89.8203 103.83 75.7203 94.1 71.7603 86.8V86.81Z" fill="url(#paint10_linear_3595_8275)" stroke="#29256A" stroke-width="0.75" stroke-linecap="round" stroke-linejoin="round"/>
<g opacity="0.15">
<path d="M74.53 84.5498C79.92 91.2298 94.61 91.1798 94.61 91.1798C94.61 91.1798 104.05 106.78 124.71 111.36C136.57 114 150.7 113.14 157.06 112.29C157.8 113.73 158.69 115.35 159.73 117.09C159.73 117.09 139.7 120.76 124.03 116.67C108.37 112.59 89.83 103.83 89.83 103.83C89.83 103.83 75.73 94.0998 71.77 86.7998C71.77 86.7998 72.82 85.7898 74.55 84.5298H74.53V84.5498Z" fill="#29256A"/>
</g>
<path d="M120.34 154.72C120.34 154.72 140.75 154.96 150.97 157.35C161.19 159.74 185.15 167.53 197.64 173.56C210.14 179.62 256.47 220.18 256.47 220.18C256.47 220.18 247.34 222.4 249.93 233.8L187.65 198.51L117.42 189.04C117.42 189.04 94.9203 165.66 120.37 154.74L120.34 154.72Z" fill="url(#paint11_linear_3595_8275)" stroke="#29256A" stroke-width="0.75" stroke-linecap="round" stroke-linejoin="round"/>
<g opacity="0.15">
<path d="M108.95 165.34C109.49 174.76 119.87 172.06 119.87 172.06L188.33 193.19L249.7 227.68C249.38 229.34 249.37 231.35 249.93 233.81L187.65 198.52L117.42 189.05C117.42 189.05 105.27 176.4 108.97 165.37V165.34H108.95Z" fill="#29256A"/>
</g>
<path d="M149.33 212.15C149.33 212.15 149.44 212.11 149.46 212.03L154.72 203.29L155.34 199.59C155.36 199.47 155.29 199.34 155.17 199.29C155.12 199.27 155.06 199.27 155 199.29C154.94 199.31 154.89 199.33 154.86 199.39L148.02 210.81C148.02 210.81 147.97 211.04 148.06 211.12L149.06 212.08C149.06 212.08 149.2 212.16 149.27 212.13H149.31V212.14L149.33 212.15Z" fill="#CEE0E8"/>
<path d="M155.07 199.56L154.48 203.17L149.23 211.92L148.22 210.95L155.06 199.53M154.9 199.06C154.78 199.1 154.63 199.28 154.63 199.28L147.79 210.7C147.67 210.91 147.72 211.17 147.88 211.32L148.89 212.29C148.99 212.4 149.15 212.43 149.3 212.42L149.4 212.39C149.52 212.35 149.67 212.17 149.67 212.17L154.93 203.43C154.95 203.38 155 203.25 155 203.25L155.59 199.64C155.64 199.41 155.49 199.18 155.27 199.08C155.15 199.04 155.04 199.03 154.92 199.08L154.9 199.06Z" fill="#29256A"/>
<path d="M174.55 216.91C174.55 216.91 174.68 216.85 174.7 216.77C174.75 216.67 174.7 216.54 174.59 216.47L154.61 202.93C154.61 202.93 154.48 202.87 154.41 202.9H154.39C154.33 202.93 154.27 202.95 154.25 203.01L149 211.76C149 211.76 148.95 211.93 149 212C149.03 212.08 149.11 212.13 149.18 212.15L174.4 216.91C174.4 216.91 174.49 216.92 174.53 216.91H174.55Z" fill="#BACFD6"/>
<path d="M154.49 203.13L174.47 216.67L149.24 211.9L154.5 203.16M154.35 202.67C154.24 202.71 154.08 202.89 154.08 202.89L148.82 211.63C148.74 211.77 148.73 211.92 148.79 212.1C148.85 212.28 148.99 212.37 149.15 212.4L174.38 217.17C174.45 217.19 174.55 217.17 174.63 217.14C174.76 217.09 174.88 217 174.94 216.86C175.02 216.65 174.94 216.39 174.75 216.24L154.77 202.7C154.65 202.61 154.51 202.58 154.38 202.62L154.32 202.64L154.35 202.66V202.67Z" fill="#29256A"/>
<path d="M114.24 156.86C114.24 156.86 121.5 177.37 123.97 183.46C123.97 183.46 156.82 199.51 167.46 210.8C178.07 222.06 220.31 262.23 220.31 262.23C220.31 262.23 210.56 265.64 213.49 276.59C213.49 276.59 174.78 257.2 167.86 249.73C163.84 245.38 153.46 229.1 153.46 229.1C153.46 229.1 101 224.1 91.2899 214.05C81.5799 204.01 82.6799 194.67 75.2499 181.24C72.0899 175.53 99.6099 150.41 114.23 156.86H114.25H114.24Z" fill="url(#paint12_linear_3595_8275)" stroke="#29256A" stroke-width="0.75" stroke-linecap="round" stroke-linejoin="round"/>
<g opacity="0.15">
<path d="M78.2801 181.27C85.5001 194.47 82.7001 198.66 92.3401 208.61C102.05 218.65 154.51 223.66 154.51 223.66C154.51 223.66 164.9 239.94 168.91 244.29C175.15 251.05 207.29 267.48 213.5 270.62C213.21 272.27 213.26 274.19 213.86 276.46C213.86 276.46 175.15 257.07 168.23 249.6C164.21 245.25 153.83 228.97 153.83 228.97C153.83 228.97 101.37 223.97 91.6601 213.92C81.9301 203.88 84.8601 199.71 77.4401 186.29C76.8701 185.28 77.2301 183.47 78.2701 181.26H78.2901L78.2801 181.27Z" fill="#29256A"/>
</g>
<path d="M53.6503 103.36L43.7603 119.91C43.7603 119.91 49.4103 133.96 56.7103 148.94C64.3603 164.61 68.2103 168.65 75.6403 181.08C75.6403 181.08 85.4203 182.93 107.32 171.43C123.83 162.74 120.34 154.71 120.34 154.71C120.34 154.71 110.04 120.94 106.59 113.1C103.13 105.24 99.5703 94.1201 91.0603 88.0901C82.5603 82.0701 71.7403 86.7901 71.7403 86.7901L53.6303 103.37H53.6503V103.36Z" fill="url(#paint13_linear_3595_8275)" stroke="#29256A" stroke-width="0.75" stroke-linecap="round" stroke-linejoin="round"/>
<path d="M47.0601 122.15C47.0601 122.15 58.4401 133.63 65.7601 148.59C73.4101 164.26 73.6801 174.63 81.1301 187.06C78.7701 186.79 77.4701 186.27 77.4701 186.27C70.0201 173.84 64.3801 164.61 56.7301 148.92C49.4001 133.93 44.8301 122.89 44.8301 122.89L47.0901 122.1L47.0601 122.14V122.15Z" fill="#BACFD6"/>
<path d="M69.97 174.06C76.32 175.27 87.73 174.8 101.88 170.29C113.44 166.65 118.5 158.88 120.74 154.16C120.92 154.43 121 154.53 121.14 154.69C121.14 154.69 122.94 160.45 123.17 162.85C119.56 168.1 113.59 174.17 104.05 177.51L102.9 177.91C89.87 182.04 81.63 180.89 74.34 180.05C73.31 178.46 70.55 176.17 69.71 174.51C69.71 174.51 69.82 174.34 69.99 174.08L69.96 174.06H69.97Z" fill="#29256A" stroke="#29256A" stroke-width="0.75" stroke-linecap="round" stroke-linejoin="round"/>
<path d="M69.6899 174.48C76.0399 175.69 87.5899 176.16 101.74 171.67C113.3 168.01 118.89 159.38 121.13 154.69C123.36 157.57 123.74 160.13 124.01 162.92C120.4 168.17 114.42 174.24 104.89 177.58C104.51 177.71 104.12 177.85 103.74 177.98C90.7099 182.09 82.3399 183.3 75.0599 182.47C72.7699 182.56 69.6299 177.15 69.7299 174.5L69.6999 174.48H69.6899Z" fill="url(#paint14_linear_3595_8275)" stroke="#29256A" stroke-width="0.75" stroke-linecap="round" stroke-linejoin="round"/>
<path d="M112.03 178.03L113.38 178.27C112.9 178.18 112.46 177.79 112.22 177.1L110.87 176.87C111.11 177.56 111.53 177.95 112.03 178.03Z" fill="#10242B" stroke="#29256A" stroke-width="0.75" stroke-linecap="round" stroke-linejoin="round"/>
<path d="M109.87 170.41L108.52 170.17L110.88 176.86L112.23 177.09L109.87 170.41Z" fill="#10242B" stroke="#29256A" stroke-width="0.75" stroke-linecap="round" stroke-linejoin="round"/>
<path d="M109.46 165.6L114.36 160.09C114.87 159.53 115.42 159.29 115.92 159.37L117.27 159.61C116.77 159.53 116.23 159.76 115.71 160.33L110.81 165.84C109.78 166.97 109.36 169.04 109.85 170.42L108.5 170.18C108.02 168.8 108.44 166.73 109.46 165.6Z" fill="#29256A" stroke="#29256A" stroke-width="1.51" stroke-miterlimit="10"/>
<path d="M110.83 165.83C109.8 166.96 109.38 169.03 109.87 170.41L112.21 177.09C112.71 178.47 113.95 178.69 114.95 177.54L119.85 172.04C120.85 170.91 121.27 168.84 120.79 167.47L118.45 160.77C117.95 159.39 116.71 159.17 115.7 160.31L110.8 165.81L110.83 165.83Z" fill="url(#paint15_linear_3595_8275)" stroke="#29256A" stroke-width="0.75" stroke-linecap="round" stroke-linejoin="round"/>
<path d="M43.7502 119.95C43.7502 119.95 36.8202 128.88 41.4402 138.96C46.0702 149.06 73.4002 171.62 77.7802 174.67C82.1602 177.72 80.2702 177.79 97.9302 184.27C102.3 185.87 120 192.77 120 192.77C120 192.77 128.01 182.61 122.91 177.08L82.8202 159.24C82.8202 159.24 65.5902 135.97 59.6102 130.19C53.6102 124.43 48.1902 119.89 43.7802 119.95H43.7402H43.7502Z" fill="url(#paint16_linear_3595_8275)" stroke="#29256A" stroke-width="0.75" stroke-linecap="round" stroke-linejoin="round"/>
<path d="M267.76 246.27C268.26 246.1 268.74 245.8 269.18 245.39C274.14 240.79 283.04 223.69 284.32 219.4C284.59 218.51 284.59 218.02 284.3 217.75C284.17 217.62 283.94 217.51 283.51 217.66C282.72 217.93 281.62 219.02 281.56 219.05C277.97 222.71 274.81 226.96 273.63 228.63L272.86 229.7C271.29 231.86 269.16 234.82 267.25 237.62C265.06 240.84 264.24 245.39 264.33 245.79C264.36 245.87 264.38 245.94 264.48 245.98C265.65 246.51 266.77 246.6 267.74 246.26L267.76 246.27Z" fill="#29256A"/>
<path d="M284.1 219.33C282.81 223.58 273.91 240.67 269.02 245.19C268.6 245.59 268.16 245.86 267.7 246.02C266.7 246.37 265.65 246.21 264.63 245.75C264.56 245.49 265.33 240.98 267.51 237.78C269.77 234.5 272.32 230.97 273.88 228.79C275.44 226.61 278.45 222.65 281.78 219.25C281.78 219.25 282.89 218.17 283.63 217.9C284.17 217.71 284.48 217.94 284.08 219.32L284.1 219.33ZM283.49 217.45H283.51C282.72 217.72 281.66 218.69 281.45 218.89C277.85 222.58 274.67 226.84 273.49 228.51L272.75 229.54C271.18 231.71 269.04 234.68 267.12 237.5C264.88 240.77 264.08 245.43 264.16 245.85C264.19 246.01 264.3 246.14 264.46 246.22C265.71 246.78 266.86 246.87 267.9 246.51C268.44 246.32 268.93 245.99 269.4 245.57C274.39 240.94 283.31 223.78 284.61 219.47C284.81 218.8 284.98 217.99 284.52 217.56C284.34 217.41 284.02 217.24 283.48 217.42V217.45H283.49Z" fill="#29256A"/>
<path d="M78.3303 61.9902L86.7803 86.1702L87.0703 92.0502C87.0703 92.0502 77.2203 80.0802 60.2103 90.4802L51.8003 62.5002L72.6103 58.4702L78.3403 61.9902H78.3203H78.3303Z" fill="#BACFD6" stroke="#29256A" stroke-width="0.75" stroke-linecap="round" stroke-linejoin="round"/>
<path d="M71.7003 102.08L71.4503 109.17C71.4503 109.17 72.6503 112.79 67.2403 112.71C61.8303 112.64 48.7603 105.06 48.7603 105.06L51.0503 91.46L71.3503 97.61L71.7003 102.07V102.08Z" fill="#E8B5A7" stroke="#29256A" stroke-width="0.75" stroke-linecap="round" stroke-linejoin="round"/>
<path d="M57.71 97.9299L58.98 93.8599L71.35 97.5899L71.7 102.05L71.45 109.14C71.45 109.14 71.63 109.66 71.54 110.32C60.55 111.34 57.72 97.8999 57.72 97.8999V97.9299H57.71Z" fill="#E8B5A7" stroke="#29256A" stroke-width="0.75" stroke-linecap="round" stroke-linejoin="round"/>
<path d="M77.25 74.0399C77.25 74.0399 80.39 81.5499 81.08 84.9899C81.77 88.4399 81.51 93.9099 81.98 95.5099C82.47 97.0899 82.86 99.5699 81.59 100.68C80.32 101.78 74.29 103.93 68.95 102.84C63.62 101.76 58.11 98.9399 56.38 97.4399C54.65 95.9499 48.96 92.1799 46.77 88.6299C44.59 85.0899 42.07 76.6499 46.29 72.8399C50.5 69.0499 60.9 64.3799 68.01 67.5799C75.11 70.7799 75.74 72.4499 77.27 74.0399H77.25Z" fill="#FFD8CC" stroke="#29256A" stroke-width="0.75" stroke-linecap="round" stroke-linejoin="round"/>
<path d="M84.6301 95.9599C84.6301 95.9599 84.7401 95.8899 84.7601 95.8299C84.7601 95.8299 84.7601 95.7899 84.7801 95.7799C84.8201 95.6399 84.7401 95.4899 84.6001 95.4599C84.5501 95.4399 84.4801 95.4299 84.4201 95.4599C84.3601 95.4899 84.2901 95.5299 84.2701 95.5999C84.2301 95.7299 84.2901 95.9199 84.4201 95.9599C84.4901 95.9799 84.5501 95.9699 84.6101 95.9599V95.9899L84.6301 95.9599Z" fill="#C4CBEB"/>
<path d="M84.5201 95.7102V95.6702C84.5101 95.7002 84.5201 95.7102 84.5201 95.7102ZM84.0301 95.5402C83.9301 95.8202 84.0701 96.0802 84.3201 96.1902C84.4401 96.2302 84.5501 96.2402 84.6701 96.1902C84.8001 96.1402 84.9201 96.0502 84.9801 95.9002C84.9901 95.8702 85.0101 95.7902 85.0101 95.7902C85.0901 95.5302 84.9401 95.2902 84.6801 95.2102C84.5701 95.1502 84.4701 95.1702 84.3801 95.2102C84.2301 95.2602 84.1001 95.3902 84.0401 95.5402H84.0301Z" fill="#29256A"/>
<path d="M64.87 79.1C64.87 79.1 74.08 76.68 75.93 75.56C79.22 73.58 79.46 68.91 77.51 65.06C75.56 61.2 70.06 57.87 67.39 57.23C64.71 56.57 57.15 55.77 52.58 57.54C48.01 59.31 41.53 64.14 39.66 68.63C37.67 73.4 37.97 76.49 38.87 80.59C39.77 84.72 44.84 92.5 46.3 93.41C47.76 94.32 55.64 96.85 55.64 96.85L60.25 97.35C60.25 97.35 57.37 90.97 56.58 87.97C55.81 84.97 64.03 85.07 64.85 79.11H64.87V79.1Z" fill="#29256A"/>
<path d="M57.0199 97.9299C57.0199 97.9299 54.1899 91.9899 50.2499 90.7699C47.8199 90.0299 47.7099 91.6999 47.6499 92.2599C47.5899 92.8199 48.2999 96.2599 51.4499 97.1499C54.6199 98.0799 57.0299 97.8899 57.0299 97.8899V97.9199L57.0199 97.9299Z" fill="#E8B5A7" stroke="#29256A" stroke-width="0.75" stroke-linecap="round" stroke-linejoin="round"/>
<path d="M45.8101 104.58L48.9501 111.58C48.9501 111.58 60.0101 117.83 72.8401 113.14C95.9301 104.65 89.6101 92.0702 88.3901 86.7202L87.3601 90.1802L85.2701 95.4802L81.9801 99.9902L76.1101 103.91L67.1101 107.37L45.8301 104.58H45.8101Z" fill="url(#paint17_linear_3595_8275)" stroke="#29256A" stroke-width="0.75" stroke-linecap="round" stroke-linejoin="round"/>
<path d="M48.7001 112.23C48.8001 112.01 48.5601 110.73 48.5601 110.73C48.6701 110.8 59.9901 116.94 72.1901 112.67L72.5901 112.53C90.8501 105.83 89.9801 96.6801 89.1301 89.5601C89.4001 89.9801 89.8701 90.8101 90.2801 91.4901C91.6301 97.8801 91.2001 107.1 73.0501 113.77L72.6101 113.92C60.3101 118.22 49.8601 112.85 48.6901 112.22L48.7001 112.23Z" fill="url(#paint18_linear_3595_8275)" stroke="#29256A" stroke-width="0.38" stroke-linecap="round" stroke-linejoin="round"/>
<path d="M43.3504 93.8001L45.7904 104.59C45.7904 104.59 53.2403 111.35 67.6003 107.8C81.9703 104.24 88.8704 94.3101 88.3604 86.7301L80.7304 64.9101C79.8204 62.3101 78.1004 60.0501 75.7604 58.5801C71.0704 55.6401 61.7004 50.6401 48.3604 56.3901C22.9004 67.3301 43.3504 93.8001 43.3504 93.8001ZM55.8104 102.21C55.8104 102.21 50.8804 89.7001 50.8104 85.8901C50.7504 82.0701 58.1803 69.5801 68.1003 64.1601C76.9103 59.3601 79.5504 68.2101 79.5504 68.2101L85.9304 86.2101C85.9304 86.2101 90.2504 98.5601 71.9804 104.95C59.4104 109.34 55.7704 102.19 55.7704 102.19L55.8004 102.21H55.8104Z" fill="url(#paint19_linear_3595_8275)" stroke="#29256A" stroke-width="0.75" stroke-linecap="round" stroke-linejoin="round"/>
<path d="M48.36 56.3898C50.23 55.5798 52.01 54.9998 53.74 54.5898C16.9 68.9498 47.83 96.8098 47.83 96.8098L52.58 108.54C48.27 107.29 45.79 104.58 45.79 104.58L41.36 93.7498C41.36 93.7498 22.9 67.3198 48.36 56.3798V56.3898Z" fill="#BACFD6"/>
<path d="M167.06 230.02L107.24 218.63L106.27 215.86L166.07 227.19L167.05 230.01L167.06 230.02Z" fill="#29256A" stroke="#29256A" stroke-width="0.75" stroke-linecap="round" stroke-linejoin="round"/>
<path d="M229.03 158.07L167.06 230.02L166.08 227.2L228.04 155.23L229.03 158.07Z" fill="#3F15AB" stroke="#29256A" stroke-width="0.75" stroke-linecap="round" stroke-linejoin="round"/>
<path d="M166.07 227.2L106.27 215.87L168.23 143.9L228.03 155.23L166.07 227.2Z" fill="url(#paint20_linear_3595_8275)" stroke="#29256A" stroke-width="0.75" stroke-linecap="round" stroke-linejoin="round"/>
<path d="M137.68 210.3C137.47 210.37 137.24 210.38 137.07 210.36L133.47 209.68C133.33 209.64 133.24 209.59 133.22 209.51C133.2 209.43 133.22 209.31 133.31 209.22L137.62 204.2C137.74 204.06 137.92 203.95 138.13 203.88C138.34 203.81 138.57 203.78 138.73 203.81L142.33 204.49C142.47 204.53 142.56 204.58 142.58 204.66C142.6 204.74 142.58 204.86 142.49 204.96L138.17 209.97C138.05 210.13 137.87 210.23 137.66 210.3H137.68ZM131.27 209.15C131.06 209.22 130.83 209.25 130.67 209.22L127.07 208.54C126.92 208.49 126.84 208.44 126.81 208.36C126.78 208.28 126.81 208.17 126.9 208.07L129.75 204.77C129.87 204.63 130.05 204.52 130.26 204.45C130.47 204.38 130.7 204.35 130.86 204.38L134.46 205.06C134.61 205.11 134.69 205.16 134.72 205.24C134.75 205.32 134.72 205.42 134.63 205.53L131.78 208.83C131.66 208.97 131.48 209.08 131.27 209.15ZM143.76 203.23C143.55 203.3 143.32 203.33 143.16 203.3L139.56 202.62C139.42 202.58 139.33 202.53 139.3 202.44C139.27 202.36 139.3 202.25 139.39 202.15L142.24 198.85C142.36 198.71 142.54 198.6 142.75 198.53C142.96 198.46 143.19 198.43 143.35 198.46L146.95 199.15C147.09 199.19 147.18 199.24 147.2 199.32C147.22 199.4 147.2 199.51 147.11 199.61L144.26 202.91C144.14 203.05 143.96 203.16 143.75 203.23H143.76ZM125.13 207.89C124.92 207.96 124.69 207.99 124.53 207.96L120.93 207.28C120.78 207.23 120.7 207.18 120.67 207.1C120.64 207.02 120.67 206.92 120.76 206.81L125.08 201.8C125.2 201.64 125.38 201.54 125.59 201.47C125.8 201.4 126.03 201.39 126.2 201.41L129.8 202.09C129.94 202.13 130.03 202.18 130.05 202.26C130.07 202.34 130.05 202.46 129.96 202.55L125.64 207.58C125.52 207.72 125.34 207.83 125.13 207.9V207.89ZM135.87 203.82C135.66 203.89 135.43 203.9 135.26 203.88L131.66 203.2C131.52 203.16 131.43 203.11 131.41 203.03C131.39 202.95 131.41 202.83 131.5 202.74L134.35 199.44C134.47 199.29 134.65 199.18 134.86 199.11C135.07 199.04 135.3 199.03 135.46 199.06L139.06 199.74C139.2 199.78 139.29 199.83 139.31 199.91C139.33 199.99 139.31 200.11 139.22 200.2L136.37 203.5C136.25 203.66 136.07 203.76 135.86 203.83L135.87 203.82ZM148.36 197.9C148.15 197.97 147.92 197.98 147.76 197.95L144.16 197.27C144.02 197.23 143.93 197.18 143.91 197.1C143.89 197.02 143.91 196.9 144 196.81L146.85 193.51C146.97 193.35 147.15 193.25 147.36 193.18C147.57 193.11 147.8 193.1 147.97 193.12L151.57 193.8C151.71 193.84 151.8 193.89 151.82 193.97C151.84 194.05 151.82 194.17 151.73 194.26L148.88 197.56C148.76 197.72 148.58 197.82 148.37 197.89L148.36 197.9ZM140.47 198.48C140.26 198.55 140.03 198.56 139.86 198.54L136.26 197.86C136.12 197.82 136.03 197.77 136.01 197.69C135.99 197.61 136.01 197.49 136.1 197.4L138.95 194.1C139.07 193.94 139.25 193.84 139.46 193.77C139.67 193.7 139.9 193.69 140.06 193.72L143.66 194.4C143.8 194.44 143.89 194.49 143.91 194.57C143.93 194.65 143.91 194.77 143.82 194.86L140.97 198.16C140.85 198.32 140.67 198.42 140.46 198.49L140.47 198.48ZM131.2 200.84C130.99 200.91 130.76 200.92 130.6 200.89L127 200.21C126.86 200.17 126.77 200.12 126.75 200.04C126.73 199.96 126.75 199.84 126.84 199.75L129.69 196.45C129.81 196.3 129.99 196.19 130.2 196.12C130.41 196.05 130.64 196.04 130.81 196.06L134.41 196.74C134.55 196.78 134.64 196.83 134.66 196.91C134.68 196.99 134.66 197.11 134.57 197.2L131.72 200.5C131.6 200.66 131.42 200.76 131.21 200.83L131.2 200.84ZM152.93 192.54C152.72 192.61 152.49 192.64 152.33 192.61L148.73 191.93C148.59 191.89 148.5 191.84 148.48 191.76C148.46 191.68 148.48 191.56 148.57 191.46L151.43 188.17C151.55 188.01 151.73 187.91 151.94 187.84C152.15 187.77 152.38 187.74 152.55 187.78L156.15 188.46C156.29 188.5 156.38 188.55 156.4 188.63C156.42 188.71 156.4 188.82 156.31 188.92L153.46 192.22C153.34 192.36 153.16 192.47 152.95 192.54H152.93ZM145.04 193.13C144.83 193.2 144.6 193.21 144.43 193.19L140.83 192.51C140.69 192.47 140.6 192.42 140.58 192.34C140.56 192.26 140.58 192.14 140.67 192.05L143.52 188.75C143.64 188.6 143.82 188.49 144.03 188.42C144.24 188.35 144.47 188.34 144.63 188.37L148.23 189.05C148.37 189.09 148.46 189.14 148.48 189.22C148.5 189.3 148.48 189.42 148.39 189.51L145.54 192.81C145.42 192.97 145.24 193.07 145.03 193.14L145.04 193.13ZM135.77 195.49C135.56 195.56 135.33 195.57 135.17 195.54L131.57 194.86C131.43 194.82 131.34 194.77 131.32 194.69C131.3 194.61 131.32 194.49 131.41 194.4L134.26 191.1C134.38 190.94 134.56 190.84 134.77 190.77C134.98 190.7 135.21 190.69 135.38 190.71L138.98 191.39C139.12 191.43 139.21 191.48 139.23 191.56C139.25 191.64 139.23 191.76 139.14 191.85L136.29 195.15C136.17 195.31 135.99 195.41 135.78 195.48L135.77 195.49ZM157.5 187.19C157.29 187.26 157.06 187.29 156.9 187.26L153.3 186.57C153.16 186.53 153.07 186.48 153.05 186.4C153.03 186.32 153.05 186.22 153.14 186.11L155.99 182.81C156.11 182.67 156.29 182.56 156.5 182.49C156.71 182.42 156.94 182.39 157.1 182.42L160.7 183.1C160.85 183.15 160.93 183.2 160.96 183.28C160.99 183.36 160.96 183.47 160.87 183.57L158.02 186.87C157.9 187.01 157.72 187.12 157.51 187.19H157.5ZM149.61 187.77C149.4 187.84 149.17 187.87 149.01 187.84L145.41 187.16C145.27 187.12 145.18 187.07 145.16 186.99C145.14 186.91 145.16 186.79 145.25 186.69L148.11 183.4C148.23 183.24 148.41 183.14 148.62 183.07C148.83 183 149.06 182.99 149.23 183.01L152.83 183.69C152.97 183.73 153.06 183.78 153.08 183.86C153.1 183.94 153.08 184.04 152.99 184.15L150.14 187.45C150.02 187.59 149.84 187.7 149.63 187.77H149.61ZM140.34 190.13C140.13 190.2 139.9 190.23 139.74 190.2L136.14 189.52C136 189.48 135.91 189.43 135.89 189.35C135.86 189.26 135.89 189.15 135.98 189.05L138.83 185.76C138.95 185.61 139.13 185.5 139.34 185.43C139.55 185.36 139.78 185.33 139.95 185.37L143.55 186.05C143.69 186.09 143.78 186.14 143.8 186.22C143.82 186.3 143.8 186.41 143.71 186.51L140.86 189.81C140.74 189.95 140.56 190.06 140.35 190.13H140.34ZM162.08 181.85C161.87 181.92 161.64 181.93 161.48 181.9L157.88 181.22C157.74 181.18 157.65 181.13 157.63 181.05C157.61 180.97 157.63 180.87 157.72 180.76L160.57 177.46C160.69 177.32 160.87 177.21 161.08 177.14C161.29 177.07 161.52 177.04 161.68 177.07L165.28 177.75C165.42 177.79 165.51 177.84 165.53 177.92C165.55 178 165.53 178.12 165.44 178.22L162.59 181.51C162.47 181.67 162.29 181.77 162.08 181.84V181.85ZM154.19 182.43C153.98 182.5 153.75 182.53 153.59 182.5L149.99 181.82C149.84 181.77 149.76 181.72 149.73 181.64C149.7 181.56 149.73 181.46 149.82 181.35L152.67 178.05C152.79 177.91 152.97 177.8 153.18 177.73C153.39 177.66 153.62 177.63 153.78 177.66L157.38 178.34C157.53 178.39 157.61 178.44 157.64 178.52C157.67 178.6 157.64 178.71 157.55 178.81L154.7 182.11C154.58 182.25 154.4 182.36 154.19 182.43ZM144.92 184.79C144.71 184.86 144.48 184.89 144.32 184.86L140.72 184.17C140.58 184.13 140.49 184.08 140.47 184C140.45 183.92 140.47 183.81 140.56 183.71L143.41 180.41C143.53 180.27 143.71 180.16 143.92 180.09C144.13 180.02 144.36 179.99 144.52 180.02L148.12 180.7C148.27 180.75 148.35 180.8 148.38 180.88C148.41 180.96 148.38 181.06 148.29 181.17L145.44 184.47C145.32 184.61 145.14 184.72 144.93 184.79H144.92ZM166.66 176.51C166.45 176.58 166.22 176.59 166.05 176.57L162.45 175.89C162.31 175.85 162.22 175.8 162.2 175.72C162.18 175.64 162.2 175.52 162.29 175.43L165.14 172.13C165.26 171.97 165.44 171.87 165.65 171.8C165.86 171.73 166.09 171.72 166.26 171.74L169.86 172.42C170 172.46 170.09 172.51 170.11 172.59C170.13 172.67 170.11 172.79 170.02 172.88L167.17 176.18C167.05 176.34 166.87 176.44 166.66 176.51ZM158.77 177.09C158.56 177.16 158.33 177.17 158.17 177.14L154.57 176.46C154.43 176.42 154.34 176.37 154.32 176.29C154.3 176.21 154.32 176.1 154.41 176L157.26 172.7C157.38 172.56 157.56 172.45 157.77 172.38C157.98 172.31 158.21 172.28 158.37 172.31L161.97 172.99C162.11 173.03 162.2 173.08 162.22 173.16C162.24 173.24 162.22 173.36 162.13 173.46L159.27 176.75C159.15 176.91 158.97 177.01 158.76 177.08L158.77 177.09ZM149.5 179.45C149.29 179.52 149.06 179.53 148.89 179.51L145.29 178.83C145.15 178.79 145.06 178.74 145.04 178.66C145.02 178.58 145.04 178.47 145.13 178.37L147.98 175.07C148.1 174.93 148.28 174.82 148.49 174.75C148.7 174.68 148.93 174.65 149.09 174.68L152.69 175.36C152.83 175.4 152.92 175.45 152.94 175.53C152.96 175.61 152.94 175.73 152.85 175.83L150 179.12C149.88 179.28 149.7 179.38 149.49 179.45H149.5ZM171.24 171.17C171.03 171.24 170.8 171.25 170.63 171.23L167.03 170.55C166.89 170.51 166.8 170.46 166.78 170.38C166.76 170.3 166.78 170.18 166.87 170.09L169.72 166.79C169.84 166.64 170.02 166.53 170.23 166.46C170.44 166.39 170.67 166.38 170.84 166.4L174.44 167.08C174.58 167.12 174.67 167.17 174.69 167.25C174.71 167.33 174.69 167.45 174.6 167.54L171.75 170.84C171.63 171 171.45 171.1 171.24 171.17ZM163.35 171.75C163.14 171.82 162.91 171.83 162.75 171.8L159.15 171.12C159.01 171.08 158.92 171.03 158.9 170.95C158.88 170.87 158.9 170.75 158.99 170.66L161.84 167.36C161.96 167.21 162.14 167.1 162.35 167.03C162.56 166.96 162.79 166.95 162.96 166.97L166.56 167.65C166.7 167.69 166.79 167.74 166.81 167.82C166.83 167.9 166.81 168.02 166.72 168.11L163.87 171.41C163.75 171.57 163.57 171.67 163.36 171.74L163.35 171.75ZM154.08 174.11C153.87 174.18 153.64 174.19 153.47 174.17L149.87 173.49C149.73 173.45 149.64 173.4 149.62 173.32C149.6 173.24 149.62 173.12 149.71 173.03L152.56 169.73C152.68 169.57 152.86 169.47 153.07 169.4C153.28 169.33 153.51 169.32 153.67 169.35L157.27 170.03C157.41 170.07 157.5 170.12 157.52 170.2C157.54 170.28 157.52 170.4 157.43 170.49L154.58 173.79C154.46 173.95 154.28 174.05 154.07 174.12L154.08 174.11ZM175.81 165.81C175.6 165.88 175.37 165.91 175.21 165.88L171.61 165.2C171.47 165.16 171.38 165.11 171.36 165.03C171.33 164.94 171.36 164.83 171.45 164.73L174.31 161.44C174.43 161.28 174.61 161.18 174.82 161.11C175.03 161.04 175.26 161.01 175.42 161.06L179.02 161.74C179.16 161.78 179.25 161.83 179.27 161.91C179.29 161.99 179.27 162.09 179.18 162.2L176.33 165.5C176.21 165.64 176.03 165.75 175.82 165.82L175.81 165.81ZM167.92 166.4C167.71 166.47 167.48 166.48 167.32 166.45L163.72 165.77C163.58 165.73 163.49 165.68 163.47 165.6C163.45 165.52 163.47 165.4 163.56 165.31L166.41 162.01C166.53 161.85 166.71 161.75 166.92 161.68C167.13 161.61 167.36 161.6 167.53 161.62L171.13 162.3C171.27 162.34 171.36 162.39 171.38 162.47C171.4 162.55 171.38 162.67 171.29 162.76L168.44 166.06C168.32 166.21 168.14 166.32 167.93 166.39L167.92 166.4ZM158.65 168.76C158.44 168.83 158.21 168.84 158.04 168.82L154.44 168.14C154.3 168.1 154.21 168.05 154.19 167.97C154.17 167.89 154.19 167.77 154.28 167.68L157.13 164.38C157.25 164.23 157.43 164.12 157.64 164.05C157.85 163.98 158.08 163.97 158.24 164L161.84 164.68C161.98 164.72 162.07 164.77 162.09 164.85C162.11 164.93 162.09 165.05 162 165.14L159.15 168.44C159.03 168.6 158.85 168.7 158.64 168.77L158.65 168.76ZM180.38 160.46C180.17 160.53 179.94 160.56 179.78 160.53L176.18 159.84C176.04 159.8 175.95 159.75 175.93 159.67C175.91 159.59 175.93 159.48 176.02 159.38L178.87 156.08C178.99 155.94 179.17 155.83 179.38 155.76C179.59 155.69 179.82 155.66 179.98 155.69L183.58 156.37C183.72 156.41 183.81 156.47 183.84 156.55C183.87 156.63 183.84 156.74 183.75 156.84L180.9 160.14C180.78 160.28 180.6 160.39 180.39 160.46H180.38ZM172.49 161.04C172.28 161.11 172.05 161.14 171.89 161.11L168.29 160.43C168.15 160.39 168.06 160.34 168.04 160.26C168.01 160.17 168.04 160.06 168.13 159.96L172.45 154.95C172.57 154.79 172.75 154.69 172.96 154.62C173.17 154.55 173.4 154.54 173.57 154.56L177.17 155.24C177.31 155.28 177.4 155.33 177.42 155.41C177.44 155.49 177.42 155.61 177.33 155.7L173.01 160.73C172.89 160.87 172.71 160.98 172.5 161.05L172.49 161.04ZM163.22 163.4C163.01 163.47 162.78 163.5 162.62 163.47L159.02 162.79C158.88 162.75 158.79 162.7 158.77 162.62C158.74 162.53 158.77 162.42 158.86 162.32L161.72 159.03C161.84 158.87 162.02 158.77 162.23 158.7C162.44 158.63 162.67 158.6 162.83 158.65L166.43 159.33C166.57 159.37 166.66 159.42 166.68 159.5C166.7 159.58 166.68 159.68 166.59 159.79L163.74 163.09C163.62 163.23 163.44 163.34 163.23 163.41L163.22 163.4ZM167.82 158.08C167.61 158.15 167.38 158.16 167.21 158.14L163.61 157.46C163.47 157.42 163.38 157.37 163.36 157.29C163.34 157.21 163.36 157.09 163.45 157L166.3 153.7C166.42 153.55 166.6 153.44 166.81 153.37C167.02 153.3 167.25 153.29 167.41 153.32L171.01 154C171.15 154.04 171.24 154.09 171.26 154.17C171.28 154.25 171.26 154.37 171.17 154.46L168.32 157.76C168.2 157.92 168.02 158.02 167.81 158.09L167.82 158.08Z" fill="#29256A"/>
<path d="M150.51 212.8C150.3 212.87 150.07 212.9 149.91 212.87L146.31 212.19C146.17 212.15 146.08 212.09 146.05 212.01C146.02 211.93 146.05 211.83 146.14 211.72L148.99 208.42C149.11 208.28 149.29 208.17 149.5 208.1C149.71 208.03 149.94 208 150.1 208.03L153.7 208.72C153.84 208.76 153.93 208.81 153.95 208.89C153.97 208.97 153.95 209.08 153.86 209.18L151.01 212.48C150.89 212.62 150.71 212.73 150.5 212.8H150.51ZM144.35 211.55C144.14 211.62 143.91 211.65 143.75 211.62L140.15 210.94C140.01 210.9 139.92 210.84 139.89 210.76C139.86 210.68 139.89 210.58 139.98 210.47L144.3 205.46C144.42 205.3 144.6 205.2 144.81 205.13C145.02 205.06 145.25 205.05 145.42 205.07L149.02 205.75C149.16 205.79 149.25 205.84 149.27 205.92C149.29 206 149.27 206.12 149.18 206.21L144.86 211.24C144.74 211.38 144.56 211.49 144.35 211.56V211.55ZM155.09 207.48C154.88 207.55 154.65 207.56 154.48 207.54L150.88 206.86C150.74 206.82 150.65 206.77 150.63 206.69C150.61 206.61 150.63 206.49 150.72 206.4L153.57 203.1C153.69 202.94 153.87 202.84 154.08 202.77C154.29 202.7 154.52 202.69 154.69 202.71L158.29 203.39C158.43 203.43 158.52 203.48 158.54 203.56C158.56 203.64 158.54 203.76 158.45 203.85L155.6 207.15C155.48 207.3 155.3 207.41 155.09 207.48ZM159.68 202.14C159.47 202.21 159.24 202.22 159.07 202.2L155.47 201.52C155.33 201.48 155.24 201.43 155.22 201.35C155.2 201.27 155.22 201.15 155.31 201.06L158.16 197.76C158.28 197.6 158.46 197.5 158.67 197.43C158.88 197.36 159.11 197.35 159.28 197.37L162.88 198.05C163.02 198.09 163.11 198.14 163.13 198.22C163.15 198.3 163.13 198.42 163.04 198.51L160.19 201.81C160.07 201.97 159.89 202.07 159.68 202.14ZM150.41 204.5C150.2 204.57 149.97 204.58 149.8 204.56L146.2 203.88C146.06 203.84 145.97 203.79 145.95 203.71C145.93 203.63 145.95 203.51 146.04 203.42L148.89 200.12C149.01 199.96 149.19 199.86 149.4 199.79C149.61 199.72 149.84 199.71 150 199.74L153.6 200.42C153.74 200.46 153.83 200.51 153.85 200.59C153.87 200.67 153.85 200.79 153.76 200.88L150.91 204.18C150.79 204.33 150.61 204.44 150.4 204.51L150.41 204.5ZM164.28 196.8C164.07 196.87 163.84 196.9 163.68 196.87L160.08 196.19C159.93 196.14 159.85 196.09 159.82 196.01C159.79 195.93 159.82 195.82 159.91 195.72L162.76 192.42C162.88 192.28 163.06 192.17 163.27 192.1C163.48 192.03 163.71 192 163.87 192.03L167.47 192.72C167.61 192.76 167.7 192.81 167.72 192.89C167.74 192.97 167.72 193.08 167.63 193.18L164.78 196.48C164.66 196.62 164.48 196.73 164.27 196.8H164.28ZM155.01 199.16C154.8 199.23 154.57 199.26 154.41 199.23L150.81 198.55C150.66 198.5 150.58 198.45 150.55 198.37C150.52 198.29 150.55 198.18 150.64 198.08L153.49 194.78C153.61 194.64 153.79 194.53 154 194.46C154.21 194.39 154.44 194.36 154.6 194.39L158.2 195.07C158.35 195.12 158.43 195.17 158.46 195.25C158.49 195.33 158.46 195.44 158.37 195.54L155.52 198.84C155.4 198.98 155.22 199.09 155.01 199.16ZM168.88 191.48C168.67 191.55 168.44 191.56 168.28 191.53L164.68 190.85C164.54 190.81 164.45 190.76 164.43 190.68C164.41 190.6 164.43 190.48 164.52 190.39L167.37 187.09C167.49 186.94 167.67 186.83 167.88 186.76C168.09 186.69 168.32 186.68 168.49 186.7L172.09 187.38C172.23 187.42 172.32 187.47 172.34 187.55C172.36 187.63 172.34 187.75 172.25 187.84L169.4 191.14C169.28 191.3 169.1 191.4 168.89 191.47L168.88 191.48ZM159.61 193.84C159.4 193.91 159.17 193.92 159 193.9L155.4 193.22C155.26 193.18 155.17 193.13 155.15 193.05C155.13 192.97 155.15 192.85 155.24 192.76L158.09 189.46C158.21 189.3 158.39 189.2 158.6 189.13C158.81 189.06 159.04 189.05 159.2 189.08L162.8 189.76C162.94 189.8 163.03 189.85 163.05 189.93C163.07 190.01 163.05 190.13 162.96 190.22L160.11 193.52C159.99 193.67 159.81 193.78 159.6 193.85L159.61 193.84ZM173.48 186.14C173.27 186.21 173.04 186.22 172.88 186.19L169.28 185.51C169.14 185.47 169.05 185.42 169.03 185.34C169.01 185.26 169.03 185.14 169.12 185.05L171.97 181.75C172.09 181.59 172.27 181.49 172.48 181.42C172.69 181.35 172.92 181.34 173.09 181.36L176.69 182.04C176.83 182.08 176.92 182.13 176.94 182.21C176.96 182.29 176.94 182.41 176.85 182.5L174 185.8C173.88 185.95 173.7 186.06 173.49 186.13L173.48 186.14ZM164.21 188.5C164 188.57 163.77 188.58 163.6 188.56L160 187.88C159.86 187.84 159.77 187.79 159.75 187.71C159.73 187.63 159.75 187.51 159.84 187.42L162.69 184.12C162.81 183.97 162.99 183.86 163.2 183.79C163.41 183.72 163.64 183.71 163.8 183.74L167.4 184.42C167.54 184.46 167.63 184.51 167.65 184.59C167.67 184.67 167.65 184.79 167.56 184.88L164.71 188.18C164.59 188.34 164.41 188.44 164.2 188.51L164.21 188.5ZM178.08 180.8C177.87 180.87 177.64 180.9 177.48 180.87L173.88 180.18C173.74 180.14 173.65 180.09 173.63 180.01C173.61 179.93 173.63 179.83 173.72 179.72L176.57 176.42C176.69 176.28 176.87 176.17 177.08 176.1C177.29 176.03 177.52 176 177.68 176.03L181.28 176.71C181.42 176.75 181.51 176.81 181.54 176.89C181.57 176.97 181.54 177.08 181.45 177.18L178.6 180.48C178.48 180.62 178.3 180.73 178.09 180.8H178.08ZM168.81 183.16C168.6 183.23 168.37 183.26 168.21 183.23L164.61 182.54C164.47 182.5 164.38 182.45 164.36 182.37C164.34 182.29 164.36 182.18 164.45 182.08L167.3 178.78C167.42 178.64 167.6 178.53 167.81 178.46C168.02 178.39 168.25 178.36 168.41 178.39L172.01 179.07C172.15 179.11 172.24 179.17 172.27 179.25C172.3 179.33 172.27 179.43 172.18 179.54L169.33 182.84C169.21 182.98 169.03 183.09 168.82 183.16H168.81ZM182.66 175.47C182.45 175.54 182.22 175.57 182.06 175.54L178.46 174.86C178.32 174.82 178.23 174.77 178.21 174.69C178.19 174.61 178.21 174.49 178.3 174.39L181.15 171.1C181.27 170.94 181.45 170.84 181.66 170.77C181.87 170.7 182.1 170.69 182.27 170.71L185.87 171.39C186.01 171.43 186.1 171.48 186.12 171.56C186.14 171.64 186.12 171.75 186.03 171.85L183.18 175.15C183.06 175.29 182.88 175.4 182.67 175.47H182.66ZM173.39 177.83C173.18 177.9 172.95 177.93 172.79 177.9L169.19 177.22C169.05 177.18 168.96 177.13 168.94 177.05C168.92 176.97 168.94 176.85 169.03 176.75L171.89 173.46C172.01 173.31 172.19 173.2 172.4 173.13C172.61 173.06 172.84 173.05 173 173.08L176.6 173.76C176.74 173.8 176.83 173.85 176.85 173.93C176.87 174.01 176.85 174.12 176.76 174.22L173.91 177.52C173.79 177.66 173.61 177.77 173.4 177.84L173.39 177.83ZM187.26 170.15C187.05 170.22 186.82 170.23 186.66 170.2L183.06 169.52C182.92 169.48 182.83 169.43 182.81 169.35C182.79 169.27 182.81 169.15 182.9 169.06L185.75 165.76C185.87 165.61 186.05 165.5 186.26 165.43C186.47 165.36 186.7 165.35 186.87 165.37L190.47 166.05C190.61 166.09 190.7 166.14 190.72 166.22C190.74 166.3 190.72 166.42 190.63 166.51L187.78 169.81C187.66 169.97 187.48 170.07 187.27 170.14L187.26 170.15ZM177.99 172.51C177.78 172.58 177.55 172.59 177.38 172.57L173.78 171.89C173.64 171.85 173.55 171.8 173.53 171.72C173.51 171.64 173.53 171.52 173.62 171.43L176.47 168.13C176.59 167.97 176.77 167.87 176.98 167.8C177.19 167.73 177.42 167.72 177.58 167.75L181.18 168.43C181.32 168.47 181.41 168.52 181.43 168.6C181.45 168.68 181.43 168.8 181.34 168.89L178.49 172.19C178.37 172.35 178.19 172.45 177.98 172.52L177.99 172.51ZM191.86 164.81C191.65 164.88 191.42 164.91 191.26 164.88L187.66 164.19C187.52 164.15 187.43 164.1 187.41 164.02C187.39 163.94 187.41 163.83 187.5 163.73L191.82 158.7C191.94 158.56 192.12 158.45 192.33 158.38C192.54 158.31 192.77 158.28 192.93 158.31L196.53 159C196.67 159.04 196.76 159.09 196.78 159.17C196.8 159.25 196.78 159.36 196.69 159.46L192.37 164.49C192.25 164.63 192.07 164.74 191.86 164.81ZM182.59 167.17C182.38 167.24 182.15 167.27 181.98 167.23L178.38 166.55C178.24 166.51 178.15 166.46 178.13 166.38C178.11 166.3 178.13 166.19 178.22 166.09L181.07 162.79C181.19 162.65 181.37 162.54 181.58 162.47C181.79 162.4 182.02 162.37 182.18 162.4L185.78 163.08C185.92 163.12 186.01 163.17 186.03 163.25C186.06 163.34 186.03 163.45 185.94 163.55L183.09 166.84C182.97 167 182.79 167.1 182.58 167.17H182.59ZM187.18 161.83C186.97 161.9 186.74 161.93 186.58 161.9L182.98 161.22C182.84 161.18 182.75 161.13 182.72 161.04C182.69 160.96 182.72 160.85 182.81 160.75L185.66 157.45C185.78 157.31 185.96 157.2 186.17 157.13C186.38 157.06 186.61 157.03 186.77 157.06L190.37 157.75C190.51 157.79 190.6 157.84 190.62 157.92C190.64 158 190.62 158.1 190.53 158.21L187.68 161.51C187.56 161.65 187.38 161.76 187.17 161.83H187.18Z" fill="#29256A"/>
<path d="M137.51 209.82C137.3 209.89 137.07 209.9 136.9 209.88L133.3 209.2C133.16 209.16 133.07 209.11 133.05 209.03C133.03 208.95 133.05 208.83 133.14 208.74L137.45 203.72C137.57 203.58 137.75 203.47 137.96 203.4C138.17 203.33 138.4 203.3 138.56 203.33L142.16 204.01C142.31 204.06 142.39 204.11 142.42 204.19C142.45 204.27 142.42 204.38 142.33 204.48L138.01 209.49C137.89 209.65 137.71 209.75 137.5 209.82H137.51ZM131.1 208.67C130.89 208.74 130.66 208.77 130.5 208.74L126.9 208.06C126.76 208.02 126.67 207.97 126.65 207.89C126.62 207.8 126.65 207.69 126.74 207.59L129.6 204.3C129.72 204.15 129.9 204.04 130.11 203.97C130.32 203.9 130.55 203.87 130.71 203.92L134.31 204.6C134.45 204.64 134.54 204.69 134.56 204.77C134.58 204.85 134.56 204.96 134.47 205.06L131.62 208.36C131.5 208.5 131.32 208.61 131.11 208.68L131.1 208.67ZM143.59 202.77C143.38 202.84 143.15 202.85 142.99 202.82L139.39 202.14C139.25 202.1 139.16 202.05 139.14 201.97C139.12 201.89 139.14 201.77 139.23 201.67L142.09 198.38C142.21 198.22 142.39 198.12 142.6 198.05C142.81 197.98 143.04 197.97 143.21 197.99L146.81 198.67C146.95 198.71 147.04 198.76 147.06 198.84C147.08 198.92 147.06 199.04 146.97 199.13L144.12 202.43C144 202.57 143.82 202.69 143.61 202.76L143.59 202.77ZM124.95 207.42C124.74 207.49 124.51 207.52 124.35 207.49L120.75 206.81C120.61 206.77 120.52 206.72 120.5 206.64C120.47 206.55 120.5 206.44 120.59 206.34L124.91 201.33C125.03 201.18 125.21 201.07 125.42 201C125.63 200.93 125.86 200.92 126.03 200.94L129.63 201.62C129.77 201.66 129.86 201.71 129.88 201.79C129.9 201.87 129.88 201.99 129.79 202.08L125.47 207.11C125.35 207.25 125.17 207.36 124.96 207.43L124.95 207.42ZM135.69 203.35C135.48 203.42 135.25 203.43 135.08 203.41L131.48 202.73C131.34 202.69 131.25 202.64 131.23 202.56C131.21 202.48 131.23 202.36 131.32 202.27L134.17 198.97C134.29 198.81 134.47 198.71 134.68 198.64C134.89 198.57 135.12 198.56 135.28 198.59L138.88 199.27C139.02 199.31 139.11 199.36 139.13 199.44C139.15 199.52 139.13 199.64 139.04 199.73L136.19 203.03C136.07 203.19 135.89 203.29 135.68 203.36L135.69 203.35ZM148.18 197.43C147.97 197.5 147.74 197.51 147.58 197.48L143.98 196.8C143.84 196.76 143.75 196.71 143.73 196.63C143.71 196.55 143.73 196.43 143.82 196.34L146.67 193.04C146.79 192.88 146.97 192.78 147.18 192.71C147.39 192.64 147.62 192.63 147.79 192.65L151.39 193.33C151.53 193.37 151.62 193.42 151.64 193.5C151.66 193.58 151.64 193.7 151.55 193.79L148.7 197.09C148.58 197.24 148.4 197.35 148.19 197.42L148.18 197.43ZM140.29 198.01C140.08 198.08 139.85 198.11 139.68 198.07L136.08 197.39C135.94 197.35 135.85 197.3 135.83 197.22C135.81 197.14 135.83 197.03 135.92 196.93L138.77 193.63C138.89 193.49 139.07 193.38 139.28 193.31C139.49 193.24 139.72 193.21 139.88 193.24L143.48 193.92C143.62 193.96 143.71 194.01 143.73 194.09C143.75 194.17 143.73 194.29 143.64 194.39L140.78 197.68C140.66 197.84 140.48 197.94 140.27 198.01H140.29ZM131.02 200.37C130.81 200.44 130.58 200.45 130.42 200.42L126.82 199.74C126.68 199.7 126.59 199.65 126.57 199.57C126.55 199.49 126.57 199.38 126.66 199.28L129.51 195.98C129.63 195.84 129.81 195.73 130.02 195.66C130.23 195.59 130.46 195.56 130.62 195.59L134.22 196.27C134.36 196.31 134.45 196.36 134.47 196.44C134.49 196.52 134.47 196.64 134.38 196.74L131.52 200.03C131.4 200.19 131.22 200.29 131.01 200.36L131.02 200.37ZM152.76 192.09C152.55 192.16 152.32 192.17 152.16 192.14L148.56 191.46C148.42 191.42 148.33 191.37 148.31 191.29C148.29 191.21 148.31 191.09 148.4 191L151.25 187.7C151.37 187.54 151.55 187.44 151.76 187.37C151.97 187.3 152.2 187.29 152.37 187.31L155.97 187.99C156.11 188.03 156.2 188.08 156.22 188.16C156.24 188.24 156.22 188.36 156.13 188.45L153.28 191.75C153.16 191.91 152.98 192.01 152.77 192.08L152.76 192.09ZM144.87 192.67C144.66 192.74 144.43 192.75 144.26 192.73L140.66 192.05C140.52 192.01 140.43 191.96 140.41 191.88C140.39 191.8 140.41 191.68 140.5 191.59L143.35 188.29C143.47 188.13 143.65 188.03 143.86 187.96C144.07 187.89 144.3 187.88 144.46 187.91L148.06 188.59C148.2 188.63 148.29 188.68 148.31 188.76C148.33 188.84 148.31 188.96 148.22 189.05L145.37 192.35C145.25 192.51 145.07 192.61 144.86 192.68L144.87 192.67ZM135.6 195.03C135.39 195.1 135.16 195.11 135 195.08L131.4 194.4C131.26 194.36 131.17 194.31 131.15 194.23C131.13 194.15 131.15 194.03 131.24 193.94L134.09 190.64C134.21 190.49 134.39 190.38 134.6 190.31C134.81 190.24 135.04 190.23 135.21 190.25L138.81 190.93C138.95 190.97 139.04 191.02 139.06 191.1C139.08 191.18 139.06 191.3 138.97 191.39L136.12 194.69C136 194.85 135.82 194.95 135.61 195.02L135.6 195.03ZM157.33 186.73C157.12 186.8 156.89 186.83 156.73 186.8L153.13 186.12C152.99 186.08 152.9 186.03 152.88 185.95C152.85 185.86 152.88 185.75 152.97 185.65L155.82 182.36C155.94 182.2 156.12 182.1 156.33 182.03C156.54 181.96 156.77 181.93 156.94 181.97L160.54 182.65C160.68 182.69 160.77 182.74 160.79 182.82C160.81 182.9 160.79 183.01 160.7 183.11L157.85 186.41C157.73 186.55 157.55 186.66 157.34 186.73H157.33ZM149.44 187.32C149.23 187.39 149 187.4 148.83 187.38L145.23 186.7C145.09 186.66 145 186.61 144.98 186.53C144.96 186.45 144.98 186.33 145.07 186.24L147.92 182.94C148.04 182.79 148.22 182.68 148.43 182.61C148.64 182.54 148.87 182.53 149.04 182.55L152.64 183.23C152.78 183.27 152.87 183.32 152.89 183.4C152.91 183.48 152.89 183.6 152.8 183.69L149.95 186.99C149.83 187.15 149.65 187.25 149.44 187.32ZM140.17 189.68C139.96 189.75 139.73 189.76 139.56 189.74L135.96 189.06C135.82 189.02 135.73 188.97 135.71 188.89C135.69 188.81 135.71 188.69 135.8 188.6L138.65 185.3C138.77 185.14 138.95 185.04 139.16 184.97C139.37 184.9 139.6 184.89 139.77 184.91L143.37 185.59C143.51 185.63 143.6 185.68 143.62 185.76C143.64 185.84 143.62 185.96 143.53 186.05L140.68 189.35C140.56 189.51 140.38 189.61 140.17 189.68ZM161.9 181.38C161.69 181.45 161.46 181.48 161.3 181.45L157.7 180.76C157.56 180.72 157.47 180.67 157.45 180.59C157.43 180.51 157.45 180.4 157.54 180.3L160.39 177C160.51 176.86 160.69 176.75 160.9 176.68C161.11 176.61 161.34 176.58 161.5 176.61L165.1 177.29C165.25 177.34 165.33 177.39 165.36 177.47C165.39 177.55 165.36 177.66 165.27 177.76L162.42 181.06C162.3 181.2 162.12 181.31 161.91 181.38H161.9ZM154.01 181.96C153.8 182.03 153.57 182.06 153.41 182.03L149.81 181.35C149.67 181.31 149.58 181.26 149.56 181.18C149.53 181.09 149.56 180.98 149.65 180.88L152.51 177.59C152.63 177.43 152.81 177.33 153.02 177.26C153.23 177.19 153.46 177.16 153.63 177.2L157.23 177.88C157.37 177.92 157.46 177.97 157.48 178.05C157.5 178.13 157.48 178.23 157.39 178.34L154.54 181.64C154.42 181.78 154.24 181.89 154.03 181.96H154.01ZM144.74 184.32C144.53 184.39 144.3 184.42 144.14 184.39L140.54 183.71C140.4 183.67 140.31 183.62 140.29 183.54C140.26 183.45 140.29 183.34 140.38 183.24L143.23 179.95C143.35 179.8 143.53 179.69 143.74 179.62C143.95 179.55 144.18 179.52 144.35 179.56L147.95 180.24C148.09 180.28 148.18 180.33 148.2 180.41C148.22 180.49 148.2 180.6 148.11 180.7L145.26 184C145.14 184.14 144.96 184.25 144.75 184.32H144.74ZM166.48 176.04C166.27 176.11 166.04 176.12 165.87 176.1L162.27 175.42C162.13 175.38 162.04 175.33 162.02 175.25C162 175.17 162.02 175.07 162.11 174.96L164.96 171.66C165.08 171.52 165.26 171.41 165.47 171.34C165.68 171.27 165.91 171.24 166.07 171.27L169.67 171.95C169.81 171.99 169.9 172.04 169.92 172.12C169.94 172.2 169.92 172.32 169.83 172.42L166.98 175.71C166.86 175.87 166.68 175.97 166.47 176.04H166.48ZM158.59 176.62C158.38 176.69 158.15 176.72 157.99 176.69L154.39 176C154.25 175.96 154.16 175.91 154.14 175.83C154.12 175.75 154.14 175.65 154.23 175.54L157.08 172.24C157.2 172.1 157.38 171.99 157.59 171.92C157.8 171.85 158.03 171.82 158.19 171.85L161.79 172.53C161.94 172.58 162.02 172.63 162.05 172.71C162.08 172.79 162.05 172.9 161.96 173L159.11 176.3C158.99 176.44 158.81 176.55 158.6 176.62H158.59ZM149.32 178.98C149.11 179.05 148.88 179.08 148.72 179.05L145.12 178.36C144.98 178.32 144.89 178.27 144.87 178.19C144.85 178.11 144.87 178 144.96 177.9L147.81 174.6C147.93 174.46 148.11 174.35 148.32 174.28C148.53 174.21 148.76 174.18 148.92 174.21L152.52 174.89C152.66 174.93 152.75 174.99 152.78 175.07C152.81 175.15 152.78 175.25 152.69 175.36L149.84 178.66C149.72 178.8 149.54 178.91 149.33 178.98H149.32ZM171.06 170.7C170.85 170.77 170.62 170.78 170.45 170.76L166.85 170.08C166.71 170.04 166.62 169.99 166.6 169.91C166.58 169.83 166.6 169.71 166.69 169.62L169.54 166.32C169.66 166.16 169.84 166.06 170.05 165.99C170.26 165.92 170.49 165.91 170.66 165.93L174.26 166.61C174.4 166.65 174.49 166.7 174.51 166.78C174.53 166.86 174.51 166.98 174.42 167.07L171.57 170.37C171.45 170.53 171.27 170.63 171.06 170.7ZM163.17 171.28C162.96 171.35 162.73 171.36 162.57 171.33L158.97 170.65C158.83 170.61 158.74 170.56 158.72 170.48C158.7 170.4 158.72 170.29 158.81 170.19L161.66 166.89C161.78 166.75 161.96 166.64 162.17 166.57C162.38 166.5 162.61 166.47 162.77 166.5L166.37 167.18C166.51 167.22 166.6 167.27 166.62 167.35C166.64 167.43 166.62 167.55 166.53 167.65L163.67 170.94C163.55 171.09 163.37 171.2 163.16 171.27L163.17 171.28ZM153.9 173.64C153.69 173.71 153.46 173.72 153.29 173.7L149.69 173.02C149.55 172.98 149.46 172.93 149.44 172.85C149.42 172.77 149.44 172.65 149.53 172.56L152.38 169.26C152.5 169.12 152.68 169.01 152.89 168.94C153.1 168.87 153.33 168.84 153.49 168.87L157.09 169.55C157.23 169.59 157.32 169.64 157.34 169.72C157.36 169.8 157.34 169.92 157.25 170.02L154.4 173.31C154.28 173.47 154.1 173.57 153.89 173.64H153.9ZM175.64 165.36C175.43 165.43 175.2 165.44 175.03 165.42L171.43 164.74C171.29 164.7 171.2 164.65 171.18 164.57C171.16 164.49 171.18 164.37 171.27 164.28L174.12 160.98C174.24 160.83 174.42 160.72 174.63 160.65C174.84 160.58 175.07 160.57 175.23 160.6L178.83 161.28C178.97 161.32 179.06 161.37 179.08 161.45C179.1 161.53 179.08 161.65 178.99 161.74L176.14 165.04C176.02 165.2 175.84 165.3 175.63 165.37L175.64 165.36ZM167.75 165.94C167.54 166.01 167.31 166.02 167.15 165.99L163.55 165.31C163.41 165.27 163.32 165.22 163.3 165.14C163.28 165.06 163.3 164.94 163.39 164.85L166.24 161.55C166.36 161.4 166.54 161.29 166.75 161.22C166.96 161.15 167.19 161.14 167.36 161.16L170.96 161.84C171.1 161.88 171.19 161.93 171.21 162.01C171.23 162.09 171.21 162.21 171.12 162.3L168.27 165.6C168.15 165.76 167.97 165.86 167.76 165.93L167.75 165.94ZM158.48 168.3C158.27 168.37 158.04 168.38 157.87 168.36L154.27 167.68C154.13 167.64 154.04 167.59 154.02 167.51C154 167.43 154.02 167.31 154.11 167.22L156.96 163.92C157.08 163.76 157.26 163.66 157.47 163.59C157.68 163.52 157.91 163.51 158.07 163.54L161.67 164.22C161.81 164.26 161.9 164.31 161.92 164.39C161.94 164.47 161.92 164.59 161.83 164.68L158.98 167.98C158.86 168.13 158.68 168.24 158.47 168.31L158.48 168.3ZM180.21 160C180 160.07 179.77 160.1 179.61 160.07L176.01 159.39C175.87 159.35 175.78 159.3 175.75 159.21C175.72 159.13 175.75 159.02 175.84 158.92L178.69 155.62C178.81 155.48 178.99 155.37 179.2 155.3C179.41 155.23 179.64 155.2 179.8 155.23L183.4 155.92C183.54 155.96 183.63 156.01 183.65 156.09C183.67 156.17 183.65 156.27 183.56 156.38L180.71 159.68C180.59 159.82 180.41 159.93 180.2 160H180.21ZM172.32 160.59C172.11 160.66 171.88 160.67 171.71 160.65L168.11 159.97C167.97 159.93 167.88 159.88 167.86 159.8C167.84 159.72 167.86 159.6 167.95 159.51L172.26 154.49C172.38 154.34 172.56 154.23 172.77 154.16C172.98 154.09 173.21 154.08 173.38 154.1L176.98 154.78C177.12 154.82 177.21 154.87 177.23 154.95C177.25 155.03 177.23 155.15 177.14 155.24L172.82 160.27C172.7 160.42 172.52 160.53 172.31 160.6L172.32 160.59ZM163.05 162.95C162.84 163.02 162.61 163.03 162.44 163.01L158.84 162.33C158.7 162.29 158.61 162.24 158.59 162.16C158.57 162.08 158.59 161.96 158.68 161.87L161.53 158.57C161.65 158.42 161.83 158.31 162.04 158.24C162.25 158.17 162.48 158.16 162.64 158.19L166.24 158.87C166.38 158.91 166.47 158.96 166.49 159.04C166.51 159.12 166.49 159.24 166.4 159.33L163.55 162.63C163.43 162.79 163.25 162.89 163.04 162.96L163.05 162.95ZM167.64 157.61C167.43 157.68 167.2 157.69 167.03 157.67L163.43 156.99C163.29 156.95 163.2 156.9 163.18 156.82C163.16 156.74 163.18 156.62 163.27 156.53L166.12 153.23C166.24 153.07 166.42 152.97 166.63 152.9C166.84 152.83 167.07 152.82 167.23 152.85L170.83 153.53C170.97 153.57 171.06 153.62 171.08 153.7C171.1 153.78 171.08 153.9 170.99 153.99L168.14 157.29C168.02 157.44 167.84 157.55 167.63 157.62L167.64 157.61Z" fill="url(#paint21_linear_3595_8275)"/>
<path d="M150.34 212.33C150.13 212.4 149.9 212.41 149.74 212.38L146.14 211.7C146 211.66 145.91 211.61 145.89 211.53C145.87 211.45 145.89 211.33 145.98 211.23L148.83 207.94C148.95 207.78 149.13 207.68 149.34 207.61C149.55 207.54 149.78 207.53 149.95 207.55L153.55 208.23C153.69 208.27 153.78 208.32 153.8 208.4C153.82 208.48 153.8 208.6 153.71 208.69L150.86 211.99C150.74 212.13 150.56 212.25 150.35 212.32L150.34 212.33ZM144.18 211.08C143.97 211.15 143.74 211.16 143.57 211.14L139.97 210.46C139.83 210.42 139.74 210.37 139.72 210.29C139.7 210.21 139.72 210.09 139.81 209.99L144.13 204.98C144.25 204.82 144.43 204.72 144.64 204.65C144.85 204.58 145.08 204.57 145.25 204.59L148.85 205.27C148.99 205.31 149.08 205.36 149.1 205.44C149.12 205.52 149.1 205.64 149.01 205.73L144.69 210.76C144.57 210.9 144.39 211.02 144.18 211.09V211.08ZM154.92 207C154.71 207.07 154.48 207.08 154.31 207.06L150.71 206.38C150.57 206.34 150.48 206.29 150.46 206.21C150.44 206.13 150.46 206.01 150.55 205.92L153.4 202.62C153.52 202.46 153.7 202.36 153.91 202.29C154.12 202.22 154.35 202.21 154.52 202.23L158.12 202.91C158.26 202.95 158.35 203 158.37 203.08C158.39 203.16 158.37 203.28 158.28 203.37L155.43 206.67C155.31 206.83 155.13 206.93 154.92 207ZM159.51 201.66C159.3 201.73 159.07 201.76 158.91 201.73L155.31 201.04C155.17 201 155.08 200.95 155.06 200.87C155.04 200.79 155.06 200.68 155.15 200.58L158 197.28C158.12 197.14 158.3 197.03 158.51 196.96C158.72 196.89 158.95 196.86 159.11 196.89L162.71 197.57C162.85 197.61 162.94 197.66 162.97 197.75C163 197.83 162.97 197.94 162.88 198.04L160.03 201.34C159.91 201.48 159.73 201.59 159.52 201.66H159.51ZM150.24 204.02C150.03 204.09 149.8 204.12 149.64 204.09L146.04 203.4C145.9 203.36 145.81 203.31 145.79 203.23C145.77 203.15 145.79 203.05 145.88 202.94L148.73 199.64C148.85 199.5 149.03 199.39 149.24 199.32C149.45 199.25 149.68 199.22 149.84 199.25L153.44 199.93C153.58 199.97 153.67 200.02 153.7 200.11C153.73 200.19 153.7 200.3 153.61 200.4L150.76 203.7C150.64 203.84 150.46 203.95 150.25 204.02H150.24ZM164.11 196.32C163.9 196.39 163.67 196.42 163.51 196.39L159.91 195.71C159.77 195.67 159.68 195.62 159.66 195.54C159.64 195.46 159.66 195.34 159.75 195.24L162.6 191.95C162.72 191.79 162.9 191.69 163.11 191.62C163.32 191.55 163.55 191.52 163.72 191.56L167.32 192.24C167.46 192.28 167.55 192.33 167.57 192.41C167.59 192.49 167.57 192.6 167.48 192.7L164.63 196C164.51 196.14 164.33 196.25 164.12 196.32H164.11ZM154.84 198.68C154.63 198.75 154.4 198.78 154.24 198.75L150.64 198.07C150.5 198.03 150.41 197.98 150.39 197.9C150.36 197.81 150.39 197.7 150.48 197.6L153.34 194.31C153.46 194.15 153.64 194.05 153.85 193.98C154.06 193.91 154.29 193.88 154.45 193.93L158.05 194.61C158.19 194.65 158.28 194.7 158.3 194.78C158.32 194.86 158.3 194.96 158.21 195.07L155.36 198.37C155.24 198.51 155.06 198.62 154.85 198.69L154.84 198.68ZM168.71 191C168.5 191.07 168.27 191.08 168.11 191.05L164.51 190.37C164.37 190.33 164.28 190.28 164.26 190.2C164.24 190.12 164.26 190 164.35 189.91L167.2 186.61C167.32 186.45 167.5 186.35 167.71 186.28C167.92 186.21 168.15 186.2 168.32 186.22L171.92 186.9C172.06 186.94 172.15 186.99 172.17 187.07C172.19 187.15 172.17 187.27 172.08 187.36L169.23 190.66C169.11 190.81 168.93 190.92 168.72 190.99L168.71 191ZM159.44 193.36C159.23 193.43 159 193.44 158.83 193.42L155.23 192.74C155.09 192.7 155 192.65 154.98 192.57C154.96 192.49 154.98 192.37 155.07 192.28L157.92 188.98C158.04 188.83 158.22 188.72 158.43 188.65C158.64 188.58 158.87 188.57 159.03 188.6L162.63 189.28C162.77 189.32 162.86 189.37 162.88 189.45C162.9 189.53 162.88 189.65 162.79 189.74L159.94 193.04C159.82 193.2 159.64 193.3 159.43 193.37L159.44 193.36ZM173.31 185.66C173.1 185.73 172.87 185.76 172.71 185.71L169.11 185.03C168.97 184.99 168.88 184.94 168.86 184.86C168.84 184.78 168.86 184.68 168.95 184.57L171.8 181.27C171.92 181.13 172.1 181.02 172.31 180.95C172.52 180.88 172.75 180.85 172.91 180.88L176.51 181.56C176.65 181.6 176.74 181.65 176.76 181.73C176.78 181.81 176.76 181.93 176.67 182.03L173.81 185.32C173.69 185.48 173.51 185.58 173.3 185.65L173.31 185.66ZM164.04 188.02C163.83 188.09 163.6 188.1 163.43 188.08L159.83 187.4C159.69 187.36 159.6 187.31 159.58 187.23C159.56 187.15 159.58 187.04 159.67 186.94L162.52 183.64C162.64 183.5 162.82 183.39 163.03 183.32C163.24 183.25 163.47 183.22 163.63 183.25L167.23 183.93C167.37 183.97 167.46 184.02 167.48 184.1C167.5 184.18 167.48 184.3 167.39 184.4L164.54 187.69C164.42 187.85 164.24 187.95 164.03 188.02H164.04ZM177.91 180.32C177.7 180.39 177.47 180.42 177.31 180.39L173.71 179.71C173.57 179.67 173.48 179.62 173.45 179.53C173.42 179.45 173.45 179.34 173.54 179.24L176.39 175.94C176.51 175.8 176.69 175.69 176.9 175.62C177.11 175.55 177.34 175.52 177.5 175.55L181.1 176.24C181.24 176.28 181.33 176.33 181.35 176.41C181.37 176.49 181.35 176.6 181.26 176.7L178.41 180C178.29 180.14 178.11 180.25 177.9 180.32H177.91ZM168.64 182.68C168.43 182.75 168.2 182.78 168.04 182.75L164.44 182.07C164.3 182.03 164.21 181.98 164.18 181.89C164.15 181.81 164.18 181.7 164.27 181.6L167.12 178.3C167.24 178.16 167.42 178.05 167.63 177.98C167.84 177.91 168.07 177.88 168.23 177.91L171.83 178.6C171.97 178.64 172.06 178.69 172.08 178.77C172.1 178.85 172.08 178.96 171.99 179.06L169.14 182.36C169.02 182.5 168.84 182.61 168.63 182.68H168.64ZM182.49 175C182.28 175.07 182.05 175.08 181.89 175.05L178.29 174.37C178.15 174.33 178.06 174.28 178.04 174.2C178.02 174.12 178.04 174 178.13 173.91L180.98 170.61C181.1 170.46 181.28 170.35 181.49 170.28C181.7 170.21 181.93 170.2 182.1 170.22L185.7 170.9C185.84 170.94 185.93 170.99 185.95 171.07C185.97 171.15 185.95 171.27 185.86 171.36L183.01 174.66C182.89 174.82 182.71 174.92 182.5 174.99L182.49 175ZM173.22 177.36C173.01 177.43 172.78 177.44 172.61 177.42L169.01 176.74C168.87 176.7 168.78 176.65 168.76 176.57C168.74 176.49 168.76 176.37 168.85 176.28L171.7 172.98C171.82 172.82 172 172.72 172.21 172.65C172.42 172.58 172.65 172.57 172.81 172.6L176.41 173.28C176.55 173.32 176.64 173.37 176.66 173.45C176.68 173.53 176.66 173.65 176.57 173.74L173.72 177.04C173.6 177.19 173.42 177.3 173.21 177.37L173.22 177.36ZM187.09 169.66C186.88 169.73 186.65 169.74 186.49 169.71L182.89 169.03C182.75 168.99 182.66 168.94 182.64 168.86C182.62 168.78 182.64 168.66 182.73 168.57L185.58 165.27C185.7 165.13 185.88 165.01 186.09 164.94C186.3 164.87 186.53 164.86 186.7 164.88L190.3 165.56C190.44 165.6 190.53 165.65 190.55 165.73C190.57 165.81 190.55 165.93 190.46 166.03L187.6 169.32C187.48 169.47 187.3 169.58 187.09 169.65V169.66ZM177.82 172.02C177.61 172.09 177.38 172.1 177.21 172.08L173.61 171.4C173.47 171.36 173.38 171.31 173.36 171.23C173.34 171.15 173.36 171.03 173.45 170.94L176.3 167.64C176.42 167.49 176.6 167.38 176.81 167.31C177.02 167.24 177.25 167.23 177.41 167.26L181.01 167.94C181.15 167.98 181.24 168.03 181.26 168.11C181.28 168.19 181.26 168.31 181.17 168.41L178.31 171.7C178.19 171.86 178.01 171.96 177.8 172.03L177.82 172.02ZM191.69 164.32C191.48 164.39 191.25 164.42 191.09 164.39L187.49 163.71C187.34 163.66 187.26 163.61 187.23 163.53C187.2 163.45 187.23 163.35 187.32 163.24L191.64 158.23C191.76 158.07 191.94 157.97 192.15 157.9C192.36 157.83 192.59 157.82 192.76 157.84L196.36 158.52C196.5 158.56 196.59 158.61 196.61 158.69C196.63 158.77 196.61 158.89 196.52 158.98L192.2 164.01C192.08 164.15 191.9 164.26 191.69 164.33V164.32ZM182.42 166.68C182.21 166.75 181.98 166.78 181.82 166.75L178.22 166.07C178.07 166.02 177.99 165.97 177.96 165.89C177.93 165.81 177.96 165.7 178.05 165.6L180.9 162.3C181.02 162.16 181.2 162.05 181.41 161.98C181.62 161.91 181.85 161.88 182.01 161.91L185.61 162.6C185.75 162.64 185.84 162.69 185.86 162.77C185.88 162.85 185.86 162.95 185.77 163.06L182.92 166.36C182.8 166.5 182.62 166.61 182.41 166.68H182.42ZM187.02 161.36C186.81 161.43 186.58 161.44 186.41 161.42L182.81 160.74C182.67 160.7 182.58 160.65 182.56 160.57C182.54 160.49 182.56 160.37 182.65 160.28L185.5 156.98C185.62 156.83 185.8 156.72 186.01 156.65C186.22 156.58 186.45 156.57 186.61 156.6L190.21 157.28C190.35 157.32 190.44 157.37 190.46 157.45C190.48 157.53 190.46 157.65 190.37 157.74L187.52 161.04C187.4 161.2 187.22 161.3 187.01 161.37L187.02 161.36Z" fill="url(#paint22_linear_3595_8275)"/>
<path d="M140.78 181.28C142.52 181.08 143.76 179.57 142.16 178.15C137.77 174.22 129.81 176.52 125.54 176.74C125.23 176.72 125.01 176.64 124.74 176.61C118.08 175.91 114.23 191.82 119.96 192.76C129.08 194.27 129.03 194.06 130.81 195.15C132.24 196.03 134.69 197.69 138.24 199.77C140.37 201 142.53 198.31 138.5 195.22C139.89 196.04 141.57 197.15 143.41 198.67C146.34 201.09 148.19 197.08 147.15 196C145.92 194.71 144.17 192.96 142.55 191.47C144.79 192.95 147.26 194.52 148.17 195.04C151 196.67 152.99 193.24 150.26 191.29C149.11 190.47 147.99 189.61 146.85 188.74C148.65 189.51 151.01 190.49 151.84 188.72C153.05 186.08 146.75 183.27 140.75 181.27L140.78 181.29V181.28Z" fill="#29256A"/>
<path d="M184.83 116.42C183.33 115.39 181.41 113.66 179.73 112.98C179.73 112.98 181.39 107.37 179.52 105.6C179.52 105.6 174.55 102.64 173.51 102.58C172.14 102.48 162.06 103.94 157.51 104.13C149.97 104.43 147.39 117.38 152.38 118.52C154.84 118.71 155.77 118.97 157.59 119.76C158.86 120.3 159.97 121.14 161.21 121.75C163.32 122.8 167.71 123.96 170.05 123.56C171.03 123.39 171.96 122.74 171.91 121.74C171.8 119.89 165.56 119.33 166.2 117.67C168.05 116.14 175.08 117.01 175.08 117.01C175.08 117.01 179.41 118.26 182.61 120.64C185.5 122.8 188.34 118.81 184.84 116.42H184.82H184.83Z" fill="#29256A"/>
<path d="M52.2802 212.68L51.4702 211.17L68.7402 232.43L68.1602 232.08L52.2702 212.68H52.2802Z" fill="#CEE0E8" stroke="#29256A" stroke-width="0.75" stroke-linecap="round" stroke-linejoin="round"/>
<path d="M44.5002 219.32L47.5002 218.24L63.3802 237.67L61.7702 240.58L44.4902 219.32H44.5002Z" fill="#BACFD6" stroke="#29256A" stroke-width="0.75" stroke-linecap="round" stroke-linejoin="round"/>
<path d="M47.5 218.24L52.28 212.68L68.17 232.08L63.38 237.67L47.5 218.24Z" fill="#CEE0E8" stroke="#29256A" stroke-width="0.75" stroke-linecap="round" stroke-linejoin="round"/>
<path d="M85.03 251.85L88.7 252.79L60.29 247.41L59.71 247.06L85.03 251.86V251.85Z" fill="#1F787D" stroke="#29256A" stroke-width="0.75" stroke-linecap="round" stroke-linejoin="round"/>
<path d="M46.0801 214.91L50.8701 209.32L52.2801 212.68L47.5001 218.24L46.0801 214.91Z" fill="#CEE0E8" stroke="#29256A" stroke-width="0.75" stroke-linecap="round" stroke-linejoin="round"/>
<path d="M37.61 220.02L37.29 219.29L29.73 201.48L31.35 205.01L37.61 220.02Z" fill="#04555B" stroke="#29256A" stroke-width="0.75" stroke-linecap="round" stroke-linejoin="round"/>
<path d="M42.25 213.94L46.08 214.91L47.5 218.24L44.5 219.32L42.25 213.94Z" fill="#BACFD6" stroke="#29256A" stroke-width="0.75" stroke-linecap="round" stroke-linejoin="round"/>
<path d="M82.48 244.5L84.85 241.72L88.7 252.79L85.03 251.85L82.48 244.5Z" fill="#BACFD6" stroke="#29256A" stroke-width="0.75" stroke-linecap="round" stroke-linejoin="round"/>
<path d="M84.8403 241.72L89.6303 236.16L93.4503 247.2L88.6903 252.79L84.8403 241.72Z" fill="#CEE0E8" stroke="#29256A" stroke-width="0.75" stroke-linecap="round" stroke-linejoin="round"/>
<path d="M63.3799 237.67L68.1699 232.08L89.6399 236.16L84.8499 241.72L63.3899 237.67H63.3799Z" fill="#EBF3F6" stroke="#29256A" stroke-width="0.75" stroke-linecap="round" stroke-linejoin="round"/>
<path d="M61.7703 240.58L63.3803 237.67L84.8403 241.72L82.4703 244.5L61.7603 240.58H61.7703Z" fill="#BACFD6" stroke="#29256A" stroke-width="0.75" stroke-linecap="round" stroke-linejoin="round"/>
<path d="M148.38 271.13L152.26 271.65L141.98 272.17L141.5 271.47L148.38 271.13Z" fill="#BACFD6" stroke="#29256A" stroke-width="0.75" stroke-linecap="round" stroke-linejoin="round"/>
<path d="M116.5 228.01L116.73 228.3L46.0702 214.91L42.2402 213.94L116.49 228.01H116.5Z" fill="#BACFD6" stroke="#29256A" stroke-width="0.75" stroke-linecap="round" stroke-linejoin="round"/>
<path d="M119.99 221.79L148.37 271.13L141.49 271.47L116.5 228.01L42.2501 213.94L44.5001 219.32L61.7801 240.58L82.4901 244.5L85.0401 251.85L59.7201 247.05L37.6301 220.01L31.3701 205L120.01 221.78L119.99 221.79Z" fill="#CEE0E8" stroke="#29256A" stroke-width="0.75" stroke-linecap="round" stroke-linejoin="round"/>
<path d="M29.73 201.48L34.5 195.9L126.74 213.37L121.97 218.95L29.73 201.48Z" fill="#EBF3F6" stroke="#29256A" stroke-width="0.75" stroke-linecap="round" stroke-linejoin="round"/>
<path d="M31.35 205.01L29.73 201.48L121.97 218.95L119.99 221.79L31.35 205.01Z" fill="#BACFD6" stroke="#29256A" stroke-width="0.75" stroke-linecap="round" stroke-linejoin="round"/>
<path d="M119.99 221.79L121.97 218.95L152.26 271.65L148.38 271.13L120 221.79H119.99Z" fill="#BACFD6" stroke="#29256A" stroke-width="0.75" stroke-linecap="round" stroke-linejoin="round"/>
<path d="M121.97 218.95L126.74 213.37L157.05 266.06L152.26 271.65L121.97 218.95Z" fill="#CEE0E8" stroke="#29256A" stroke-width="0.75" stroke-linecap="round" stroke-linejoin="round"/>
<path d="M261.83 103.55L163.89 217.38L127.69 113.86L225.63 0L261.84 103.55H261.83Z" fill="url(#paint23_linear_3595_8275)" fill-opacity="0.7"/>
<g opacity="0.5">
<path opacity="0.7" d="M233.853 120.507L251.469 100.182L252.962 104.505L235.346 124.83L233.853 120.507Z" fill="white"/>
<path opacity="0.7" d="M230.914 111.997L248.53 91.6719L250.019 95.9823L232.403 116.307L230.914 111.997Z" fill="white"/>
<path opacity="0.7" d="M227.837 103.092L245.453 82.7671L246.942 87.0775L229.326 107.402L227.837 103.092Z" fill="white"/>
<path opacity="0.7" d="M224.894 94.5699L242.509 74.2451L243.998 78.5555L226.383 98.8803L224.894 94.5699Z" fill="white"/>
<path opacity="0.7" d="M221.817 85.6651L239.433 65.3403L240.922 69.6507L223.306 89.9755L221.817 85.6651Z" fill="white"/>
<path opacity="0.7" d="M218.873 77.1431L236.489 56.8184L237.983 61.1411L220.367 81.4659L218.873 77.1431Z" fill="white"/>
<path opacity="0.7" d="M215.798 68.2383L233.414 47.9136L234.903 52.224L217.287 72.5487L215.798 68.2383Z" fill="white"/>
<path opacity="0.7" d="M212.853 59.7164L230.469 39.3916L231.962 43.7143L214.346 64.0391L212.853 59.7164Z" fill="white"/>
<path opacity="0.7" d="M205.877 39.523L223.493 19.1982L227.47 30.7091L209.854 51.0339L205.877 39.523Z" fill="white"/>
</g>
<g opacity="0.5">
<path opacity="0.7" d="M154.248 122.016L158.229 133.539L151.414 141.396L147.437 129.885L154.248 122.016Z" fill="white"/>
<path opacity="0.7" d="M160.196 139.233L164.177 150.756L157.362 158.613L153.386 147.102L160.196 139.233Z" fill="white"/>
<path opacity="0.7" d="M166.145 156.449L170.125 167.972L163.31 175.829L159.334 164.318L166.145 156.449Z" fill="white"/>
<path opacity="0.7" d="M172.092 173.667L176.073 185.19L169.258 193.046L165.281 181.535L172.092 173.667Z" fill="white"/>
</g>
<g opacity="0.5">
<path opacity="0.7" d="M141.867 113.753L159.483 93.4282L163.464 104.951L145.848 125.276L141.867 113.753Z" fill="white"/>
<path opacity="0.7" d="M167.569 84.0958L185.185 63.771L194.051 89.4357L176.435 109.761L167.569 84.0958Z" fill="white"/>
<path opacity="0.7" d="M181.307 130.141L198.923 109.816L207.789 135.481L190.173 155.806L181.307 130.141Z" fill="white"/>
</g>
<path opacity="0.5" d="M192.872 127.959C192.872 127.959 192.901 127.921 192.921 127.9C193.577 127.162 194.305 126.869 194.999 126.92L199.103 101.821L199.129 101.618L218.188 79.6333L218.478 80.4731L199.619 102.237L195.558 127.058C196.354 127.364 197.069 128.195 197.517 129.492C198.46 132.222 197.899 135.954 196.256 137.835C194.63 139.724 192.53 139.04 191.591 136.323C190.652 133.606 191.209 129.86 192.852 127.979L192.872 127.959Z" fill="white"/>
<path opacity="0.5" d="M193.657 130.232C193.657 130.232 193.682 130.223 193.69 130.207C194.538 129.264 195.615 129.624 196.102 131.032C196.592 132.453 196.3 134.406 195.44 135.394C194.593 136.378 193.49 136.026 193 134.606C192.509 133.186 192.801 131.232 193.661 130.244L193.657 130.232Z" fill="#85009B"/>
<path opacity="0.5" d="M179.918 84.1867C179.918 84.1867 179.943 84.1782 179.951 84.1616C180.799 83.2188 181.876 83.5793 182.363 84.9873C182.52 85.4443 182.567 85.9396 182.577 86.4477L197.522 90.5335L215 70.3672L215.29 71.207L197.617 91.6068L182.506 87.4814C182.374 88.2183 182.109 88.8905 181.718 89.3574C180.87 90.3414 179.768 89.9895 179.277 88.5691C178.787 87.1488 179.079 85.1955 179.939 84.2071L179.918 84.1867Z" fill="#85009B"/>
<path opacity="0.5" d="M180.209 85.0253C180.209 85.0253 180.221 85.021 180.234 85.0168C180.8 84.3786 181.521 84.6272 181.85 85.5782C182.183 86.5415 181.987 87.8534 181.412 88.5082C180.842 89.1753 180.108 88.931 179.775 87.9676C179.443 87.0043 179.638 85.6924 180.213 85.0376L180.209 85.0253Z" fill="white"/>
<path opacity="0.5" d="M169.149 115.694C169.149 115.694 169.21 115.631 169.239 115.594C172.06 112.448 175.612 113.655 177.225 118.323C178.855 123.041 177.879 129.53 175.054 132.787C172.221 136.06 168.608 134.876 166.974 130.145C165.34 125.415 166.32 118.938 169.14 115.669L169.149 115.694Z" fill="white"/>
<path opacity="0.5" d="M170.352 119.176C170.352 119.176 170.392 119.135 170.4 119.118C172.076 117.253 174.186 117.963 175.146 120.741C176.114 123.545 175.534 127.381 173.859 129.329C172.179 131.264 170.033 130.567 169.065 127.764C168.096 124.96 168.677 121.124 170.352 119.176Z" fill="#85009B"/>
<path opacity="0.5" d="M175.814 131.791L188.822 169.449L214.661 139.067L209.022 123.264L226.439 105.482L227.237 107.792L211.547 123.816L217.151 139.52L188.016 173.792L174.159 133.676C174.159 133.676 174.633 133.291 175.057 132.799C175.395 132.42 175.809 131.779 175.809 131.779L175.814 131.791Z" fill="white"/>
<path style="mix-blend-mode:multiply" opacity="0.6" d="M284.51 217.56C284.51 217.56 284.41 217.49 284.36 217.45C284.14 215.19 281.37 215.48 279.01 216.15C276.54 216.87 269.7 221.22 263.8 222.16L263.1 220.17L254.62 218.56C250.3 214.81 238.99 205.05 227.33 195.49L227.43 195.37L229.25 187.94L226.29 179.48L221.57 178.48L215.74 177.37L214.39 175.03L229.02 158.04L228.03 155.2L218.86 153.46L261.83 103.52L225.63 0L139.05 100.66C132.83 99.43 128.8 99.41 128.8 99.41C128.8 99.41 112.93 93.56 109.4 91.59C105.85 89.63 102.08 84.01 91.7801 80.62C89.8101 79.97 87.8601 79.81 85.9901 79.95L80.7301 64.91C79.8201 62.31 78.1001 60.05 75.7601 58.58C71.4101 55.85 63.0201 51.35 51.1601 55.32C51.1301 55.33 51.0901 55.34 51.0601 55.35C50.7401 55.46 50.4201 55.57 50.1001 55.69C49.9501 55.75 49.8001 55.8 49.6501 55.86C49.2401 56.02 48.8201 56.19 48.4001 56.37C48.3801 56.37 48.3701 56.38 48.3501 56.39C40.4501 59.78 36.7801 64.67 35.4701 69.8L27.0001 79.7L28.0801 83.29L22.7901 89.46L19.1201 88.76L8.99012 100.62L16.2901 124.85L4.08012 139.04L12.0201 138.95H11.7301L4.08012 139.03L0.370117 159.29L1.70012 169.69L18.1001 182.89L22.0401 195.33L33.9801 211.51L37.2901 219.3L37.6101 220.03L34.1501 211.74L37.6001 220.03L59.6901 247.07L76.1601 250.19L59.6801 247.07L60.2601 247.42L76.6001 250.52L121.23 283.89C122.48 284.82 123.75 285.63 125.03 286.32L137.27 288.63C138.41 288.3 139.41 287.78 140.22 287.04L163.52 265.91L166.56 266.48L167.9 264.91L183.76 284.32L207.63 288.84L219.08 280.68L219.24 280.5L220.57 281.5C220.57 281.5 223.15 289.01 227.6 288.99C227.65 289.07 227.69 289.15 227.75 289.22C227.86 289.35 228.03 289.39 228.19 289.38C228.56 289.32 228.9 289.25 229.24 289.13C229.55 289.02 229.83 288.9 230.12 288.74C235.83 285.54 239.02 278.28 239.36 277.48C240.08 276.53 247.97 266.13 247.62 261.62C247.6 261.5 247.53 261.37 247.43 261.27C247.32 261.21 247.2 261.17 247.05 261.17C246.46 257.09 243.05 255.52 239.55 257.87C239 258.24 238.3 258.67 237.53 259.12L256.14 237.38L256.95 237.85C256.95 237.85 260.4 243.54 264.15 245.53C264.14 245.68 264.13 245.79 264.15 245.84C264.18 246 264.29 246.13 264.45 246.21C265.7 246.77 266.85 246.86 267.89 246.5C268.43 246.31 268.92 245.98 269.39 245.56C274.38 240.93 283.3 223.77 284.6 219.46C284.8 218.79 284.97 217.98 284.51 217.55V217.56ZM129.04 117.71L131.76 125.49L109.64 121.3C108.42 117.75 107.34 114.81 106.59 113.1C106.22 112.27 105.85 111.39 105.48 110.5C111.24 112.74 117.86 115.08 124.03 116.68C125.66 117.11 127.34 117.44 129.05 117.71H129.04ZM142.42 155.99C139.6 155.68 136.65 155.44 133.85 155.26L121.79 140.42L138.05 143.5L142.42 155.99ZM123.67 279.59L87.5301 252.57H87.5801L123.66 279.56L137.12 263.84L123.67 279.56C125.32 280.81 127.07 281.65 128.68 282.07C127.07 281.65 125.34 280.84 123.69 279.6L123.67 279.59Z" fill="url(#paint24_linear_3595_8275)"/>
</g>
<defs>
<linearGradient id="paint0_linear_3595_8275" x1="20.95" y1="92.9694" x2="35.2322" y2="77.3404" gradientUnits="userSpaceOnUse">
<stop stop-color="#5971FF"/>
<stop offset="1" stop-color="#15ABAB"/>
</linearGradient>
<linearGradient id="paint1_linear_3595_8275" x1="29.1326" y1="163.977" x2="85.3519" y2="103.919" gradientUnits="userSpaceOnUse">
<stop stop-color="#5971FF"/>
<stop offset="1" stop-color="#15ABAB"/>
</linearGradient>
<linearGradient id="paint2_linear_3595_8275" x1="185.539" y1="258.951" x2="230.083" y2="207.191" gradientUnits="userSpaceOnUse">
<stop stop-color="#5971FF"/>
<stop offset="1" stop-color="#15ABAB"/>
</linearGradient>
<linearGradient id="paint3_linear_3595_8275" x1="185.539" y1="258.951" x2="230.083" y2="207.191" gradientUnits="userSpaceOnUse">
<stop stop-color="#6059FF"/>
<stop offset="0.76" stop-color="#1578AB"/>
<stop offset="0.82" stop-color="#1776AE"/>
<stop offset="0.87" stop-color="#2073B8"/>
<stop offset="0.92" stop-color="#2F6DC8"/>
<stop offset="0.96" stop-color="#4464E0"/>
<stop offset="1" stop-color="#6059FF"/>
</linearGradient>
<linearGradient id="paint4_linear_3595_8275" x1="208.178" y1="269.924" x2="249.026" y2="219.774" gradientUnits="userSpaceOnUse">
<stop stop-color="#5971FF"/>
<stop offset="1" stop-color="#15ABAB"/>
</linearGradient>
<linearGradient id="paint5_linear_3595_8275" x1="30.4413" y1="105.149" x2="43.1691" y2="94.6188" gradientUnits="userSpaceOnUse">
<stop stop-color="#5971FF"/>
<stop offset="1" stop-color="#15ABAB"/>
</linearGradient>
<linearGradient id="paint6_linear_3595_8275" x1="55.8613" y1="204.221" x2="90.2653" y2="167.849" gradientUnits="userSpaceOnUse">
<stop stop-color="#5971FF"/>
<stop offset="1" stop-color="#15ABAB"/>
</linearGradient>
<linearGradient id="paint7_linear_3595_8275" x1="130.058" y1="230.369" x2="173.49" y2="171.095" gradientUnits="userSpaceOnUse">
<stop stop-color="#5971FF"/>
<stop offset="1" stop-color="#15ABAB"/>
</linearGradient>
<linearGradient id="paint8_linear_3595_8275" x1="248.112" y1="264.671" x2="211.892" y2="277.334" gradientUnits="userSpaceOnUse">
<stop stop-color="#DDE7FF"/>
<stop offset="1" stop-color="#9FD0E3"/>
</linearGradient>
<linearGradient id="paint9_linear_3595_8275" x1="285.021" y1="220.071" x2="245.242" y2="233.979" gradientUnits="userSpaceOnUse">
<stop stop-color="#DDE7FF"/>
<stop offset="1" stop-color="#9FD0E3"/>
</linearGradient>
<linearGradient id="paint10_linear_3595_8275" x1="116.739" y1="105.52" x2="127.52" y2="134.57" gradientUnits="userSpaceOnUse">
<stop stop-color="#DDE7FF"/>
<stop offset="1" stop-color="#9FD0E3"/>
</linearGradient>
<linearGradient id="paint11_linear_3595_8275" x1="240.423" y1="175.228" x2="123.097" y2="216.246" gradientUnits="userSpaceOnUse">
<stop stop-color="#DDE7FF"/>
<stop offset="1" stop-color="#9FD0E3"/>
</linearGradient>
<linearGradient id="paint12_linear_3595_8275" x1="199.136" y1="202.607" x2="95.0719" y2="238.988" gradientUnits="userSpaceOnUse">
<stop stop-color="#DDE7FF"/>
<stop offset="1" stop-color="#9FD0E3"/>
</linearGradient>
<linearGradient id="paint13_linear_3595_8275" x1="100.891" y1="119.822" x2="60.4486" y2="157.012" gradientUnits="userSpaceOnUse">
<stop stop-color="#DDE7FF"/>
<stop offset="1" stop-color="#9FD0E3"/>
</linearGradient>
<linearGradient id="paint14_linear_3595_8275" x1="124.264" y1="162.499" x2="71.298" y2="181.016" gradientUnits="userSpaceOnUse">
<stop stop-color="#B177CC"/>
<stop offset="0.76" stop-color="#142387"/>
<stop offset="0.81" stop-color="#172488"/>
<stop offset="0.85" stop-color="#21298C"/>
<stop offset="0.88" stop-color="#313294"/>
<stop offset="0.91" stop-color="#493F9E"/>
<stop offset="0.95" stop-color="#674FAB"/>
<stop offset="0.98" stop-color="#8C63BB"/>
<stop offset="1" stop-color="#B177CC"/>
</linearGradient>
<linearGradient id="paint15_linear_3595_8275" x1="120.472" y1="167.437" x2="109.805" y2="171.166" gradientUnits="userSpaceOnUse">
<stop stop-color="#A05AC1"/>
<stop offset="1" stop-color="#142387"/>
</linearGradient>
<linearGradient id="paint16_linear_3595_8275" x1="86.0941" y1="148.766" x2="70.3027" y2="177.805" gradientUnits="userSpaceOnUse">
<stop stop-color="#DDE7FF"/>
<stop offset="1" stop-color="#9FD0E3"/>
</linearGradient>
<linearGradient id="paint17_linear_3595_8275" x1="91.4541" y1="96.436" x2="47.9558" y2="111.643" gradientUnits="userSpaceOnUse">
<stop stop-color="#DDE7FF"/>
<stop offset="1" stop-color="#9FD0E3"/>
</linearGradient>
<linearGradient id="paint18_linear_3595_8275" x1="92.2558" y1="98.0624" x2="48.7386" y2="113.276" gradientUnits="userSpaceOnUse">
<stop stop-color="#B177CC"/>
<stop offset="0.76" stop-color="#142387"/>
<stop offset="0.81" stop-color="#172488"/>
<stop offset="0.85" stop-color="#21298C"/>
<stop offset="0.88" stop-color="#313294"/>
<stop offset="0.91" stop-color="#493F9E"/>
<stop offset="0.95" stop-color="#674FAB"/>
<stop offset="0.98" stop-color="#8C63BB"/>
<stop offset="1" stop-color="#B177CC"/>
</linearGradient>
<linearGradient id="paint19_linear_3595_8275" x1="85.992" y1="85.7752" x2="29.3171" y2="76.1709" gradientUnits="userSpaceOnUse">
<stop stop-color="#DDE7FF"/>
<stop offset="1" stop-color="#9FD0E3"/>
</linearGradient>
<linearGradient id="paint20_linear_3595_8275" x1="230.646" y1="163.656" x2="103.267" y2="208.188" gradientUnits="userSpaceOnUse">
<stop stop-color="#B177CC"/>
<stop offset="0.76" stop-color="#142387"/>
<stop offset="0.81" stop-color="#172488"/>
<stop offset="0.85" stop-color="#21298C"/>
<stop offset="0.88" stop-color="#313294"/>
<stop offset="0.91" stop-color="#493F9E"/>
<stop offset="0.95" stop-color="#674FAB"/>
<stop offset="0.98" stop-color="#8C63BB"/>
<stop offset="1" stop-color="#B177CC"/>
</linearGradient>
<linearGradient id="paint21_linear_3595_8275" x1="188.181" y1="168.813" x2="116.071" y2="194.023" gradientUnits="userSpaceOnUse">
<stop stop-color="#E7E3FF"/>
<stop offset="1" stop-color="#8ED0D1"/>
</linearGradient>
<linearGradient id="paint22_linear_3595_8275" x1="201.539" y1="172.903" x2="134.8" y2="196.236" gradientUnits="userSpaceOnUse">
<stop stop-color="#E7E3FF"/>
<stop offset="1" stop-color="#8ED0D1"/>
</linearGradient>
<linearGradient id="paint23_linear_3595_8275" x1="270.377" y1="33.1627" x2="162.462" y2="141.189" gradientUnits="userSpaceOnUse">
<stop stop-color="#E6007A"/>
<stop offset="0.24" stop-color="#703AC2"/>
<stop offset="0.5" stop-color="#0070EB"/>
<stop offset="0.79" stop-color="#0297FB"/>
<stop offset="1" stop-color="#0AE2FF"/>
</linearGradient>
<linearGradient id="paint24_linear_3595_8275" x1="110.48" y1="33.72" x2="156.76" y2="257.39" gradientUnits="userSpaceOnUse">
<stop stop-color="#081029" stop-opacity="0"/>
<stop offset="1" stop-color="#081029"/>
</linearGradient>
<clipPath id="clip0_3595_8275">
<rect width="284.8" height="289.38" fill="white"/>
</clipPath>
</defs>
</svg>
