<svg width="231" height="49" viewBox="0 0 231 49" fill="none" xmlns="http://www.w3.org/2000/svg">
<path d="M64.5898 16.69V36.33H68.5099V13.04H68.2398C66.2198 13.04 64.5898 14.68 64.5898 16.69ZM87.8598 13.04H87.7599V29.94L78.3199 13.04H74.1999V36.33H77.9499V19.43L87.3899 36.33H91.5099V16.69C91.5099 14.67 89.8698 13.04 87.8598 13.04ZM107.75 16.69V28.77C107.75 30.19 107.41 31.33 106.73 32.2C106.07 33.04 105.12 33.46 103.87 33.46C102.62 33.46 101.67 33.04 101.01 32.2C100.37 31.33 100.06 30.18 100.06 28.74H96.1399C96.1399 31.2 96.8198 33.18 98.1898 34.66C99.5498 36.15 101.45 36.89 103.88 36.89C106.31 36.89 108.24 36.16 109.61 34.69C111 33.2 111.69 31.23 111.69 28.77V13.03H111.42C109.4 13.03 107.77 14.67 107.77 16.68L107.75 16.69ZM127.34 16.46C129.23 16.46 130.77 14.93 130.77 13.03H117V36.32H130.77V32.89H120.92V26.47H130.77V23.04H120.92V16.45H127.34V16.46ZM220.42 16.46H226.84C228.73 16.46 230.27 14.93 230.27 13.03H216.5V36.32H230.27V32.89H220.42V26.47H230.27V23.04H220.42V16.45V16.46ZM146.82 15.89C148.56 15.89 149.98 16.34 151.07 17.25C151.46 17.57 151.8 17.92 152.09 18.32C153.11 19.71 154.48 21.01 156.2 21.01H157.08C156.76 18.48 155.67 16.43 153.83 14.86C151.99 13.26 149.64 12.46 146.79 12.46C143.39 12.46 140.7 13.59 138.71 15.85C136.73 18.11 135.73 21.05 135.73 24.67C135.73 28.29 136.72 31.22 138.71 33.49C140.69 35.75 143.39 36.88 146.79 36.88C149.64 36.88 151.99 36.09 153.83 34.52C155.67 32.92 156.75 30.86 157.08 28.33H156.2C154.48 28.33 153.11 29.63 152.09 31.02C151.8 31.42 151.46 31.78 151.07 32.09C149.98 33 148.56 33.45 146.82 33.45C144.49 33.45 142.67 32.66 141.35 31.09C140.05 29.49 139.41 27.35 139.41 24.67C139.41 21.99 140.06 19.86 141.35 18.28C142.67 16.68 144.49 15.88 146.82 15.88V15.89ZM160.29 16.62H167.21V36.32H171.13V16.62H178.08V13.03H163.88C161.9 13.03 160.29 14.64 160.29 16.62ZM183.06 16.68V36.32H186.98V13.03H186.71C184.69 13.03 183.06 14.67 183.06 16.68ZM206.45 15.57L201.74 30.3L197.03 15.57C196.55 14.06 195.14 13.03 193.55 13.03H191.96L199.87 36.32H203.62L211.53 13.03H209.94C208.35 13.03 206.95 14.06 206.46 15.57H206.45Z" fill="white"/>
<path d="M21.5301 21.5297C24.7701 17.4597 25.1301 11.3397 21.0801 7.53971C18.1801 4.79971 14.4701 4.07971 11.1501 5.24971C10.1101 5.60971 9.13008 6.1597 8.18008 6.8797C7.91008 7.0697 7.68008 7.28971 7.46008 7.48971L7.43008 7.52971C7.43008 7.52971 7.36007 7.58971 7.33007 7.61971C7.32007 7.63971 7.28007 7.63971 7.27007 7.65971C6.96007 8.01971 6.64009 8.36971 6.35009 8.74971C-1.04991 16.9297 -2.27992 32.1797 8.31008 42.0497C9.11008 42.6797 9.93007 43.2497 10.7701 43.7497C6.21007 39.8497 5.0601 37.0197 4.2001 33.1297C2.7201 26.2697 6.97008 17.0197 9.40008 13.7497C14.0401 7.47971 20.3501 13.0997 16.4501 18.2897C13.6101 22.0397 7.74008 31.7797 9.87008 38.2897C11.2801 42.5897 15.4101 45.7697 18.0501 47.2497C21.7701 48.1997 25.1101 48.4097 28.7201 47.7397C23.2101 46.1497 21.9101 45.0197 20.1601 43.6597C10.4301 36.0797 17.4601 27.6197 21.5501 21.5497L21.5301 21.5297ZM40.4401 6.57971C39.6401 5.94971 38.8201 5.37971 37.9801 4.87971C42.5401 8.77971 43.6901 11.6097 44.5501 15.4997C46.0301 22.3597 41.7801 31.6097 39.3501 34.8797C34.7101 41.1497 28.4001 35.5297 32.3001 30.3397C35.1401 26.5897 41.0101 16.8497 38.8801 10.3397C37.4701 6.03971 33.3401 2.85971 30.7001 1.37971C26.9801 0.429706 23.6401 0.219706 20.0301 0.889706C25.5401 2.47971 26.8401 3.60971 28.5901 4.96971C38.3201 12.5497 31.2901 21.0097 27.2001 27.0797C23.9601 31.1497 23.6001 37.2697 27.6501 41.0697C30.5501 43.8097 34.2601 44.5297 37.5801 43.3597C38.6201 42.9997 39.6001 42.4497 40.5501 41.7297C40.8201 41.5397 41.0501 41.3197 41.2701 41.1197L41.3001 41.0797C41.3001 41.0797 41.3701 41.0197 41.4001 40.9897C41.4101 40.9697 41.4501 40.9697 41.4601 40.9497C41.7701 40.5897 42.0901 40.2397 42.3801 39.8597C49.7801 31.6797 51.0101 16.4297 40.4201 6.55971L40.4401 6.57971Z" fill="url(#paint0_linear_3604_8586)"/>
<defs>
<linearGradient id="paint0_linear_3604_8586" x1="-32.3599" y1="24.3097" x2="48.1701" y2="24.3097" gradientUnits="userSpaceOnUse">
<stop stop-color="#0082FA"/>
<stop offset="1" stop-color="#00F2FE"/>
</linearGradient>
</defs>
</svg>
