<svg width="223" height="48" viewBox="0 0 223 48" fill="none" xmlns="http://www.w3.org/2000/svg">
<path d="M70.7065 44.9046V14.6485H75.2105L75.6394 17.0906H75.8539C77.1407 15.4179 79.3275 14.2197 82.3723 14.2197C87.9447 14.2197 92.4065 18.7634 92.4065 25.4893C92.4065 32.215 87.9486 36.7586 82.3723 36.7586C79.3697 36.7586 77.2708 35.5145 76.1564 34.102H75.9419V44.9007H70.7104L70.7065 44.9046ZM87.1711 25.493C87.1711 21.5503 84.6397 19.0659 81.5526 19.0659C78.4658 19.0659 75.9343 21.5503 75.9343 25.493C75.9343 29.4359 78.4658 31.9202 81.5526 31.9202C84.6397 31.9202 87.1711 29.4359 87.1711 25.493Z" fill="white"/>
<path d="M95.0623 25.4931C95.0623 18.9358 99.7769 14.2236 106.081 14.2236C112.385 14.2236 117.099 18.9358 117.099 25.4931C117.099 32.0504 112.385 36.7626 106.081 36.7626C99.7769 36.7626 95.0623 32.0045 95.0623 25.4931ZM111.826 25.4931C111.826 21.6346 109.252 19.066 106.081 19.066C102.91 19.066 100.294 21.6385 100.294 25.4931C100.294 29.3479 102.91 31.8781 106.081 31.8781C109.252 31.8781 111.826 29.3516 111.826 25.4931Z" fill="white"/>
<path d="M120.887 36.3347V6.33887H126.119V36.3383H120.887V36.3347Z" fill="white"/>
<path d="M145.542 14.6484H151.114L141.681 41.0039C140.739 43.6183 139.452 44.9044 136.063 44.9044H131.003V40.0621H135.293C136.067 40.0621 136.492 39.6756 136.752 39.0324L137.265 37.6199L128.434 14.6484H134.006L139.625 29.6923H140.482L145.542 14.6484Z" fill="white"/>
<path d="M152.115 37.4055H157.431C157.645 38.8182 159.058 40.7474 162.406 40.7474C165.534 40.7474 167.595 38.776 167.595 35.7749V32.7318H167.38C166.224 33.9757 164.079 35.0897 161.333 35.0897C155.761 35.0897 151.471 30.8023 151.471 24.6317C151.471 18.4611 155.761 14.2197 161.333 14.2197C164.205 14.2197 166.308 15.3758 167.637 17.0064H167.852L168.28 14.6485H172.827V35.7749C172.827 41.5167 168.966 45.3333 162.406 45.3333C155.075 45.3333 152.245 40.533 152.115 37.4055ZM167.595 24.6356C167.595 21.2516 165.194 18.8937 162.149 18.8937C159.104 18.8937 156.745 21.2516 156.745 24.6356C156.745 28.0195 159.146 30.4197 162.149 30.4197C165.152 30.4197 167.595 28.0615 167.595 24.6356Z" fill="white"/>
<path d="M176.462 25.4931C176.462 18.9358 181.177 14.2236 187.481 14.2236C193.785 14.2236 198.499 18.9358 198.499 25.4931C198.499 32.0504 193.785 36.7626 187.481 36.7626C181.177 36.7626 176.462 32.0045 176.462 25.4931ZM193.226 25.4931C193.226 21.6346 190.652 19.066 187.481 19.066C184.309 19.066 181.694 21.6385 181.694 25.4931C181.694 29.3479 184.309 31.8781 187.481 31.8781C190.652 31.8781 193.226 29.3516 193.226 25.4931Z" fill="white"/>
<path d="M202.141 36.3338V14.6485H206.641L207.07 16.7041H207.285C208.142 15.7203 210.287 14.2197 213.544 14.2197C218.517 14.2197 222.118 17.8179 222.118 23.3034V36.3299H216.887V23.9887C216.887 21.2019 214.914 19.1884 212.214 19.1884C209.514 19.1884 207.369 21.2899 207.369 23.9887V36.3299H202.137L202.141 36.3338Z" fill="white"/>
<path d="M40.2557 33.804L53.1162 26.3817C53.798 25.9874 54.2193 25.2562 54.2193 24.4715V9.62679C54.2193 8.84206 53.798 8.11093 53.1162 7.71664L40.2557 0.294268C39.5739 -0.100002 38.7275 -0.0961717 38.0496 0.294268L25.1889 7.71664C24.5073 8.11093 24.086 8.84206 24.086 9.62679V36.1544L15.0667 41.3566L6.04735 36.1544V25.7463L15.0667 20.5442L21.0145 23.9777V16.9955L16.1696 14.1973C15.8364 14.006 15.4536 13.9026 15.0667 13.9026C14.6797 13.9026 14.2969 14.006 13.9637 14.1973L1.10301 21.6197C0.421293 22.014 0 22.7452 0 23.5299V38.3747C0 39.1594 0.421293 39.8904 1.10301 40.2847L13.9637 47.7072C14.6453 48.0976 15.488 48.0976 16.1696 47.7072L29.0303 40.2847C29.7121 39.8904 30.1332 39.1594 30.1332 38.3747V11.8432L30.2941 11.7513L39.1489 6.641L48.1682 11.8432V22.2514L39.1489 27.4536L33.2086 24.0274V31.0098L38.0457 33.8003C38.7275 34.1907 39.5739 34.1907 40.2518 33.8003L40.2557 33.804Z" fill="url(#paint0_linear_4305_62)"/>
<defs>
<linearGradient id="paint0_linear_4305_62" x1="-0.176177" y1="39.8292" x2="51.8776" y2="9.60035" gradientUnits="userSpaceOnUse">
<stop stop-color="#A726C1"/>
<stop offset="0.88" stop-color="#803BDF"/>
<stop offset="1" stop-color="#7B3FE4"/>
</linearGradient>
</defs>
</svg>
