<svg width="231" height="60" viewBox="0 0 231 60" fill="none" xmlns="http://www.w3.org/2000/svg">
<path opacity="0.4" d="M72.35 12.7802C69.66 12.7802 67.07 13.1202 66.01 13.4002C64.47 13.8302 64.09 14.5002 63.8 15.9002L57.7 44.0302C57.6 44.6102 57.51 45.0902 57.51 45.5702C57.51 46.9602 58.42 47.8702 59.91 47.8702C61.54 47.8702 62.21 46.8102 62.55 45.1802L64.28 37.1602C65.48 37.3002 67.0601 37.4502 69.3201 37.4502C79.2601 37.4502 85.45 32.0702 85.45 23.9602C85.45 16.8602 80.51 12.7802 72.35 12.7802ZM69.09 32.8502C67.55 32.8502 66.3501 32.8002 65.2501 32.6602L68.47 17.7302C69.48 17.5902 70.9701 17.3902 72.5001 17.3902C77.7801 17.3902 80.47 19.8902 80.47 24.0102C80.47 29.2902 76.63 32.8402 69.09 32.8402V32.8502ZM228.75 38.6102C227.93 38.6102 227.41 39.0902 226.4 40.1902C224.62 42.0102 223.52 43.0202 222.13 43.0202C220.88 43.0202 220.21 42.0102 220.21 40.3802C220.21 39.4702 220.4 38.3602 220.64 37.1602L222.42 28.8102H227.75C229.43 28.8102 230.44 27.8502 230.44 26.1202C230.44 25.1602 229.82 24.4402 228.38 24.4402H223.39L224.25 20.5502C224.35 19.9702 224.44 19.4502 224.44 18.9702C224.44 17.6302 223.53 16.6702 222.04 16.6702C220.46 16.6702 219.74 17.7302 219.4 19.3602L218.3 24.4502H216.04C214.31 24.4502 213.3 25.4102 213.3 27.1402C213.3 28.1002 213.97 28.8202 215.41 28.8202H217.38L215.6 37.0802C215.41 37.9902 215.17 39.4802 215.17 41.0202C215.17 44.9102 217.19 47.7402 221.51 47.7402C224.01 47.7402 226.21 46.4902 227.89 45.0002C229.52 43.5602 230.72 41.7802 230.72 40.6302C230.72 39.4802 229.86 38.6102 228.75 38.6102ZM118.34 15.6202C118.34 14.2302 117.38 13.3202 115.89 13.3202C114.31 13.3202 113.59 14.3802 113.25 16.0102L107.25 43.9002C107.11 44.4802 107.01 44.9602 107.01 45.4402C107.01 46.8302 107.97 47.7402 109.41 47.7402C111.04 47.7402 111.76 46.6802 112.1 45.0502L118.1 17.1602C118.2 16.5802 118.34 16.1002 118.34 15.6202ZM204.02 23.9702C196.34 23.9702 191.11 31.6002 191.11 38.8502C191.11 38.9902 191.11 39.1202 191.11 39.2502C189.91 41.0802 188.37 42.9702 187.31 42.9702C186.54 42.9702 186.25 42.2502 186.25 41.1502C186.25 39.8102 186.63 37.5502 187.07 35.5802L191.05 17.1502C191.15 16.5702 191.24 16.0902 191.24 15.6102C191.24 14.2202 190.33 13.3102 188.84 13.3102C187.21 13.3102 186.54 14.3702 186.2 16.0002L184.04 25.9802C182.89 24.7802 181.21 23.9602 178.66 23.9602C173.56 23.9602 168.43 27.8902 166.43 33.9102C164.23 39.6002 162.26 42.9702 160.71 42.9702C160.13 42.9702 159.8 42.4902 159.8 41.6702C159.8 39.2702 161.14 33.4102 161.72 30.5802C161.91 29.5202 162.01 29.0902 162.01 28.4702C162.01 26.3602 158.51 23.8602 153.95 23.8602C148.68 23.8602 143.9 27.2002 141.51 32.1602C137.95 38.4402 134.69 42.9602 133.07 42.9602C132.35 42.9602 132.11 42.0502 131.92 41.1802L130.72 34.5602L138.06 28.5602C138.73 27.9802 139.6 27.1702 139.6 26.1102C139.6 24.8102 138.74 23.9502 137.44 23.9502C136.48 23.9502 135.66 24.5302 134.85 25.2002L123.81 34.3202L127.51 17.1302C127.61 16.5502 127.75 16.0702 127.75 15.5902C127.75 14.2002 126.79 13.2902 125.3 13.2902C123.72 13.2902 123 14.3502 122.66 15.9802L116.66 43.8702C116.52 44.4502 116.42 44.9302 116.42 45.4102C116.42 46.8002 117.38 47.7102 118.82 47.7102C120.45 47.7102 121.17 46.6502 121.51 45.0202L122.28 41.4202L126.79 37.7702L127.89 43.3402C128.32 45.5502 129.47 47.7102 132.45 47.7102C135.43 47.7102 137.74 45.0102 140.07 41.3502C140.78 45.1802 143.5 47.7102 147.28 47.7102C151.06 47.7102 153.66 45.4502 155.34 42.4302V42.5302C155.34 45.6502 156.92 47.7102 159.71 47.7102C162.23 47.7102 164.32 46.1902 166.19 42.9702C167.25 45.7802 169.62 47.7102 172.91 47.7102C176.8 47.7102 179.58 45.3602 181.36 42.0902V42.3802C181.36 45.8402 183.09 47.7102 185.92 47.7102C188.42 47.7102 190.55 46.2602 192.36 43.8902C193.74 46.2502 196.21 47.7102 199.55 47.7102C207.23 47.7102 212.46 40.0802 212.46 32.7802C212.46 27.6402 209.34 23.9502 204.01 23.9502L204.02 23.9702ZM156.16 33.7102C154.77 39.7102 151.79 43.1202 148.43 43.1202C146.17 43.1202 144.93 41.3902 144.93 38.8002C144.93 33.7102 148.63 28.2402 153.57 28.2402C155.06 28.2402 156.21 28.6702 157.22 29.3002L156.16 33.7202V33.7102ZM182.9 31.1702C181.36 38.2302 177.86 43.1202 174.02 43.1202C171.91 43.1202 170.66 41.4902 170.66 38.8002C170.66 33.6602 174.21 28.3402 178.96 28.3402C180.78 28.3402 182.18 28.9602 183.18 29.7802L182.89 31.1702H182.9ZM200.13 43.1202C197.35 43.1202 196.19 41.1002 196.19 38.5602C196.19 33.9002 199.41 28.5802 203.44 28.5802C206.22 28.5802 207.38 30.6002 207.38 33.1402C207.38 37.8402 204.16 43.1202 200.13 43.1202ZM97.4 23.9702C89.72 23.9702 84.4901 31.6002 84.4901 38.8502C84.4901 44.0302 87.6101 47.7302 92.9401 47.7302C100.62 47.7302 105.85 40.1002 105.85 32.8002C105.85 27.6602 102.73 23.9702 97.4 23.9702ZM93.51 43.1202C90.73 43.1202 89.5701 41.1002 89.5701 38.5602C89.5701 33.9002 92.7901 28.5802 96.8201 28.5802C99.6001 28.5802 100.76 30.6002 100.76 33.1402C100.76 37.8402 97.54 43.1202 93.51 43.1202ZM24.1 5.4502C19.21 5.4502 15.2401 7.7602 15.2401 10.6002C15.2401 13.4402 19.21 15.7502 24.1 15.7502C28.99 15.7502 32.96 13.4402 32.96 10.6002C32.96 7.7602 28.99 5.4502 24.1 5.4502ZM24.1 44.2702C19.21 44.2702 15.2401 46.5802 15.2401 49.4202C15.2401 52.2602 19.21 54.5702 24.1 54.5702C28.99 54.5702 32.96 52.2602 32.96 49.4202C32.96 46.5802 28.99 44.2702 24.1 44.2702ZM11.72 12.6402C9.25003 11.2202 5.27002 13.5002 2.83002 17.7302C0.380016 21.9702 0.400045 26.5502 2.86005 27.9802C5.33005 29.4002 9.31006 27.1202 11.7501 22.8902C14.2001 18.6502 14.18 14.0702 11.72 12.6402ZM45.34 32.0502C42.87 30.6302 38.89 32.9102 36.45 37.1402C34 41.3802 34.02 45.9602 36.48 47.3902C38.95 48.8102 42.9301 46.5302 45.3701 42.3002C47.8201 38.0602 47.8 33.4802 45.34 32.0502ZM2.86005 32.0502C0.390045 33.4702 0.380016 38.0602 2.83002 42.3002C5.28002 46.5402 9.26003 48.8202 11.72 47.3902C14.19 45.9702 14.2001 41.3802 11.7501 37.1402C9.30006 32.9002 5.32005 30.6202 2.86005 32.0502ZM36.48 12.6402C34.01 14.0602 34 18.6502 36.45 22.8902C38.9 27.1302 42.88 29.4102 45.34 27.9802C47.81 26.5602 47.8201 21.9702 45.3701 17.7302C42.9201 13.4902 38.94 11.2102 36.48 12.6402Z" fill="white"/>
</svg>
