<svg width="220" height="48" viewBox="0 0 220 48" fill="none" xmlns="http://www.w3.org/2000/svg">
<path d="M68.8199 7.87012C66.2599 7.87012 63.78 8.19012 62.78 8.47012C61.31 8.88012 60.9499 9.52012 60.6699 10.8501L54.8599 37.6801C54.7699 38.2301 54.6799 38.6901 54.6799 39.1501C54.6799 40.4801 55.5499 41.3501 56.9699 41.3501C58.5299 41.3501 59.1699 40.3401 59.4899 38.7901L61.14 31.1401C62.28 31.2801 63.8 31.4101 65.95 31.4101C75.43 31.4101 81.33 26.2801 81.33 18.5401C81.33 11.7601 76.61 7.87012 68.83 7.87012H68.8199ZM65.71 27.0101C64.24 27.0101 63.0999 26.9601 62.0499 26.8301L65.1199 12.5901C66.0799 12.4501 67.4999 12.2701 68.9699 12.2701C74.0099 12.2701 76.5699 14.6501 76.5699 18.5901C76.5699 23.6301 72.9099 27.0101 65.7199 27.0101H65.71ZM217.99 32.5001C217.21 32.5001 216.71 32.9601 215.75 34.0101C214.06 35.7501 213 36.7101 211.68 36.7101C210.49 36.7101 209.85 35.7501 209.85 34.1901C209.85 33.3201 210.03 32.2701 210.26 31.1201L211.95 23.1501H217.03C218.63 23.1501 219.59 22.2301 219.59 20.5901C219.59 19.6701 218.99 18.9901 217.62 18.9901H212.86L213.68 15.2801C213.77 14.7301 213.86 14.2301 213.86 13.7701C213.86 12.4901 212.99 11.5701 211.57 11.5701C210.06 11.5701 209.37 12.5801 209.05 14.1301L208 18.9801H205.85C204.2 18.9801 203.24 19.9001 203.24 21.5401C203.24 22.4601 203.88 23.1401 205.25 23.1401H207.13L205.44 31.0201C205.26 31.8901 205.03 33.3101 205.03 34.7701C205.03 38.4801 206.95 41.1801 211.07 41.1801C213.45 41.1801 215.56 39.9901 217.16 38.5701C218.72 37.2001 219.86 35.5001 219.86 34.4001C219.86 33.3001 219.04 32.4801 217.98 32.4801L217.99 32.5001ZM112.68 10.5701C112.68 9.24012 111.76 8.37012 110.34 8.37012C108.83 8.37012 108.14 9.38012 107.82 10.9301L102.1 37.5301C101.96 38.0801 101.87 38.5401 101.87 39.0001C101.87 40.3301 102.79 41.2001 104.16 41.2001C105.72 41.2001 106.4 40.1901 106.72 38.6401L112.44 12.0401C112.53 11.4901 112.67 11.0301 112.67 10.5701H112.68ZM194.41 18.5401C187.08 18.5401 182.09 25.8201 182.09 32.7301C182.09 32.8601 182.09 32.9901 182.09 33.1201C180.94 34.8601 179.47 36.6701 178.47 36.6701C177.74 36.6701 177.46 35.9801 177.46 34.9301C177.46 33.6501 177.83 31.5001 178.24 29.6201L182.04 12.0401C182.13 11.4901 182.22 11.0301 182.22 10.5701C182.22 9.24012 181.35 8.37012 179.93 8.37012C178.37 8.37012 177.73 9.38012 177.41 10.9301L175.35 20.4501C174.25 19.3101 172.65 18.5301 170.22 18.5301C165.35 18.5301 160.46 22.2801 158.55 28.0201C156.45 33.4501 154.57 36.6601 153.09 36.6601C152.54 36.6601 152.22 36.2001 152.22 35.4201C152.22 33.1301 153.5 27.5401 154.05 24.8401C154.23 23.8301 154.32 23.4201 154.32 22.8301C154.32 20.8201 150.98 18.4301 146.63 18.4301C141.6 18.4301 137.04 21.6101 134.76 26.3501C131.37 32.3401 128.25 36.6501 126.71 36.6501C126.02 36.6501 125.79 35.7801 125.61 34.9601L124.47 28.6401L131.48 22.9201C132.12 22.3701 132.95 21.5901 132.95 20.5801C132.95 19.3401 132.13 18.5201 130.89 18.5201C129.97 18.5201 129.2 19.0701 128.42 19.7101L117.89 28.4101L121.42 12.0201C121.51 11.4701 121.65 11.0101 121.65 10.5501C121.65 9.22012 120.73 8.35012 119.31 8.35012C117.8 8.35012 117.11 9.36012 116.79 10.9101L111.07 37.5101C110.93 38.0601 110.84 38.5201 110.84 38.9801C110.84 40.3101 111.76 41.1801 113.13 41.1801C114.69 41.1801 115.37 40.1701 115.69 38.6201L116.42 35.1901L120.72 31.7101L121.77 37.0201C122.18 39.1301 123.28 41.1901 126.12 41.1901C128.96 41.1901 131.17 38.6101 133.39 35.1301C134.07 38.7801 136.66 41.1901 140.27 41.1901C143.88 41.1901 146.36 39.0401 147.96 36.1501V36.2401C147.96 39.2201 149.47 41.1801 152.13 41.1801C154.53 41.1801 156.53 39.7301 158.31 36.6501C159.32 39.3301 161.58 41.1801 164.72 41.1801C168.43 41.1801 171.08 38.9401 172.78 35.8201V36.0901C172.78 39.3901 174.43 41.1701 177.13 41.1701C179.51 41.1701 181.54 39.7901 183.27 37.5301C184.59 39.7801 186.94 41.1701 190.13 41.1701C197.46 41.1701 202.45 33.8901 202.45 26.9301C202.45 22.0301 199.47 18.5101 194.39 18.5101L194.41 18.5401ZM148.76 27.8301C147.43 33.5501 144.59 36.8001 141.39 36.8001C139.24 36.8001 138.05 35.1501 138.05 32.6801C138.05 27.8301 141.58 22.6101 146.29 22.6101C147.71 22.6101 148.81 23.0201 149.77 23.6201L148.76 27.8301ZM174.26 25.4001C172.79 32.1301 169.45 36.8001 165.79 36.8001C163.78 36.8001 162.58 35.2401 162.58 32.6801C162.58 27.7801 165.97 22.7001 170.5 22.7001C172.24 22.7001 173.57 23.3001 174.53 24.0701L174.26 25.4001ZM190.7 36.8001C188.04 36.8001 186.95 34.8801 186.95 32.4501C186.95 28.0101 190.02 22.9301 193.86 22.9301C196.52 22.9301 197.61 24.8501 197.61 27.2801C197.61 31.7701 194.54 36.8001 190.7 36.8001ZM92.7199 18.5301C85.3899 18.5301 80.4 25.8101 80.4 32.7201C80.4 37.6601 83.38 41.1901 88.46 41.1901C95.79 41.1901 100.78 33.9101 100.78 26.9501C100.78 22.0501 97.7999 18.5301 92.7199 18.5301ZM89.0099 36.8001C86.3499 36.8001 85.2599 34.8801 85.2599 32.4501C85.2599 28.0101 88.3299 22.9301 92.1699 22.9301C94.8299 22.9301 95.9199 24.8501 95.9199 27.2801C95.9199 31.7701 92.8499 36.8001 89.0099 36.8001Z" fill="white"/>
<path d="M22.8101 0.879883C18.1401 0.879883 14.36 3.07988 14.36 5.79988C14.36 8.51988 18.1401 10.7199 22.8101 10.7199C27.4801 10.7199 31.2601 8.51988 31.2601 5.79988C31.2601 3.07988 27.4801 0.879883 22.8101 0.879883ZM22.8101 37.9099C18.1401 37.9099 14.36 40.1099 14.36 42.8299C14.36 45.5499 18.1401 47.7499 22.8101 47.7499C27.4801 47.7499 31.2601 45.5499 31.2601 42.8299C31.2601 40.1099 27.4801 37.9099 22.8101 37.9099ZM11.0001 7.73988C8.65006 6.37988 4.85008 8.55988 2.52008 12.5999C0.190077 16.6399 0.200045 21.0199 2.55005 22.3699C4.90005 23.7299 8.70009 21.5499 11.0301 17.5099C13.3601 13.4699 13.3501 9.08988 11.0001 7.73988ZM43.0701 26.2499C40.7201 24.8899 36.9201 27.0699 34.5901 31.1099C32.2601 35.1499 32.2701 39.5299 34.6201 40.8799C36.9701 42.2399 40.77 40.0599 43.1 36.0199C45.43 31.9799 45.4201 27.5999 43.0701 26.2499ZM2.56006 26.2499C0.210055 27.6099 0.190087 31.9799 2.53009 36.0199C4.87009 40.0599 8.66007 42.2399 11.0101 40.8799C13.3601 39.5199 13.38 35.1499 11.04 31.1099C8.71004 27.0699 4.91006 24.8899 2.56006 26.2499ZM43.0701 22.3699C45.4201 21.0099 45.44 16.6399 43.1 12.5999C40.77 8.55988 36.9701 6.37988 34.6201 7.73988C32.2701 9.09988 32.2501 13.4699 34.5901 17.5099C36.9201 21.5499 40.7201 23.7299 43.0701 22.3699Z" fill="#E6007A"/>
</svg>
