<svg width="274" height="69" viewBox="0 0 274 69" fill="none" xmlns="http://www.w3.org/2000/svg">
<path d="M77.3101 39.6602C77.3101 40.1402 76.8801 40.5702 76.4001 40.5702H59.5601C59.9901 44.5802 63.1101 48.4802 67.5201 48.4802C70.5401 48.4802 72.7701 47.3102 74.4701 44.8802C74.6501 44.6302 74.9001 44.4502 75.2101 44.4502C75.6901 44.4502 76.0501 44.8002 76.0501 45.2902C76.0501 45.4702 76.0001 45.5902 75.9201 45.7202C74.2201 48.6902 70.8501 50.1302 67.5301 50.1302C61.8501 50.1302 57.8201 45.0602 57.8201 39.6302C57.8201 34.2002 61.8501 29.1602 67.5301 29.1602C73.2101 29.1602 77.3201 34.2302 77.3201 39.6602H77.3101ZM75.4801 38.8502C75.1301 34.5602 71.9301 30.8902 67.5201 30.8902C63.1101 30.8902 59.9601 34.5702 59.5601 38.8502H75.4801Z" fill="#8891B1"/>
<path d="M97.7699 29.4402C98.2499 29.4402 98.6099 29.8702 98.6099 30.3002C98.6099 30.7802 98.2599 31.1602 97.7699 31.1602H93.2599V48.9602C93.2599 49.3902 92.8799 49.8002 92.3999 49.8002C91.9199 49.8002 91.5399 49.3702 91.5399 48.9602V31.1602H87.1999C86.7199 31.1602 86.3599 30.7802 86.3599 30.3002C86.3599 29.8702 86.7099 29.4402 87.1999 29.4402H91.5399V23.0002C91.5399 22.5202 91.9199 22.1602 92.3999 22.1602C92.8799 22.1602 93.2599 22.5102 93.2599 23.0002V29.4402H97.7699Z" fill="#8891B1"/>
<path d="M125.21 38.0799V48.8299C125.21 49.3099 124.93 49.6699 124.5 49.6699C124.02 49.6699 123.79 49.3199 123.79 48.8299V38.0799C123.79 34.4499 121.69 30.8299 117.63 30.8299C112.43 30.8299 110.12 35.3699 110.4 40.0099C110.4 40.1399 110.37 40.6699 110.37 40.7499V48.8399C110.37 49.3199 110.14 49.6799 109.66 49.6799C109.18 49.6799 108.95 49.3299 108.95 48.8399V13.5099C108.95 13.0799 109.18 12.6699 109.66 12.6699C110.14 12.6699 110.37 13.0999 110.37 13.5099V33.4899C112.09 30.8999 114.4 29.1499 117.42 29.1499C122.36 29.1499 125.2 33.4899 125.2 38.0799H125.21Z" fill="#8891B1"/>
<path d="M155.58 39.6602C155.58 40.1402 155.15 40.5702 154.67 40.5702H137.83C138.26 44.5802 141.38 48.4802 145.79 48.4802C148.81 48.4802 151.04 47.3102 152.74 44.8802C152.92 44.6302 153.17 44.4502 153.48 44.4502C153.96 44.4502 154.32 44.8002 154.32 45.2902C154.32 45.4702 154.27 45.5902 154.19 45.7202C152.49 48.6902 149.12 50.1302 145.8 50.1302C140.12 50.1302 136.09 45.0602 136.09 39.6302C136.09 34.2002 140.12 29.1602 145.8 29.1602C151.48 29.1602 155.59 34.2302 155.59 39.6602H155.58ZM153.78 38.8502C153.43 34.5602 150.23 30.8902 145.82 30.8902C141.41 30.8902 138.26 34.5702 137.86 38.8502H153.78Z" fill="#8891B1"/>
<path d="M176.3 30.3C176.3 30.83 176 31.14 175.49 31.21C170.55 31.95 168.29 35.98 168.29 40.69V48.75C168.29 49.23 167.91 49.59 167.43 49.59C166.95 49.59 166.57 49.24 166.57 48.75V30.34C166.57 29.86 166.95 29.5 167.43 29.5C167.91 29.5 168.29 29.85 168.29 30.34V34.09C169.71 31.73 172.47 29.5 175.36 29.5C175.79 29.5 176.3 29.8 176.3 30.29V30.3Z" fill="#8891B1"/>
<path d="M203.99 39.6603C203.99 40.1403 203.56 40.5703 203.08 40.5703H186.24C186.67 44.5803 189.79 48.4803 194.2 48.4803C197.22 48.4803 199.45 47.3103 201.15 44.8803C201.33 44.6303 201.58 44.4503 201.89 44.4503C202.37 44.4503 202.73 44.8003 202.73 45.2903C202.73 45.4703 202.68 45.5903 202.6 45.7203C200.9 48.6903 197.53 50.1303 194.21 50.1303C188.53 50.1303 184.5 45.0603 184.5 39.6303C184.5 34.2003 188.53 29.1603 194.21 29.1603C199.89 29.1303 204 34.2303 204 39.6603H203.99ZM202.19 38.8503C201.84 34.5603 198.64 30.8903 194.23 30.8903C189.82 30.8903 186.67 34.5703 186.27 38.8503H202.19Z" fill="#8891B1"/>
<path d="M231.35 30.4799V48.9399C231.35 49.4199 230.92 49.7799 230.49 49.7799C230.01 49.7799 229.63 49.4299 229.63 48.9399V45.4699C228.21 48.2299 225.75 50.2399 222.61 50.2399C217.59 50.2399 214.8 45.8999 214.8 41.3099V30.5099C214.8 30.0799 215.18 29.6699 215.66 29.6699C216.14 29.6699 216.52 30.0999 216.52 30.5099V41.3099C216.52 44.9399 218.57 48.5599 222.63 48.5599C228.31 48.5599 229.65 43.2599 229.65 37.3999V30.5299C229.65 30.0999 230.03 29.6899 230.51 29.6899C230.92 29.6399 231.35 30.0699 231.35 30.4799Z" fill="#8891B1"/>
<path d="M273.84 38.0299V48.8299C273.84 49.3099 273.41 49.6699 272.98 49.6699C272.5 49.6699 272.12 49.3199 272.12 48.8299V38.0299C272.12 34.3999 270.07 30.8499 266.01 30.8499C260.94 30.8499 258.99 36.2799 258.99 40.5099V48.8299C258.99 49.3099 258.56 49.6699 258.13 49.6699C257.65 49.6699 257.27 49.3199 257.27 48.8299V38.0299C257.27 34.3999 255.27 30.8499 251.24 30.8499C246.12 30.8499 243.99 34.8799 244.17 40.2599V48.8299C244.17 49.3099 243.79 49.6699 243.31 49.6699C242.83 49.6699 242.45 49.3199 242.45 48.8299V30.3699C242.45 29.8899 242.83 29.5299 243.31 29.5299C243.79 29.5299 244.17 29.8799 244.17 30.3699V33.4399C245.59 30.8499 248.25 29.1499 251.27 29.1499C254.72 29.1499 257.38 31.3299 258.47 34.5299C259.86 31.3899 262.58 29.1499 266.08 29.1499C271.05 29.1499 273.86 33.4399 273.86 38.0199L273.84 38.0299Z" fill="#8891B1"/>
<path d="M21.05 0L0 34.94L21.05 25.38V0Z" fill="#8891B1"/>
<path d="M21.05 25.3799L0 34.9399L21.05 47.3899V25.3799Z" fill="#63688E"/>
<path d="M42.1401 34.94L21.0701 0V25.38L42.1401 34.94Z" fill="#63688E"/>
<path d="M21.05 47.3899L42.12 34.9399L21.05 25.3799V47.3899Z" fill="#464A75"/>
<path d="M0 38.9502L21.05 68.6202V51.3802L0 38.9502Z" fill="#8891B1"/>
<path d="M21.05 51.3699V68.6099L42.12 38.9399L21.05 51.3599V51.3699Z" fill="#63688E"/>
</svg>
