<svg width="230" height="60" viewBox="0 0 230 60" fill="none" xmlns="http://www.w3.org/2000/svg">
<path opacity="0.4" d="M99.45 26.0101C96.93 26.0101 94.77 27.4701 93.57 29.6301V12.9901C93.57 12.6501 93.27 12.2901 92.87 12.2901C92.47 12.2901 92.17 12.6301 92.17 12.9901V42.4301C92.17 42.8501 92.51 43.1701 92.95 43.1301C93.31 43.0901 93.58 42.7501 93.58 42.3901V35.6801C93.58 35.6201 93.54 35.1701 93.54 35.0701C93.29 31.2001 95.15 27.4301 99.47 27.4301C102.84 27.4301 104.55 30.4401 104.55 33.4601V42.4101C104.55 42.8101 104.85 43.1101 105.25 43.1101C105.59 43.1101 105.95 42.8101 105.95 42.4101V33.4601C105.95 29.6301 103.6 26.0101 99.45 26.0101ZM193.72 26.4301C193.21 26.2401 192.77 26.6601 192.77 27.0901V32.8301C192.77 37.7201 191.65 42.1401 186.93 42.1401C183.56 42.1401 181.85 39.1301 181.85 36.1101V27.1201C181.85 26.7801 181.55 26.4201 181.15 26.4201C180.75 26.4201 180.45 26.7601 180.45 27.1201V36.1101C180.45 39.9401 182.76 43.5601 186.93 43.5601C189.55 43.5601 191.61 41.8901 192.77 39.5801V42.5001C192.77 42.9001 193.07 43.2001 193.47 43.2001C193.81 43.2001 194.17 42.9001 194.17 42.5001V27.1301C194.17 26.8301 194 26.5601 193.73 26.4301H193.72ZM147.65 26.3001C145.24 26.3001 142.93 28.1601 141.77 30.1301V27.0201C141.77 26.6001 141.43 26.2801 140.99 26.3201C140.63 26.3601 140.36 26.7001 140.36 27.0601V42.3601C140.36 42.7801 140.7 43.1001 141.14 43.0601C141.5 43.0201 141.77 42.6801 141.77 42.3201V35.6101C141.77 31.6901 143.63 28.3301 147.76 27.7201C148.16 27.6601 148.42 27.4001 148.42 26.9601C148.42 26.5601 148.02 26.3001 147.66 26.3001H147.65ZM163.33 25.9601C158.59 25.9601 155.22 30.1701 155.22 34.7001C155.22 39.2301 158.61 43.4401 163.33 43.4401C166.08 43.4401 168.9 42.2301 170.31 39.7801C170.37 39.6701 170.42 39.5701 170.42 39.4201C170.42 39.0201 170.12 38.7201 169.72 38.7201C169.47 38.7201 169.25 38.8701 169.11 39.0801C167.71 41.0901 165.85 42.0401 163.33 42.0401C159.65 42.0401 157.04 38.8701 156.68 35.3901H170.71C171.13 35.3901 171.47 35.0501 171.47 34.6501C171.45 30.1401 168.04 25.9501 163.32 25.9501L163.33 25.9601ZM156.68 34.0001C157.04 30.5301 159.64 27.3501 163.33 27.3501C167.02 27.3501 169.68 30.5201 169.98 34.0001H156.69H156.68ZM229.7 33.3901C229.7 29.5801 227.35 26.0001 223.22 26.0001C220.32 26.0001 218.06 27.8401 216.89 30.4701C215.98 27.8201 213.76 26.0001 210.9 26.0001C208.38 26.0001 206.22 27.4201 205.02 29.5801V27.0201C205.02 26.6001 204.68 26.2801 204.24 26.3201C203.88 26.3601 203.61 26.7001 203.61 27.0601V42.4001C203.61 42.8201 203.95 43.1401 204.39 43.1001C204.75 43.0601 205.02 42.7201 205.02 42.3601V35.6101C205.06 35.5501 205.02 35.3601 205.02 35.2501C204.87 30.7601 206.63 27.4001 210.9 27.4001C214.27 27.4001 215.98 30.3601 215.98 33.3901V42.3801C215.98 42.7801 216.28 43.0801 216.68 43.0801C217.02 43.0801 217.38 42.7801 217.38 42.3801V35.4401C217.38 31.9301 218.99 27.4001 223.22 27.4001C226.59 27.4001 228.3 30.3601 228.3 33.3901V42.3801C228.3 42.7801 228.6 43.0801 229 43.0801C229.34 43.0801 229.7 42.7801 229.7 42.3801V33.3901ZM57.78 25.9601C53.04 25.9601 49.67 30.1701 49.67 34.7001C49.67 39.2301 53.06 43.4401 57.78 43.4401C60.53 43.4401 63.35 42.2301 64.76 39.7801C64.82 39.6701 64.87 39.5701 64.87 39.4201C64.87 39.0201 64.57 38.7201 64.17 38.7201C63.92 38.7201 63.7 38.8701 63.56 39.0801C62.16 41.0901 60.3 42.0401 57.78 42.0401C54.1 42.0401 51.49 38.8701 51.13 35.3901H65.16C65.58 35.3901 65.92 35.0501 65.92 34.6501C65.9 30.1401 62.49 25.9501 57.77 25.9501L57.78 25.9601ZM51.13 34.0001C51.49 30.5301 54.09 27.3501 57.78 27.3501C61.47 27.3501 64.13 30.5201 64.43 34.0001H51.14H51.13ZM123 25.9601C118.26 25.9601 114.89 30.1701 114.89 34.7001C114.89 39.2301 118.28 43.4401 123 43.4401C125.75 43.4401 128.57 42.2301 129.98 39.7801C130.04 39.6701 130.09 39.5701 130.09 39.4201C130.09 39.0201 129.79 38.7201 129.39 38.7201C129.14 38.7201 128.92 38.8701 128.78 39.0801C127.38 41.0901 125.52 42.0401 123 42.0401C119.32 42.0401 116.71 38.8701 116.35 35.3901H130.38C130.8 35.3901 131.14 35.0501 131.14 34.6501C131.12 30.1401 127.69 25.9501 122.99 25.9501L123 25.9601ZM116.33 34.0001C116.69 30.5301 119.29 27.3501 122.98 27.3501C126.67 27.3501 129.33 30.5201 129.63 34.0001H116.34H116.33ZM82.98 26.3001H79.23V20.8601C79.23 20.4401 78.89 20.1201 78.45 20.1601C78.09 20.2001 77.82 20.5401 77.82 20.9001V26.3001H74.2C73.8 26.3001 73.5 26.6401 73.5 27.0001C73.5 27.4001 73.8 27.7001 74.2 27.7001H77.82V42.4901C77.82 42.8301 78.12 43.1901 78.52 43.1901C78.92 43.1901 79.22 42.8501 79.22 42.4901V27.7001H82.99C83.39 27.7001 83.69 27.4001 83.69 27.0001C83.69 26.6601 83.39 26.3001 82.99 26.3001H82.98ZM0 33.1901L18.69 59.5301L37.4 33.1901L18.69 44.2201L0 33.1901ZM18.37 57.9901L2.24 35.2501L18.37 44.7701V57.9801V57.9901ZM19 44.7801L35.15 35.2601L19 58.0001V44.7801ZM36.69 30.9601L18.69 1.1001L0.68 30.9901L18.68 41.6401L36.69 30.9501V30.9601ZM19 2.8601L35.47 30.1701L19 22.7001V2.8601ZM19 23.4001L35.58 30.9201L19 40.7201V23.4001ZM18.37 40.7201L15.89 39.2601L1.81 30.9201L18.37 23.4001V40.7201ZM18.37 22.7001L1.92 30.1701L18.37 2.8601V22.7001Z" fill="white"/>
</svg>
