<svg width="231" height="60" viewBox="0 0 231 60" fill="none" xmlns="http://www.w3.org/2000/svg">
<path opacity="0.4" d="M117.409 22.6113V42.4513H131.179V39.0313H121.329V32.6213H131.179V29.2013H121.329V22.6213H129.279C130.329 22.6213 131.179 21.7713 131.179 20.7213V19.1913H117.409V22.6113ZM108.169 21.0813V34.9013C108.169 36.3213 107.829 37.4613 107.149 38.3213C106.489 39.1613 105.539 39.5813 104.289 39.5813C103.039 39.5813 102.089 39.1613 101.429 38.3213C100.789 37.4613 100.479 36.3013 100.479 34.8613H96.559C96.559 37.3213 97.239 39.2913 98.609 40.7813C99.969 42.2613 101.869 43.0113 104.299 43.0113C106.729 43.0113 108.659 42.2813 110.029 40.8213C111.419 39.3413 112.109 37.3613 112.109 34.9013V19.1813H110.089C109.039 19.1813 108.189 20.0313 108.189 21.0813H108.169ZM90.029 19.1813H88.179V36.0613L78.739 19.1813H74.619V42.4513H78.369V25.5713L87.809 42.4513H91.929V21.0813C91.929 20.0313 91.079 19.1813 90.029 19.1813ZM65.009 21.0813V42.4513H68.929V19.1813H66.909C65.859 19.1813 65.009 20.0313 65.009 21.0813ZM228.789 22.6113C229.839 22.6113 230.689 21.7613 230.689 20.7113V19.1813H216.919V42.4513H230.689V39.0313H220.839V32.6213H230.689V29.2013H220.839V22.6213H228.789V22.6113ZM147.239 22.0413C148.979 22.0413 150.399 22.4913 151.489 23.4013C152.239 24.0113 152.809 24.7813 153.209 25.7013C153.569 26.5213 154.309 27.1613 155.199 27.1613H157.489C157.169 24.6313 156.079 22.5813 154.239 21.0113C152.399 19.4113 150.049 18.6213 147.199 18.6213C143.799 18.6213 141.109 19.7513 139.119 22.0113C137.139 24.2713 136.139 27.2113 136.139 30.8213C136.139 34.4313 137.129 37.3713 139.119 39.6313C141.099 41.8913 143.799 43.0213 147.199 43.0213C150.049 43.0213 152.399 42.2313 154.239 40.6613C156.079 39.0613 157.159 37.0013 157.489 34.4813H155.199C154.309 34.4813 153.559 35.1213 153.209 35.9413C152.809 36.8613 152.229 37.6313 151.489 38.2413C150.399 39.1513 148.979 39.6013 147.239 39.6013C144.909 39.6013 143.089 38.8113 141.769 37.2413C140.469 35.6413 139.829 33.5113 139.829 30.8313C139.829 28.1513 140.479 26.0213 141.769 24.4513C143.089 22.8513 144.909 22.0613 147.239 22.0613V22.0413ZM207.249 20.5013L202.149 36.4313L197.049 20.5013C196.799 19.7113 196.069 19.1813 195.239 19.1813H192.359L200.269 42.4513H204.019L211.929 19.1813H209.049C208.229 19.1813 207.489 19.7113 207.239 20.5013H207.249ZM183.469 21.0813V42.4513H187.389V19.1813H185.369C184.319 19.1813 183.469 20.0313 183.469 21.0813ZM160.699 21.0813V22.7713H167.619V42.4513H171.539V22.7713H178.499V19.1813H162.599C161.549 19.1813 160.699 20.0313 160.699 21.0813ZM21.949 27.6613C25.189 23.6013 25.549 17.4813 21.499 13.6813C18.599 10.9413 14.889 10.2213 11.569 11.3913C10.529 11.7513 9.54904 12.3013 8.59904 13.0113C8.32904 13.2013 8.09904 13.4213 7.87904 13.6213L7.84904 13.6613C7.84904 13.6613 7.77903 13.7213 7.74903 13.7513C7.73903 13.7713 7.69904 13.7713 7.68904 13.7913C7.37904 14.1513 7.05902 14.5013 6.76902 14.8813C-0.630978 23.0513 -1.86096 38.2913 8.72904 48.1513C9.52904 48.7813 10.349 49.3513 11.189 49.8513C6.62904 45.9613 5.47903 43.1213 4.61903 39.2413C3.13903 32.3913 7.38904 23.1413 9.81904 19.8813C14.459 13.6113 20.769 19.2313 16.869 24.4113C14.029 28.1613 8.15904 37.8813 10.289 44.3913C11.699 48.6813 15.829 51.8613 18.469 53.3413C22.189 54.2913 25.529 54.5013 29.139 53.8313C23.629 52.2413 22.329 51.1213 20.579 49.7513C10.849 42.1813 17.879 33.7213 21.969 27.6613H21.949ZM40.859 12.7313C40.059 12.1013 39.239 11.5313 38.399 11.0313C42.959 14.9213 44.109 17.7613 44.969 21.6413C46.449 28.4913 42.199 37.7413 39.769 41.0013C35.129 47.2713 28.819 41.6513 32.719 36.4713C35.559 32.7213 41.429 23.0013 39.299 16.4913C37.889 12.2013 33.759 9.02133 31.119 7.54133C27.399 6.59133 24.059 6.38133 20.449 7.05133C25.959 8.64133 27.259 9.76133 29.009 11.1313C38.739 18.7013 31.709 27.1613 27.619 33.2213C24.379 37.2913 24.019 43.4013 28.079 47.2013C30.979 49.9413 34.689 50.6613 38.009 49.4913C39.049 49.1313 40.029 48.5813 40.979 47.8713C41.249 47.6813 41.479 47.4613 41.699 47.2613L41.729 47.2213C41.729 47.2213 41.799 47.1613 41.829 47.1313C41.839 47.1113 41.879 47.1113 41.889 47.0913C42.199 46.7313 42.519 46.3813 42.809 46.0013C50.209 37.8313 51.439 22.5913 40.849 12.7313H40.859Z" fill="white"/>
</svg>
