<svg width="1304" height="1112" viewBox="0 0 1304 1112" fill="none" xmlns="http://www.w3.org/2000/svg">
<g clip-path="url(#clip0_3595_8026)">
<g opacity="0.6">
<path d="M1328.86 949.78C1545.78 732.85 1545.78 381.16 1328.86 164.25C1111.95 -52.6798 760.25 -52.6798 543.34 164.25C326.42 381.15 326.42 732.84 543.34 949.78C760.26 1166.68 1111.95 1166.68 1328.86 949.78Z" fill="url(#paint0_radial_3595_8026)"/>
<g opacity="0.1">
<path d="M640.64 579.72C649.87 567.17 651.88 550.71 651.15 535.12C650.42 519.58 647.29 504.15 647.46 488.58C647.87 454.36 665.55 420.84 693.48 401.09C703.12 394.3 715.69 388.98 726.49 393.75C747.37 403 741.07 437.88 759.39 451.57C767.11 457.31 777.74 457.83 787.03 455.28C796.32 452.73 804.6 447.52 812.84 442.54C854.65 417.33 899.8 396.52 947.88 388.1C963.38 385.36 979.64 384.03 994.66 388.76C1009.67 393.5 1023.26 405.52 1025.81 421.06C1027.84 433.39 1022.91 445.8 1016.84 456.69C1007.9 472.79 996.08 487.55 980.95 498.05C965.82 508.52 947.18 514.51 928.86 512.57C910.95 510.69 894.71 501.6 877.53 496.36C861.56 491.48 843.94 489.99 828.37 496.08C812.84 502.15 800.03 517 799.86 533.68C799.71 547.98 808.37 561.16 809.04 575.49C809.65 588.34 803 601.45 792.03 608.13C781.05 614.81 765.99 614.42 755.62 606.77C746.07 599.73 741.31 587.76 739.71 576.02C738.11 564.25 739.19 552.3 738.96 540.47C738.67 526.17 734.11 509.08 720.38 505.15C707.34 501.41 694.57 512.38 687.86 524.16C680.34 537.24 676.51 552.47 676.97 567.57C677.43 581.73 681.5 595.55 682.28 609.68C683.06 623.84 679.64 639.44 668.43 648.11C655.8 657.83 636.98 655.4 623.66 646.7C610.3 638 601.22 624.26 592.48 610.99C590.07 607.31 585.34 598.63 591.55 595.72C594.71 594.25 603.05 597.88 607 597.63C620.04 596.85 632.87 590.29 640.65 579.73L640.64 579.72Z" fill="url(#paint1_linear_3595_8026)"/>
</g>
<g opacity="0.1">
<path d="M1061.86 430.91C1069.24 461.16 1064.85 494.85 1046.5 520.01C1028.15 545.17 995.14 559.93 964.77 553.09C956.96 551.32 949.41 548.24 941.4 547.72C919.59 546.28 901.1 564.2 890.62 583.4C872.01 617.45 869.71 661.2 889.17 694.83C908.59 728.44 951.02 748.61 988.36 737.91C1020.07 728.85 1042.86 701.12 1059.29 672.5C1075.72 643.88 1088.21 612.57 1109.81 587.67C1122.85 572.6 1142.21 559.44 1161.55 564.31C1174.03 567.44 1183.44 577.39 1192.47 586.53C1208.76 603.1 1226.35 618.83 1247.06 629.39C1267.76 639.92 1292.06 644.88 1314.54 639.09C1337.51 633.13 1356.59 616.43 1369.5 596.56C1382.42 576.67 1389.71 553.7 1395.31 530.68C1407.36 481.28 1411.69 426.67 1387.97 381.68C1382.25 370.85 1373.05 359.74 1360.79 359.74C1353.68 359.77 1347.17 363.59 1341.45 367.8C1317.67 385.31 1300.77 410.47 1280.24 431.69C1272.26 439.97 1263.43 447.81 1252.75 452.11C1242.06 456.4 1229.2 456.6 1219.65 450.2C1207.46 442 1203.74 425.16 1206.47 410.69C1209.2 396.23 1217.1 383.4 1224.01 370.46C1246.72 327.88 1260.33 278.45 1250.87 231.1C1248.4 218.83 1244.13 206.36 1235.34 197.47C1226.51 188.58 1212.2 184.2 1201.02 189.85C1189.12 195.89 1184.59 210.41 1181.97 223.54C1174.74 260.03 1172.62 299.09 1152.47 330.32C1147.56 337.97 1140.68 345.47 1131.68 346.47C1122.07 347.55 1113.44 340.96 1105.81 335C1093.96 325.83 1081.25 317.24 1066.73 313.53C1043.13 307.52 1003.61 323.39 1016.24 353.2C1020.62 363.51 1032.27 372.01 1038.74 381.1C1049.4 396.06 1057.58 412.96 1061.97 430.8L1061.88 430.91H1061.86Z" fill="url(#paint2_linear_3595_8026)"/>
</g>
<g opacity="0.1">
<path d="M757.75 382.13C759.06 375.01 766.23 367.03 772.24 371.08C774.77 372.77 775.7 375.98 776.77 378.86C781.1 390.55 792.01 401.16 804.44 400.03C811.29 399.37 817.33 395.38 823.11 391.64C853.1 372.14 885.27 356.12 918.9 343.88C927.2 340.86 938.41 338.95 943.23 346.32C946.8 351.75 944.22 359.43 939.37 363.69C934.49 368.01 928.02 369.76 921.8 371.56C891.52 380.37 862.42 393.09 835.42 409.35C820.67 418.24 800.61 431.51 782.66 425.92C765.59 420.66 754.61 399.05 757.75 382.15V382.13Z" fill="url(#paint3_linear_3595_8026)"/>
</g>
<g opacity="0.1">
<path d="M1090.66 283.99C1098.53 288.59 1105.85 295.16 1114.94 296.07C1129.22 297.51 1141.1 283.91 1144.38 269.94C1147.66 255.95 1145.11 241.38 1145.45 227.05C1145.89 209.87 1150.59 192.86 1159.07 177.93C1166.97 163.99 1180.47 150.97 1196.44 152.03C1205.91 152.67 1216.07 158.07 1224.14 153.11C1230.41 149.29 1232.04 140.28 1229.05 133.58C1226.06 126.87 1219.61 122.28 1212.82 119.56C1200.54 114.66 1186.34 114.91 1174.26 120.25C1156.98 127.9 1145.37 144.85 1139.21 162.67C1133.03 180.54 1131.43 199.55 1128.67 218.22C1127.04 229.19 1124.26 241.27 1115.05 247.5C1102.59 255.95 1084.79 249.49 1071.26 256.12C1063.85 259.75 1049.34 278.78 1062.9 282.94C1066.21 283.94 1071.23 279.84 1074.78 279.62C1080.24 279.2 1086.02 281.25 1090.66 284V283.99Z" fill="url(#paint4_linear_3595_8026)"/>
</g>
<g opacity="0.1">
<path d="M1260.69 363.2C1259.99 371.79 1265.22 381.65 1273.81 382.48C1280.34 383.09 1286.06 378.52 1291.03 374.25C1305.37 361.81 1319.72 349.4 1334.06 336.96C1342.77 329.42 1353.89 321.39 1364.78 325.13C1369.83 326.88 1373.7 330.95 1378.34 333.64C1382.96 336.33 1389.55 337.3 1393.15 333.33C1395.15 331.11 1395.65 327.87 1395.82 324.91C1396.95 306.26 1389.78 287.81 1379.15 272.44C1368.52 257.04 1354.61 244.24 1340.68 231.74C1336.12 227.67 1331.42 223.54 1325.67 221.43C1319.92 219.35 1312.83 219.82 1308.51 224.15C1300.55 232.1 1306.68 245.32 1311.67 255.43C1316.93 266.07 1320.44 278.7 1315.91 289.67C1309.23 305.88 1290.48 298.31 1282.58 312.19C1275.09 325.38 1261.94 348.01 1260.66 363.22L1260.69 363.19V363.2Z" fill="url(#paint5_linear_3595_8026)"/>
</g>
<g opacity="0.1">
<path d="M490.73 682.42C498.34 695.25 507.8 707.33 520.38 715.31C532.95 723.29 549.04 726.72 563.09 721.74C574.59 717.67 584.29 708.3 596.45 707.42C608.7 706.53 619.82 714.6 628.07 723.71C636.32 732.82 643.17 743.44 653.16 750.53C663.58 757.93 677.26 760.81 689.63 757.62C702.03 754.46 712.77 745.04 717.01 733.02C723.4 714.9 715.15 694.12 721.48 676C727.03 660.12 744.82 649.24 761.35 652.4C783.53 656.64 795.21 680.38 805.31 700.61C821.22 732.3 843.2 763.53 875.98 777.02C886.93 781.51 899.99 784.89 905.33 795.44C912.07 808.68 902.37 824.2 892.09 834.89C868.14 859.82 836.31 879.44 801.73 880.35C754.69 881.57 713.14 848.21 686.14 809.65C678.04 798.07 670.55 785.63 659.34 777.1C648.34 768.71 634.66 764.8 621.3 761.09C609.34 757.71 596.85 754.33 584.69 756.82C571.57 759.48 560.74 768.62 548.31 773.66C529.79 781.17 507.57 778.81 491.05 767.51C482.37 761.55 475.34 753.49 468.87 745.21C457.81 731.08 447.85 716.06 439.23 700.3C430.9 685.17 423.7 669.02 421.81 651.87C419.95 634.69 424.08 616.21 436.01 603.69C441.3 598.18 448.7 593.8 456.25 594.96C471.03 597.26 467.75 620.39 470.22 631.17C474.34 649.1 481.25 666.47 490.66 682.31L490.75 682.42H490.73Z" fill="url(#paint6_linear_3595_8026)"/>
</g>
<g opacity="0.1">
<path d="M549.32 384.56C553.15 382.7 557.33 381.26 561.54 381.73C571.67 382.87 577.36 394.03 579.31 404.03C581.26 414.06 581.52 425.11 588.05 432.93C597.25 443.98 615.29 443.21 627.45 435.51C639.62 427.84 647.46 415.12 655.67 403.29C670.22 382.34 687.09 363.03 705.87 345.77C719.26 333.5 736.71 321.5 754.21 326.29C764.43 329.06 772.36 337.18 782.05 341.42C805.98 351.98 833.33 337.35 853.3 320.45C873.25 303.58 892.7 282.91 918.54 279.09C944.5 275.24 971.7 289.56 996.62 281.25C1012.65 275.9 1025.02 260.89 1027.14 244.13C1029.14 228.31 1023.1 210.41 1032.13 197.25C1041.28 183.87 1060.27 183.34 1076 179.35C1104.69 172.04 1128.87 146.16 1130.15 116.6C1131.4 87.0101 1106.2 57.6201 1076.58 58.1401C1066.24 58.3301 1056.23 61.7701 1047.05 66.4201C1013.6 83.3801 989.73 117.92 985.73 155.21C983.06 180.01 988.28 206.77 976.55 228.77C970.37 240.38 959.71 249.47 947.28 253.76C929.13 259.99 908.78 255.95 890.46 261.68C863.81 269.99 847.75 296.2 828.01 315.95C822.81 321.13 816.83 326.2 809.57 327.42C803.82 328.39 797.93 326.87 792.61 324.51C766.54 313.07 748.19 282.12 719.73 283.23C694.7 284.2 678.47 310.13 671.42 334.15C664.36 358.14 660.91 385.07 643.14 402.72C638.09 407.76 630.83 411.95 624.03 409.76C615.06 406.82 612.94 395.3 612.36 385.88C611.66 374.8 610.94 363.69 610.24 352.58C609.43 339.92 608.15 326.09 599.29 317.06C591.07 308.69 577.98 306.62 566.51 309.08C555.04 311.55 544.79 317.86 535.04 324.43C514.72 338.06 469.1 370.45 471.37 399.95C472.62 415.99 489.23 423.08 502.87 417.63C520.73 410.51 532.17 392.97 549.36 384.55H549.3L549.32 384.56Z" fill="url(#paint7_linear_3595_8026)"/>
</g>
<g opacity="0.1">
<path d="M626.56 95.82C563.73 137.99 512.28 190.77 472.96 250.19C474.96 252.66 477.84 254.37 480.83 255.48C492.53 260 505.95 257.39 517.21 251.85C528.48 246.34 538.17 238.16 548.34 230.79C562.42 220.59 577.58 211.87 593.46 204.83C606.82 198.9 625.57 195.63 633.44 207.99C637.45 214.25 636.75 222.34 635.94 229.77C633.41 252.38 630.92 275.04 628.39 297.65C627.49 305.82 627 315.19 632.77 320.98C641.86 330.07 657.57 322.48 666.07 312.86C688.4 287.51 695.13 250.05 721.24 228.66C728.18 223.01 737.38 218.6 745.89 221.37C755.38 224.47 759.94 234.89 764.21 243.92C769.58 255.22 776.17 265.95 783.87 275.78C802.25 299.33 818.83 288.97 827.13 265.03C835.11 241.95 856.02 227.74 879.63 224.75C897.11 222.53 914.88 216.91 927.74 204.33C940.57 191.83 942.69 173.36 942.66 156.29C942.63 134.37 944.63 114.37 958.89 96.7C972.68 79.52 992.8 65.23 1013.65 58.19C1025.38 54.26 1038.24 53.65 1049.31 48.02C1060.75 42.23 1068.12 30.62 1070.53 18.1C923.58 -18.53 762.26 4.77 626.58 95.79L626.55 95.82H626.56Z" fill="url(#paint8_linear_3595_8026)"/>
</g>
<g opacity="0.5">
<path d="M1328.86 949.78C1545.78 732.85 1545.78 381.16 1328.86 164.25C1111.95 -52.6798 760.25 -52.6798 543.34 164.25C326.42 381.15 326.42 732.84 543.34 949.78C760.26 1166.68 1111.95 1166.68 1328.86 949.78Z" fill="url(#paint9_radial_3595_8026)"/>
</g>
<g opacity="0.2">
<path d="M640.64 579.72C649.87 567.17 651.88 550.71 651.15 535.12C650.42 519.58 647.29 504.15 647.46 488.58C647.87 454.36 665.55 420.84 693.48 401.09C703.12 394.3 715.69 388.98 726.49 393.75C747.37 403.03 741.07 437.88 759.39 451.57C767.11 457.31 777.74 457.83 787.03 455.28C796.32 452.73 804.6 447.52 812.84 442.54C854.65 417.33 899.8 396.52 947.88 388.1C963.38 385.36 979.64 384.03 994.66 388.76C1009.67 393.5 1023.26 405.52 1025.81 421.06C1027.84 433.39 1022.91 445.8 1016.84 456.69C1007.9 472.79 996.08 487.55 980.95 498.05C965.82 508.52 947.18 514.51 928.86 512.57C910.94 510.69 894.71 501.6 877.53 496.36C861.56 491.48 843.94 489.99 828.37 496.08C812.84 502.18 800.03 517 799.86 533.68C799.71 547.98 808.37 561.16 809.04 575.49C809.65 588.34 803 601.45 792.03 608.13C781.05 614.81 765.99 614.42 755.62 606.8C746.07 599.74 741.31 587.77 739.71 576.02C738.11 564.25 739.19 552.3 738.96 540.47C738.67 526.17 734.11 509.08 720.38 505.15C707.34 501.41 694.57 512.38 687.86 524.16C680.34 537.26 676.51 552.47 676.97 567.57C677.43 581.73 681.5 595.55 682.28 609.68C683.06 623.84 679.64 639.46 668.43 648.11C655.8 657.83 636.98 655.4 623.66 646.72C610.3 637.99 601.22 624.25 592.48 610.98C590.07 607.3 585.34 598.62 591.55 595.71C594.71 594.24 603.05 597.87 607 597.62C620.04 596.84 632.87 590.28 640.65 579.72H640.64Z" stroke="#220E6E"/>
<path d="M1061.85 430.91C1069.23 461.16 1064.84 494.85 1046.49 520.01C1028.14 545.17 995.13 559.93 964.76 553.09C956.95 551.32 949.4 548.24 941.39 547.72C919.58 546.28 901.09 564.2 890.61 583.4C872 617.45 869.7 661.22 889.16 694.83C908.58 728.44 951.01 748.61 988.34 737.91C1020.05 728.85 1042.84 701.15 1059.27 672.5C1075.7 643.88 1088.19 612.57 1109.79 587.67C1122.83 572.6 1142.19 559.44 1161.53 564.31C1174.01 567.44 1183.42 577.39 1192.45 586.53C1208.74 603.1 1226.33 618.83 1247.04 629.39C1267.74 639.92 1292.04 644.9 1314.52 639.09C1337.48 633.13 1356.56 616.43 1369.48 596.56C1382.4 576.67 1389.69 553.7 1395.29 530.68C1407.34 481.28 1411.67 426.67 1387.95 381.68C1382.23 370.85 1373.03 359.74 1360.77 359.74C1353.66 359.77 1347.15 363.59 1341.43 367.8C1317.65 385.31 1300.75 410.47 1280.22 431.69C1272.24 439.97 1263.41 447.81 1252.73 452.11C1242.04 456.4 1229.18 456.6 1219.63 450.2C1207.44 442 1203.72 425.16 1206.45 410.69C1209.18 396.23 1217.08 383.4 1223.99 370.46C1246.7 327.88 1260.31 278.45 1250.85 231.1C1248.38 218.83 1244.11 206.36 1235.32 197.47C1226.49 188.58 1212.18 184.2 1201 189.85C1189.1 195.89 1184.57 210.41 1181.95 223.54C1174.72 260.03 1172.6 299.09 1152.45 330.32C1147.54 337.97 1140.66 345.47 1131.66 346.47C1122.05 347.55 1113.42 340.96 1105.79 335C1093.94 325.83 1081.23 317.24 1066.71 313.53C1043.1 307.52 1003.59 323.39 1016.22 353.2C1020.6 363.51 1032.25 372.01 1038.72 381.1C1049.38 396.06 1057.56 412.96 1061.95 430.83L1061.86 430.91H1061.85Z" stroke="#220E6E"/>
<path d="M757.74 382.13C759.05 375.01 766.22 367.03 772.23 371.08C774.76 372.8 775.69 375.98 776.76 378.86C781.09 390.55 792 401.16 804.43 400.03C811.28 399.39 817.32 395.38 823.1 391.64C853.09 372.14 885.26 356.12 918.89 343.88C927.19 340.86 938.4 338.95 943.22 346.32C946.79 351.75 944.21 359.43 939.36 363.72C934.48 368.01 928.01 369.79 921.79 371.59C891.51 380.37 862.41 393.09 835.41 409.35C820.66 418.24 800.6 431.51 782.65 425.92C765.58 420.66 754.6 399.05 757.74 382.15V382.13Z" stroke="#220E6E"/>
<path d="M1090.66 283.99C1098.53 288.59 1105.85 295.16 1114.94 296.07C1129.22 297.51 1141.1 283.91 1144.38 269.94C1147.66 255.98 1145.11 241.38 1145.45 227.05C1145.89 209.87 1150.59 192.86 1159.07 177.93C1166.97 163.99 1180.47 150.97 1196.44 152.03C1205.9 152.67 1216.07 158.07 1224.14 153.11C1230.41 149.29 1232.04 140.28 1229.05 133.58C1226.06 126.87 1219.61 122.28 1212.82 119.56C1200.54 114.66 1186.34 114.91 1174.26 120.25C1156.98 127.9 1145.37 144.85 1139.21 162.67C1133.03 180.54 1131.43 199.55 1128.67 218.22C1127.04 229.19 1124.26 241.27 1115.05 247.53C1102.59 255.98 1084.79 249.5 1071.26 256.12C1063.85 259.75 1049.34 278.78 1062.9 282.94C1066.21 283.94 1071.23 279.84 1074.78 279.62C1080.24 279.2 1086.02 281.25 1090.66 284V283.99Z" stroke="#220E6E"/>
<path d="M1260.69 363.2C1259.99 371.79 1265.22 381.65 1273.81 382.48C1280.34 383.09 1286.06 378.52 1291.03 374.25C1305.37 361.84 1319.72 349.4 1334.06 336.96C1342.77 329.42 1353.89 321.39 1364.78 325.13C1369.83 326.88 1373.7 330.95 1378.34 333.64C1382.96 336.33 1389.55 337.3 1393.15 333.33C1395.16 331.11 1395.65 327.87 1395.82 324.91C1396.95 306.26 1389.78 287.81 1379.15 272.44C1368.52 257.04 1354.61 244.24 1340.68 231.74C1336.12 227.67 1331.42 223.54 1325.67 221.43C1319.92 219.35 1312.83 219.82 1308.51 224.15C1300.55 232.1 1306.68 245.32 1311.67 255.43C1316.93 266.07 1320.44 278.7 1315.91 289.67C1309.23 305.88 1290.48 298.34 1282.58 312.19C1275.09 325.38 1261.94 348.01 1260.66 363.22L1260.69 363.19V363.2Z" stroke="#220E6E"/>
<path d="M490.73 682.42C498.34 695.25 507.8 707.33 520.38 715.31C532.95 723.29 549.04 726.72 563.09 721.74C574.59 717.67 584.29 708.3 596.45 707.42C608.7 706.53 619.82 714.6 628.07 723.71C636.32 732.82 643.17 743.46 653.16 750.53C663.58 757.93 677.26 760.81 689.63 757.62C702.03 754.46 712.77 745.04 717.01 733.02C723.4 714.9 715.15 694.12 721.48 676C727.03 660.12 744.82 649.24 761.35 652.4C783.53 656.64 795.21 680.38 805.31 700.61C821.22 732.3 843.2 763.53 875.98 777.02C886.93 781.51 899.99 784.89 905.33 795.44C912.07 808.68 902.37 824.2 892.09 834.89C868.14 859.82 836.31 879.44 801.73 880.35C754.69 881.57 713.14 848.21 686.14 809.65C678.04 798.07 670.55 785.63 659.34 777.1C648.34 768.71 634.66 764.8 621.3 761.09C609.34 757.71 596.85 754.36 584.69 756.82C571.57 759.48 560.74 768.62 548.31 773.66C529.79 781.17 507.57 778.81 491.05 767.51C482.37 761.55 475.34 753.49 468.87 745.21C457.81 731.08 447.85 716.06 439.23 700.3C430.9 685.17 423.7 669.02 421.81 651.87C419.95 634.69 424.08 616.21 436.01 603.69C441.3 598.18 448.7 593.8 456.25 594.96C471.03 597.26 467.75 620.39 470.22 631.17C474.34 649.12 481.25 666.47 490.66 682.31L490.75 682.42H490.73Z" stroke="#220E6E"/>
<path d="M549.32 384.56C553.15 382.7 557.33 381.26 561.54 381.73C571.67 382.87 577.36 394.03 579.31 404.03C581.26 414.06 581.52 425.11 588.05 432.93C597.25 443.98 615.29 443.21 627.45 435.51C639.62 427.84 647.46 415.12 655.67 403.29C670.22 382.34 687.09 363.06 705.87 345.77C719.26 333.5 736.71 321.5 754.21 326.29C764.43 329.06 772.36 337.18 782.06 341.42C805.99 351.98 833.34 337.35 853.31 320.45C873.26 303.58 892.71 282.91 918.55 279.09C944.51 275.24 971.71 289.56 996.63 281.25C1012.66 275.9 1025.03 260.89 1027.15 244.13C1029.15 228.31 1023.11 210.41 1032.14 197.25C1041.29 183.87 1060.28 183.34 1076.01 179.35C1104.7 172.04 1128.88 146.16 1130.16 116.6C1131.41 87.0101 1106.21 57.6201 1076.59 58.1401C1066.26 58.3301 1056.24 61.7701 1047.06 66.4201C1013.61 83.3801 989.74 117.92 985.74 155.21C983.07 180.01 988.3 206.77 976.56 228.8C970.38 240.38 959.72 249.47 947.29 253.76C929.14 259.99 908.79 255.95 890.47 261.68C863.82 269.99 847.76 296.2 828.01 315.95C822.81 321.13 816.83 326.2 809.57 327.42C803.82 328.39 797.93 326.87 792.61 324.51C766.54 313.07 748.19 282.12 719.73 283.23C694.7 284.2 678.47 310.13 671.42 334.15C664.36 358.14 660.91 385.07 643.14 402.72C638.09 407.79 630.83 411.95 624.03 409.76C615.06 406.82 612.94 395.3 612.36 385.88C611.66 374.8 610.94 363.69 610.24 352.58C609.43 339.92 608.15 326.09 599.29 317.09C591.07 308.7 577.98 306.62 566.51 309.08C555.04 311.55 544.79 317.86 535.04 324.43C514.72 338.06 469.1 370.45 471.37 399.95C472.62 415.99 489.23 423.08 502.87 417.63C520.73 410.51 532.17 392.97 549.36 384.55H549.3L549.32 384.56Z" stroke="#220E6E"/>
<path d="M626.56 95.82C563.73 137.99 512.28 190.77 472.96 250.19C474.96 252.66 477.84 254.37 480.83 255.48C492.53 260 505.95 257.39 517.21 251.85C528.48 246.34 538.17 238.16 548.34 230.79C562.42 220.59 577.58 211.87 593.46 204.83C606.82 198.9 625.57 195.66 633.44 207.99C637.45 214.25 636.75 222.34 635.94 229.77C633.41 252.38 630.92 275.04 628.39 297.65C627.49 305.82 627 315.19 632.77 320.98C641.86 330.07 657.57 322.48 666.07 312.86C688.4 287.51 695.13 250.08 721.24 228.66C728.18 223.01 737.38 218.63 745.89 221.37C755.38 224.47 759.94 234.89 764.21 243.92C769.58 255.22 776.17 265.95 783.87 275.78C802.25 299.33 818.83 288.97 827.13 265.03C835.11 241.95 856.02 227.74 879.63 224.75C897.11 222.53 914.88 216.91 927.74 204.33C940.57 191.83 942.69 173.36 942.66 156.29C942.63 134.37 944.63 114.37 958.89 96.7C972.68 79.55 992.8 65.23 1013.65 58.19C1025.38 54.26 1038.24 53.65 1049.31 48.02C1060.75 42.23 1068.12 30.62 1070.53 18.1C923.58 -18.53 762.26 4.77 626.58 95.79L626.55 95.82H626.56Z" stroke="#220E6E"/>
</g>
<path opacity="0.6" d="M169.58 833.08C179.02 856.19 213.97 867.86 271.1 867.85C311.78 867.85 363.72 861.93 425.68 850.02C574.04 821.51 762.53 762.17 956.41 682.95C1150.28 603.73 1326.38 514.1 1452.27 430.56C1578.68 346.67 1639.4 278.7 1623.24 239.16C1614.28 217.24 1582.89 205.59 1529.94 204.51C1489.73 203.7 1438.81 208.95 1378.14 220.14C1378.75 220.97 1379.37 221.81 1379.96 222.63C1518.8 197.2 1605.57 203.22 1620.68 240.2C1628.49 259.3 1617.18 285.7 1587.07 318.67C1557.68 350.85 1511.82 387.71 1450.74 428.24C1325 511.68 1149.07 601.22 955.36 680.38C761.64 759.53 573.34 818.81 425.15 847.29C353.17 861.13 294.6 866.93 251.09 864.53C206.5 862.07 179.94 851.14 172.13 832.02C154.78 789.51 233.16 710.66 383.89 617.11C383.78 616.1 383.68 615.08 383.58 614.07C318.37 654.52 265.38 693.05 228.48 726.98C179.16 772.32 159.34 808.02 169.57 833.07L169.58 833.08ZM132.38 871.7C144.74 901.96 189.91 917.36 263.08 917.35C303.66 917.35 352.87 912.61 409.85 903.04C568.96 876.32 770.04 815.25 976.06 731.07C1182.08 646.88 1368.39 549.66 1500.69 457.32C1633.49 364.62 1696.04 287.68 1676.81 240.65C1656.41 190.79 1546.89 181.49 1373.4 213.85C1374.05 214.69 1374.68 215.51 1375.3 216.34C1449.44 202.65 1513.45 196.37 1562.55 198.07C1624.83 200.25 1663.45 215.33 1674.23 241.69C1683.6 264.61 1672.59 295.2 1641.49 332.6C1611.19 369.04 1563.28 410.24 1499.1 455.04C1366.97 547.27 1180.85 644.38 975.01 728.5C769.17 812.6 568.3 873.61 409.39 900.3C332.19 913.26 269.14 917.41 221.99 912.61C173.59 907.69 144.3 893.57 134.94 870.64C122.83 840.98 145.56 797.44 200.68 744.73C243.93 703.37 306.31 657.09 383.11 609.23C383.01 608.2 382.91 607.17 382.82 606.14C305.32 654.37 242.37 701.03 198.77 742.73C142.76 796.3 119.8 840.89 132.38 871.69V871.7ZM65.2 924.42C80.02 960.72 133.89 979.27 220.77 979.27C263.62 979.27 314.5 974.76 372.68 965.63C548.23 938.1 769.56 872.01 995.91 779.53C1222.25 687.05 1426.53 579.23 1571.12 475.94C1716.2 372.3 1783.91 285.38 1761.78 231.18C1747.77 196.89 1697.63 177.98 1616.78 176.49C1551.07 175.28 1465.6 185.43 1367.18 206.02C1367.85 206.83 1368.49 207.64 1369.14 208.44C1466.77 188.09 1551.57 178.05 1616.73 179.26C1696.39 180.73 1745.66 199.05 1759.22 232.23C1770.07 258.79 1758.46 293.73 1724.72 336.07C1691.89 377.27 1639.67 423.57 1569.51 473.69C1425.08 576.86 1221 684.56 994.86 776.97C768.71 869.37 547.6 935.4 372.25 962.9C287.07 976.26 217.36 979.77 165.08 973.35C111.35 966.75 78.61 949.94 67.76 923.37C52.84 886.89 80.98 833.62 149.15 769.34C204.49 717.15 284.35 659.38 382.36 600.42C382.28 599.39 382.18 598.36 382.11 597.34C283.39 656.65 202.95 714.8 147.24 767.33C78.17 832.47 49.79 886.79 65.18 924.43L65.2 924.42ZM1836.04 220.61C1819.61 180.43 1759.97 158.91 1663.56 158.4C1583.58 157.97 1479.83 171.86 1361.04 198.74C1361.72 199.54 1362.4 200.33 1363.07 201.12C1479.28 174.89 1580.94 161.16 1659.95 161.16C1661.15 161.16 1662.36 161.16 1663.55 161.16C1758.75 161.67 1817.51 182.59 1833.48 221.65C1845.56 251.22 1833.37 289.8 1797.23 336.31C1762.09 381.54 1705.98 432.2 1630.46 486.88C1475.03 599.43 1254.96 716.35 1010.8 816.12C766.66 915.89 527.69 986.53 337.9 1015.03C245.7 1028.88 170.17 1032 113.41 1024.32C55.04 1016.43 19.31 997.43 7.22998 967.87C-10.08 925.5 23.08 863.79 103.13 789.41C169.47 727.76 264.96 660.12 381.78 591.82C381.72 590.79 381.64 589.76 381.58 588.73C264.04 657.38 167.95 725.39 101.24 787.38C20.27 862.62 -13.13 925.39 4.64998 968.92C21.49 1010.12 82.42 1031.23 180.45 1031.23C225.47 1031.23 278.32 1026.78 338.3 1017.77C528.3 989.24 767.51 918.53 1011.84 818.69C1256.2 718.84 1476.47 601.81 1632.08 489.13C1788.18 376.1 1860.62 280.74 1836.04 220.61Z" fill="url(#paint10_linear_3595_8026)"/>
</g>
</g>
<defs>
<radialGradient id="paint0_radial_3595_8026" cx="0" cy="0" r="1" gradientUnits="userSpaceOnUse" gradientTransform="translate(841.251 -5.2101) rotate(-33.87) scale(1019.58 1019.58)">
<stop stop-color="#FC49EF"/>
<stop offset="0.09" stop-color="#F446E9" stop-opacity="0.96"/>
<stop offset="0.23" stop-color="#DE3FDA" stop-opacity="0.86"/>
<stop offset="0.42" stop-color="#BC34C2" stop-opacity="0.68"/>
<stop offset="0.64" stop-color="#8C25A0" stop-opacity="0.45"/>
<stop offset="0.89" stop-color="#4F1276" stop-opacity="0.15"/>
<stop offset="1" stop-color="#320962" stop-opacity="0"/>
</radialGradient>
<linearGradient id="paint1_linear_3595_8026" x1="858.95" y1="606.21" x2="731.13" y2="370.1" gradientUnits="userSpaceOnUse">
<stop stop-color="#3F195B"/>
<stop offset="1" stop-color="#742586"/>
</linearGradient>
<linearGradient id="paint2_linear_3595_8026" x1="1218.45" y1="708.13" x2="1038.37" y2="325.8" gradientUnits="userSpaceOnUse">
<stop stop-color="#3F195B"/>
<stop offset="1" stop-color="#742586"/>
</linearGradient>
<linearGradient id="paint3_linear_3595_8026" x1="856.46" y1="400.4" x2="846.06" y2="344.43" gradientUnits="userSpaceOnUse">
<stop stop-color="#8D2C9A"/>
<stop offset="1" stop-color="#A431AC"/>
</linearGradient>
<linearGradient id="paint4_linear_3595_8026" x1="1154.79" y1="233.97" x2="1135.64" y2="187.15" gradientUnits="userSpaceOnUse">
<stop stop-color="#8D2C9A"/>
<stop offset="1" stop-color="#A431AC"/>
</linearGradient>
<linearGradient id="paint5_linear_3595_8026" x1="1341.63" y1="371.06" x2="1293.6" y2="251.85" gradientUnits="userSpaceOnUse">
<stop stop-color="#3F195B"/>
<stop offset="1" stop-color="#742586"/>
</linearGradient>
<linearGradient id="paint6_linear_3595_8026" x1="679.77" y1="911.82" x2="648.86" y2="535.45" gradientUnits="userSpaceOnUse">
<stop stop-color="#3F195B"/>
<stop offset="1" stop-color="#742586"/>
</linearGradient>
<linearGradient id="paint7_linear_3595_8026" x1="833.33" y1="338.78" x2="775.15" y2="186.4" gradientUnits="userSpaceOnUse">
<stop stop-color="#8D2C9A"/>
<stop offset="1" stop-color="#A431AC"/>
</linearGradient>
<linearGradient id="paint8_linear_3595_8026" x1="792.56" y1="254.54" x2="753.78" y2="30.13" gradientUnits="userSpaceOnUse">
<stop stop-color="#8B2B98"/>
<stop offset="1" stop-color="#BE3AC0"/>
</linearGradient>
<radialGradient id="paint9_radial_3595_8026" cx="0" cy="0" r="1" gradientUnits="userSpaceOnUse" gradientTransform="translate(700.572 84.2278) rotate(-28.85) scale(556.244 244.757)">
<stop stop-color="white"/>
<stop offset="0.12" stop-color="#FEE3FC" stop-opacity="0.85"/>
<stop offset="0.36" stop-color="#FDADF7" stop-opacity="0.55"/>
<stop offset="0.58" stop-color="#FC82F4" stop-opacity="0.32"/>
<stop offset="0.77" stop-color="#FC63F1" stop-opacity="0.14"/>
<stop offset="0.91" stop-color="#FC50EF" stop-opacity="0.04"/>
<stop offset="1" stop-color="#FC49EF" stop-opacity="0"/>
</radialGradient>
<linearGradient id="paint10_linear_3595_8026" x1="243.06" y1="687.59" x2="1815.11" y2="472.17" gradientUnits="userSpaceOnUse">
<stop stop-color="#E6007A"/>
<stop offset="0.21" stop-color="#703AC2"/>
<stop offset="0.46" stop-color="#0070EB"/>
<stop offset="0.77" stop-color="#0297FB"/>
<stop offset="1" stop-color="#0AE2FF"/>
</linearGradient>
<clipPath id="clip0_3595_8026">
<rect width="1304" height="1112" fill="white"/>
</clipPath>
</defs>
</svg>
