<svg width="878" height="252" viewBox="0 0 878 252" fill="none" xmlns="http://www.w3.org/2000/svg">
<path d="M218.906 102.147C214.796 41.7673 162.526 -3.85272 102.146 0.25728C72.0656 2.30728 45.6556 16.3073 27.2256 37.3073L27.1756 37.2673C27.0556 37.4373 26.9356 37.6073 26.8156 37.7773C8.50563 58.8773 -1.78437 86.9373 0.255633 117.017C0.445633 119.887 0.785632 122.707 1.19563 125.497C1.21563 125.627 1.23563 125.747 1.24563 125.877C1.52563 127.717 1.84563 129.547 2.20563 131.357C2.20563 131.387 2.21563 131.427 2.22563 131.457C2.55563 133.097 2.92563 134.727 3.33563 136.337C15.9956 186.807 63.2756 222.547 117.016 218.897C177.396 214.787 223.016 162.517 218.906 102.137V102.147ZM195.056 103.767C195.566 111.197 195.096 118.477 193.766 125.477C193.746 125.437 193.736 125.397 193.716 125.357C185.776 105.937 170.056 91.9173 156.236 84.1773C159.036 51.2773 147.866 37.4073 135.236 35.1573C134.896 35.0873 134.546 35.0373 134.196 34.9873C124.166 33.6973 114.996 40.7873 113.716 50.8173C112.426 60.8473 119.516 70.0173 129.546 71.2973C130.416 71.4073 131.286 71.4373 132.146 71.4273C132.206 72.5373 132.236 73.7173 132.246 74.9473C120.566 72.0573 109.646 71.4873 99.6856 72.3773C95.9656 72.6273 92.2356 73.0973 88.5356 73.7873C89.7756 62.6773 93.9456 50.2073 102.036 41.0773C109.856 32.2573 121.476 27.1973 134.166 28.4973C136.566 28.7473 139.136 29.3373 141.446 30.1073C141.556 30.1473 141.666 30.1773 141.766 30.2073C171.136 42.1773 192.756 70.0473 195.056 103.767ZM118.676 120.507C118.676 120.507 118.656 120.527 118.656 120.547C116.046 124.317 112.936 128.037 109.276 131.637C103.806 125.817 99.4056 119.547 96.0756 113.057C95.9056 112.707 95.7256 112.377 95.5556 112.027C95.5556 112.017 95.5456 111.997 95.5356 111.987C93.5756 107.837 91.9056 103.277 90.6256 98.3173C98.4156 96.4873 106.046 95.8073 113.346 96.1673C113.736 96.1973 114.106 96.1973 114.496 96.2373C114.506 96.2373 114.526 96.2373 114.536 96.2373C119.106 96.6173 123.876 97.4473 128.806 98.8073C126.496 106.467 123.266 113.407 119.316 119.547C119.096 119.867 118.906 120.187 118.686 120.517L118.676 120.507ZM81.2256 28.7573C81.2256 28.7573 81.1856 28.8073 81.1656 28.8373C68.3256 45.4173 64.0456 66.0273 64.2356 81.8673C34.3456 95.8973 27.9156 112.497 32.2856 124.567C32.3956 124.897 32.5256 125.227 32.6656 125.547C36.5656 134.877 47.2856 139.267 56.6156 135.367C65.9456 131.467 70.3356 120.747 66.4456 111.417C66.1056 110.607 65.6956 109.837 65.2556 109.107C66.1956 108.497 67.2156 107.867 68.2956 107.237C71.6256 118.807 76.5656 128.587 82.3156 136.767C84.3856 139.857 86.6556 142.847 89.0956 145.707C78.8556 150.187 65.9656 152.817 54.0056 150.377C42.4556 148.017 32.2656 140.477 27.0456 128.847C26.0556 126.647 25.2856 124.127 24.8056 121.737C24.5056 119.647 24.2556 117.547 24.1156 115.417C21.4456 76.1673 45.7956 41.2173 81.2356 28.7773L81.2256 28.7573ZM115.386 195.057C92.0756 196.647 70.2856 188.687 53.8156 174.557C74.5956 177.387 94.5856 170.797 108.196 162.707C135.306 181.597 152.896 178.857 161.166 169.047C161.396 168.787 161.616 168.507 161.826 168.227C167.956 160.187 166.396 148.697 158.356 142.577C150.316 136.447 138.826 138.007 132.706 146.047C132.176 146.747 131.716 147.487 131.296 148.227C130.306 147.717 129.256 147.157 128.176 146.547C136.536 137.877 142.486 128.697 146.696 119.617C148.346 116.267 149.796 112.807 151.056 109.247C160.066 115.877 168.796 125.727 172.656 137.307C176.386 148.487 174.956 161.087 167.496 171.417C166.076 173.377 164.286 175.307 162.456 176.917C162.426 176.937 162.406 176.967 162.376 176.987C149.316 187.247 133.156 193.847 115.376 195.047L115.386 195.057Z" fill="url(#paint0_linear_3588_7639)"/>
<path style="mix-blend-mode:overlay" opacity="0.9" d="M135.246 35.1572C134.906 35.0872 134.556 35.0372 134.206 34.9872C132.436 34.7572 130.686 34.8072 129.006 35.0772C139.486 40.7772 147.136 56.6672 143.116 88.0172C141.786 98.3972 138.696 108.277 134.236 117.337C130.626 125.127 125.706 132.997 119.106 140.567C122.276 142.947 125.376 144.937 128.206 146.547C136.566 137.877 142.516 128.697 146.726 119.617C151.186 110.557 154.266 100.677 155.606 90.2972C160.386 52.9772 148.646 37.5572 135.256 35.1672L135.246 35.1572Z" fill="url(#paint1_radial_3588_7639)"/>
<g style="mix-blend-mode:overlay" opacity="0.8">
<path d="M143.106 88.0174C147.126 56.6774 139.486 40.7874 128.996 35.0774C128.586 35.1374 128.186 35.2274 127.786 35.3174C138.046 41.2174 145.436 57.0874 141.466 88.0074C140.136 98.3874 137.046 108.267 132.586 117.327C129.096 124.867 124.366 132.467 118.096 139.797C118.426 140.057 118.766 140.307 119.096 140.547C125.706 132.987 130.616 125.117 134.226 117.317C138.686 108.257 141.766 98.3774 143.106 87.9974V88.0174Z" fill="white"/>
</g>
<path style="mix-blend-mode:overlay" opacity="0.5" d="M103.266 159.107C102.276 158.357 101.336 157.567 100.386 156.787C84.9155 163.237 63.4655 167.287 42.1755 162.347C45.6655 166.787 49.5555 170.897 53.8255 174.567C74.6055 177.397 94.5955 170.807 108.206 162.717C106.586 161.587 104.946 160.397 103.256 159.117L103.266 159.107Z" fill="url(#paint2_radial_3588_7639)"/>
<path style="mix-blend-mode:overlay" opacity="0.6" d="M100.386 156.777C99.9157 156.387 99.4357 155.997 98.9657 155.597C83.3757 161.827 61.8357 165.547 40.5857 160.257C41.1057 160.957 41.6257 161.657 42.1657 162.337C63.4557 167.277 84.9057 163.227 100.376 156.777H100.386Z" fill="url(#paint3_linear_3588_7639)"/>
<path style="mix-blend-mode:overlay" opacity="0.9" d="M32.2955 124.567C32.4055 124.897 32.5355 125.227 32.6755 125.547C33.3655 127.197 34.2755 128.687 35.3455 130.007C35.0455 118.077 44.9855 103.517 74.1355 91.3173C83.7955 87.2773 93.8855 85.0173 103.966 84.3373C112.526 83.5673 121.796 83.8873 131.646 85.8273C132.116 81.8873 132.296 78.2173 132.276 74.9573C120.586 72.0573 109.656 71.4873 99.6955 72.3873C89.6155 73.0573 79.5155 75.3273 69.8655 79.3673C35.1555 93.8873 27.6755 111.767 32.2955 124.557V124.567Z" fill="url(#paint4_radial_3588_7639)"/>
<g style="mix-blend-mode:overlay" opacity="0.8">
<path d="M74.1357 91.3274C44.9857 103.517 35.0457 118.087 35.3457 130.017C35.6057 130.337 35.8857 130.647 36.1657 130.947C36.1457 119.107 46.1957 104.777 74.9557 92.7474C84.6157 88.7074 94.7057 86.4474 104.786 85.7674C113.056 85.0274 122.006 85.3074 131.496 87.0874C131.556 86.6674 131.596 86.2574 131.646 85.8474C121.796 83.9074 112.526 83.5874 103.966 84.3574C93.8857 85.0274 83.7857 87.2974 74.1357 91.3374V91.3274Z" fill="white"/>
</g>
<path style="mix-blend-mode:overlay" opacity="0.4" d="M155.626 90.2873C155.466 91.5173 155.266 92.7273 155.056 93.9473C168.376 104.117 182.606 120.667 188.976 141.577C191.086 136.337 192.686 130.917 193.726 125.377C185.786 105.967 170.086 91.9573 156.266 84.2073C156.096 86.1673 155.886 88.1873 155.616 90.2873H155.626Z" fill="url(#paint5_radial_3588_7639)"/>
<path style="mix-blend-mode:overlay" opacity="0.5" d="M155.056 93.9473C154.956 94.5573 154.856 95.1573 154.736 95.7673C167.926 106.147 181.916 122.947 187.956 143.997C188.306 143.197 188.646 142.397 188.966 141.587C182.596 120.677 168.366 104.127 155.046 93.9573L155.056 93.9473Z" fill="url(#paint6_linear_3588_7639)"/>
<path style="mix-blend-mode:overlay" opacity="0.9" d="M161.196 169.017C161.426 168.757 161.646 168.477 161.856 168.197C162.936 166.777 163.776 165.237 164.386 163.647C154.206 169.877 136.626 168.547 111.486 149.397C103.166 143.057 96.1456 135.437 90.5256 127.047C85.5856 120.017 81.2256 111.827 77.9756 102.327C74.3256 103.887 71.0556 105.567 68.2456 107.217C71.5756 118.787 76.5556 128.537 82.3056 136.717C87.9256 145.107 94.9356 152.727 103.266 159.067C133.196 181.867 152.416 179.407 161.186 169.007L161.196 169.017Z" fill="url(#paint7_radial_3588_7639)"/>
<g style="mix-blend-mode:overlay" opacity="0.8">
<path d="M111.486 149.407C136.626 168.557 154.206 169.887 164.386 163.657C164.536 163.267 164.656 162.877 164.776 162.487C154.536 168.427 137.096 166.887 112.306 147.987C103.986 141.647 96.9656 134.027 91.3456 125.637C86.5656 118.847 82.3456 110.947 79.1356 101.847C78.7456 102.007 78.3656 102.167 77.9856 102.337C81.2356 111.837 85.5856 120.027 90.5356 127.057C96.1556 135.447 103.166 143.067 111.496 149.407H111.486Z" fill="white"/>
</g>
<path style="mix-blend-mode:overlay" opacity="0.3" d="M69.8455 79.3474C70.9855 78.8674 72.1455 78.4374 73.2955 78.0174C75.4455 61.3974 82.6555 40.7974 97.5855 24.8274C91.9955 25.6274 86.4955 26.9474 81.1755 28.8074C68.3355 45.3874 64.0555 65.9974 64.2455 81.8374C66.0255 80.9974 67.8855 80.1674 69.8355 79.3574L69.8455 79.3474Z" fill="url(#paint8_radial_3588_7639)"/>
<path style="mix-blend-mode:overlay" opacity="0.4" d="M73.2957 78.0173C73.8757 77.8073 74.4457 77.5873 75.0257 77.3873C77.4257 60.7773 84.9757 40.2573 100.186 24.5073C99.3157 24.6073 98.4557 24.7073 97.5857 24.8373C82.6557 40.8073 75.4357 61.4073 73.2957 78.0273V78.0173Z" fill="url(#paint9_linear_3588_7639)"/>
<path style="mix-blend-mode:multiply" opacity="0.4" d="M102.146 0.257287C72.0657 2.30729 45.6557 16.3073 27.2257 37.3073C27.0857 37.4673 26.9457 37.6273 26.8057 37.7873C30.3957 41.3473 42.1157 48.3673 46.8757 51.2873C56.2057 41.2473 67.9357 33.4173 81.2257 28.7573C82.1557 27.5573 83.1157 26.3773 84.1357 25.2273C96.5157 11.2573 113.416 3.87729 133.026 3.87729C135.206 3.87729 139.656 4.22729 139.746 4.22729C127.856 0.817287 115.196 -0.632713 102.136 0.257287H102.146Z" fill="url(#paint10_linear_3588_7639)"/>
<path style="mix-blend-mode:multiply" opacity="0.4" d="M115.396 195.057C92.0857 196.647 70.2957 188.687 53.8257 174.557C52.2957 174.347 50.7557 174.097 49.2157 173.787C30.9257 170.047 16.0857 159.107 6.28569 142.127C5.19569 140.237 4.21569 138.307 3.33569 136.357C15.9957 186.827 63.2757 222.567 117.016 218.917C117.256 213.387 115.626 200.547 115.396 195.067V195.057Z" fill="url(#paint11_linear_3588_7639)"/>
<path style="mix-blend-mode:multiply" opacity="0.4" d="M218.906 102.147C215.536 101.807 199.096 103.097 195.056 103.767C195.566 111.197 195.096 118.477 193.766 125.477C194.336 126.867 194.876 128.287 195.356 129.737C201.266 147.437 199.206 165.767 189.406 182.747C188.336 184.597 187.176 186.377 185.956 188.087C185.936 188.117 185.906 188.157 185.886 188.187C185.886 188.187 185.936 188.147 185.966 188.117C208.226 166.467 221.186 135.557 218.916 102.147H218.906Z" fill="url(#paint12_linear_3588_7639)"/>
<path style="mix-blend-mode:multiply" opacity="0.5" d="M134.156 28.4972C136.556 28.7472 139.126 29.3372 141.436 30.1072C141.546 30.1472 141.656 30.1772 141.756 30.2072C151.206 34.0572 159.856 39.5672 167.316 46.3772C167.336 46.3872 167.346 46.3972 167.366 46.4172C170.966 42.3072 177.886 37.7872 177.886 37.7872C177.886 37.7872 167.286 26.9472 151.066 23.5772C139.716 21.2172 114.116 18.9372 97.9656 46.4172C97.9656 46.4172 98.0256 46.3572 98.1256 46.2672C99.3156 44.4572 100.586 42.7072 102.026 41.0872C109.846 32.2672 121.466 27.2072 134.156 28.5072V28.4972Z" fill="url(#paint13_linear_3588_7639)"/>
<path style="mix-blend-mode:multiply" opacity="0.5" d="M167.506 171.407C166.086 173.367 164.296 175.297 162.466 176.907C162.386 176.977 162.296 177.067 162.216 177.137C154.156 183.397 145.066 188.127 135.436 191.187C135.416 191.187 135.396 191.207 135.376 191.207C137.136 196.377 137.586 204.627 137.586 204.627C137.586 204.627 152.276 200.867 163.296 188.507C171.016 179.857 185.796 158.827 170.066 131.097C170.066 131.097 170.086 131.187 170.116 131.307C171.086 133.247 171.966 135.217 172.656 137.277C176.386 148.457 174.956 161.057 167.496 171.387L167.506 171.407Z" fill="url(#paint14_linear_3588_7639)"/>
<path style="mix-blend-mode:multiply" opacity="0.5" d="M27.0756 128.867C26.0856 126.667 25.3156 124.147 24.8356 121.757C24.8156 121.647 24.7856 121.537 24.7656 121.427C23.3756 111.317 23.8256 101.077 25.9856 91.2072C25.9856 91.1872 25.9856 91.1672 25.9856 91.1472C20.6256 90.0872 13.2556 86.3472 13.2556 86.3472C13.2556 86.3472 9.16558 100.947 14.3556 116.677C17.9956 127.687 28.8156 150.997 60.6856 151.247C60.6856 151.247 60.6056 151.217 60.4756 151.187C58.3156 151.057 56.1556 150.837 54.0356 150.397C42.4856 148.037 32.2956 140.497 27.0756 128.867Z" fill="url(#paint15_linear_3588_7639)"/>
<path style="mix-blend-mode:multiply" opacity="0.6" d="M129.546 71.3072C130.416 71.4172 131.286 71.4472 132.146 71.4372C132.146 71.4372 131.576 60.0472 130.176 54.2072C128.776 48.3672 126.716 44.4972 124.446 42.3072C122.826 40.7372 117.696 38.7872 113.716 50.8272C112.426 60.8572 119.516 70.0272 129.546 71.3072Z" fill="url(#paint16_linear_3588_7639)"/>
<path style="mix-blend-mode:multiply" opacity="0.5" d="M66.4457 111.427C66.1057 110.617 65.6957 109.847 65.2557 109.117C65.2557 109.117 55.6857 115.307 51.3257 119.437C46.9657 123.567 44.6457 127.287 43.8857 130.347C43.3357 132.537 44.2057 137.947 56.6257 135.377C65.9557 131.477 70.3457 120.757 66.4557 111.427H66.4457Z" fill="url(#paint17_linear_3588_7639)"/>
<path style="mix-blend-mode:multiply" opacity="0.6" d="M132.746 146.007C132.216 146.707 131.756 147.447 131.336 148.187C131.336 148.187 141.486 153.387 147.236 155.097C152.996 156.807 157.376 156.957 160.406 156.087C162.576 155.467 166.826 152.007 158.396 142.537C150.356 136.407 138.866 137.967 132.746 146.007Z" fill="url(#paint18_linear_3588_7639)"/>
<path style="mix-blend-mode:multiply" opacity="0.3" d="M128.806 98.7974C126.496 106.457 123.266 113.397 119.316 119.537C119.096 119.857 118.906 120.177 118.686 120.507C118.686 120.517 118.666 120.527 118.666 120.547C116.056 124.317 112.946 128.037 109.286 131.637C111.796 134.307 114.506 136.887 117.486 139.337C121.226 142.287 124.896 144.667 128.216 146.547C136.576 137.877 142.526 128.697 146.736 119.617C148.386 116.267 149.836 112.807 151.096 109.247C147.236 106.407 143.336 104.147 139.736 102.617C136.016 101.027 132.376 99.7874 128.816 98.8074L128.806 98.7974Z" fill="url(#paint19_linear_3588_7639)"/>
<path style="mix-blend-mode:multiply" opacity="0.3" d="M53.8256 174.557C74.6056 177.387 94.5957 170.797 108.206 162.707C106.586 161.577 104.946 160.387 103.256 159.107C97.9957 155.107 93.2656 150.587 89.0856 145.697C78.8456 150.177 65.9557 152.807 53.9957 150.367C42.4457 148.007 32.2557 140.467 27.0357 128.837C26.0457 126.637 25.2757 124.117 24.7957 121.727C27.8157 142.907 38.5056 161.417 53.8256 174.567V174.557Z" fill="url(#paint20_linear_3588_7639)"/>
<path style="mix-blend-mode:multiply" opacity="0.3" d="M109.276 131.627C103.806 125.807 99.4057 119.537 96.0757 113.047C95.9057 112.697 95.7257 112.367 95.5557 112.017C95.5557 112.007 95.5457 111.987 95.5357 111.977C93.5757 107.827 91.9057 103.267 90.6257 98.3074C87.0657 99.1474 83.4857 100.197 79.8757 101.547C75.4557 103.307 71.5757 105.287 68.2957 107.217C71.6257 118.787 76.5657 128.567 82.3157 136.747C84.3857 139.837 86.6557 142.827 89.0957 145.687C93.4857 143.767 97.4057 141.507 100.536 139.157C103.766 136.727 106.656 134.207 109.286 131.627H109.276Z" fill="url(#paint21_linear_3588_7639)"/>
<path style="mix-blend-mode:multiply" opacity="0.3" d="M81.1655 28.8372C68.3255 45.4172 64.0455 66.0272 64.2355 81.8572C66.0255 81.0172 67.8855 80.1872 69.8455 79.3672C75.9355 76.8172 82.1955 74.9872 88.5255 73.7972C89.7655 62.6872 93.9355 50.2172 102.026 41.0872C109.846 32.2672 121.466 27.2072 134.156 28.5072C136.556 28.7572 139.126 29.3472 141.436 30.1172C141.546 30.1572 141.656 30.1872 141.756 30.2172C130.076 25.4572 117.166 23.2072 103.756 24.1172C95.8755 24.6572 88.3355 26.2672 81.2155 28.7572C81.1955 28.7872 81.1755 28.8072 81.1555 28.8372H81.1655Z" fill="url(#paint22_linear_3588_7639)"/>
<path style="mix-blend-mode:multiply" opacity="0.3" d="M193.726 125.357C185.786 105.937 170.066 91.9172 156.246 84.1772C156.076 86.1472 155.866 88.1772 155.596 90.2872C154.756 96.8372 153.216 103.177 151.076 109.247C160.086 115.877 168.816 125.727 172.676 137.307C176.406 148.487 174.976 161.087 167.516 171.417C166.096 173.377 164.306 175.307 162.476 176.917C162.446 176.937 162.426 176.967 162.396 176.987C178.486 164.347 189.866 146.117 193.766 125.477C193.746 125.437 193.736 125.397 193.716 125.357H193.726Z" fill="url(#paint23_linear_3588_7639)"/>
<path style="mix-blend-mode:multiply" opacity="0.3" d="M88.4656 86.9773C88.9556 90.9873 89.6856 94.7473 90.6156 98.3173C98.4056 96.4873 106.036 95.8073 113.336 96.1673C113.726 96.1973 114.096 96.1973 114.486 96.2373C114.496 96.2373 114.516 96.2373 114.526 96.2373C119.096 96.6173 123.866 97.4473 128.796 98.8073C129.856 95.3073 130.726 91.6673 131.366 87.8673C132.056 83.1473 132.276 78.7773 132.246 74.9573C120.566 72.0673 109.646 71.4973 99.6856 72.3873C95.9656 72.6373 92.2356 73.1073 88.5356 73.7973C88.0056 78.5673 87.9956 83.0873 88.4656 86.9773Z" fill="url(#paint24_linear_3588_7639)"/>
<path d="M549.486 81.3872L535.396 120.657H535.496L549.576 81.6172L549.486 81.3872Z" fill="white"/>
<path d="M299.146 81.3872L285.056 120.657H285.096L299.196 81.5372L299.146 81.3872Z" fill="white"/>
<path d="M302.666 91.1973L313.246 120.657H292.046L286.696 135.507H318.656L327.716 160.677H347.986L311.036 67.9973L302.666 91.1973Z" fill="white"/>
<path d="M285.056 120.657L299.146 81.3873L299.196 81.5373L305.156 65.0273H289.586L251.576 160.677H270.666L285.096 120.657H285.056Z" fill="white"/>
<path d="M409.406 111.407C404.786 108.687 398.666 106.147 391.026 103.797C386.666 102.377 383.246 101.047 380.766 99.8273C378.286 98.6173 376.566 97.2273 375.606 95.6773C374.636 94.1273 374.156 92.2973 374.156 90.1973C374.156 86.5073 375.586 83.6573 378.436 81.6373C381.286 79.6273 385.276 78.6173 390.396 78.6173C394.596 78.6173 398.976 79.2473 403.546 80.5073C408.116 81.7673 412.166 83.4873 415.696 85.6673L418.336 70.1873C414.726 68.0073 410.346 66.2673 405.186 64.9673C400.026 63.6673 394.886 63.0173 389.766 63.0173C382.796 63.0173 376.756 64.1473 371.646 66.4173C366.526 68.6873 362.566 71.9173 359.756 76.1073C356.946 80.3073 355.536 85.2573 355.536 90.9573C355.536 95.8273 356.486 100.037 358.366 103.607C360.256 107.177 363.336 110.257 367.616 112.857C371.896 115.457 377.516 117.807 384.486 119.907C389.516 121.417 393.426 122.847 396.196 124.187C398.966 125.527 400.896 127.017 401.986 128.657C403.076 130.297 403.626 132.247 403.626 134.507C403.626 138.457 402.006 141.537 398.776 143.757C395.546 145.977 391.076 147.087 385.376 147.087C380.426 147.087 375.246 146.317 369.836 144.757C364.426 143.207 359.706 141.217 355.676 138.777L353.916 154.757C356.266 156.357 359.206 157.737 362.726 158.907C366.246 160.077 370.046 161.007 374.116 161.677C378.186 162.347 382.236 162.687 386.256 162.687C397.586 162.687 406.476 160.107 412.936 154.947C419.396 149.787 422.626 142.637 422.626 133.487C422.626 128.617 421.576 124.407 419.476 120.837C417.376 117.267 414.026 114.127 409.406 111.397V111.407Z" fill="white"/>
<path d="M509.846 65.0273H428.916V80.6273H509.846V65.0273Z" fill="white"/>
<path d="M479.006 87.1572H459.746V160.677H479.006V87.1572Z" fill="white"/>
<path d="M535.396 120.657L549.486 81.3873L549.576 81.6173L555.556 65.0273H539.926L501.916 160.677H521.046L530.106 135.507H530.146L535.496 120.657H535.396Z" fill="white"/>
<path d="M553.036 91.2774L563.586 120.657H542.446L537.096 135.507H568.996L578.056 160.677H598.326L561.406 68.0774L553.036 91.2774Z" fill="white"/>
<path d="M660.626 121.917C665.246 119.317 669.016 115.817 671.956 111.407C674.896 107.007 676.366 101.867 676.366 95.9873C676.366 89.6073 674.936 84.1173 672.086 79.4973C669.236 74.8873 665.166 71.3173 659.876 68.7973C654.586 66.2773 648.296 65.0173 640.996 65.0173H634.306V79.4973H638.476C651.226 79.4973 657.606 84.9473 657.606 95.8573C657.606 106.767 651.016 112.217 637.846 112.217H634.306V126.687H644.136L664.276 160.667H685.796L660.626 121.897V121.917Z" fill="white"/>
<path d="M627.766 65.0273H609.526V160.687H627.766V65.0273Z" fill="white"/>
<path d="M733.68 83.3772L744.17 73.6972C750.54 68.1572 755.46 63.4072 758.92 59.4372C762.39 55.4672 764.79 51.8472 766.14 48.5572C767.48 45.2772 768.15 41.9572 768.15 38.6172C768.15 33.3672 766.8 28.7472 764.1 24.7572C761.4 20.7772 757.6 17.6672 752.69 15.4372C747.78 13.2072 742 12.0972 735.34 12.0972C728.68 12.0972 723.23 13.2772 718.36 15.6272C713.49 17.9872 709.72 21.3272 707.03 25.6672C704.35 30.0072 703 35.1572 703 41.1272H723.09C723.09 38.4772 723.6 36.2172 724.61 34.3572C725.62 32.4972 727.04 31.0772 728.87 30.0972C730.7 29.1172 732.82 28.6172 735.25 28.6172C737.68 28.6172 739.78 29.0872 741.63 30.0272C743.49 30.9672 744.94 32.3072 746 34.0372C747.06 35.7672 747.59 37.8372 747.59 40.2672C747.59 42.4372 747.15 44.4472 746.26 46.2872C745.37 48.1272 744.09 49.9572 742.4 51.7672C740.72 53.5772 738.67 55.5672 736.28 57.7372L704.29 85.7472V100.997H769.22V83.9072H733.67V83.3472L733.68 83.3772ZM788.39 80.1272C785.31 80.1272 782.67 81.2072 780.49 83.3572C778.31 85.5172 777.23 88.1072 777.26 91.1272C777.23 94.2072 778.31 96.8372 780.49 99.0072C782.68 101.177 785.31 102.267 788.39 102.267C790.36 102.267 792.18 101.767 793.85 100.767C795.52 99.7672 796.88 98.4272 797.92 96.7372C798.96 95.0572 799.5 93.1772 799.53 91.1272C799.5 88.0972 798.37 85.5072 796.13 83.3572C793.89 81.1972 791.31 80.1272 788.4 80.1272H788.39ZM871.17 32.7972C868.17 26.0572 863.9 20.9272 858.34 17.3972C852.79 13.8672 846.18 12.1072 838.53 12.1072C830.88 12.1072 824.29 13.8672 818.76 17.3972C813.24 20.9272 808.98 26.0472 806 32.7772C803.02 39.4972 801.51 47.6772 801.48 57.2972C801.45 66.9172 802.94 75.1472 805.93 81.9872C808.93 88.8272 813.2 94.0672 818.73 97.7072C824.27 101.347 830.87 103.167 838.52 103.167C846.17 103.167 852.8 101.357 858.33 97.7472C863.86 94.1372 868.12 88.9072 871.12 82.0472C874.12 75.1972 875.62 66.9472 875.62 57.2872C875.65 47.6972 874.16 39.5272 871.17 32.7872V32.7972ZM849.63 78.8172C846.8 83.4872 843.11 85.8172 838.54 85.8172C835.51 85.8172 832.84 84.7872 830.53 82.7172C828.22 80.6472 826.43 77.4972 825.16 73.2772C823.89 69.0472 823.27 63.7272 823.3 57.3072C823.33 47.8272 824.74 40.7972 827.54 36.2172C830.34 31.6372 834.01 29.3472 838.55 29.3472C841.61 29.3472 844.27 30.3572 846.56 32.3872C848.85 34.4172 850.63 37.4872 851.91 41.6172C853.2 45.7472 853.84 50.9772 853.84 57.3172C853.87 66.9972 852.47 74.1672 849.64 78.8372L849.63 78.8172Z" fill="#03E2FE"/>
<path d="M249.87 242V210.727H262.91C265.252 210.727 267.211 211.058 268.789 211.72C270.377 212.382 271.568 213.308 272.362 214.499C273.167 215.69 273.569 217.069 273.569 218.637C273.569 219.828 273.319 220.892 272.82 221.828C272.322 222.755 271.634 223.523 270.759 224.134C269.883 224.745 268.871 225.173 267.72 225.417V225.722C268.983 225.783 270.148 226.124 271.217 226.745C272.296 227.366 273.161 228.232 273.813 229.341C274.464 230.441 274.79 231.744 274.79 233.25C274.79 234.93 274.363 236.432 273.508 237.755C272.652 239.068 271.416 240.107 269.797 240.87C268.178 241.623 266.214 242 263.903 242H249.87ZM257.428 235.907H262.101C263.74 235.907 264.946 235.597 265.72 234.976C266.504 234.355 266.896 233.49 266.896 232.38C266.896 231.576 266.707 230.884 266.331 230.303C265.954 229.713 265.42 229.26 264.727 228.944C264.035 228.618 263.205 228.456 262.238 228.456H257.428V235.907ZM257.428 223.585H261.612C262.437 223.585 263.17 223.447 263.811 223.172C264.453 222.897 264.951 222.5 265.308 221.981C265.674 221.462 265.857 220.836 265.857 220.103C265.857 219.054 265.486 218.23 264.743 217.629C263.999 217.029 262.997 216.728 261.734 216.728H257.428V223.585ZM297.344 210.727H304.887V230.899C304.887 233.23 304.332 235.261 303.223 236.991C302.113 238.712 300.566 240.045 298.581 240.992C296.596 241.929 294.29 242.397 291.663 242.397C289.006 242.397 286.685 241.929 284.7 240.992C282.715 240.045 281.173 238.712 280.074 236.991C278.974 235.261 278.424 233.23 278.424 230.899V210.727H285.983V230.242C285.983 231.321 286.217 232.283 286.685 233.128C287.164 233.973 287.831 234.635 288.686 235.113C289.541 235.592 290.533 235.831 291.663 235.831C292.793 235.831 293.781 235.592 294.626 235.113C295.481 234.635 296.148 233.973 296.626 233.128C297.105 232.283 297.344 231.321 297.344 230.242V210.727ZM317.183 210.727V242H309.625V210.727H317.183ZM321.928 242V210.727H329.487V235.862H342.497V242H321.928ZM357.969 242H346.41V210.727H357.954C361.14 210.727 363.884 211.353 366.184 212.605C368.495 213.847 370.277 215.639 371.529 217.98C372.781 220.312 373.407 223.101 373.407 226.348C373.407 229.606 372.781 232.405 371.529 234.747C370.287 237.088 368.51 238.885 366.2 240.137C363.889 241.379 361.145 242 357.969 242ZM353.968 235.556H357.679C359.43 235.556 360.911 235.261 362.123 234.67C363.344 234.07 364.265 233.098 364.886 231.754C365.518 230.4 365.833 228.598 365.833 226.348C365.833 224.099 365.518 222.307 364.886 220.973C364.255 219.63 363.324 218.663 362.092 218.072C360.87 217.471 359.364 217.171 357.572 217.171H353.968V235.556ZM385.379 210.727V242H377.82V210.727H385.379ZM416.739 210.727V242H410.326L397.881 223.951H397.682V242H390.124V210.727H396.629L408.936 228.746H409.196V210.727H416.739ZM442.015 220.943C441.842 220.301 441.587 219.737 441.251 219.248C440.915 218.749 440.503 218.327 440.014 217.98C439.526 217.634 438.966 217.375 438.335 217.202C437.703 217.018 437.011 216.927 436.258 216.927C434.741 216.927 433.428 217.293 432.318 218.026C431.219 218.759 430.369 219.828 429.768 221.233C429.167 222.628 428.867 224.323 428.867 226.318C428.867 228.323 429.157 230.033 429.738 231.449C430.318 232.864 431.158 233.943 432.257 234.686C433.357 235.429 434.69 235.8 436.258 235.8C437.642 235.8 438.813 235.576 439.77 235.129C440.737 234.67 441.47 234.024 441.969 233.189C442.468 232.355 442.717 231.372 442.717 230.242L444.122 230.41H436.517V224.898H450.001V229.036C450.001 231.835 449.405 234.233 448.214 236.228C447.033 238.223 445.404 239.755 443.328 240.824C441.261 241.893 438.884 242.428 436.197 242.428C433.214 242.428 430.593 241.781 428.333 240.488C426.073 239.195 424.312 237.353 423.049 234.961C421.787 232.558 421.156 229.708 421.156 226.409C421.156 223.844 421.538 221.569 422.301 219.584C423.065 217.589 424.128 215.899 425.493 214.514C426.867 213.13 428.455 212.081 430.257 211.369C432.069 210.656 434.018 210.3 436.105 210.3C437.917 210.3 439.602 210.559 441.159 211.078C442.727 211.598 444.112 212.331 445.313 213.277C446.524 214.224 447.507 215.349 448.26 216.652C449.013 217.955 449.482 219.385 449.665 220.943H442.015ZM462.671 216.866V210.727H489.103V216.866H479.62V242H472.169V216.866H462.671ZM492.795 242V210.727H500.353V223.279H512.676V210.727H520.219V242H512.676V229.433H500.353V242H492.795ZM524.961 242V210.727H546.766V216.866H532.519V223.279H545.651V229.433H532.519V235.862H546.766V242H524.961ZM579.657 210.727H587.201V230.899C587.201 233.23 586.646 235.261 585.536 236.991C584.427 238.712 582.879 240.045 580.894 240.992C578.909 241.929 576.603 242.397 573.977 242.397C571.32 242.397 568.999 241.929 567.014 240.992C565.029 240.045 563.487 238.712 562.387 236.991C561.288 235.261 560.738 233.23 560.738 230.899V210.727H568.297V230.242C568.297 231.321 568.531 232.283 568.999 233.128C569.477 233.973 570.144 234.635 570.999 235.113C571.854 235.592 572.847 235.831 573.977 235.831C575.107 235.831 576.094 235.592 576.939 235.113C577.794 234.635 578.461 233.973 578.94 233.128C579.418 232.283 579.657 231.321 579.657 230.242V210.727ZM618.554 210.727V242H612.14L599.695 223.951H599.497V242H591.938V210.727H598.443L610.751 228.746H611.01V210.727H618.554ZM640.21 220.103C640.108 218.983 639.655 218.113 638.851 217.492C638.057 216.861 636.922 216.545 635.446 216.545C634.469 216.545 633.654 216.672 633.003 216.927C632.351 217.181 631.863 217.533 631.537 217.98C631.211 218.418 631.043 218.922 631.033 219.492C631.012 219.96 631.104 220.373 631.308 220.729C631.521 221.085 631.827 221.401 632.224 221.676C632.631 221.94 633.12 222.175 633.69 222.378C634.26 222.582 634.901 222.76 635.614 222.913L638.301 223.523C639.849 223.859 641.213 224.307 642.394 224.867C643.585 225.427 644.582 226.094 645.387 226.868C646.201 227.641 646.817 228.532 647.234 229.54C647.652 230.548 647.865 231.678 647.876 232.93C647.865 234.905 647.367 236.6 646.379 238.015C645.392 239.43 643.972 240.514 642.119 241.267C640.276 242.02 638.052 242.397 635.446 242.397C632.83 242.397 630.549 242.005 628.605 241.221C626.661 240.437 625.149 239.246 624.07 237.648C622.991 236.05 622.436 234.029 622.405 231.586H629.643C629.704 232.594 629.974 233.434 630.453 234.105C630.931 234.777 631.588 235.286 632.422 235.632C633.267 235.979 634.245 236.152 635.354 236.152C636.372 236.152 637.238 236.014 637.95 235.739C638.673 235.464 639.228 235.083 639.615 234.594C640.001 234.105 640.2 233.546 640.21 232.914C640.2 232.324 640.017 231.82 639.66 231.403C639.304 230.975 638.754 230.609 638.011 230.303C637.278 229.988 636.342 229.698 635.202 229.433L631.934 228.669C629.226 228.048 627.093 227.046 625.536 225.661C623.978 224.267 623.204 222.383 623.215 220.011C623.204 218.077 623.724 216.382 624.772 214.926C625.821 213.471 627.271 212.336 629.124 211.521C630.977 210.707 633.089 210.3 635.461 210.3C637.884 210.3 639.986 210.712 641.768 211.537C643.559 212.351 644.949 213.496 645.936 214.972C646.924 216.448 647.428 218.159 647.448 220.103H640.21ZM650.67 216.866V210.727H677.102V216.866H667.619V242H660.168V216.866H650.67ZM708.883 226.364C708.883 229.804 708.221 232.721 706.897 235.113C705.574 237.506 703.782 239.323 701.522 240.565C699.273 241.807 696.748 242.428 693.949 242.428C691.139 242.428 688.609 241.801 686.359 240.549C684.11 239.297 682.323 237.48 681 235.098C679.687 232.706 679.03 229.794 679.03 226.364C679.03 222.923 679.687 220.006 681 217.614C682.323 215.222 684.11 213.405 686.359 212.163C688.609 210.921 691.139 210.3 693.949 210.3C696.748 210.3 699.273 210.921 701.522 212.163C703.782 213.405 705.574 215.222 706.897 217.614C708.221 220.006 708.883 222.923 708.883 226.364ZM701.156 226.364C701.156 224.328 700.866 222.607 700.286 221.202C699.716 219.798 698.891 218.734 697.812 218.011C696.743 217.288 695.455 216.927 693.949 216.927C692.452 216.927 691.164 217.288 690.085 218.011C689.006 218.734 688.177 219.798 687.596 221.202C687.026 222.607 686.741 224.328 686.741 226.364C686.741 228.4 687.026 230.12 687.596 231.525C688.177 232.93 689.006 233.993 690.085 234.716C691.164 235.439 692.452 235.8 693.949 235.8C695.455 235.8 696.743 235.439 697.812 234.716C698.891 233.993 699.716 232.93 700.286 231.525C700.866 230.12 701.156 228.4 701.156 226.364ZM713.296 242V210.727H726.214C728.555 210.727 730.576 211.185 732.276 212.102C733.986 213.008 735.305 214.275 736.231 215.904C737.157 217.522 737.62 219.406 737.62 221.554C737.62 223.712 737.147 225.6 736.2 227.219C735.264 228.827 733.925 230.074 732.184 230.96C730.444 231.846 728.377 232.288 725.985 232.288H718.014V226.333H724.58C725.72 226.333 726.672 226.135 727.435 225.738C728.209 225.341 728.794 224.786 729.191 224.073C729.589 223.35 729.787 222.511 729.787 221.554C729.787 220.587 729.589 219.752 729.191 219.049C728.794 218.337 728.209 217.787 727.435 217.4C726.662 217.013 725.71 216.82 724.58 216.82H720.854V242H713.296ZM741.346 242V210.727H754.265C756.606 210.727 758.627 211.185 760.327 212.102C762.037 213.008 763.355 214.275 764.282 215.904C765.208 217.522 765.671 219.406 765.671 221.554C765.671 223.712 765.198 225.6 764.251 227.219C763.315 228.827 761.976 230.074 760.235 230.96C758.494 231.846 756.428 232.288 754.036 232.288H746.065V226.333H752.631C753.771 226.333 754.723 226.135 755.486 225.738C756.26 225.341 756.845 224.786 757.242 224.073C757.639 223.35 757.838 222.511 757.838 221.554C757.838 220.587 757.639 219.752 757.242 219.049C756.845 218.337 756.26 217.787 755.486 217.4C754.713 217.013 753.761 216.82 752.631 216.82H748.905V242H741.346ZM772.382 242H764.259L774.81 210.727H784.873L795.425 242H787.301L779.956 218.607H779.712L772.382 242ZM771.298 229.692H788.278V235.434H771.298V229.692ZM798.792 242V210.727H811.832C814.174 210.727 816.133 211.058 817.711 211.72C819.299 212.382 820.49 213.308 821.284 214.499C822.088 215.69 822.491 217.069 822.491 218.637C822.491 219.828 822.241 220.892 821.742 221.828C821.243 222.755 820.556 223.523 819.681 224.134C818.805 224.745 817.792 225.173 816.642 225.417V225.722C817.904 225.783 819.07 226.124 820.139 226.745C821.218 227.366 822.083 228.232 822.735 229.341C823.386 230.441 823.712 231.744 823.712 233.25C823.712 234.93 823.285 236.432 822.429 237.755C821.574 239.068 820.337 240.107 818.719 240.87C817.1 241.623 815.136 242 812.825 242H798.792ZM806.35 235.907H811.023C812.662 235.907 813.868 235.597 814.642 234.976C815.426 234.355 815.818 233.49 815.818 232.38C815.818 231.576 815.629 230.884 815.253 230.303C814.876 229.713 814.341 229.26 813.649 228.944C812.957 228.618 812.127 228.456 811.16 228.456H806.35V235.907ZM806.35 223.585H810.534C811.359 223.585 812.092 223.447 812.733 223.172C813.374 222.897 813.873 222.5 814.229 221.981C814.596 221.462 814.779 220.836 814.779 220.103C814.779 219.054 814.408 218.23 813.665 217.629C812.921 217.029 811.919 216.728 810.656 216.728H806.35V223.585ZM827.346 242V210.727H834.905V235.862H847.915V242H827.346ZM851.828 242V210.727H873.633V216.866H859.386V223.279H872.518V229.433H859.386V235.862H873.633V242H851.828Z" fill="#03E2FE"/>
<defs>
<linearGradient id="paint0_linear_3588_7639" x1="34.7956" y1="184.367" x2="174.536" y2="44.6373" gradientUnits="userSpaceOnUse">
<stop stop-color="#E6007A"/>
<stop offset="0.21" stop-color="#703AC2"/>
<stop offset="0.46" stop-color="#006BE7"/>
<stop offset="0.77" stop-color="#0094F8"/>
<stop offset="1" stop-color="#03E2FE"/>
</linearGradient>
<radialGradient id="paint1_radial_3588_7639" cx="0" cy="0" r="1" gradientUnits="userSpaceOnUse" gradientTransform="translate(140.816 87.3972) scale(41.67 41.67)">
<stop stop-color="white"/>
<stop offset="1" stop-color="white" stop-opacity="0"/>
</radialGradient>
<radialGradient id="paint2_radial_3588_7639" cx="0" cy="0" r="1" gradientUnits="userSpaceOnUse" gradientTransform="translate(79.2255 164.697) scale(24.24)">
<stop stop-color="white"/>
<stop offset="1" stop-color="white" stop-opacity="0"/>
</radialGradient>
<linearGradient id="paint3_linear_3588_7639" x1="42.8457" y1="160.597" x2="66.2157" y2="160.267" gradientUnits="userSpaceOnUse">
<stop stop-color="white" stop-opacity="0"/>
<stop offset="1" stop-color="white"/>
</linearGradient>
<radialGradient id="paint4_radial_3588_7639" cx="0" cy="0" r="1" gradientUnits="userSpaceOnUse" gradientTransform="translate(74.7517 93.6248) rotate(-120) scale(41.67)">
<stop stop-color="white"/>
<stop offset="1" stop-color="white" stop-opacity="0"/>
</radialGradient>
<radialGradient id="paint5_radial_3588_7639" cx="0" cy="0" r="1" gradientUnits="userSpaceOnUse" gradientTransform="translate(172.482 108.318) rotate(-120) scale(24.24)">
<stop stop-color="white"/>
<stop offset="1" stop-color="white" stop-opacity="0"/>
</radialGradient>
<linearGradient id="paint6_linear_3588_7639" x1="187.121" y1="141.874" x2="175.159" y2="121.795" gradientUnits="userSpaceOnUse">
<stop stop-color="white" stop-opacity="0"/>
<stop offset="1" stop-color="white"/>
</linearGradient>
<radialGradient id="paint7_radial_3588_7639" cx="0" cy="0" r="1" gradientUnits="userSpaceOnUse" gradientTransform="translate(111.201 145.8) rotate(120) scale(41.67 41.67)">
<stop stop-color="white"/>
<stop offset="1" stop-color="white" stop-opacity="0"/>
</radialGradient>
<radialGradient id="paint8_radial_3588_7639" cx="0" cy="0" r="1" gradientUnits="userSpaceOnUse" gradientTransform="translate(77.0245 55.7355) rotate(120) scale(24.24 24.24)">
<stop stop-color="white"/>
<stop offset="1" stop-color="white" stop-opacity="0"/>
</radialGradient>
<linearGradient id="paint9_linear_3588_7639" x1="98.7653" y1="26.2794" x2="87.3661" y2="46.6834" gradientUnits="userSpaceOnUse">
<stop stop-color="white" stop-opacity="0"/>
<stop offset="1" stop-color="white"/>
</linearGradient>
<linearGradient id="paint10_linear_3588_7639" x1="103.836" y1="15.9173" x2="68.1357" y2="26.2973" gradientUnits="userSpaceOnUse">
<stop stop-color="#231F20"/>
<stop offset="1" stop-color="white"/>
</linearGradient>
<linearGradient id="paint11_linear_3588_7639" x1="36.3757" y1="152.067" x2="66.2357" y2="183.227" gradientUnits="userSpaceOnUse">
<stop stop-color="#231F20"/>
<stop offset="1" stop-color="white"/>
</linearGradient>
<linearGradient id="paint12_linear_3588_7639" x1="196.626" y1="147.377" x2="207.006" y2="115.787" gradientUnits="userSpaceOnUse">
<stop stop-color="#231F20"/>
<stop offset="1" stop-color="white"/>
</linearGradient>
<linearGradient id="paint13_linear_3588_7639" x1="120.106" y1="33.9772" x2="167.966" y2="44.9372" gradientUnits="userSpaceOnUse">
<stop stop-color="#231F20"/>
<stop offset="1" stop-color="white"/>
</linearGradient>
<linearGradient id="paint14_linear_3588_7639" x1="169.791" y1="156.498" x2="136.37" y2="192.466" gradientUnits="userSpaceOnUse">
<stop stop-color="#231F20"/>
<stop offset="1" stop-color="white"/>
</linearGradient>
<linearGradient id="paint15_linear_3588_7639" x1="38.8498" y1="138.294" x2="24.4114" y2="91.3662" gradientUnits="userSpaceOnUse">
<stop stop-color="#231F20"/>
<stop offset="1" stop-color="white"/>
</linearGradient>
<linearGradient id="paint16_linear_3588_7639" x1="130.566" y1="51.6272" x2="115.426" y2="66.7772" gradientUnits="userSpaceOnUse">
<stop stop-color="#231F20"/>
<stop offset="1" stop-color="white"/>
</linearGradient>
<linearGradient id="paint17_linear_3588_7639" x1="48.8991" y1="120.387" x2="69.5807" y2="125.928" gradientUnits="userSpaceOnUse">
<stop stop-color="#231F20"/>
<stop offset="1" stop-color="white"/>
</linearGradient>
<linearGradient id="paint18_linear_3588_7639" x1="149.276" y1="156.732" x2="143.726" y2="136.045" gradientUnits="userSpaceOnUse">
<stop stop-color="#231F20"/>
<stop offset="1" stop-color="white"/>
</linearGradient>
<linearGradient id="paint19_linear_3588_7639" x1="117.776" y1="138.327" x2="126.866" y2="125.787" gradientUnits="userSpaceOnUse">
<stop stop-color="#231F20"/>
<stop offset="1" stop-color="white"/>
</linearGradient>
<linearGradient id="paint20_linear_3588_7639" x1="86.4857" y1="132.897" x2="68.3157" y2="141.557" gradientUnits="userSpaceOnUse">
<stop stop-color="#231F20"/>
<stop offset="1" stop-color="white"/>
</linearGradient>
<linearGradient id="paint21_linear_3588_7639" x1="79.8957" y1="102.647" x2="85.5157" y2="114.327" gradientUnits="userSpaceOnUse">
<stop stop-color="#231F20"/>
<stop offset="1" stop-color="white"/>
</linearGradient>
<linearGradient id="paint22_linear_3588_7639" x1="106.056" y1="66.5672" x2="102.166" y2="53.1472" gradientUnits="userSpaceOnUse">
<stop stop-color="#231F20"/>
<stop offset="1" stop-color="white"/>
</linearGradient>
<linearGradient id="paint23_linear_3588_7639" x1="148.036" y1="127.977" x2="159.286" y2="130.577" gradientUnits="userSpaceOnUse">
<stop stop-color="#231F20"/>
<stop offset="1" stop-color="white"/>
</linearGradient>
<linearGradient id="paint24_linear_3588_7639" x1="130.376" y1="89.9773" x2="116.096" y2="87.3773" gradientUnits="userSpaceOnUse">
<stop stop-color="#231F20"/>
<stop offset="1" stop-color="white"/>
</linearGradient>
</defs>
</svg>
