<svg width="878" height="274" viewBox="0 0 878 274" fill="none" xmlns="http://www.w3.org/2000/svg">
<path d="M218.906 102.147C214.796 41.7673 162.526 -3.85272 102.146 0.25728C72.0656 2.30728 45.6556 16.3073 27.2256 37.3073L27.1756 37.2673C27.0556 37.4373 26.9356 37.6073 26.8156 37.7773C8.50563 58.8773 -1.78437 86.9373 0.255633 117.017C0.445633 119.887 0.785632 122.707 1.19563 125.497C1.21563 125.627 1.23563 125.747 1.24563 125.877C1.52563 127.717 1.84563 129.547 2.20563 131.357C2.20563 131.387 2.21563 131.427 2.22563 131.457C2.55563 133.097 2.92563 134.727 3.33563 136.337C15.9956 186.807 63.2756 222.547 117.016 218.897C177.396 214.787 223.016 162.517 218.906 102.137V102.147ZM195.056 103.767C195.566 111.197 195.096 118.477 193.766 125.477C193.746 125.437 193.736 125.397 193.716 125.357C185.776 105.937 170.056 91.9173 156.236 84.1773C159.036 51.2773 147.866 37.4073 135.236 35.1573C134.896 35.0873 134.546 35.0373 134.196 34.9873C124.166 33.6973 114.996 40.7873 113.716 50.8173C112.426 60.8473 119.516 70.0173 129.546 71.2973C130.416 71.4073 131.286 71.4373 132.146 71.4273C132.206 72.5373 132.236 73.7173 132.246 74.9473C120.566 72.0573 109.646 71.4873 99.6856 72.3773C95.9656 72.6273 92.2356 73.0973 88.5356 73.7873C89.7756 62.6773 93.9456 50.2073 102.036 41.0773C109.856 32.2573 121.476 27.1973 134.166 28.4973C136.566 28.7473 139.136 29.3373 141.446 30.1073C141.556 30.1473 141.666 30.1773 141.766 30.2073C171.136 42.1773 192.756 70.0473 195.056 103.767ZM118.676 120.507C118.676 120.507 118.656 120.527 118.656 120.547C116.046 124.317 112.936 128.037 109.276 131.637C103.806 125.817 99.4056 119.547 96.0756 113.057C95.9056 112.707 95.7256 112.377 95.5556 112.027C95.5556 112.017 95.5456 111.997 95.5356 111.987C93.5756 107.837 91.9056 103.277 90.6256 98.3173C98.4156 96.4873 106.046 95.8073 113.346 96.1673C113.736 96.1973 114.106 96.1973 114.496 96.2373C114.506 96.2373 114.526 96.2373 114.536 96.2373C119.106 96.6173 123.876 97.4473 128.806 98.8073C126.496 106.467 123.266 113.407 119.316 119.547C119.096 119.867 118.906 120.187 118.686 120.517L118.676 120.507ZM81.2256 28.7573C81.2256 28.7573 81.1856 28.8073 81.1656 28.8373C68.3256 45.4173 64.0456 66.0273 64.2356 81.8673C34.3456 95.8973 27.9156 112.497 32.2856 124.567C32.3956 124.897 32.5256 125.227 32.6656 125.547C36.5656 134.877 47.2856 139.267 56.6156 135.367C65.9456 131.467 70.3356 120.747 66.4456 111.417C66.1056 110.607 65.6956 109.837 65.2556 109.107C66.1956 108.497 67.2156 107.867 68.2956 107.237C71.6256 118.807 76.5656 128.587 82.3156 136.767C84.3856 139.857 86.6556 142.847 89.0956 145.707C78.8556 150.187 65.9656 152.817 54.0056 150.377C42.4556 148.017 32.2656 140.477 27.0456 128.847C26.0556 126.647 25.2856 124.127 24.8056 121.737C24.5056 119.647 24.2556 117.547 24.1156 115.417C21.4456 76.1673 45.7956 41.2173 81.2356 28.7773L81.2256 28.7573ZM115.386 195.057C92.0756 196.647 70.2856 188.687 53.8156 174.557C74.5956 177.387 94.5856 170.797 108.196 162.707C135.306 181.597 152.896 178.857 161.166 169.047C161.396 168.787 161.616 168.507 161.826 168.227C167.956 160.187 166.396 148.697 158.356 142.577C150.316 136.447 138.826 138.007 132.706 146.047C132.176 146.747 131.716 147.487 131.296 148.227C130.306 147.717 129.256 147.157 128.176 146.547C136.536 137.877 142.486 128.697 146.696 119.617C148.346 116.267 149.796 112.807 151.056 109.247C160.066 115.877 168.796 125.727 172.656 137.307C176.386 148.487 174.956 161.087 167.496 171.417C166.076 173.377 164.286 175.307 162.456 176.917C162.426 176.937 162.406 176.967 162.376 176.987C149.316 187.247 133.156 193.847 115.376 195.047L115.386 195.057Z" fill="url(#paint0_linear_3588_6600)"/>
<path style="mix-blend-mode:overlay" opacity="0.9" d="M135.245 35.1575C134.905 35.0875 134.555 35.0375 134.205 34.9875C132.435 34.7575 130.685 34.8075 129.005 35.0775C139.485 40.7775 147.135 56.6675 143.115 88.0175C141.785 98.3975 138.695 108.277 134.235 117.337C130.625 125.127 125.705 132.997 119.105 140.567C122.275 142.947 125.375 144.937 128.205 146.547C136.565 137.877 142.515 128.697 146.725 119.617C151.185 110.557 154.265 100.677 155.605 90.2975C160.385 52.9775 148.645 37.5575 135.255 35.1675L135.245 35.1575Z" fill="url(#paint1_radial_3588_6600)"/>
<g style="mix-blend-mode:overlay" opacity="0.8">
<path d="M143.106 88.0172C147.126 56.6772 139.486 40.7871 128.996 35.0771C128.586 35.1371 128.186 35.2271 127.786 35.3171C138.046 41.2171 145.436 57.0871 141.466 88.0071C140.136 98.3871 137.046 108.267 132.586 117.327C129.096 124.867 124.366 132.467 118.096 139.797C118.426 140.057 118.766 140.307 119.096 140.547C125.706 132.987 130.616 125.117 134.226 117.317C138.686 108.257 141.766 98.3771 143.106 87.9971V88.0172Z" fill="white"/>
</g>
<path style="mix-blend-mode:overlay" opacity="0.5" d="M103.266 159.107C102.276 158.357 101.336 157.567 100.386 156.787C84.9158 163.237 63.4658 167.287 42.1758 162.347C45.6658 166.787 49.5558 170.897 53.8258 174.567C74.6058 177.397 94.5958 170.807 108.206 162.717C106.586 161.587 104.946 160.397 103.256 159.117L103.266 159.107Z" fill="url(#paint2_radial_3588_6600)"/>
<path style="mix-blend-mode:overlay" opacity="0.6" d="M100.385 156.777C99.9154 156.387 99.4354 155.997 98.9654 155.597C83.3754 161.827 61.8354 165.547 40.5854 160.257C41.1054 160.957 41.6255 161.657 42.1655 162.337C63.4555 167.277 84.9054 163.227 100.375 156.777H100.385Z" fill="url(#paint3_linear_3588_6600)"/>
<path style="mix-blend-mode:overlay" opacity="0.9" d="M32.2955 124.568C32.4055 124.898 32.5355 125.228 32.6755 125.548C33.3655 127.198 34.2755 128.688 35.3455 130.008C35.0455 118.078 44.9855 103.518 74.1355 91.3175C83.7955 87.2775 93.8855 85.0175 103.966 84.3375C112.526 83.5675 121.796 83.8875 131.646 85.8275C132.116 81.8875 132.296 78.2175 132.276 74.9575C120.586 72.0575 109.656 71.4875 99.6955 72.3875C89.6155 73.0575 79.5155 75.3275 69.8655 79.3675C35.1555 93.8875 27.6755 111.768 32.2955 124.558V124.568Z" fill="url(#paint4_radial_3588_6600)"/>
<g style="mix-blend-mode:overlay" opacity="0.8">
<path d="M74.1354 91.3274C44.9854 103.517 35.0454 118.087 35.3454 130.017C35.6054 130.337 35.8854 130.647 36.1654 130.947C36.1454 119.107 46.1954 104.777 74.9554 92.7474C84.6154 88.7074 94.7054 86.4474 104.785 85.7674C113.055 85.0274 122.005 85.3074 131.495 87.0874C131.555 86.6674 131.595 86.2574 131.645 85.8474C121.795 83.9074 112.525 83.5874 103.965 84.3574C93.8854 85.0274 83.7854 87.2974 74.1354 91.3374V91.3274Z" fill="white"/>
</g>
<path style="mix-blend-mode:overlay" opacity="0.4" d="M155.626 90.287C155.466 91.517 155.266 92.727 155.056 93.947C168.376 104.117 182.606 120.667 188.976 141.577C191.086 136.337 192.686 130.917 193.726 125.377C185.786 105.967 170.086 91.957 156.266 84.207C156.096 86.167 155.886 88.187 155.616 90.287H155.626Z" fill="url(#paint5_radial_3588_6600)"/>
<path style="mix-blend-mode:overlay" opacity="0.5" d="M155.056 93.9473C154.956 94.5573 154.856 95.1573 154.736 95.7673C167.926 106.147 181.916 122.947 187.956 143.997C188.306 143.197 188.646 142.397 188.966 141.587C182.596 120.677 168.366 104.127 155.046 93.9573L155.056 93.9473Z" fill="url(#paint6_linear_3588_6600)"/>
<path style="mix-blend-mode:overlay" opacity="0.9" d="M161.196 169.017C161.426 168.757 161.646 168.477 161.856 168.197C162.936 166.777 163.776 165.237 164.386 163.647C154.206 169.877 136.626 168.547 111.486 149.397C103.166 143.057 96.1456 135.437 90.5256 127.047C85.5856 120.017 81.2256 111.827 77.9756 102.327C74.3256 103.887 71.0556 105.567 68.2456 107.217C71.5756 118.787 76.5556 128.537 82.3056 136.717C87.9256 145.107 94.9356 152.727 103.266 159.067C133.196 181.867 152.416 179.407 161.186 169.007L161.196 169.017Z" fill="url(#paint7_radial_3588_6600)"/>
<g style="mix-blend-mode:overlay" opacity="0.8">
<path d="M111.486 149.407C136.626 168.557 154.206 169.887 164.386 163.657C164.536 163.267 164.656 162.877 164.776 162.487C154.536 168.427 137.096 166.887 112.306 147.987C103.986 141.647 96.9658 134.027 91.3458 125.637C86.5658 118.847 82.3458 110.947 79.1358 101.847C78.7458 102.007 78.3658 102.167 77.9858 102.337C81.2358 111.837 85.5858 120.027 90.5358 127.057C96.1558 135.447 103.166 143.067 111.496 149.407H111.486Z" fill="white"/>
</g>
<path style="mix-blend-mode:overlay" opacity="0.3" d="M69.8458 79.3471C70.9858 78.8671 72.1458 78.4372 73.2958 78.0172C75.4458 61.3972 82.6558 40.7971 97.5858 24.8271C91.9958 25.6271 86.4958 26.9471 81.1758 28.8071C68.3358 45.3871 64.0558 65.9972 64.2458 81.8372C66.0258 80.9972 67.8858 80.1671 69.8358 79.3571L69.8458 79.3471Z" fill="url(#paint8_radial_3588_6600)"/>
<path style="mix-blend-mode:overlay" opacity="0.4" d="M73.2954 78.0173C73.8754 77.8073 74.4454 77.5873 75.0254 77.3873C77.4254 60.7773 84.9754 40.2573 100.185 24.5073C99.3154 24.6073 98.4554 24.7073 97.5854 24.8373C82.6554 40.8073 75.4354 61.4073 73.2954 78.0273V78.0173Z" fill="url(#paint9_linear_3588_6600)"/>
<path style="mix-blend-mode:multiply" opacity="0.4" d="M102.146 0.257042C72.0657 2.30704 45.6557 16.307 27.2257 37.307C27.0857 37.467 26.9457 37.627 26.8057 37.787C30.3957 41.347 42.1157 48.367 46.8757 51.287C56.2057 41.247 67.9357 33.417 81.2257 28.757C82.1557 27.557 83.1157 26.377 84.1357 25.227C96.5157 11.257 113.416 3.87704 133.026 3.87704C135.206 3.87704 139.656 4.22704 139.746 4.22704C127.856 0.817043 115.196 -0.632958 102.136 0.257042H102.146Z" fill="url(#paint10_linear_3588_6600)"/>
<path style="mix-blend-mode:multiply" opacity="0.4" d="M115.395 195.057C92.0855 196.647 70.2954 188.687 53.8254 174.557C52.2954 174.347 50.7555 174.097 49.2155 173.787C30.9255 170.047 16.0855 159.107 6.28545 142.127C5.19545 140.237 4.21545 138.307 3.33545 136.357C15.9954 186.827 63.2754 222.567 117.015 218.917C117.255 213.387 115.625 200.547 115.395 195.067V195.057Z" fill="url(#paint11_linear_3588_6600)"/>
<path style="mix-blend-mode:multiply" opacity="0.4" d="M218.906 102.147C215.536 101.807 199.096 103.097 195.056 103.767C195.566 111.197 195.096 118.477 193.766 125.477C194.336 126.867 194.876 128.287 195.356 129.737C201.266 147.437 199.206 165.767 189.406 182.747C188.336 184.597 187.176 186.377 185.956 188.087C185.936 188.117 185.906 188.157 185.886 188.187C185.886 188.187 185.936 188.147 185.966 188.117C208.226 166.467 221.186 135.557 218.916 102.147H218.906Z" fill="url(#paint12_linear_3588_6600)"/>
<path style="mix-blend-mode:multiply" opacity="0.5" d="M134.156 28.4972C136.556 28.7472 139.126 29.3372 141.436 30.1072C141.546 30.1472 141.656 30.1772 141.756 30.2072C151.206 34.0572 159.856 39.5672 167.316 46.3772C167.336 46.3872 167.346 46.3972 167.366 46.4172C170.966 42.3072 177.886 37.7872 177.886 37.7872C177.886 37.7872 167.286 26.9472 151.066 23.5772C139.716 21.2172 114.116 18.9372 97.9658 46.4172C97.9658 46.4172 98.0258 46.3572 98.1258 46.2672C99.3158 44.4572 100.586 42.7072 102.026 41.0872C109.846 32.2672 121.466 27.2072 134.156 28.5072V28.4972Z" fill="url(#paint13_linear_3588_6600)"/>
<path style="mix-blend-mode:multiply" opacity="0.5" d="M167.505 171.407C166.085 173.367 164.295 175.297 162.465 176.907C162.385 176.977 162.295 177.067 162.215 177.137C154.155 183.397 145.065 188.127 135.435 191.187C135.415 191.187 135.395 191.207 135.375 191.207C137.135 196.377 137.585 204.627 137.585 204.627C137.585 204.627 152.275 200.867 163.295 188.507C171.015 179.857 185.795 158.827 170.065 131.097C170.065 131.097 170.085 131.187 170.115 131.307C171.085 133.247 171.965 135.217 172.655 137.277C176.385 148.457 174.955 161.057 167.495 171.387L167.505 171.407Z" fill="url(#paint14_linear_3588_6600)"/>
<path style="mix-blend-mode:multiply" opacity="0.5" d="M27.0756 128.867C26.0856 126.667 25.3156 124.147 24.8356 121.757C24.8156 121.647 24.7856 121.537 24.7656 121.427C23.3756 111.317 23.8256 101.077 25.9856 91.2072C25.9856 91.1872 25.9856 91.1672 25.9856 91.1472C20.6256 90.0872 13.2556 86.3472 13.2556 86.3472C13.2556 86.3472 9.16558 100.947 14.3556 116.677C17.9956 127.687 28.8156 150.997 60.6856 151.247C60.6856 151.247 60.6056 151.217 60.4756 151.187C58.3156 151.057 56.1556 150.837 54.0356 150.397C42.4856 148.037 32.2956 140.497 27.0756 128.867Z" fill="url(#paint15_linear_3588_6600)"/>
<path style="mix-blend-mode:multiply" opacity="0.6" d="M129.545 71.3072C130.415 71.4172 131.285 71.4472 132.145 71.4372C132.145 71.4372 131.575 60.0472 130.175 54.2072C128.775 48.3672 126.715 44.4972 124.445 42.3072C122.825 40.7372 117.695 38.7872 113.715 50.8272C112.425 60.8572 119.515 70.0272 129.545 71.3072Z" fill="url(#paint16_linear_3588_6600)"/>
<path style="mix-blend-mode:multiply" opacity="0.5" d="M66.4454 111.427C66.1054 110.617 65.6954 109.847 65.2554 109.117C65.2554 109.117 55.6854 115.307 51.3254 119.437C46.9654 123.567 44.6454 127.287 43.8854 130.347C43.3354 132.537 44.2054 137.947 56.6254 135.377C65.9554 131.477 70.3454 120.757 66.4554 111.427H66.4454Z" fill="url(#paint17_linear_3588_6600)"/>
<path style="mix-blend-mode:multiply" opacity="0.6" d="M132.745 146.007C132.215 146.707 131.755 147.447 131.335 148.187C131.335 148.187 141.485 153.387 147.235 155.097C152.995 156.807 157.375 156.957 160.405 156.087C162.575 155.467 166.825 152.007 158.395 142.537C150.355 136.407 138.865 137.967 132.745 146.007Z" fill="url(#paint18_linear_3588_6600)"/>
<path style="mix-blend-mode:multiply" opacity="0.3" d="M128.806 98.7974C126.496 106.457 123.266 113.397 119.316 119.537C119.096 119.857 118.906 120.177 118.686 120.507C118.686 120.517 118.666 120.527 118.666 120.547C116.056 124.317 112.946 128.037 109.286 131.637C111.796 134.307 114.506 136.887 117.486 139.337C121.226 142.287 124.896 144.667 128.216 146.547C136.576 137.877 142.526 128.697 146.736 119.617C148.386 116.267 149.836 112.807 151.096 109.247C147.236 106.407 143.336 104.147 139.736 102.617C136.016 101.027 132.376 99.7874 128.816 98.8074L128.806 98.7974Z" fill="url(#paint19_linear_3588_6600)"/>
<path style="mix-blend-mode:multiply" opacity="0.3" d="M53.8254 174.557C74.6054 177.387 94.5954 170.797 108.205 162.707C106.585 161.577 104.945 160.387 103.255 159.107C97.9954 155.107 93.2654 150.587 89.0854 145.697C78.8454 150.177 65.9554 152.807 53.9954 150.367C42.4454 148.007 32.2554 140.467 27.0354 128.837C26.0454 126.637 25.2754 124.117 24.7954 121.727C27.8154 142.907 38.5054 161.417 53.8254 174.567V174.557Z" fill="url(#paint20_linear_3588_6600)"/>
<path style="mix-blend-mode:multiply" opacity="0.3" d="M109.275 131.627C103.805 125.807 99.4054 119.537 96.0754 113.047C95.9054 112.697 95.7254 112.367 95.5554 112.017C95.5554 112.007 95.5454 111.987 95.5354 111.977C93.5754 107.827 91.9054 103.267 90.6254 98.3071C87.0654 99.1471 83.4854 100.197 79.8754 101.547C75.4554 103.307 71.5754 105.287 68.2954 107.217C71.6254 118.787 76.5654 128.567 82.3154 136.747C84.3854 139.837 86.6554 142.827 89.0954 145.687C93.4854 143.767 97.4054 141.507 100.535 139.157C103.765 136.727 106.655 134.207 109.285 131.627H109.275Z" fill="url(#paint21_linear_3588_6600)"/>
<path style="mix-blend-mode:multiply" opacity="0.3" d="M81.1655 28.8375C68.3255 45.4175 64.0455 66.0275 64.2355 81.8575C66.0255 81.0175 67.8855 80.1875 69.8455 79.3675C75.9355 76.8175 82.1955 74.9875 88.5255 73.7975C89.7655 62.6875 93.9355 50.2175 102.026 41.0875C109.846 32.2675 121.466 27.2075 134.156 28.5075C136.556 28.7575 139.126 29.3475 141.436 30.1175C141.546 30.1575 141.656 30.1875 141.756 30.2175C130.076 25.4575 117.166 23.2075 103.756 24.1175C95.8755 24.6575 88.3355 26.2675 81.2155 28.7575C81.1955 28.7875 81.1755 28.8075 81.1555 28.8375H81.1655Z" fill="url(#paint22_linear_3588_6600)"/>
<path style="mix-blend-mode:multiply" opacity="0.3" d="M193.726 125.357C185.786 105.937 170.066 91.9172 156.246 84.1772C156.076 86.1472 155.866 88.1772 155.596 90.2872C154.756 96.8372 153.216 103.177 151.076 109.247C160.086 115.877 168.816 125.727 172.676 137.307C176.406 148.487 174.976 161.087 167.516 171.417C166.096 173.377 164.306 175.307 162.476 176.917C162.446 176.937 162.426 176.967 162.396 176.987C178.486 164.347 189.866 146.117 193.766 125.477C193.746 125.437 193.736 125.397 193.716 125.357H193.726Z" fill="url(#paint23_linear_3588_6600)"/>
<path style="mix-blend-mode:multiply" opacity="0.3" d="M88.4656 86.9773C88.9556 90.9873 89.6856 94.7473 90.6156 98.3173C98.4056 96.4873 106.036 95.8073 113.336 96.1673C113.726 96.1973 114.096 96.1973 114.486 96.2373C114.496 96.2373 114.516 96.2373 114.526 96.2373C119.096 96.6173 123.866 97.4473 128.796 98.8073C129.856 95.3073 130.726 91.6673 131.366 87.8673C132.056 83.1473 132.276 78.7773 132.246 74.9573C120.566 72.0673 109.646 71.4973 99.6856 72.3873C95.9656 72.6373 92.2356 73.1073 88.5356 73.7973C88.0056 78.5673 87.9956 83.0873 88.4656 86.9773Z" fill="url(#paint24_linear_3588_6600)"/>
<path d="M549.486 81.3872L535.396 120.657H535.496L549.576 81.6172L549.486 81.3872Z" fill="white"/>
<path d="M299.146 81.3872L285.056 120.657H285.096L299.196 81.5372L299.146 81.3872Z" fill="white"/>
<path d="M302.666 91.1971L313.246 120.657H292.046L286.696 135.507H318.656L327.716 160.677H347.986L311.036 67.9971L302.666 91.1971Z" fill="white"/>
<path d="M285.056 120.657L299.146 81.3873L299.196 81.5373L305.156 65.0273H289.586L251.576 160.677H270.666L285.096 120.657H285.056Z" fill="white"/>
<path d="M409.406 111.407C404.786 108.687 398.666 106.147 391.026 103.797C386.666 102.377 383.246 101.047 380.766 99.8271C378.286 98.6171 376.566 97.2271 375.606 95.6771C374.636 94.1271 374.156 92.2971 374.156 90.1971C374.156 86.5071 375.586 83.6571 378.436 81.6371C381.286 79.6271 385.276 78.6171 390.396 78.6171C394.596 78.6171 398.976 79.2471 403.546 80.5071C408.116 81.7671 412.166 83.4871 415.696 85.6671L418.336 70.1871C414.726 68.0071 410.346 66.2671 405.186 64.9671C400.026 63.6671 394.886 63.0171 389.766 63.0171C382.796 63.0171 376.756 64.1471 371.646 66.4171C366.526 68.6871 362.566 71.9171 359.756 76.1071C356.946 80.3071 355.536 85.2571 355.536 90.9571C355.536 95.8271 356.486 100.037 358.366 103.607C360.256 107.177 363.336 110.257 367.616 112.857C371.896 115.457 377.516 117.807 384.486 119.907C389.516 121.417 393.426 122.847 396.196 124.187C398.966 125.527 400.896 127.017 401.986 128.657C403.076 130.297 403.626 132.247 403.626 134.507C403.626 138.457 402.006 141.537 398.776 143.757C395.546 145.977 391.076 147.087 385.376 147.087C380.426 147.087 375.246 146.317 369.836 144.757C364.426 143.207 359.706 141.217 355.676 138.777L353.916 154.757C356.266 156.357 359.206 157.737 362.726 158.907C366.246 160.077 370.046 161.007 374.116 161.677C378.186 162.347 382.236 162.687 386.256 162.687C397.586 162.687 406.476 160.107 412.936 154.947C419.396 149.787 422.626 142.637 422.626 133.487C422.626 128.617 421.576 124.407 419.476 120.837C417.376 117.267 414.026 114.127 409.406 111.397V111.407Z" fill="white"/>
<path d="M509.846 65.0273H428.916V80.6273H509.846V65.0273Z" fill="white"/>
<path d="M479.006 87.1572H459.746V160.677H479.006V87.1572Z" fill="white"/>
<path d="M535.396 120.657L549.486 81.3873L549.576 81.6173L555.556 65.0273H539.926L501.916 160.677H521.046L530.106 135.507H530.146L535.496 120.657H535.396Z" fill="white"/>
<path d="M553.036 91.2771L563.586 120.657H542.446L537.096 135.507H568.996L578.056 160.677H598.326L561.406 68.0771L553.036 91.2771Z" fill="white"/>
<path d="M660.626 121.917C665.246 119.317 669.016 115.817 671.956 111.407C674.896 107.007 676.366 101.867 676.366 95.9871C676.366 89.6071 674.936 84.1171 672.086 79.4971C669.236 74.8871 665.166 71.3171 659.876 68.7971C654.586 66.2771 648.296 65.0171 640.996 65.0171H634.306V79.4971H638.476C651.226 79.4971 657.606 84.9471 657.606 95.8571C657.606 106.767 651.016 112.217 637.846 112.217H634.306V126.687H644.136L664.276 160.667H685.796L660.626 121.897V121.917Z" fill="white"/>
<path d="M627.765 65.0273H609.525V160.687H627.765V65.0273Z" fill="white"/>
<path d="M733.975 83.3772L744.465 73.6972C750.835 68.1572 755.755 63.4072 759.215 59.4372C762.685 55.4672 765.085 51.8472 766.435 48.5572C767.775 45.2772 768.445 41.9572 768.445 38.6172C768.445 33.3672 767.095 28.7472 764.395 24.7572C761.695 20.7772 757.895 17.6672 752.985 15.4372C748.075 13.2072 742.295 12.0972 735.635 12.0972C728.975 12.0972 723.525 13.2772 718.655 15.6272C713.785 17.9872 710.015 21.3272 707.325 25.6672C704.645 30.0072 703.295 35.1572 703.295 41.1272H723.385C723.385 38.4772 723.895 36.2172 724.905 34.3572C725.915 32.4972 727.335 31.0772 729.165 30.0972C730.995 29.1172 733.115 28.6172 735.545 28.6172C737.975 28.6172 740.075 29.0872 741.925 30.0272C743.785 30.9672 745.235 32.3072 746.295 34.0372C747.355 35.7672 747.885 37.8372 747.885 40.2672C747.885 42.4372 747.445 44.4472 746.555 46.2872C745.665 48.1272 744.385 49.9572 742.695 51.7672C741.015 53.5772 738.965 55.5672 736.575 57.7372L704.585 85.7472V100.997H769.515V83.9072H733.965V83.3472L733.975 83.3772ZM788.685 80.1272C785.605 80.1272 782.965 81.2072 780.785 83.3572C778.605 85.5172 777.525 88.1072 777.555 91.1272C777.525 94.2072 778.605 96.8372 780.785 99.0072C782.975 101.177 785.605 102.267 788.685 102.267C790.655 102.267 792.475 101.767 794.145 100.767C795.815 99.7672 797.175 98.4272 798.215 96.7372C799.255 95.0572 799.795 93.1772 799.825 91.1272C799.795 88.0972 798.665 85.5072 796.425 83.3572C794.185 81.1972 791.605 80.1272 788.695 80.1272H788.685ZM871.465 32.7972C868.465 26.0572 864.195 20.9272 858.635 17.3972C853.085 13.8672 846.475 12.1072 838.825 12.1072C831.175 12.1072 824.585 13.8672 819.055 17.3972C813.535 20.9272 809.275 26.0472 806.295 32.7772C803.315 39.4972 801.805 47.6772 801.775 57.2972C801.745 66.9172 803.235 75.1472 806.225 81.9872C809.225 88.8272 813.495 94.0672 819.025 97.7072C824.565 101.347 831.165 103.167 838.815 103.167C846.465 103.167 853.095 101.357 858.625 97.7472C864.155 94.1372 868.415 88.9072 871.415 82.0472C874.415 75.1972 875.915 66.9472 875.915 57.2872C875.945 47.6972 874.455 39.5272 871.465 32.7872V32.7972ZM849.925 78.8172C847.095 83.4872 843.405 85.8172 838.835 85.8172C835.805 85.8172 833.135 84.7872 830.825 82.7172C828.515 80.6472 826.725 77.4972 825.455 73.2772C824.185 69.0472 823.565 63.7272 823.595 57.3072C823.625 47.8272 825.035 40.7972 827.835 36.2172C830.635 31.6372 834.305 29.3472 838.845 29.3472C841.905 29.3472 844.565 30.3572 846.855 32.3872C849.145 34.4172 850.925 37.4872 852.205 41.6172C853.495 45.7472 854.135 50.9772 854.135 57.3172C854.165 66.9972 852.765 74.1672 849.935 78.8372L849.925 78.8172Z" fill="#03E2FE"/>
<path d="M230.897 260V222.182H246.667C249.499 222.182 251.868 222.582 253.777 223.382C255.697 224.182 257.137 225.303 258.098 226.743C259.07 228.183 259.556 229.851 259.556 231.747C259.556 233.188 259.255 234.474 258.652 235.607C258.048 236.727 257.217 237.656 256.159 238.395C255.1 239.134 253.875 239.651 252.484 239.946V240.315C254.011 240.389 255.42 240.802 256.713 241.553C258.018 242.304 259.064 243.35 259.852 244.692C260.64 246.021 261.034 247.597 261.034 249.419C261.034 251.45 260.517 253.266 259.483 254.866C258.449 256.455 256.953 257.71 254.995 258.634C253.038 259.545 250.662 260 247.868 260H230.897ZM240.038 252.632H245.689C247.671 252.632 249.129 252.257 250.065 251.506C251.013 250.755 251.487 249.708 251.487 248.366C251.487 247.394 251.259 246.557 250.804 245.855C250.348 245.141 249.702 244.593 248.865 244.212C248.028 243.818 247.024 243.621 245.855 243.621H240.038V252.632ZM240.038 237.73H245.098C246.095 237.73 246.981 237.564 247.757 237.232C248.532 236.899 249.136 236.419 249.566 235.791C250.01 235.163 250.231 234.406 250.231 233.52C250.231 232.252 249.782 231.255 248.883 230.528C247.984 229.802 246.772 229.439 245.245 229.439H240.038V237.73ZM283.728 247.757V231.636H292.74V260H284.135V254.719H283.839C283.211 256.455 282.14 257.833 280.626 258.855C279.124 259.865 277.308 260.369 275.179 260.369C273.246 260.369 271.547 259.926 270.082 259.04C268.617 258.153 267.478 256.916 266.666 255.328C265.853 253.728 265.441 251.857 265.429 249.714V231.636H274.458V247.942C274.471 249.481 274.877 250.693 275.677 251.58C276.477 252.466 277.567 252.909 278.946 252.909C279.844 252.909 280.651 252.712 281.365 252.318C282.091 251.912 282.663 251.327 283.082 250.564C283.513 249.788 283.728 248.853 283.728 247.757ZM298.487 260V231.636H307.517V260H298.487ZM303.011 228.331C301.743 228.331 300.654 227.912 299.743 227.075C298.832 226.226 298.376 225.204 298.376 224.01C298.376 222.828 298.832 221.819 299.743 220.982C300.654 220.132 301.743 219.707 303.011 219.707C304.292 219.707 305.381 220.132 306.28 220.982C307.191 221.819 307.646 222.828 307.646 224.01C307.646 225.204 307.191 226.226 306.28 227.075C305.381 227.912 304.292 228.331 303.011 228.331ZM322.294 222.182V260H313.265V222.182H322.294ZM338.401 260.406C336.308 260.406 334.406 259.865 332.695 258.781C330.984 257.698 329.618 256.073 328.596 253.906C327.574 251.74 327.063 249.05 327.063 245.837C327.063 242.5 327.593 239.755 328.651 237.601C329.71 235.446 331.095 233.852 332.806 232.818C334.53 231.784 336.382 231.267 338.364 231.267C339.854 231.267 341.128 231.526 342.187 232.043C343.246 232.547 344.12 233.2 344.809 234C345.498 234.8 346.022 235.631 346.379 236.493H346.563V222.182H355.593V260H346.656V255.402H346.379C345.997 256.276 345.455 257.095 344.754 257.858C344.052 258.621 343.172 259.237 342.113 259.705C341.067 260.172 339.829 260.406 338.401 260.406ZM341.54 253.371C342.636 253.371 343.572 253.063 344.347 252.447C345.123 251.82 345.72 250.939 346.138 249.807C346.557 248.674 346.766 247.345 346.766 245.818C346.766 244.267 346.557 242.931 346.138 241.811C345.732 240.691 345.135 239.829 344.347 239.226C343.572 238.623 342.636 238.321 341.54 238.321C340.42 238.321 339.472 238.629 338.697 239.244C337.921 239.86 337.33 240.728 336.924 241.848C336.53 242.968 336.333 244.292 336.333 245.818C336.333 247.345 336.536 248.674 336.942 249.807C337.349 250.939 337.933 251.82 338.697 252.447C339.472 253.063 340.42 253.371 341.54 253.371ZM361.304 260V231.636H370.333V260H361.304ZM365.828 228.331C364.56 228.331 363.47 227.912 362.559 227.075C361.648 226.226 361.193 225.204 361.193 224.01C361.193 222.828 361.648 221.819 362.559 220.982C363.47 220.132 364.56 219.707 365.828 219.707C367.108 219.707 368.198 220.132 369.096 220.982C370.007 221.819 370.463 222.828 370.463 224.01C370.463 225.204 370.007 226.226 369.096 227.075C368.198 227.912 367.108 228.331 365.828 228.331ZM385.111 243.824V260H376.081V231.636H384.668V236.844H384.982C385.609 235.108 386.68 233.748 388.195 232.763C389.709 231.766 391.512 231.267 393.605 231.267C395.599 231.267 397.329 231.716 398.794 232.615C400.271 233.501 401.416 234.745 402.229 236.345C403.054 237.933 403.46 239.792 403.447 241.922V260H394.418V243.695C394.43 242.119 394.03 240.888 393.217 240.001C392.417 239.115 391.303 238.672 389.875 238.672C388.927 238.672 388.09 238.881 387.364 239.3C386.65 239.706 386.096 240.291 385.702 241.054C385.32 241.817 385.123 242.741 385.111 243.824ZM422.26 271.227C419.564 271.227 417.255 270.852 415.335 270.101C413.414 269.35 411.906 268.322 410.811 267.017C409.715 265.712 409.056 264.235 408.835 262.585L417.385 262.105C417.545 262.684 417.84 263.188 418.271 263.619C418.714 264.05 419.287 264.383 419.988 264.616C420.702 264.85 421.539 264.967 422.5 264.967C424.014 264.967 425.263 264.598 426.248 263.859C427.245 263.133 427.744 261.859 427.744 260.037V255.051H427.43C427.073 255.925 426.531 256.707 425.805 257.396C425.079 258.086 424.174 258.627 423.091 259.021C422.02 259.415 420.788 259.612 419.397 259.612C417.329 259.612 415.433 259.132 413.71 258.172C411.999 257.199 410.626 255.697 409.592 253.666C408.57 251.623 408.059 248.994 408.059 245.781C408.059 242.47 408.589 239.743 409.647 237.601C410.706 235.446 412.091 233.852 413.802 232.818C415.526 231.784 417.378 231.267 419.36 231.267C420.85 231.267 422.124 231.526 423.183 232.043C424.254 232.547 425.134 233.2 425.824 234C426.513 234.8 427.036 235.631 427.393 236.493H427.652V231.636H436.645V260.111C436.645 262.511 436.041 264.536 434.835 266.186C433.628 267.836 431.942 269.085 429.775 269.935C427.609 270.796 425.103 271.227 422.26 271.227ZM422.537 253.038C423.632 253.038 424.568 252.749 425.343 252.17C426.119 251.592 426.716 250.761 427.135 249.678C427.553 248.594 427.762 247.295 427.762 245.781C427.762 244.242 427.553 242.919 427.135 241.811C426.728 240.691 426.131 239.829 425.343 239.226C424.568 238.623 423.632 238.321 422.537 238.321C421.416 238.321 420.468 238.629 419.693 239.244C418.917 239.86 418.326 240.728 417.92 241.848C417.526 242.956 417.329 244.267 417.329 245.781C417.329 247.295 417.532 248.594 417.939 249.678C418.345 250.761 418.93 251.592 419.693 252.17C420.468 252.749 421.416 253.038 422.537 253.038ZM469.583 231.636V238.284H451.69V231.636H469.583ZM455.438 224.841H464.468V251.081C464.468 251.635 464.554 252.084 464.727 252.429C464.911 252.761 465.176 253.001 465.521 253.149C465.865 253.285 466.278 253.352 466.758 253.352C467.103 253.352 467.466 253.321 467.847 253.26C468.241 253.186 468.537 253.125 468.734 253.075L470.1 259.594C469.669 259.717 469.06 259.871 468.272 260.055C467.496 260.24 466.567 260.357 465.484 260.406C463.366 260.505 461.55 260.259 460.036 259.668C458.534 259.064 457.383 258.129 456.583 256.861C455.795 255.593 455.414 253.999 455.438 252.078V224.841ZM483.83 243.824V260H474.8V222.182H483.534V236.844H483.848C484.488 235.096 485.535 233.729 486.987 232.744C488.452 231.759 490.243 231.267 492.361 231.267C494.355 231.267 496.091 231.71 497.568 232.597C499.045 233.471 500.19 234.708 501.003 236.308C501.828 237.909 502.234 239.78 502.222 241.922V260H493.192V243.695C493.204 242.119 492.81 240.888 492.01 240.001C491.21 239.115 490.083 238.672 488.631 238.672C487.683 238.672 486.846 238.881 486.119 239.3C485.405 239.706 484.845 240.291 484.439 241.054C484.045 241.817 483.842 242.741 483.83 243.824ZM521.117 260.536C518.15 260.536 515.589 259.951 513.435 258.781C511.293 257.599 509.643 255.919 508.486 253.74C507.341 251.549 506.769 248.945 506.769 245.929C506.769 242.999 507.347 240.438 508.505 238.247C509.662 236.044 511.293 234.332 513.398 233.114C515.503 231.883 517.984 231.267 520.84 231.267C522.859 231.267 524.705 231.581 526.38 232.209C528.054 232.837 529.5 233.766 530.719 234.997C531.938 236.228 532.886 237.749 533.563 239.558C534.24 241.356 534.578 243.418 534.578 245.744V247.997H509.926V242.753H526.176C526.164 241.793 525.936 240.937 525.493 240.186C525.05 239.435 524.441 238.85 523.665 238.432C522.902 238.001 522.022 237.786 521.025 237.786C520.015 237.786 519.11 238.013 518.31 238.469C517.51 238.912 516.876 239.521 516.408 240.297C515.94 241.06 515.694 241.928 515.669 242.901V248.237C515.669 249.394 515.897 250.41 516.353 251.284C516.808 252.146 517.454 252.817 518.292 253.297C519.129 253.777 520.126 254.017 521.283 254.017C522.083 254.017 522.81 253.906 523.462 253.685C524.114 253.463 524.675 253.137 525.142 252.706C525.61 252.275 525.961 251.746 526.195 251.118L534.486 251.358C534.141 253.217 533.384 254.836 532.215 256.214C531.058 257.581 529.537 258.646 527.654 259.409C525.77 260.16 523.591 260.536 521.117 260.536ZM573.241 222.182H582.364V246.575C582.364 249.394 581.693 251.85 580.351 253.943C579.009 256.024 577.138 257.636 574.737 258.781C572.337 259.914 569.548 260.48 566.372 260.48C563.159 260.48 560.352 259.914 557.952 258.781C555.551 257.636 553.686 256.024 552.357 253.943C551.027 251.85 550.362 249.394 550.362 246.575V222.182H559.503V245.781C559.503 247.086 559.786 248.25 560.352 249.271C560.931 250.293 561.737 251.093 562.771 251.672C563.805 252.25 565.006 252.54 566.372 252.54C567.739 252.54 568.933 252.25 569.955 251.672C570.989 251.093 571.795 250.293 572.374 249.271C572.952 248.25 573.241 247.086 573.241 245.781V222.182ZM597.123 243.824V260H588.093V231.636H596.679V236.844H596.993C597.621 235.108 598.692 233.748 600.206 232.763C601.721 231.766 603.524 231.267 605.617 231.267C607.611 231.267 609.341 231.716 610.806 232.615C612.283 233.501 613.428 234.745 614.24 236.345C615.065 237.933 615.471 239.792 615.459 241.922V260H606.429V243.695C606.442 242.119 606.042 240.888 605.229 240.001C604.429 239.115 603.315 238.672 601.887 238.672C600.939 238.672 600.102 238.881 599.375 239.3C598.661 239.706 598.107 240.291 597.713 241.054C597.332 241.817 597.135 242.741 597.123 243.824ZM645.812 240.297L637.521 240.518C637.435 239.928 637.201 239.404 636.82 238.949C636.438 238.481 635.939 238.118 635.324 237.859C634.721 237.589 634.019 237.453 633.219 237.453C632.172 237.453 631.28 237.662 630.541 238.081C629.815 238.5 629.458 239.066 629.47 239.78C629.458 240.334 629.679 240.814 630.135 241.22C630.603 241.626 631.434 241.953 632.628 242.199L638.094 243.233C640.925 243.775 643.03 244.673 644.409 245.929C645.8 247.185 646.502 248.847 646.514 250.915C646.502 252.86 645.923 254.553 644.778 255.993C643.646 257.433 642.095 258.554 640.125 259.354C638.155 260.142 635.902 260.536 633.366 260.536C629.316 260.536 626.122 259.705 623.783 258.043C621.456 256.368 620.126 254.128 619.794 251.321L628.713 251.099C628.91 252.134 629.421 252.921 630.246 253.463C631.071 254.005 632.123 254.276 633.403 254.276C634.561 254.276 635.502 254.06 636.229 253.629C636.955 253.198 637.324 252.626 637.337 251.912C637.324 251.272 637.041 250.761 636.487 250.379C635.933 249.985 635.065 249.678 633.884 249.456L628.935 248.514C626.091 247.997 623.973 247.043 622.582 245.652C621.191 244.249 620.502 242.464 620.514 240.297C620.502 238.401 621.007 236.782 622.028 235.44C623.05 234.086 624.503 233.052 626.386 232.338C628.27 231.624 630.492 231.267 633.053 231.267C636.893 231.267 639.922 232.073 642.138 233.686C644.354 235.286 645.579 237.49 645.812 240.297ZM666.97 231.636V238.284H649.076V231.636H666.97ZM652.825 224.841H661.855V251.081C661.855 251.635 661.941 252.084 662.113 252.429C662.298 252.761 662.563 253.001 662.907 253.149C663.252 253.285 663.664 253.352 664.145 253.352C664.489 253.352 664.852 253.321 665.234 253.26C665.628 253.186 665.923 253.125 666.12 253.075L667.487 259.594C667.056 259.717 666.447 259.871 665.659 260.055C664.883 260.24 663.954 260.357 662.87 260.406C660.753 260.505 658.937 260.259 657.423 259.668C655.921 259.064 654.77 258.129 653.97 256.861C653.182 255.593 652.8 253.999 652.825 252.078V224.841ZM684.512 260.536C681.533 260.536 678.973 259.926 676.831 258.707C674.701 257.476 673.057 255.765 671.9 253.574C670.755 251.37 670.183 248.816 670.183 245.911C670.183 242.993 670.755 240.438 671.9 238.247C673.057 236.044 674.701 234.332 676.831 233.114C678.973 231.883 681.533 231.267 684.512 231.267C687.492 231.267 690.046 231.883 692.176 233.114C694.318 234.332 695.961 236.044 697.106 238.247C698.263 240.438 698.842 242.993 698.842 245.911C698.842 248.816 698.263 251.37 697.106 253.574C695.961 255.765 694.318 257.476 692.176 258.707C690.046 259.926 687.492 260.536 684.512 260.536ZM684.568 253.722C685.651 253.722 686.568 253.389 687.319 252.724C688.07 252.06 688.643 251.136 689.037 249.955C689.443 248.773 689.646 247.406 689.646 245.855C689.646 244.279 689.443 242.901 689.037 241.719C688.643 240.537 688.07 239.614 687.319 238.949C686.568 238.284 685.651 237.952 684.568 237.952C683.448 237.952 682.5 238.284 681.724 238.949C680.961 239.614 680.376 240.537 679.97 241.719C679.576 242.901 679.379 244.279 679.379 245.855C679.379 247.406 679.576 248.773 679.97 249.955C680.376 251.136 680.961 252.06 681.724 252.724C682.5 253.389 683.448 253.722 684.568 253.722ZM703.468 270.636V231.636H712.405V236.493H712.682C713.051 235.631 713.575 234.8 714.252 234C714.941 233.2 715.815 232.547 716.874 232.043C717.945 231.526 719.225 231.267 720.715 231.267C722.685 231.267 724.525 231.784 726.236 232.818C727.96 233.852 729.351 235.446 730.409 237.601C731.468 239.755 731.998 242.5 731.998 245.837C731.998 249.05 731.487 251.74 730.465 253.906C729.455 256.073 728.089 257.698 726.365 258.781C724.654 259.865 722.752 260.406 720.659 260.406C719.231 260.406 717.994 260.172 716.948 259.705C715.901 259.237 715.021 258.621 714.307 257.858C713.605 257.095 713.064 256.276 712.682 255.402H712.498V270.636H703.468ZM712.313 245.818C712.313 247.345 712.516 248.674 712.922 249.807C713.341 250.939 713.938 251.82 714.713 252.447C715.501 253.063 716.443 253.371 717.539 253.371C718.647 253.371 719.588 253.063 720.364 252.447C721.14 251.82 721.724 250.939 722.118 249.807C722.525 248.674 722.728 247.345 722.728 245.818C722.728 244.292 722.525 242.968 722.118 241.848C721.724 240.728 721.14 239.86 720.364 239.244C719.601 238.629 718.659 238.321 717.539 238.321C716.431 238.321 715.489 238.623 714.713 239.226C713.938 239.829 713.341 240.691 712.922 241.811C712.516 242.931 712.313 244.267 712.313 245.818ZM736.729 270.636V231.636H745.667V236.493H745.944C746.313 235.631 746.836 234.8 747.513 234C748.203 233.2 749.077 232.547 750.136 232.043C751.207 231.526 752.487 231.267 753.977 231.267C755.946 231.267 757.787 231.784 759.498 232.818C761.221 233.852 762.612 235.446 763.671 237.601C764.73 239.755 765.259 242.5 765.259 245.837C765.259 249.05 764.748 251.74 763.727 253.906C762.717 256.073 761.351 257.698 759.627 258.781C757.916 259.865 756.014 260.406 753.921 260.406C752.493 260.406 751.256 260.172 750.21 259.705C749.163 259.237 748.283 258.621 747.569 257.858C746.867 257.095 746.326 256.276 745.944 255.402H745.759V270.636H736.729ZM745.575 245.818C745.575 247.345 745.778 248.674 746.184 249.807C746.603 250.939 747.2 251.82 747.975 252.447C748.763 253.063 749.705 253.371 750.8 253.371C751.908 253.371 752.85 253.063 753.626 252.447C754.401 251.82 754.986 250.939 755.38 249.807C755.786 248.674 755.989 247.345 755.989 245.818C755.989 244.292 755.786 242.968 755.38 241.848C754.986 240.728 754.401 239.86 753.626 239.244C752.862 238.629 751.921 238.321 750.8 238.321C749.692 238.321 748.751 238.623 747.975 239.226C747.2 239.829 746.603 240.691 746.184 241.811C745.778 242.931 745.575 244.267 745.575 245.818ZM777.987 260.48C776.177 260.48 774.571 260.179 773.167 259.575C771.776 258.96 770.674 258.036 769.862 256.805C769.062 255.562 768.662 254.005 768.662 252.134C768.662 250.558 768.939 249.228 769.493 248.145C770.047 247.062 770.81 246.181 771.782 245.504C772.755 244.827 773.875 244.316 775.143 243.972C776.411 243.615 777.765 243.375 779.206 243.251C780.818 243.104 782.117 242.95 783.102 242.79C784.087 242.617 784.801 242.377 785.244 242.07C785.699 241.75 785.927 241.3 785.927 240.722V240.629C785.927 239.681 785.601 238.949 784.949 238.432C784.296 237.915 783.416 237.656 782.308 237.656C781.114 237.656 780.154 237.915 779.427 238.432C778.701 238.949 778.239 239.663 778.042 240.574L769.714 240.278C769.96 238.555 770.594 237.016 771.616 235.662C772.65 234.295 774.066 233.224 775.863 232.449C777.673 231.661 779.846 231.267 782.382 231.267C784.191 231.267 785.859 231.482 787.386 231.913C788.913 232.332 790.242 232.947 791.375 233.76C792.507 234.56 793.381 235.545 793.997 236.714C794.625 237.884 794.939 239.22 794.939 240.722V260H786.444V256.048H786.223C785.718 257.009 785.072 257.821 784.284 258.486C783.508 259.151 782.591 259.649 781.532 259.982C780.486 260.314 779.304 260.48 777.987 260.48ZM780.775 254.571C781.748 254.571 782.622 254.374 783.397 253.98C784.185 253.586 784.813 253.045 785.281 252.355C785.749 251.653 785.983 250.841 785.983 249.918V247.222C785.724 247.357 785.41 247.48 785.041 247.591C784.684 247.702 784.29 247.806 783.859 247.905C783.428 248.003 782.985 248.089 782.529 248.163C782.074 248.237 781.637 248.305 781.218 248.366C780.369 248.502 779.643 248.711 779.039 248.994C778.449 249.277 777.993 249.647 777.673 250.102C777.365 250.545 777.211 251.075 777.211 251.69C777.211 252.626 777.544 253.34 778.208 253.832C778.886 254.325 779.741 254.571 780.775 254.571ZM800.46 260V222.182H809.49V236.493H809.674C810.044 235.631 810.567 234.8 811.244 234C811.933 233.2 812.807 232.547 813.866 232.043C814.937 231.526 816.217 231.267 817.707 231.267C819.677 231.267 821.517 231.784 823.228 232.818C824.952 233.852 826.343 235.446 827.402 237.601C828.46 239.755 828.99 242.5 828.99 245.837C828.99 249.05 828.479 251.74 827.457 253.906C826.448 256.073 825.081 257.698 823.358 258.781C821.646 259.865 819.744 260.406 817.652 260.406C816.224 260.406 814.986 260.172 813.94 259.705C812.894 259.237 812.013 258.621 811.299 257.858C810.598 257.095 810.056 256.276 809.674 255.402H809.397V260H800.46ZM809.305 245.818C809.305 247.345 809.508 248.674 809.914 249.807C810.333 250.939 810.93 251.82 811.706 252.447C812.493 253.063 813.435 253.371 814.531 253.371C815.639 253.371 816.581 253.063 817.356 252.447C818.132 251.82 818.717 250.939 819.11 249.807C819.517 248.674 819.72 247.345 819.72 245.818C819.72 244.292 819.517 242.968 819.11 241.848C818.717 240.728 818.132 239.86 817.356 239.244C816.593 238.629 815.651 238.321 814.531 238.321C813.423 238.321 812.481 238.623 811.706 239.226C810.93 239.829 810.333 240.691 809.914 241.811C809.508 242.931 809.305 244.267 809.305 245.818ZM842.751 222.182V260H833.722V222.182H842.751ZM861.757 260.536C858.791 260.536 856.23 259.951 854.076 258.781C851.934 257.599 850.284 255.919 849.127 253.74C847.982 251.549 847.409 248.945 847.409 245.929C847.409 242.999 847.988 240.438 849.145 238.247C850.302 236.044 851.934 234.332 854.039 233.114C856.144 231.883 858.624 231.267 861.48 231.267C863.499 231.267 865.346 231.581 867.02 232.209C868.694 232.837 870.141 233.766 871.36 234.997C872.578 236.228 873.526 237.749 874.203 239.558C874.881 241.356 875.219 243.418 875.219 245.744V247.997H850.567V242.753H866.817C866.805 241.793 866.577 240.937 866.134 240.186C865.691 239.435 865.081 238.85 864.306 238.432C863.542 238.001 862.662 237.786 861.665 237.786C860.656 237.786 859.751 238.013 858.951 238.469C858.15 238.912 857.516 239.521 857.049 240.297C856.581 241.06 856.335 241.928 856.31 242.901V248.237C856.31 249.394 856.538 250.41 856.993 251.284C857.449 252.146 858.095 252.817 858.932 253.297C859.769 253.777 860.766 254.017 861.924 254.017C862.724 254.017 863.45 253.906 864.103 253.685C864.755 253.463 865.315 253.137 865.783 252.706C866.251 252.275 866.602 251.746 866.836 251.118L875.127 251.358C874.782 253.217 874.025 254.836 872.855 256.214C871.698 257.581 870.178 258.646 868.294 259.409C866.411 260.16 864.232 260.536 861.757 260.536Z" fill="#03E2FE"/>
<defs>
<linearGradient id="paint0_linear_3588_6600" x1="34.7956" y1="184.367" x2="174.536" y2="44.6373" gradientUnits="userSpaceOnUse">
<stop stop-color="#E6007A"/>
<stop offset="0.21" stop-color="#703AC2"/>
<stop offset="0.46" stop-color="#006BE7"/>
<stop offset="0.77" stop-color="#0094F8"/>
<stop offset="1" stop-color="#03E2FE"/>
</linearGradient>
<radialGradient id="paint1_radial_3588_6600" cx="0" cy="0" r="1" gradientUnits="userSpaceOnUse" gradientTransform="translate(140.815 87.3975) scale(41.67 41.67)">
<stop stop-color="white"/>
<stop offset="1" stop-color="white" stop-opacity="0"/>
</radialGradient>
<radialGradient id="paint2_radial_3588_6600" cx="0" cy="0" r="1" gradientUnits="userSpaceOnUse" gradientTransform="translate(79.2258 164.697) scale(24.24)">
<stop stop-color="white"/>
<stop offset="1" stop-color="white" stop-opacity="0"/>
</radialGradient>
<linearGradient id="paint3_linear_3588_6600" x1="42.8454" y1="160.597" x2="66.2154" y2="160.267" gradientUnits="userSpaceOnUse">
<stop stop-color="white" stop-opacity="0"/>
<stop offset="1" stop-color="white"/>
</linearGradient>
<radialGradient id="paint4_radial_3588_6600" cx="0" cy="0" r="1" gradientUnits="userSpaceOnUse" gradientTransform="translate(74.7517 93.6251) rotate(-120) scale(41.67)">
<stop stop-color="white"/>
<stop offset="1" stop-color="white" stop-opacity="0"/>
</radialGradient>
<radialGradient id="paint5_radial_3588_6600" cx="0" cy="0" r="1" gradientUnits="userSpaceOnUse" gradientTransform="translate(172.482 108.318) rotate(-120) scale(24.24)">
<stop stop-color="white"/>
<stop offset="1" stop-color="white" stop-opacity="0"/>
</radialGradient>
<linearGradient id="paint6_linear_3588_6600" x1="187.121" y1="141.874" x2="175.159" y2="121.795" gradientUnits="userSpaceOnUse">
<stop stop-color="white" stop-opacity="0"/>
<stop offset="1" stop-color="white"/>
</linearGradient>
<radialGradient id="paint7_radial_3588_6600" cx="0" cy="0" r="1" gradientUnits="userSpaceOnUse" gradientTransform="translate(111.201 145.8) rotate(120) scale(41.67 41.67)">
<stop stop-color="white"/>
<stop offset="1" stop-color="white" stop-opacity="0"/>
</radialGradient>
<radialGradient id="paint8_radial_3588_6600" cx="0" cy="0" r="1" gradientUnits="userSpaceOnUse" gradientTransform="translate(77.0247 55.7352) rotate(120) scale(24.24 24.24)">
<stop stop-color="white"/>
<stop offset="1" stop-color="white" stop-opacity="0"/>
</radialGradient>
<linearGradient id="paint9_linear_3588_6600" x1="98.765" y1="26.2794" x2="87.3658" y2="46.6834" gradientUnits="userSpaceOnUse">
<stop stop-color="white" stop-opacity="0"/>
<stop offset="1" stop-color="white"/>
</linearGradient>
<linearGradient id="paint10_linear_3588_6600" x1="103.836" y1="15.917" x2="68.1357" y2="26.297" gradientUnits="userSpaceOnUse">
<stop stop-color="#231F20"/>
<stop offset="1" stop-color="white"/>
</linearGradient>
<linearGradient id="paint11_linear_3588_6600" x1="36.3755" y1="152.067" x2="66.2354" y2="183.227" gradientUnits="userSpaceOnUse">
<stop stop-color="#231F20"/>
<stop offset="1" stop-color="white"/>
</linearGradient>
<linearGradient id="paint12_linear_3588_6600" x1="196.626" y1="147.377" x2="207.006" y2="115.787" gradientUnits="userSpaceOnUse">
<stop stop-color="#231F20"/>
<stop offset="1" stop-color="white"/>
</linearGradient>
<linearGradient id="paint13_linear_3588_6600" x1="120.106" y1="33.9772" x2="167.966" y2="44.9372" gradientUnits="userSpaceOnUse">
<stop stop-color="#231F20"/>
<stop offset="1" stop-color="white"/>
</linearGradient>
<linearGradient id="paint14_linear_3588_6600" x1="169.791" y1="156.498" x2="136.369" y2="192.466" gradientUnits="userSpaceOnUse">
<stop stop-color="#231F20"/>
<stop offset="1" stop-color="white"/>
</linearGradient>
<linearGradient id="paint15_linear_3588_6600" x1="38.8498" y1="138.294" x2="24.4114" y2="91.3662" gradientUnits="userSpaceOnUse">
<stop stop-color="#231F20"/>
<stop offset="1" stop-color="white"/>
</linearGradient>
<linearGradient id="paint16_linear_3588_6600" x1="130.565" y1="51.6272" x2="115.425" y2="66.7772" gradientUnits="userSpaceOnUse">
<stop stop-color="#231F20"/>
<stop offset="1" stop-color="white"/>
</linearGradient>
<linearGradient id="paint17_linear_3588_6600" x1="48.8989" y1="120.387" x2="69.5805" y2="125.928" gradientUnits="userSpaceOnUse">
<stop stop-color="#231F20"/>
<stop offset="1" stop-color="white"/>
</linearGradient>
<linearGradient id="paint18_linear_3588_6600" x1="149.276" y1="156.732" x2="143.726" y2="136.045" gradientUnits="userSpaceOnUse">
<stop stop-color="#231F20"/>
<stop offset="1" stop-color="white"/>
</linearGradient>
<linearGradient id="paint19_linear_3588_6600" x1="117.776" y1="138.327" x2="126.866" y2="125.787" gradientUnits="userSpaceOnUse">
<stop stop-color="#231F20"/>
<stop offset="1" stop-color="white"/>
</linearGradient>
<linearGradient id="paint20_linear_3588_6600" x1="86.4854" y1="132.897" x2="68.3154" y2="141.557" gradientUnits="userSpaceOnUse">
<stop stop-color="#231F20"/>
<stop offset="1" stop-color="white"/>
</linearGradient>
<linearGradient id="paint21_linear_3588_6600" x1="79.8954" y1="102.647" x2="85.5154" y2="114.327" gradientUnits="userSpaceOnUse">
<stop stop-color="#231F20"/>
<stop offset="1" stop-color="white"/>
</linearGradient>
<linearGradient id="paint22_linear_3588_6600" x1="106.056" y1="66.5675" x2="102.166" y2="53.1475" gradientUnits="userSpaceOnUse">
<stop stop-color="#231F20"/>
<stop offset="1" stop-color="white"/>
</linearGradient>
<linearGradient id="paint23_linear_3588_6600" x1="148.036" y1="127.977" x2="159.286" y2="130.577" gradientUnits="userSpaceOnUse">
<stop stop-color="#231F20"/>
<stop offset="1" stop-color="white"/>
</linearGradient>
<linearGradient id="paint24_linear_3588_6600" x1="130.376" y1="89.9773" x2="116.096" y2="87.3773" gradientUnits="userSpaceOnUse">
<stop stop-color="#231F20"/>
<stop offset="1" stop-color="white"/>
</linearGradient>
</defs>
</svg>
