<svg width="616" height="332" viewBox="0 0 616 332" fill="none" xmlns="http://www.w3.org/2000/svg">
<g clip-path="url(#clip0_3768_6450)">
<path d="M285 325.248C373.918 325.248 446 252.663 446 163.124C446 73.5855 373.918 1 285 1C196.082 1 124 73.5855 124 163.124C124 252.663 196.082 325.248 285 325.248Z" fill="white"/>
<mask id="mask0_3768_6450" style="mask-type:luminance" maskUnits="userSpaceOnUse" x="138" y="15" width="294" height="296">
<path d="M285 15.8821C204.244 15.8821 138.779 81.8045 138.779 163.124C138.779 244.444 204.244 310.366 285 310.366C365.756 310.366 431.221 244.444 431.221 163.124C431.221 81.8045 365.756 15.8821 285 15.8821ZM285 256.129C233.992 256.129 192.64 214.489 192.64 163.124C192.64 111.76 233.992 70.1198 285 70.1198C336.008 70.1198 377.36 111.76 377.36 163.124C377.36 214.489 336.008 256.129 285 256.129Z" fill="white"/>
</mask>
<g mask="url(#mask0_3768_6450)">
<path d="M441.06 11.0925H130.897V330H441.06V11.0925Z" fill="url(#paint0_linear_3768_6450)"/>
</g>
<path d="M166.974 181.677C166.045 175.629 165.562 169.432 165.562 163.124C165.562 127.574 180.878 95.6263 205.23 73.6094" stroke="#0AE2FF" stroke-width="10" stroke-miterlimit="10"/>
<path d="M364.496 73.3611C389.005 95.3864 404.438 127.441 404.438 163.124C404.438 169.435 403.955 175.629 403.026 181.677" stroke="#0AE2FF" stroke-width="10" stroke-miterlimit="10"/>
<g filter="url(#filter0_d_3768_6450)">
<path d="M212.752 49.672L219.071 79.3497L225.446 75.5298L223.994 69.373L232.471 64.2953L237.154 68.5148L243.529 64.6949L220.646 44.9392L212.748 49.6699L212.752 49.672ZM222.728 63.9903L220.278 53.595L220.47 53.4793L228.379 60.6058L222.728 63.9903ZM265.993 46.7608C265.392 45.9615 264.642 45.3136 263.748 44.813C262.854 44.3145 261.818 43.9548 260.639 43.7339C259.461 43.5131 258.152 43.4331 256.706 43.4963L254.191 43.5804C253.527 43.6119 252.919 43.6035 252.367 43.5551C251.816 43.5068 251.331 43.41 250.914 43.2649C250.496 43.1197 250.153 42.9115 249.886 42.6443C249.619 42.3772 249.441 42.0322 249.349 41.6094C249.226 41.1004 249.257 40.6103 249.441 40.1412C249.627 39.6722 249.976 39.2473 250.494 38.8686C251.01 38.49 251.699 38.1871 252.564 37.9578C253.867 37.6129 254.945 37.6255 255.795 37.9957C256.645 38.3659 257.247 39.0369 257.596 40.0087L263.99 38.3175C263.52 36.5927 262.678 35.1897 261.465 34.1064C260.249 33.0252 258.757 32.3269 256.99 32.0156C255.223 31.7043 253.268 31.8305 251.127 32.3984C249.032 32.9516 247.26 33.8077 245.813 34.9667C244.365 36.1236 243.348 37.4719 242.759 39.0117C242.17 40.5514 242.105 42.1816 242.562 43.898C243.103 46.0099 244.223 47.5012 245.921 48.3742C247.619 49.2471 249.736 49.6426 252.271 49.5626L255.336 49.4785C256.403 49.4469 257.301 49.4848 258.024 49.5879C258.749 49.6909 259.317 49.8908 259.729 50.1832C260.142 50.4755 260.42 50.8836 260.566 51.4053C260.704 51.969 260.658 52.5138 260.431 53.0375C260.203 53.5634 259.804 54.0304 259.234 54.4427C258.663 54.8549 257.928 55.1789 257.03 55.4187C256.05 55.6774 255.148 55.751 254.327 55.6395C253.504 55.528 252.804 55.2293 252.225 54.7434C251.647 54.2575 251.214 53.5739 250.926 52.6926L244.532 54.3838C245.125 56.5503 246.084 58.2184 247.408 59.3879C248.733 60.5574 250.343 61.2642 252.244 61.5061C254.143 61.748 256.249 61.565 258.559 60.9529C260.861 60.345 262.741 59.4889 264.197 58.3866C265.655 57.2844 266.655 55.9887 267.198 54.4994C267.742 53.0102 267.79 51.3863 267.341 49.6278C267.042 48.5172 266.591 47.5622 265.987 46.7629L265.993 46.7608ZM274.601 33.9003L283.274 34.0412L282.903 57.154L289.708 57.2655L290.08 34.1548L298.738 34.2957L298.83 28.6521L274.693 28.2588L274.601 33.9024V33.9003ZM316.17 32.0429L299.292 57.1919L306.444 59.1775L309.849 53.8579L319.358 56.4956L319.579 62.8207L326.731 64.8064L325.029 34.5019L316.168 32.0429H316.17ZM312.826 49.2071L318.574 40.2275L318.79 40.2864L319.163 50.9656L312.826 49.2071ZM360.515 53.1616C359.598 51.6766 358.232 50.3661 356.416 49.2282L346.4 42.9493L331.308 67.3663L337.17 71.039L342.335 62.6819L345.337 64.5624L344.604 75.6981L350.998 79.7052L351.714 67.259C353.431 67.482 355.017 67.2359 356.471 66.5207C357.935 65.8013 359.188 64.5939 360.235 62.9007C361.267 61.2305 361.799 59.5625 361.837 57.8923C361.873 56.2222 361.432 54.6446 360.515 53.1595V53.1616ZM354.16 59.0955C353.695 59.8506 353.158 60.3723 352.552 60.6605C351.946 60.9487 351.274 61.0223 350.534 60.8834C349.793 60.7446 348.98 60.3975 348.096 59.8443L345.207 58.0333L349.318 51.38L352.207 53.1911C353.083 53.7401 353.745 54.327 354.19 54.9538C354.635 55.5806 354.858 56.239 354.858 56.9268C354.858 57.6168 354.626 58.3383 354.158 59.0934L354.16 59.0955Z" fill="white"/>
</g>
<g filter="url(#filter1_d_3768_6450)">
<path d="M187.45 207.894L174.294 213.33C173.567 213.63 172.853 213.736 172.151 213.645C171.449 213.555 170.818 213.29 170.26 212.846C169.702 212.402 169.268 211.796 168.955 211.031C168.641 210.263 168.529 209.522 168.614 208.809C168.7 208.096 168.963 207.461 169.402 206.904C169.84 206.346 170.423 205.919 171.15 205.618L184.306 200.183L182.215 195.053L168.616 200.671C167.045 201.321 165.83 202.259 164.971 203.485C164.113 204.712 163.641 206.132 163.555 207.741C163.469 209.35 163.793 211.058 164.528 212.861C165.255 214.644 166.21 216.077 167.394 217.162C168.579 218.247 169.905 218.927 171.376 219.198C172.846 219.472 174.367 219.282 175.938 218.632L189.536 213.014L187.45 207.894ZM205.345 235.334L195.256 243.794L195.135 243.647L199.486 228.247L196.453 224.579L178.942 239.263L182.466 243.525L192.571 235.05L192.663 235.161L188.36 250.653L191.352 254.269L208.863 239.585L205.345 235.332V235.334ZM205.468 266.57L209.892 269.875L223.47 251.446L219.046 248.142L205.468 266.57ZM237.829 278.402L237.654 278.329L239.321 260.836L233.624 258.466L232.024 282.63L238.8 285.451L254.611 267.203L248.915 264.833L237.829 278.404V278.402ZM264.606 292.556L280.423 294.077L280.849 289.593L270.516 288.6L270.961 283.905L280.486 284.82L280.912 280.325L271.387 279.41L271.832 274.725L282.165 275.718L282.592 271.234L266.775 269.713L264.608 292.556H264.606ZM314.42 279.244C314.9 278.028 314.998 276.637 314.714 275.072C314.434 273.531 313.86 272.256 312.991 271.25C312.122 270.245 311.021 269.551 309.688 269.17C308.356 268.789 306.852 268.754 305.172 269.063L295.912 270.769L300.013 293.341L305.431 292.342L304.028 284.616L306.802 284.105L312.304 291.076L318.213 289.986L312.003 282.249C313.135 281.452 313.941 280.451 314.418 279.244H314.42ZM308.982 277.9C308.778 278.396 308.42 278.804 307.909 279.122C307.397 279.439 306.733 279.675 305.916 279.824L303.246 280.316L302.129 274.166L304.8 273.674C305.611 273.524 306.313 273.514 306.91 273.644C307.508 273.773 307.99 274.042 308.358 274.448C308.725 274.854 308.974 275.407 309.099 276.105C309.227 276.804 309.187 277.401 308.984 277.897L308.982 277.9ZM347.326 267.729C346.722 267.208 346.031 266.827 345.249 266.589C344.468 266.352 343.601 266.244 342.645 266.272C341.69 266.299 340.654 266.457 339.536 266.749L337.587 267.239C337.074 267.376 336.597 267.471 336.161 267.527C335.722 267.582 335.329 267.588 334.978 267.546C334.627 267.502 334.327 267.399 334.074 267.235C333.821 267.071 333.625 266.831 333.483 266.518C333.301 266.141 333.245 265.754 333.312 265.357C333.378 264.959 333.581 264.568 333.921 264.187C334.262 263.804 334.749 263.451 335.384 263.127C336.342 262.639 337.186 262.466 337.911 262.612C338.636 262.757 339.217 263.179 339.651 263.878L344.357 261.48C343.706 260.214 342.814 259.261 341.686 258.621C340.558 257.982 339.279 257.689 337.849 257.744C336.418 257.799 334.914 258.228 333.339 259.031C331.797 259.818 330.556 260.784 329.62 261.93C328.683 263.076 328.114 264.301 327.912 265.601C327.709 266.901 327.928 268.184 328.572 269.446C329.345 271.002 330.466 271.976 331.937 272.372C333.408 272.765 335.125 272.717 337.09 272.226L339.465 271.644C340.295 271.44 340.999 271.318 341.581 271.276C342.164 271.234 342.64 271.293 343.01 271.452C343.38 271.61 343.666 271.881 343.867 272.264C344.067 272.681 344.124 273.114 344.032 273.562C343.942 274.01 343.708 274.444 343.332 274.86C342.956 275.279 342.436 275.655 341.776 275.992C341.055 276.36 340.364 276.568 339.703 276.621C339.043 276.673 338.448 276.558 337.915 276.276C337.383 275.994 336.932 275.533 336.56 274.894L331.853 277.292C332.676 278.882 333.702 280.02 334.93 280.71C336.159 281.4 337.533 281.677 339.054 281.547C340.577 281.416 342.187 280.918 343.89 280.051C345.584 279.189 346.908 278.204 347.861 277.098C348.815 275.994 349.379 274.814 349.557 273.56C349.734 272.306 349.5 271.032 348.857 269.736C348.439 268.92 347.927 268.251 347.326 267.729ZM351.629 247.605L366.266 265.192L370.487 261.629L355.85 244.042L351.629 247.605ZM380.132 222.644L376.551 219.943L365.004 235.466L368.584 238.167L372.733 232.589L387.39 243.645L390.645 239.267L375.987 228.212L380.129 222.642L380.132 222.644ZM401.137 201.843L389.636 188.81L387.572 194.647L394.94 202.438L394.873 202.627L384.274 203.976L382.21 209.813L399.303 207.034L406.472 209.604L408.308 204.411L401.139 201.841L401.137 201.843Z" fill="white"/>
</g>
<path d="M364.012 157.712C361.043 113.771 323.262 80.5718 279.625 83.5608C257.886 85.05 238.8 95.2413 225.482 110.525L225.444 110.498C225.354 110.622 225.271 110.746 225.181 110.872C211.95 126.229 204.509 146.65 205.988 168.538C206.128 170.623 206.373 172.676 206.667 174.71C206.68 174.803 206.694 174.893 206.707 174.986C206.905 176.328 207.137 177.657 207.4 178.976C207.4 178.976 207.4 178.976 207.4 178.978C207.404 179.001 207.411 179.026 207.415 179.049C207.655 180.244 207.923 181.426 208.213 182.598V182.602C217.36 219.333 251.534 245.346 290.37 242.687C334.007 239.698 366.976 201.653 364.007 157.712H364.012ZM346.772 158.892C347.138 164.302 346.799 169.599 345.843 174.695C345.83 174.666 345.822 174.636 345.809 174.607C340.067 160.474 328.71 150.272 318.723 144.635C320.745 120.689 312.678 110.601 303.545 108.958C303.296 108.91 303.048 108.87 302.793 108.838C295.547 107.902 288.919 113.06 287.991 120.357C287.062 127.653 292.184 134.328 299.43 135.264C300.063 135.344 300.687 135.367 301.306 135.356C301.345 136.164 301.37 137.024 301.379 137.92C292.936 135.813 285.044 135.401 277.848 136.053C275.157 136.234 272.465 136.574 269.787 137.079C270.685 128.993 273.697 119.915 279.544 113.272C285.194 106.85 293.598 103.169 302.762 104.114C304.5 104.292 306.352 104.722 308.021 105.287C308.099 105.313 308.18 105.336 308.255 105.361C308.255 105.361 308.257 105.357 308.26 105.357C329.489 114.065 345.111 134.353 346.77 158.894L346.772 158.892ZM291.572 171.073C291.572 171.073 291.559 171.09 291.555 171.098C289.664 173.843 287.417 176.548 284.778 179.167C280.824 174.931 277.647 170.366 275.237 165.646C275.113 165.394 274.982 165.152 274.861 164.895C274.856 164.887 274.852 164.876 274.848 164.868C273.432 161.847 272.229 158.532 271.297 154.921C276.924 153.587 282.443 153.097 287.713 153.356C287.993 153.375 288.265 153.379 288.547 153.404C288.557 153.404 288.568 153.404 288.578 153.406C291.879 153.682 295.325 154.287 298.891 155.278C297.224 160.85 294.887 165.907 292.031 170.373C291.874 170.606 291.734 170.842 291.574 171.075L291.572 171.073ZM264.51 104.299C264.496 104.318 264.479 104.337 264.464 104.356C255.185 116.423 252.088 131.419 252.232 142.946C230.629 153.156 225.985 165.236 229.139 174.018C229.223 174.258 229.313 174.498 229.411 174.733C232.229 181.521 239.978 184.72 246.719 181.883C253.46 179.045 256.637 171.241 253.819 164.454C253.573 163.862 253.278 163.305 252.961 162.771C253.644 162.327 254.377 161.87 255.156 161.41C257.565 169.828 261.13 176.948 265.289 182.897C266.787 185.149 268.425 187.322 270.192 189.401C262.787 192.661 253.473 194.575 244.833 192.798C236.484 191.081 229.118 185.593 225.348 177.129C224.634 175.524 224.076 173.694 223.727 171.954C223.512 170.436 223.332 168.907 223.228 167.352C221.298 138.785 238.898 113.352 264.512 104.297L264.51 104.299ZM289.201 225.328C272.354 226.482 256.606 220.696 244.706 210.41C259.722 212.467 274.169 207.671 284.01 201.784C303.601 215.53 316.316 213.54 322.295 206.396C322.46 206.205 322.621 206.007 322.775 205.801C327.204 199.949 326.082 191.59 320.271 187.133C314.459 182.674 306.158 183.803 301.73 189.655C301.345 190.166 301.013 190.7 300.71 191.245C299.992 190.875 299.238 190.465 298.459 190.021C304.497 183.709 308.803 177.028 311.842 170.421C313.033 167.983 314.085 165.465 314.99 162.878C321.501 167.703 327.809 174.874 330.602 183.301C333.299 191.441 332.265 200.608 326.869 208.128C325.846 209.554 324.551 210.955 323.23 212.128C323.212 212.145 323.193 212.164 323.174 212.181C313.734 219.65 302.058 224.448 289.203 225.328H289.201Z" fill="url(#paint1_linear_3768_6450)"/>
<path style="mix-blend-mode:overlay" opacity="0.9" d="M303.547 108.958C303.299 108.91 303.05 108.87 302.795 108.838C301.513 108.672 300.253 108.708 299.037 108.901C306.614 113.051 312.137 124.616 309.233 147.426C308.27 154.982 306.039 162.171 302.818 168.768C300.207 174.441 296.656 180.166 291.883 185.671C294.176 187.402 296.411 188.852 298.459 190.021C304.498 183.709 308.803 177.028 311.842 170.421C315.063 163.825 317.294 156.635 318.257 149.079C321.714 121.919 313.225 110.698 303.549 108.958H303.547Z" fill="url(#paint2_radial_3768_6450)"/>
<g style="mix-blend-mode:overlay" opacity="0.8">
<path d="M309.233 147.426C312.137 124.616 306.614 113.051 299.037 108.901C298.741 108.947 298.45 109.013 298.162 109.078C305.58 113.371 310.917 124.925 308.051 147.426C307.088 154.982 304.857 162.171 301.636 168.768C299.113 174.254 295.699 179.786 291.16 185.122C291.402 185.309 291.641 185.49 291.881 185.671C296.656 180.168 300.207 174.441 302.816 168.768C306.037 162.171 308.268 154.982 309.231 147.426H309.233Z" fill="white"/>
</g>
<path style="mix-blend-mode:overlay" opacity="0.5" d="M280.436 199.163C279.723 198.616 279.038 198.044 278.353 197.474C267.173 202.171 251.674 205.116 236.283 201.521C238.802 204.756 241.616 207.743 244.706 210.412C259.722 212.469 274.169 207.673 284.01 201.786C282.842 200.965 281.654 200.099 280.436 199.165V199.163Z" fill="url(#paint3_radial_3768_6450)"/>
<path style="mix-blend-mode:overlay" opacity="0.6" d="M278.353 197.474C278.011 197.188 277.666 196.906 277.33 196.613C266.064 201.146 250.494 203.858 235.139 200.002C235.513 200.513 235.893 201.02 236.281 201.519C251.672 205.115 267.172 202.171 278.351 197.471L278.353 197.474Z" fill="url(#paint4_linear_3768_6450)"/>
<path style="mix-blend-mode:overlay" opacity="0.9" d="M229.143 174.033C229.227 174.273 229.317 174.512 229.415 174.748C229.914 175.949 230.574 177.03 231.347 177.994C231.128 169.311 238.311 158.711 259.382 149.839C266.361 146.9 273.659 145.251 280.943 144.761C287.126 144.202 293.827 144.435 300.948 145.846C301.291 142.982 301.421 140.306 301.402 137.937C292.952 135.828 285.054 135.413 277.854 136.065C270.57 136.555 263.271 138.205 256.292 141.143C231.205 151.709 225.799 164.721 229.141 174.031L229.143 174.033Z" fill="url(#paint5_radial_3768_6450)"/>
<g style="mix-blend-mode:overlay" opacity="0.8">
<path d="M259.382 149.841C238.312 158.713 231.128 169.313 231.347 177.996C231.535 178.229 231.736 178.452 231.939 178.671C231.922 170.055 239.189 159.624 259.973 150.872C266.952 147.933 274.251 146.284 281.535 145.794C287.513 145.253 293.98 145.461 300.836 146.753C300.878 146.448 300.911 146.149 300.947 145.851C293.826 144.439 287.127 144.206 280.941 144.765C273.658 145.255 266.359 146.904 259.38 149.843L259.382 149.841Z" fill="white"/>
</g>
<path style="mix-blend-mode:overlay" opacity="0.4" d="M318.276 149.084C318.163 149.978 318.013 150.861 317.864 151.744C327.494 159.146 337.777 171.191 342.379 186.409C343.902 182.594 345.063 178.648 345.815 174.62C340.077 160.495 328.728 150.295 318.744 144.656C318.623 146.084 318.472 147.554 318.278 149.084H318.276Z" fill="url(#paint6_radial_3768_6450)"/>
<path style="mix-blend-mode:overlay" opacity="0.5" d="M317.864 151.747C317.789 152.188 317.718 152.63 317.635 153.07C327.166 160.627 337.282 172.851 341.644 188.168C341.897 187.585 342.141 187.001 342.377 186.412C337.775 171.193 327.492 159.149 317.862 151.747H317.864Z" fill="url(#paint7_linear_3768_6450)"/>
<path style="mix-blend-mode:overlay" opacity="0.9" d="M322.303 206.378C322.468 206.186 322.629 205.989 322.783 205.782C323.567 204.747 324.168 203.631 324.609 202.474C317.252 207.007 304.543 206.041 286.379 192.104C280.363 187.486 275.295 181.946 271.232 175.84C267.658 170.726 264.51 164.767 262.164 157.851C259.528 158.985 257.164 160.209 255.135 161.41C257.544 169.834 261.139 176.927 265.3 182.88C269.363 188.988 274.43 194.529 280.446 199.144C302.076 215.74 315.97 213.946 322.305 206.378H322.303Z" fill="url(#paint8_radial_3768_6450)"/>
<g style="mix-blend-mode:overlay" opacity="0.8">
<path d="M286.379 192.103C304.543 206.041 317.252 207.006 324.609 202.473C324.716 202.192 324.808 201.908 324.893 201.622C317.492 205.942 304.888 204.821 286.968 191.073C280.952 186.456 275.884 180.915 271.821 174.809C268.366 169.866 265.314 164.121 262.994 157.497C262.712 157.613 262.438 157.733 262.16 157.853C264.506 164.767 267.656 170.728 271.228 175.842C275.291 181.95 280.358 187.491 286.374 192.106L286.379 192.103Z" fill="white"/>
</g>
<path style="mix-blend-mode:overlay" opacity="0.3" d="M256.282 141.122C257.107 140.775 257.943 140.463 258.776 140.15C260.326 128.051 265.544 113.062 276.331 101.438C272.289 102.019 268.314 102.978 264.473 104.337C255.194 116.404 252.096 131.4 252.24 142.927C253.529 142.317 254.87 141.715 256.282 141.12V141.122Z" fill="url(#paint9_radial_3768_6450)"/>
<path style="mix-blend-mode:overlay" opacity="0.4" d="M258.776 140.15C259.194 139.995 259.61 139.835 260.028 139.69C261.761 127.599 267.215 112.666 278.207 101.2C277.58 101.27 276.954 101.35 276.331 101.438C265.542 113.062 260.326 128.051 258.776 140.15Z" fill="url(#paint10_linear_3768_6450)"/>
<path style="mix-blend-mode:multiply" opacity="0.4" d="M279.625 83.5607C257.886 85.0499 238.8 95.2412 225.482 110.525C225.381 110.641 225.281 110.756 225.181 110.872C227.773 113.461 236.248 118.569 239.684 120.697C246.429 113.394 254.906 107.696 264.512 104.299C265.183 103.428 265.878 102.57 266.616 101.732C275.562 91.5664 287.778 86.1942 301.949 86.1942C303.526 86.1942 306.739 86.4466 306.808 86.4529C298.218 83.9687 289.063 82.9149 279.629 83.5607H279.625Z" fill="url(#paint11_linear_3768_6450)"/>
<path style="mix-blend-mode:multiply" opacity="0.4" d="M289.201 225.328C272.354 226.482 256.606 220.696 244.706 210.41C243.599 210.258 242.487 210.075 241.376 209.846C228.16 207.126 217.431 199.16 210.346 186.803C209.556 185.427 208.852 184.026 208.215 182.602C217.362 219.333 251.536 245.346 290.373 242.685C290.546 238.657 289.366 229.314 289.201 225.325V225.328Z" fill="url(#paint12_linear_3768_6450)"/>
<path style="mix-blend-mode:multiply" opacity="0.4" d="M364.012 157.712C361.578 157.462 349.695 158.406 346.772 158.892C347.138 164.302 346.799 169.599 345.843 174.695C346.252 175.709 346.641 176.738 346.992 177.792C351.261 190.675 349.774 204.015 342.688 216.373C341.913 217.724 341.08 219.015 340.192 220.26C340.176 220.283 340.157 220.311 340.142 220.332C340.142 220.332 340.178 220.3 340.198 220.281C356.285 204.522 365.654 182.026 364.012 157.712Z" fill="url(#paint13_linear_3768_6450)"/>
<path style="mix-blend-mode:multiply" opacity="0.5" d="M302.764 104.114C304.502 104.292 306.355 104.722 308.024 105.287C308.101 105.313 308.182 105.336 308.258 105.361C308.258 105.361 308.26 105.357 308.262 105.357C315.095 108.159 321.34 112.168 326.732 117.124C326.744 117.134 326.755 117.14 326.767 117.151C329.366 114.16 334.371 110.872 334.371 110.872C334.371 110.872 326.709 102.98 314.99 100.531C306.787 98.8172 288.282 97.1554 276.613 117.153C276.613 117.153 276.659 117.109 276.728 117.046C277.591 115.731 278.51 114.454 279.548 113.274C285.199 106.852 293.602 103.171 302.766 104.116L302.764 104.114Z" fill="url(#paint14_linear_3768_6450)"/>
<path style="mix-blend-mode:multiply" opacity="0.5" d="M326.867 208.121C325.844 209.548 324.549 210.948 323.229 212.122C323.168 212.177 323.107 212.236 323.047 212.288C323.047 212.288 323.047 212.293 323.049 212.295C317.223 216.851 310.654 220.294 303.693 222.52C303.679 222.526 303.666 222.53 303.652 222.536C304.926 226.3 305.25 232.307 305.25 232.307C305.25 232.307 315.867 229.57 323.834 220.576C329.412 214.278 340.092 198.974 328.729 178.797C328.729 178.797 328.743 178.86 328.764 178.951C329.462 180.36 330.101 181.799 330.598 183.294C333.295 191.435 332.261 200.602 326.865 208.121H326.867Z" fill="url(#paint15_linear_3768_6450)"/>
<path style="mix-blend-mode:multiply" opacity="0.5" d="M225.375 177.154C224.661 175.549 224.103 173.717 223.754 171.98C223.737 171.9 223.717 171.818 223.702 171.738C223.702 171.738 223.698 171.738 223.696 171.738C222.691 164.378 223.013 156.927 224.579 149.746C224.581 149.732 224.583 149.717 224.586 149.702C220.713 148.932 215.384 146.212 215.384 146.212C215.384 146.212 212.428 156.841 216.18 168.284C218.808 176.296 226.631 193.263 249.662 193.441C249.662 193.441 249.602 193.422 249.512 193.395C247.95 193.298 246.393 193.136 244.86 192.823C236.511 191.107 229.146 185.619 225.375 177.154Z" fill="url(#paint16_linear_3768_6450)"/>
<path style="mix-blend-mode:multiply" opacity="0.6" d="M299.432 135.264C300.065 135.344 300.69 135.367 301.308 135.356C301.308 135.356 300.894 127.071 299.883 122.818C298.872 118.567 297.383 115.75 295.745 114.158C294.573 113.016 290.87 111.594 287.991 120.354C287.062 127.651 292.184 134.326 299.43 135.262L299.432 135.264Z" fill="url(#paint17_linear_3768_6450)"/>
<path style="mix-blend-mode:multiply" opacity="0.5" d="M253.824 164.468C253.577 163.877 253.283 163.32 252.965 162.785C252.965 162.785 246.045 167.289 242.895 170.297C239.742 173.303 238.067 176.012 237.516 178.235C237.121 179.83 237.75 183.767 246.723 181.9C253.464 179.062 256.641 171.258 253.824 164.47V164.468Z" fill="url(#paint18_linear_3768_6450)"/>
<path style="mix-blend-mode:multiply" opacity="0.6" d="M301.74 189.634C301.356 190.145 301.024 190.68 300.721 191.224C300.721 191.224 308.055 195.006 312.216 196.252C316.377 197.497 319.544 197.604 321.733 196.973C323.302 196.521 326.374 194.003 320.279 187.112C314.468 182.653 306.167 183.782 301.738 189.634H301.74Z" fill="url(#paint19_linear_3768_6450)"/>
<path style="mix-blend-mode:multiply" opacity="0.3" d="M298.891 155.276C297.224 160.848 294.887 165.905 292.031 170.371C291.875 170.604 291.735 170.84 291.574 171.073C291.568 171.082 291.561 171.09 291.557 171.098C289.667 173.843 287.419 176.548 284.781 179.167C286.594 181.109 288.555 182.991 290.707 184.775C293.412 186.925 296.061 188.652 298.459 190.019C304.498 183.706 308.803 177.026 311.842 170.419C313.033 167.981 314.086 165.463 314.99 162.876C312.204 160.81 309.381 159.168 306.781 158.051C304.09 156.896 301.463 155.989 298.893 155.276H298.891Z" fill="url(#paint20_linear_3768_6450)"/>
<path style="mix-blend-mode:multiply" opacity="0.3" d="M244.706 210.41C259.723 212.467 274.169 207.671 284.01 201.784C282.842 200.963 281.654 200.097 280.436 199.163C276.638 196.247 273.219 192.964 270.192 189.403C262.787 192.663 253.473 194.577 244.833 192.8C236.484 191.083 229.118 185.595 225.348 177.131C224.634 175.526 224.076 173.696 223.727 171.957C225.908 187.373 233.635 200.841 244.706 210.41Z" fill="url(#paint21_linear_3768_6450)"/>
<path style="mix-blend-mode:multiply" opacity="0.3" d="M284.781 179.167C280.827 174.931 277.649 170.366 275.239 165.646C275.116 165.394 274.984 165.152 274.863 164.895C274.859 164.887 274.854 164.876 274.85 164.868C273.434 161.847 272.231 158.532 271.299 154.921C268.728 155.531 266.135 156.298 263.531 157.281C260.337 158.562 257.531 160.007 255.158 161.41C257.567 169.828 261.133 176.948 265.292 182.897C266.789 185.149 268.427 187.322 270.194 189.401C273.369 188.002 276.198 186.361 278.462 184.649C280.795 182.884 282.888 181.048 284.783 179.167H284.781Z" fill="url(#paint22_linear_3768_6450)"/>
<path style="mix-blend-mode:multiply" opacity="0.3" d="M264.464 104.356C255.185 116.423 252.088 131.419 252.232 142.946C253.525 142.334 254.872 141.728 256.291 141.13C260.692 139.277 265.218 137.939 269.791 137.079C270.689 128.993 273.701 119.915 279.548 113.272C285.198 106.85 293.602 103.169 302.766 104.114C304.504 104.292 306.357 104.722 308.026 105.287C308.103 105.313 308.184 105.336 308.26 105.361C308.26 105.361 308.262 105.357 308.264 105.357C299.821 101.892 290.492 100.256 280.799 100.921C275.107 101.31 269.651 102.483 264.512 104.301C264.498 104.32 264.481 104.339 264.466 104.358L264.464 104.356Z" fill="url(#paint23_linear_3768_6450)"/>
<path style="mix-blend-mode:multiply" opacity="0.3" d="M345.811 174.607C340.069 160.474 328.712 150.272 318.725 144.635C318.604 146.069 318.451 147.544 318.257 149.079C317.651 153.844 316.538 158.461 314.99 162.878C321.501 167.703 327.809 174.874 330.602 183.301C333.299 191.441 332.265 200.608 326.869 208.128C325.846 209.554 324.551 210.955 323.231 212.128C323.212 212.145 323.193 212.164 323.174 212.181C334.801 202.978 343.025 189.716 345.845 174.695C345.832 174.666 345.824 174.636 345.811 174.607Z" fill="url(#paint24_linear_3768_6450)"/>
<path style="mix-blend-mode:multiply" opacity="0.3" d="M269.743 146.671C270.094 149.588 270.627 152.329 271.297 154.921C276.924 153.587 282.443 153.097 287.713 153.356C287.993 153.375 288.265 153.379 288.547 153.404C288.557 153.404 288.568 153.404 288.578 153.406C291.879 153.682 295.325 154.288 298.891 155.278C299.654 152.729 300.289 150.083 300.746 147.317C301.243 143.88 301.402 140.699 301.381 137.923C292.938 135.815 285.046 135.403 277.85 136.055C275.159 136.236 272.467 136.576 269.789 137.081C269.405 140.55 269.4 143.84 269.741 146.673L269.743 146.671Z" fill="url(#paint25_linear_3768_6450)"/>
</g>
<path d="M420.602 183.331L485.587 181.351L463.872 186.434L497.778 207.752L456.813 224.9L420.602 183.331Z" fill="url(#paint26_linear_3768_6450)" stroke="#220E6E" stroke-width="0.5"/>
<path d="M452.52 229.608L420.603 183.331L456.813 224.9L452.52 229.608Z" fill="url(#paint27_linear_3768_6450)" stroke="#220E6E" stroke-width="0.5"/>
<path d="M600.801 190.705C599.809 196.348 589.462 208.862 574.876 223.562C554.664 243.936 526.313 268.497 503.461 284.775C508.383 280.728 512.907 276.177 516.404 270.867C518.799 267.23 520.688 263.239 521.824 259.025C522.405 256.892 522.707 254.746 522.947 252.552C523.144 250.72 522.637 248.924 523.402 247.166C524.014 245.755 525.054 244.579 526.081 243.429C532.997 235.684 539.907 227.938 546.818 220.188C551.18 215.305 555.543 210.414 559.905 205.527C551.574 211.533 543.037 217.146 534.338 222.518C528.311 226.251 522.204 229.861 516.037 233.424C514.489 234.315 512.802 234.98 511.089 235.198C509.532 235.391 507.954 235.229 506.433 234.556C502.526 232.812 498.605 231.151 494.557 229.739C490.863 228.458 487.122 227.365 483.354 226.452C477.706 225.075 471.98 224.091 466.184 223.418C463.649 223.13 461.035 223.051 458.6 223.812C458.308 223.903 458.019 224.013 457.739 224.139C483.948 212.15 513.484 201.248 548.562 191.876C552.61 190.801 556.732 189.743 560.928 188.699C567.174 187.156 573.761 187.392 579.807 189.573L579.912 189.612C583.325 189.455 586.7 189.433 590.039 189.577H590.044C593.685 189.735 597.274 190.097 600.801 190.718V190.705Z" fill="url(#paint28_linear_3768_6450)" stroke="#220E6E" stroke-width="0.5"/>
<path d="M494.561 229.73C490.867 228.449 487.126 227.356 483.358 226.443C490.771 222.146 498.635 218.317 507.102 218.409C514.493 218.483 521.535 221.578 528.887 222.347C530.714 222.54 532.537 222.588 534.347 222.509C528.319 226.242 522.212 229.852 516.045 233.415C514.497 234.307 512.81 234.971 511.097 235.19C509.541 235.382 507.963 235.22 506.441 234.547C502.534 232.803 498.613 231.142 494.565 229.73H494.561Z" fill="url(#paint29_linear_3768_6450)" stroke="#220E6E" stroke-width="0.5"/>
<path d="M600.801 190.705C599.809 196.348 589.462 208.862 574.876 223.562C554.664 243.936 526.313 268.497 503.461 284.775C508.383 280.728 512.907 276.177 516.404 270.867C518.799 267.23 520.687 263.239 521.824 259.025C522.405 256.892 522.707 254.746 522.947 252.552C523.144 250.72 522.637 248.924 523.402 247.166C524.014 245.755 525.054 244.579 526.081 243.429C532.996 235.684 539.907 227.938 546.818 220.188C553.978 217.946 560.915 214.401 567.581 210.917C572.249 208.478 576.812 205.833 581.192 202.909C584.431 200.754 590.17 198.341 590.905 194.123C591.171 192.576 590.848 190.928 590.039 189.577C593.681 189.73 597.269 190.093 600.797 190.709L600.801 190.705Z" fill="url(#paint30_linear_3768_6450)" stroke="#220E6E" stroke-width="0.5"/>
<g style="mix-blend-mode:multiply">
<path d="M549.265 244.92C537.721 256.298 524.809 266.176 511.932 276.024C515.298 267.802 518.663 259.58 522.025 251.358C522.912 249.186 523.817 246.992 525.176 245.081C526.947 242.594 529.416 240.706 531.86 238.879C537.577 234.604 543.395 230.456 549.204 226.308C553.82 223.016 558.436 219.725 563.048 216.429C565.316 214.812 567.585 213.194 569.853 211.573C571.938 210.082 574.286 207.787 576.629 206.839C576.935 206.716 576.419 208.272 576.432 208.233C576.135 209.077 575.615 209.903 575.208 210.698C574.412 212.25 573.582 213.78 572.712 215.292C568.175 223.191 562.645 230.504 556.57 237.275C554.214 239.897 551.77 242.446 549.261 244.92H549.265Z" fill="#CCB1E0"/>
</g>
<path d="M578.19 205.549C571.427 211.455 564.884 216.945 558.511 222.063C546.254 231.907 534.614 240.378 523.201 247.739L520.863 246.638L559.91 205.523C560.823 205.405 561.737 205.3 562.646 205.221C567.896 204.741 573.071 204.907 578.19 205.545V205.549Z" fill="url(#paint31_linear_3768_6450)" stroke="#220E6E" stroke-width="0.5"/>
<g style="mix-blend-mode:multiply">
<path d="M558.895 195.312C553.588 197.742 548.129 200.361 542.848 202.896C537.568 205.431 532.104 208.054 526.798 210.484L526.723 210.519L526.649 210.484C523.428 208.893 519.572 207.075 515.424 205.61C500.514 211.079 484.691 217.036 469.484 224.389L469.335 224.083C484.577 216.713 500.431 210.751 515.367 205.269L515.424 205.248L515.481 205.269C519.638 206.729 523.498 208.548 526.732 210.143C532.017 207.722 537.45 205.116 542.704 202.59C547.984 200.055 553.448 197.432 558.755 195.002L558.895 195.312V195.312Z" fill="#220E6E"/>
</g>
<g style="mix-blend-mode:multiply">
<path d="M544.554 202.065C544.034 201.777 543.527 201.445 543.033 201.126C542.565 200.824 542.084 200.509 541.599 200.238C538.495 201.287 535.807 202.848 533.316 204.378L535.475 206.056L535.265 206.323L532.721 204.343L532.931 204.216C535.514 202.625 538.312 200.981 541.568 199.893L541.638 199.867L541.704 199.902C542.224 200.19 542.731 200.522 543.225 200.841C543.715 201.156 544.217 201.484 544.724 201.768L544.558 202.065H544.554Z" fill="#220E6E"/>
</g>
<g style="mix-blend-mode:multiply">
<path d="M578.942 193.183L578.728 193.271C577.421 193.804 575.926 194.56 574.483 195.29C573.814 195.627 573.167 195.954 572.564 196.247L572.451 196.304L572.363 196.208C570.755 194.416 569.509 194.123 567.45 193.633L567.105 193.55L567.183 193.218L567.529 193.301C569.614 193.795 570.886 194.101 572.529 195.885C573.098 195.609 573.705 195.299 574.33 194.984C575.703 194.289 577.115 193.577 578.382 193.043C577.469 192.042 576.109 191.566 574.234 191.592V191.251C576.323 191.221 577.818 191.793 578.797 193L578.942 193.179V193.183Z" fill="#220E6E"/>
</g>
<path d="M579.911 189.603C573.11 192.073 568.367 193.498 560.823 196.864C556.897 193.804 553.466 192.681 548.562 191.863C552.609 190.784 556.731 189.726 560.928 188.685C567.17 187.142 573.757 187.378 579.806 189.56L579.911 189.599V189.603Z" fill="#3215AB" stroke="#220E6E" stroke-width="0.5" stroke-linejoin="round"/>
<path style="mix-blend-mode:screen" d="M578.36 189.787C575.965 190.429 573.797 191.151 571.546 192.191C568.211 190.499 564.906 189.686 561.199 189.179C567.267 187.536 573.565 188.253 578.36 189.787Z" fill="url(#paint32_linear_3768_6450)"/>
<g style="mix-blend-mode:multiply">
<path d="M530.565 225.612C516.709 227.4 502.118 221.587 492.93 211.07C484.07 214.562 475.205 218.055 466.345 221.547C464.444 222.295 462.621 223.602 460.649 224.135C477.308 225.508 493.179 230.604 507.884 238.555C509.505 239.43 511.276 240.374 513.09 240.037C514.191 239.832 515.144 239.176 516.058 238.529C521.325 234.787 525.674 229.831 530.57 225.612H530.565Z" fill="#CCB1E0"/>
</g>
<g style="mix-blend-mode:multiply">
<path d="M573.447 205.235L560.522 213.728C557.851 216.39 553.222 221.998 553.174 222.055L553.152 222.081L553.121 222.098C553.03 222.146 543.907 226.723 539.173 228.546L539.051 228.227C543.623 226.465 552.335 222.111 552.933 221.81C553.292 221.377 557.676 216.079 560.307 213.461L573.259 204.946L573.447 205.23V205.235Z" fill="#220E6E"/>
</g>
<g style="mix-blend-mode:multiply">
<path d="M563.166 205.405C562.537 207.473 561.916 209.54 561.287 211.608C560.303 214.855 558.73 218.378 558.546 221.757C558.542 221.858 558.533 221.963 558.516 222.063C546.259 231.907 534.619 240.378 523.206 247.739L520.867 246.638L559.914 205.523C560.828 205.405 561.741 205.3 562.651 205.221C562.83 205.274 563.005 205.331 563.171 205.401L563.166 205.405Z" fill="#CCB1E0"/>
</g>
<path d="M469.288 288.373L442.008 305.031L463.382 279.229L469.288 288.373Z" fill="url(#paint33_linear_3768_6450)" stroke="#220E6E" stroke-width="0.5"/>
<path d="M511.088 235.19C509.532 235.391 507.954 235.225 506.432 234.547C502.525 232.803 498.604 231.142 494.56 229.734C485.329 226.526 475.861 224.529 466.183 223.414C463.652 223.121 461.038 223.047 458.608 223.803C453.717 225.328 451.492 230.731 450.841 235.456C450.242 239.832 450.906 244.282 451.855 248.596C453.734 257.154 456.764 265.438 460.531 273.341C463.705 280.002 467.119 287.708 473.378 292.058C476.595 294.296 480.42 295.297 484.323 294.947C489.923 294.444 494.91 291.293 499.417 287.931C505.89 283.11 511.966 277.598 516.412 270.862C518.807 267.225 520.695 263.23 521.832 259.021C522.409 256.888 522.715 254.737 522.951 252.543C523.148 250.711 522.64 248.915 523.405 247.158C524.022 245.746 525.062 244.57 526.089 243.425C537.362 230.792 548.64 218.155 559.913 205.523C545.812 215.69 531.099 224.721 516.04 233.415C514.493 234.307 512.805 234.967 511.092 235.19H511.088Z" fill="url(#paint34_linear_3768_6450)" stroke="#220E6E" stroke-width="0.5"/>
<path d="M475.726 274.827C476.543 275.605 477.208 276.396 477.745 277.178C477.877 277.366 477.999 277.55 478.117 277.733C479.363 279.722 479.835 281.606 479.992 283.014C480.04 283.468 480.053 283.871 480.053 284.207V284.216C480.053 285.011 479.957 285.497 479.957 285.497C479.354 287.783 477.671 289.903 475.643 291.975L461.682 275.028C461.682 275.028 467.355 271.046 472.609 272.89C472.985 273.021 473.366 273.188 473.742 273.384C474.419 273.747 475.088 274.219 475.722 274.827H475.726Z" fill="#3215AB" stroke="#220E6E" stroke-width="0.5" stroke-linejoin="round"/>
<path d="M473.745 273.384C470.904 273.712 468.137 274.888 465.96 276.724L465.532 276.217C467.53 274.53 470.021 273.376 472.613 272.895C472.989 273.026 473.369 273.192 473.745 273.389V273.384Z" fill="#3215AB" stroke="#220E6E" stroke-width="0.5" stroke-linejoin="round"/>
<path d="M477.745 277.178C477.877 277.366 477.999 277.55 478.117 277.734C476.321 279.054 474.41 280.225 472.417 281.226L472.12 280.636C474.087 279.639 475.971 278.481 477.75 277.178H477.745Z" fill="#3215AB" stroke="#220E6E" stroke-width="0.5" stroke-linejoin="round"/>
<path d="M479.992 283.018C480.04 283.473 480.053 283.875 480.053 284.212V284.22C479.725 284.736 479.363 285.226 478.978 285.693C477.942 286.948 476.701 288.045 475.319 288.902L474.965 288.334C477.055 287.04 478.803 285.182 479.988 283.018H479.992Z" fill="#4966CE" stroke="#220E6E" stroke-width="0.5" stroke-linejoin="round"/>
<path d="M458.853 280.256C458.657 277.891 459.496 275.797 462.241 274.796C465.218 273.708 468.548 275.526 470.826 277.331C474.541 280.282 480.342 291.538 472.928 293.81C469.659 294.811 466.341 292.455 464.055 290.3C462.027 288.386 459.159 283.98 458.853 280.26V280.256Z" fill="#3215AB" stroke="#220E6E" stroke-width="0.5" stroke-linejoin="round"/>
<path d="M470.523 277.987C472.504 279.552 475.131 283.709 475.611 287.285C475.957 289.811 475.231 292.045 472.46 292.888C471.402 293.207 470.34 293.142 469.313 292.836C468.937 292.727 468.57 292.587 468.211 292.412C466.791 291.756 465.484 290.707 464.421 289.702C464.015 289.313 463.569 288.828 463.128 288.242C462.9 287.962 462.673 287.652 462.45 287.319C461.104 285.379 459.88 282.857 459.692 280.61C459.692 280.601 459.692 280.584 459.692 280.57C459.657 280.142 459.657 279.722 459.709 279.325C459.897 277.725 460.772 276.392 462.752 275.67C463.512 275.399 464.29 275.334 465.077 275.417C467.066 275.622 469.042 276.803 470.523 277.983V277.987Z" fill="#3D7985" stroke="#220E6E" stroke-width="0.5" stroke-linejoin="round"/>
<path d="M464.684 277.668L464.959 278.769C463.158 279.211 461.388 279.827 459.687 280.579C459.652 280.151 459.652 279.731 459.705 279.333C461.314 278.651 462.983 278.096 464.679 277.672L464.684 277.668Z" fill="#4B99A3" stroke="#220E6E" stroke-width="0.5" stroke-linejoin="round"/>
<path d="M468.128 283.569L468.601 284.6C466.585 285.523 464.745 286.747 463.124 288.242C462.896 287.962 462.669 287.651 462.446 287.319C464.138 285.785 466.048 284.526 468.124 283.569H468.128Z" fill="#4B99A3" stroke="#220E6E" stroke-width="0.5" stroke-linejoin="round"/>
<path d="M472.819 286.607C471.945 288.84 470.761 290.934 469.314 292.835C468.938 292.726 468.571 292.586 468.212 292.411C469.694 290.523 470.892 288.429 471.77 286.191L472.819 286.607V286.607Z" fill="#4B99A3" stroke="#220E6E" stroke-width="0.5" stroke-linejoin="round"/>
<path d="M470.525 277.987C472.313 279.403 474.638 282.944 475.42 286.262C475.499 286.603 475.573 286.948 475.613 287.285C474.975 287.512 474.301 287.617 473.624 287.621C473.078 287.621 472.531 287.56 472.007 287.433C470.621 287.101 469.353 286.375 468.265 285.453C467.024 284.404 466.01 283.084 465.315 281.611C464.672 280.26 463.99 278.324 464.405 276.833C464.55 276.331 464.768 275.845 465.078 275.417C465.778 275.491 466.473 275.688 467.15 275.959C468.396 276.449 469.568 277.218 470.529 277.983L470.525 277.987Z" fill="#53CFC5" stroke="#220E6E" stroke-width="0.5" stroke-linejoin="round"/>
<path d="M470.524 277.987C472.311 279.403 474.637 282.944 475.419 286.262C474.025 286.799 471.704 286.152 470.393 285.029C469.798 284.522 469.405 283.919 469.4 283.285C469.4 282.712 469.702 282.144 470.183 281.829C469.212 280.588 466.913 277.974 467.14 275.959C468.386 276.449 469.558 277.218 470.519 277.983L470.524 277.987Z" fill="#7FEBE2" stroke="#220E6E" stroke-width="0.5" stroke-linejoin="round"/>
<path d="M490.967 239.478C491.216 239.736 491.465 240.002 491.706 240.273C494.228 243.062 496.274 246.292 497.62 249.667C497.742 249.946 497.852 250.235 497.952 250.523C498.284 251.428 498.568 252.346 498.796 253.264C498.8 253.277 498.804 253.295 498.809 253.308C499.325 255.419 499.578 257.583 499.543 259.733C499.534 260.201 499.517 260.669 499.478 261.128C499.285 263.895 498.608 266.618 497.436 269.166C497.436 269.166 497.433 269.169 497.428 269.175C497.283 269.49 497.139 269.796 496.982 270.102C496.877 270.298 496.781 270.486 496.671 270.674C496.505 270.976 496.309 271.277 496.099 271.583C496.099 271.592 496.094 271.588 496.094 271.588C496.094 271.588 496.091 271.591 496.086 271.596L496.081 271.601C492.777 276.343 484.638 281.287 484.638 281.287C484.638 281.287 454.77 237.86 454.761 237.852C454.7 237.764 458.682 235.5 458.909 235.378C462.205 233.655 465.894 232.108 469.57 231.444C473.553 230.722 477.487 231.269 481.123 232.724C481.788 232.987 482.448 233.284 483.095 233.607C485.988 235.058 488.663 237.087 490.967 239.473V239.478Z" fill="#3215AB" stroke="#220E6E" stroke-width="0.5" stroke-linejoin="round"/>
<path d="M483.094 233.611C476.332 233.384 469.478 235.141 463.669 238.595L463.219 237.838C468.6 234.634 474.846 232.86 481.123 232.729C481.787 232.991 482.447 233.288 483.094 233.611V233.611Z" fill="#4966CE" stroke="#220E6E" stroke-width="0.5" stroke-linejoin="round"/>
<path d="M490.969 239.477C491.218 239.735 491.467 240.002 491.707 240.273C486.991 240.845 482.388 242.38 478.284 244.758L477.838 243.997C481.864 241.658 486.353 240.12 490.969 239.477V239.477Z" fill="#4966CE" stroke="#220E6E" stroke-width="0.5" stroke-linejoin="round"/>
<path d="M497.624 249.667C497.746 249.946 497.856 250.235 497.956 250.523C494.429 253.238 490.503 255.345 486.272 256.796L485.984 255.965C490.202 254.523 494.114 252.403 497.62 249.667H497.624Z" fill="#4966CE" stroke="#220E6E" stroke-width="0.5" stroke-linejoin="round"/>
<path d="M499.548 259.733C499.539 260.201 499.522 260.669 499.482 261.128C499.189 261.451 498.888 261.766 498.577 262.076C495.898 264.778 492.72 266.941 489.193 268.445L488.847 267.636C493 265.87 496.65 263.16 499.548 259.733V259.733Z" fill="#4966CE" stroke="#220E6E" stroke-width="0.5" stroke-linejoin="round"/>
<path d="M486.252 276.711C490.378 274.932 494.229 272.339 497.433 269.175C497.289 269.49 497.145 269.795 496.987 270.101C496.882 270.298 496.786 270.486 496.677 270.674C496.511 270.976 496.314 271.277 496.104 271.583C496.104 271.592 496.1 271.588 496.1 271.588C496.1 271.596 496.091 271.596 496.091 271.596C496.091 271.605 496.087 271.601 496.087 271.601C493.245 274.031 490.02 276.042 486.61 277.511L486.256 276.706L486.252 276.711Z" fill="#4966CE" stroke="#220E6E" stroke-width="0.5" stroke-linejoin="round"/>
<path d="M484.634 250.711C487.602 255.502 489.713 261.875 489.674 267.977C489.639 272.912 488.188 277.677 484.634 281.287C478.672 287.35 470.187 283.643 464.724 278.94C460.13 274.988 456.156 269.546 453.551 263.554C449.792 254.899 446.439 237.821 459.815 236.007C462.7 235.613 465.611 236.147 468.347 237.161C469.291 237.51 470.218 237.926 471.119 238.372C476.648 241.139 481.382 245.462 484.638 250.711H484.634Z" fill="#3215AB" stroke="#220E6E" stroke-width="0.5" stroke-linejoin="round"/>
<path d="M483.135 251.996C486.226 256.783 488.516 263.138 488.503 269.022C488.494 272.309 487.764 275.456 486.064 278.092C485.583 278.835 485.024 279.539 484.377 280.19C484.259 280.308 484.136 280.43 484.01 280.54C483.38 281.125 482.703 281.584 482.003 281.921C481.999 281.925 481.995 281.93 481.995 281.93C478.345 283.748 473.952 282.533 470.101 280.251C469.747 280.05 469.401 279.836 469.06 279.609C467.941 278.874 466.879 278.057 465.909 277.213C463.43 275.049 461.114 272.466 459.086 269.607C458.854 269.28 458.631 268.947 458.408 268.611C457.114 266.692 455.956 264.659 454.972 262.57C454.29 261.119 453.604 259.418 453.018 257.596C452.896 257.215 452.778 256.831 452.664 256.442C451.593 252.787 450.951 248.775 451.427 245.378C451.484 244.928 451.572 244.491 451.672 244.063C452.468 240.819 454.487 238.323 458.452 237.58C458.832 237.51 459.225 237.454 459.636 237.414C461.975 237.196 464.379 237.655 466.691 238.498C467.885 238.927 469.052 239.46 470.171 240.054C475.381 242.834 479.923 247.009 483.14 251.988L483.135 251.996Z" fill="#3D7985" stroke="#220E6E" stroke-width="0.5" stroke-linejoin="round"/>
<path d="M465.374 243.512L465.143 244.684C460.64 243.818 455.841 244.067 451.426 245.383C451.483 244.933 451.57 244.496 451.671 244.067C456.121 242.813 460.811 242.625 465.374 243.512V243.512Z" fill="#4B99A3" stroke="#220E6E" stroke-width="0.5" stroke-linejoin="round"/>
<path d="M465.78 252.241L466.008 253.421C461.527 254.296 457.165 255.703 453.017 257.6C452.894 257.22 452.776 256.835 452.663 256.446C456.85 254.536 461.252 253.129 465.776 252.241H465.78Z" fill="#4B99A3" stroke="#220E6E" stroke-width="0.5" stroke-linejoin="round"/>
<path d="M471.792 261.014L472.438 262.024C468.142 264.777 463.661 267.33 459.08 269.612C458.849 269.284 458.626 268.952 458.403 268.615C462.988 266.325 467.486 263.772 471.787 261.014H471.792Z" fill="#4B99A3" stroke="#220E6E" stroke-width="0.5" stroke-linejoin="round"/>
<path d="M478.716 267.794C476.439 272.322 473.541 276.523 470.101 280.256C469.747 280.055 469.401 279.84 469.06 279.613C472.492 275.915 475.381 271.763 477.645 267.252L478.712 267.794H478.716Z" fill="#4B99A3" stroke="#220E6E" stroke-width="0.5" stroke-linejoin="round"/>
<path d="M485.001 268.41C485.984 272.453 485.617 276.732 484.013 280.54C483.383 281.125 482.706 281.584 482.006 281.921C484.218 277.961 484.904 273.087 483.838 268.681L485.001 268.406V268.41Z" fill="#4B99A3" stroke="#220E6E" stroke-width="0.5" stroke-linejoin="round"/>
<path d="M483.135 251.996C485.561 255.742 487.484 260.459 488.196 265.149C488.397 266.447 488.502 267.741 488.502 269.022C486.898 270.219 484.861 270.871 482.579 270.7C480.328 270.53 478.195 269.586 476.268 268.41C469.846 264.489 465.257 257.692 464.007 250.27C463.495 247.254 463.543 244.054 464.798 241.27C465.261 240.251 465.908 239.303 466.686 238.507C467.665 238.861 468.627 239.281 469.549 239.753C469.759 239.853 469.964 239.954 470.161 240.063C475.371 242.843 479.913 247.018 483.13 251.996H483.135Z" fill="#53CFC5" stroke="#220E6E" stroke-width="0.5" stroke-linejoin="round"/>
<path d="M483.135 251.996C485.561 255.742 487.484 260.459 488.196 265.149C487.952 265.494 487.654 265.783 487.287 266.006C486.116 266.718 484.56 266.495 483.38 265.813C482.317 265.202 481.649 264.284 480.792 263.449C479.953 262.631 479.76 263.23 478.729 262.968C479.048 263.698 479.459 264.402 479.835 265.11C480.014 265.455 480.202 265.853 480.075 266.22C479.856 266.841 478.982 266.858 478.348 266.683C475.31 265.835 472.889 263.099 472.426 259.978C472.356 259.519 472.382 258.951 472.788 258.732C473.265 258.474 473.807 258.912 474.17 259.314C473.448 258.383 472.723 257.469 472.137 256.446C471.765 255.795 470.651 254.09 470.813 253.321C470.686 253.928 470.493 254.632 469.921 254.89C469.23 255.205 468.457 254.676 467.945 254.121C465.899 251.9 464.977 248.963 465.305 245.991C465.349 245.597 465.414 245.186 465.637 244.863C466.153 244.093 467.346 244.067 468.133 244.561C468.916 245.051 469.392 245.903 469.82 246.72C469.768 245.252 469.156 244.019 469.034 242.555C468.946 241.602 469.09 240.566 469.554 239.757C469.764 239.858 469.969 239.958 470.166 240.068C475.376 242.848 479.918 247.022 483.135 252.001V251.996Z" fill="#7FEBE2" stroke="#220E6E" stroke-width="0.5" stroke-linejoin="round"/>
<path d="M512.356 246.266C513.143 247.167 513.763 248.058 514.253 248.932C514.375 249.142 514.485 249.352 514.589 249.553C515.708 251.765 516.019 253.793 516.054 255.292C516.063 255.778 516.036 256.197 516.006 256.551V256.56C515.931 257.399 515.783 257.898 515.783 257.898C514.926 260.24 512.95 262.312 510.616 264.292L497.568 245.116C497.568 245.116 503.92 241.475 509.27 243.923C509.654 244.098 510.039 244.308 510.415 244.553C511.093 244.998 511.748 245.558 512.36 246.262L512.356 246.266Z" fill="#3215AB" stroke="#220E6E" stroke-width="0.5" stroke-linejoin="round"/>
<path d="M510.411 244.552C507.391 244.622 504.366 245.593 501.896 247.31L501.494 246.733C503.758 245.151 506.49 244.176 509.266 243.923C509.65 244.098 510.035 244.308 510.411 244.552Z" fill="#4966CE" stroke="#220E6E" stroke-width="0.5" stroke-linejoin="round"/>
<path d="M514.252 248.932C514.374 249.142 514.483 249.352 514.588 249.553C512.569 250.768 510.449 251.817 508.254 252.678L507.997 252.027C510.16 251.166 512.258 250.134 514.252 248.932V248.932Z" fill="#4966CE" stroke="#220E6E" stroke-width="0.5" stroke-linejoin="round"/>
<path d="M516.049 255.292C516.057 255.777 516.031 256.197 516 256.551V256.56C515.603 257.071 515.179 257.548 514.724 258.007C513.513 259.226 512.101 260.258 510.567 261.027L510.252 260.398C512.573 259.239 514.593 257.452 516.053 255.292H516.049Z" fill="#4966CE" stroke="#220E6E" stroke-width="0.5" stroke-linejoin="round"/>
<path d="M494.08 250.344C494.102 247.835 495.186 245.715 498.171 244.928C501.406 244.071 504.737 246.305 506.957 248.425C510.581 251.887 515.59 264.292 507.578 265.962C504.042 266.701 500.781 263.903 498.586 261.412C496.637 259.2 494.049 254.291 494.084 250.344H494.08Z" fill="#3215AB" stroke="#220E6E" stroke-width="0.5" stroke-linejoin="round"/>
<path d="M506.578 249.085C508.51 250.921 510.875 255.55 511.032 259.362C511.15 262.05 510.171 264.332 507.172 264.952C506.027 265.184 504.917 265.018 503.868 264.59C503.483 264.437 503.107 264.253 502.749 264.035C501.315 263.208 500.047 261.976 499.025 260.817C498.635 260.372 498.212 259.816 497.801 259.156C497.591 258.837 497.381 258.492 497.18 258.125C495.952 255.952 494.907 253.181 494.929 250.799C494.929 250.79 494.929 250.768 494.929 250.76C494.929 250.305 494.977 249.863 495.069 249.448C495.423 247.783 496.472 246.463 498.622 245.899C499.449 245.685 500.275 245.693 501.092 245.859C503.164 246.27 505.131 247.7 506.573 249.085H506.578Z" fill="#3D7985" stroke="#220E6E" stroke-width="0.5" stroke-linejoin="round"/>
<path d="M500.466 248.185L500.649 249.369C498.713 249.662 496.79 250.139 494.932 250.764C494.932 250.309 494.98 249.868 495.072 249.452C496.829 248.893 498.639 248.469 500.466 248.185Z" fill="#4B99A3" stroke="#220E6E" stroke-width="0.5" stroke-linejoin="round"/>
<path d="M503.521 254.728L503.918 255.856C501.711 256.63 499.657 257.74 497.803 259.156C497.594 258.837 497.384 258.492 497.183 258.125C499.11 256.673 501.243 255.533 503.521 254.728Z" fill="#4B99A3" stroke="#220E6E" stroke-width="0.5" stroke-linejoin="round"/>
<path d="M508.16 258.374C507.024 260.638 505.577 262.727 503.872 264.59C503.488 264.437 503.112 264.253 502.753 264.034C504.493 262.19 505.957 260.105 507.098 257.836L508.16 258.374V258.374Z" fill="#4B99A3" stroke="#220E6E" stroke-width="0.5" stroke-linejoin="round"/>
<path d="M506.577 249.085C508.321 250.746 510.423 254.698 510.926 258.265C510.978 258.632 511.018 259.004 511.031 259.362C510.34 259.537 509.619 259.585 508.902 259.524C508.33 259.471 507.761 259.353 507.215 259.17C505.79 258.689 504.522 257.801 503.469 256.722C502.262 255.498 501.327 254.012 500.737 252.394C500.195 250.913 499.662 248.806 500.243 247.28C500.444 246.764 500.724 246.275 501.091 245.855C501.821 246.004 502.533 246.275 503.215 246.625C504.479 247.263 505.637 248.185 506.572 249.081L506.577 249.085Z" fill="#53CFC5" stroke="#220E6E" stroke-width="0.5" stroke-linejoin="round"/>
<path d="M506.577 249.085C508.321 250.746 510.424 254.698 510.927 258.265C509.41 258.693 507.028 257.792 505.76 256.481C505.183 255.891 504.829 255.218 504.886 254.553C504.938 253.95 505.314 253.382 505.852 253.098C504.951 251.695 502.788 248.727 503.22 246.629C504.484 247.267 505.642 248.189 506.577 249.085V249.085Z" fill="#7FEBE2" stroke="#220E6E" stroke-width="0.5" stroke-linejoin="round"/>
<g style="mix-blend-mode:multiply">
<path d="M487.887 201.685L461.761 206.161L461.699 206.104C453.346 198.249 437.418 183.309 436.946 182.981L437.033 182.854V182.662C437.125 182.662 437.256 182.658 461.87 205.794L487.83 201.349L487.887 201.685V201.685Z" fill="#220E6E"/>
</g>
<g style="mix-blend-mode:multiply">
<path d="M480.18 209.623L457.752 215.253L463.138 221.643L462.875 221.866L457.14 215.052L479.66 209.404L476.233 203.569L476.526 203.394L480.18 209.623Z" fill="#220E6E"/>
</g>
<g style="mix-blend-mode:multiply">
<path d="M422.82 184.638L445.637 184.214C455.043 196.269 468.672 204.902 484.623 211.656L456.783 222.575L422.82 184.633V184.638Z" fill="#CCB1E0"/>
</g>
<path d="M590.048 189.573H590.043C586.699 189.42 583.325 189.446 579.915 189.604L579.81 189.564C579.461 189.437 579.107 189.319 578.748 189.206C573 187.361 566.815 187.239 560.932 188.69C560.066 188.904 559.214 189.123 558.357 189.341C555.052 190.172 551.783 191.011 548.57 191.868C530.172 196.781 513.308 202.122 497.638 207.818L497.782 207.757L487.86 201.519L487.829 201.353L487.641 201.384L464.929 187.099L462.757 187.606L486.522 202.551L486.71 202.52L486.741 202.686L496.663 208.924L496.519 208.985C512.189 203.289 529.049 197.952 547.451 193.035C550.664 192.178 553.933 191.339 557.238 190.508C558.099 190.29 558.947 190.071 559.817 189.857C565.7 188.401 571.886 188.528 577.634 190.373C577.988 190.486 578.342 190.605 578.696 190.731L578.801 190.771C582.214 190.613 585.589 190.591 588.929 190.736H588.933C592.574 190.893 596.163 191.256 599.69 191.876C598.842 196.702 591.158 206.542 579.841 218.475C591.77 206.017 599.931 195.684 600.805 190.705C597.277 190.089 593.689 189.726 590.048 189.573V189.573Z" fill="white"/>
<path d="M435.914 184.004V183.834C435.914 183.834 435.949 183.834 436.142 183.995L479.997 182.662L485.587 181.355L437.256 182.828C437.059 182.667 437.042 182.662 437.025 182.667V182.837L420.602 183.335L421.372 184.45L435.914 184.008V184.004Z" fill="white"/>
<path d="M459.969 276.523C459.934 276.483 459.903 276.444 459.868 276.405C459.772 276.523 459.68 276.65 459.597 276.776C459.715 276.689 459.838 276.606 459.969 276.523V276.523Z" fill="white"/>
<path d="M578.566 205.927C577.045 205.783 575.519 205.678 573.998 205.621C572.472 205.56 570.951 205.586 569.43 205.595C566.388 205.586 563.341 205.796 560.321 206.163L560.439 206.119C553.725 210.766 546.958 215.346 540.104 219.783C536.673 221.999 533.22 224.185 529.736 226.309L527.118 227.9C526.248 228.434 525.334 228.901 524.447 229.4C522.655 230.383 520.854 231.345 519.036 232.28C520.78 231.214 522.524 230.156 524.25 229.067C525.116 228.53 525.968 227.966 526.847 227.446C527.725 226.93 528.595 226.401 529.465 225.868C532.949 223.743 536.398 221.562 539.825 219.346C546.674 214.914 553.436 210.337 560.146 205.691L560.198 205.656L560.264 205.647C563.306 205.271 566.37 205.074 569.439 205.061C570.973 205.061 572.503 205.188 574.029 205.324C575.554 205.468 577.071 205.664 578.579 205.927H578.566Z" fill="white"/>
<g style="mix-blend-mode:screen">
<path d="M456.388 238.083C443.956 247.232 435.909 259.244 429.536 271.037L301.318 318.769L307.272 331.861L431.569 276.392C447.012 282.966 461.921 284.614 479.992 283.018C479.992 283.018 496.785 277.34 483.467 252.521C469.431 232.694 456.383 238.083 456.383 238.083H456.388Z" fill="url(#paint35_linear_3768_6450)"/>
</g>
<path d="M420.602 183.331L485.587 181.351L463.872 186.434L497.778 207.752L456.813 224.9L420.602 183.331Z" stroke="#220E6E" stroke-width="0.5" stroke-linejoin="round"/>
<path d="M600.801 190.705C599.809 196.348 589.462 208.862 574.876 223.562C554.664 243.936 526.313 268.497 503.461 284.775C508.383 280.728 512.907 276.177 516.404 270.867C518.799 267.23 520.688 263.239 521.824 259.025C522.405 256.892 522.707 254.746 522.947 252.552C523.144 250.72 522.637 248.924 523.402 247.166C524.014 245.755 525.054 244.579 526.081 243.429C532.997 235.684 539.907 227.938 546.818 220.188C551.18 215.305 555.543 210.414 559.905 205.527C551.574 211.533 543.037 217.146 534.338 222.518C528.311 226.251 522.204 229.861 516.037 233.424C514.489 234.315 512.802 234.98 511.089 235.198C509.532 235.391 507.954 235.229 506.433 234.556C502.526 232.812 498.605 231.151 494.557 229.739C490.863 228.458 487.122 227.365 483.354 226.452C477.706 225.075 471.98 224.091 466.184 223.418C463.649 223.13 461.035 223.051 458.6 223.812C458.308 223.903 458.019 224.013 457.739 224.139C483.948 212.15 513.484 201.248 548.562 191.876C552.61 190.801 556.732 189.743 560.928 188.699C567.174 187.156 573.761 187.392 579.807 189.573L579.912 189.612C583.325 189.455 586.7 189.433 590.039 189.577H590.044C593.685 189.735 597.274 190.097 600.801 190.718V190.705Z" stroke="#220E6E" stroke-width="0.5" stroke-linejoin="round"/>
<path d="M578.19 205.549C571.427 211.455 564.884 216.945 558.511 222.063C546.254 231.907 534.614 240.378 523.201 247.739L520.863 246.638L559.91 205.523C560.823 205.405 561.737 205.3 562.646 205.221C567.896 204.741 573.071 204.907 578.19 205.545V205.549Z" stroke="#220E6E" stroke-width="0.5" stroke-linejoin="round"/>
<path style="mix-blend-mode:lighten" d="M425.425 331.959L453.661 320.432C453.978 320.302 454.131 319.94 454.001 319.617C453.871 319.3 453.508 319.147 453.185 319.277L424.955 330.798C424.638 330.928 424.485 331.291 424.615 331.614H424.609C424.74 331.931 425.102 332.084 425.425 331.953V331.959Z" fill="url(#paint36_linear_3768_6450)"/>
<path d="M587.082 306.358L615.318 294.832C615.635 294.701 615.788 294.339 615.658 294.016C615.528 293.699 615.165 293.546 614.843 293.676L586.607 305.203C586.289 305.333 586.136 305.696 586.267 306.018C586.397 306.336 586.76 306.489 587.082 306.358Z" fill="url(#paint37_linear_3768_6450)"/>
<path style="mix-blend-mode:screen" d="M377.886 184.205L406.122 172.678C406.439 172.548 406.592 172.186 406.462 171.863C406.332 171.545 405.969 171.393 405.646 171.523L377.41 183.049C377.093 183.18 376.94 183.542 377.07 183.865C377.201 184.182 377.563 184.335 377.886 184.205Z" fill="url(#paint38_linear_3768_6450)"/>
<path style="mix-blend-mode:screen" d="M455.786 139.22L484.022 127.694C484.339 127.563 484.492 127.201 484.362 126.878C484.232 126.561 483.869 126.408 483.546 126.538L455.31 138.065C454.993 138.195 454.84 138.558 454.971 138.88C455.101 139.198 455.463 139.351 455.786 139.22V139.22Z" fill="url(#paint39_linear_3768_6450)"/>
<path d="M417.748 132.766L430.26 127.657C430.578 127.527 430.73 127.164 430.6 126.841C430.47 126.524 430.107 126.371 429.785 126.501L417.272 131.61C416.955 131.741 416.802 132.103 416.932 132.426C417.063 132.743 417.425 132.896 417.748 132.766Z" fill="url(#paint40_linear_3768_6450)"/>
<path style="mix-blend-mode:lighten" d="M545.389 271.614L573.625 260.087C573.942 259.957 574.095 259.594 573.965 259.272C573.835 258.954 573.472 258.801 573.149 258.932L544.913 270.458C544.596 270.589 544.443 270.951 544.574 271.274C544.704 271.591 545.066 271.744 545.389 271.614V271.614Z" fill="url(#paint41_linear_3768_6450)"/>
<path style="mix-blend-mode:lighten" d="M586.351 228.458L614.587 216.931C614.904 216.801 615.057 216.439 614.927 216.116C614.796 215.799 614.434 215.646 614.111 215.776L585.875 227.303C585.558 227.433 585.405 227.795 585.535 228.118C585.666 228.435 586.028 228.588 586.351 228.458Z" fill="url(#paint42_linear_3768_6450)"/>
<defs>
<filter id="filter0_d_3768_6450" x="162.748" y="13.2588" width="209.091" height="111.447" filterUnits="userSpaceOnUse" color-interpolation-filters="sRGB">
<feFlood flood-opacity="0" result="BackgroundImageFix"/>
<feColorMatrix in="SourceAlpha" type="matrix" values="0 0 0 0 0 0 0 0 0 0 0 0 0 0 0 0 0 0 127 0" result="hardAlpha"/>
<feOffset dx="-20" dy="15"/>
<feGaussianBlur stdDeviation="15"/>
<feColorMatrix type="matrix" values="0 0 0 0 0 0 0 0 0 0.121569 0 0 0 0 0.25098 0 0 0 0.4 0"/>
<feBlend mode="normal" in2="BackgroundImageFix" result="effect1_dropShadow_3768_6450"/>
<feBlend mode="normal" in="SourceGraphic" in2="effect1_dropShadow_3768_6450" result="shape"/>
</filter>
<filter id="filter1_d_3768_6450" x="113.542" y="173.81" width="304.767" height="165.268" filterUnits="userSpaceOnUse" color-interpolation-filters="sRGB">
<feFlood flood-opacity="0" result="BackgroundImageFix"/>
<feColorMatrix in="SourceAlpha" type="matrix" values="0 0 0 0 0 0 0 0 0 0 0 0 0 0 0 0 0 0 127 0" result="hardAlpha"/>
<feOffset dx="-20" dy="15"/>
<feGaussianBlur stdDeviation="15"/>
<feColorMatrix type="matrix" values="0 0 0 0 0 0 0 0 0 0.121569 0 0 0 0 0.25098 0 0 0 0.4 0"/>
<feBlend mode="normal" in2="BackgroundImageFix" result="effect1_dropShadow_3768_6450"/>
<feBlend mode="normal" in="SourceGraphic" in2="effect1_dropShadow_3768_6450" result="shape"/>
</filter>
<linearGradient id="paint0_linear_3768_6450" x1="196.831" y1="50.8542" x2="367.573" y2="276.929" gradientUnits="userSpaceOnUse">
<stop stop-color="#E6007A"/>
<stop offset="0.04" stop-color="#DB0580"/>
<stop offset="0.1" stop-color="#BE1392"/>
<stop offset="0.19" stop-color="#8F2AAE"/>
<stop offset="0.24" stop-color="#703AC2"/>
<stop offset="0.5" stop-color="#0070EB"/>
<stop offset="0.79" stop-color="#0297FB"/>
<stop offset="1" stop-color="#0AE2FF"/>
</linearGradient>
<linearGradient id="paint1_linear_3768_6450" x1="230.952" y1="217.553" x2="332.646" y2="116.565" gradientUnits="userSpaceOnUse">
<stop stop-color="#E6007A"/>
<stop offset="0.21" stop-color="#703AC2"/>
<stop offset="0.46" stop-color="#0070EB"/>
<stop offset="0.77" stop-color="#0297FB"/>
<stop offset="1" stop-color="#0AE2FF"/>
</linearGradient>
<radialGradient id="paint2_radial_3768_6450" cx="0" cy="0" r="1" gradientUnits="userSpaceOnUse" gradientTransform="translate(307.574 146.98) scale(30.1132 30.3235)">
<stop stop-color="white"/>
<stop offset="1" stop-color="white" stop-opacity="0"/>
</radialGradient>
<radialGradient id="paint3_radial_3768_6450" cx="0" cy="0" r="1" gradientUnits="userSpaceOnUse" gradientTransform="translate(263.065 203.233) scale(17.5194 17.6417)">
<stop stop-color="white"/>
<stop offset="1" stop-color="white" stop-opacity="0"/>
</radialGradient>
<linearGradient id="paint4_linear_3768_6450" x1="236.772" y1="200.25" x2="253.661" y2="200.016" gradientUnits="userSpaceOnUse">
<stop stop-color="white" stop-opacity="0"/>
<stop offset="1" stop-color="white"/>
</linearGradient>
<radialGradient id="paint5_radial_3768_6450" cx="0" cy="0" r="1" gradientUnits="userSpaceOnUse" gradientTransform="translate(259.83 151.508) rotate(-119.828) scale(30.271 30.1654)">
<stop stop-color="white"/>
<stop offset="1" stop-color="white" stop-opacity="0"/>
</radialGradient>
<radialGradient id="paint6_radial_3768_6450" cx="0" cy="0" r="1" gradientUnits="userSpaceOnUse" gradientTransform="translate(330.465 162.199) rotate(-119.828) scale(17.6112 17.5497)">
<stop stop-color="white"/>
<stop offset="1" stop-color="white" stop-opacity="0"/>
</radialGradient>
<linearGradient id="paint7_linear_3768_6450" x1="341.043" y1="186.619" x2="332.308" y2="172.064" gradientUnits="userSpaceOnUse">
<stop stop-color="white" stop-opacity="0"/>
<stop offset="1" stop-color="white"/>
</linearGradient>
<radialGradient id="paint8_radial_3768_6450" cx="0" cy="0" r="1" gradientUnits="userSpaceOnUse" gradientTransform="translate(286.169 189.477) rotate(119.828) scale(30.271 30.1654)">
<stop stop-color="white"/>
<stop offset="1" stop-color="white" stop-opacity="0"/>
</radialGradient>
<radialGradient id="paint9_radial_3768_6450" cx="0" cy="0" r="1" gradientUnits="userSpaceOnUse" gradientTransform="translate(261.467 123.938) rotate(119.828) scale(17.6112 17.5497)">
<stop stop-color="white"/>
<stop offset="1" stop-color="white" stop-opacity="0"/>
</radialGradient>
<linearGradient id="paint10_linear_3768_6450" x1="277.181" y1="102.501" x2="268.851" y2="117.297" gradientUnits="userSpaceOnUse">
<stop stop-color="white" stop-opacity="0"/>
<stop offset="1" stop-color="white"/>
</linearGradient>
<linearGradient id="paint11_linear_3768_6450" x1="280.852" y1="94.953" x2="255.022" y2="102.416" gradientUnits="userSpaceOnUse">
<stop stop-color="#231F20"/>
<stop offset="1" stop-color="white"/>
</linearGradient>
<linearGradient id="paint12_linear_3768_6450" x1="232.093" y1="194.043" x2="253.828" y2="216.567" gradientUnits="userSpaceOnUse">
<stop stop-color="#231F20"/>
<stop offset="1" stop-color="white"/>
</linearGradient>
<linearGradient id="paint13_linear_3768_6450" x1="347.906" y1="190.627" x2="355.509" y2="167.667" gradientUnits="userSpaceOnUse">
<stop stop-color="#231F20"/>
<stop offset="1" stop-color="white"/>
</linearGradient>
<linearGradient id="paint14_linear_3768_6450" x1="292.608" y1="108.1" x2="327.223" y2="115.971" gradientUnits="userSpaceOnUse">
<stop stop-color="#231F20"/>
<stop offset="1" stop-color="white"/>
</linearGradient>
<linearGradient id="paint15_linear_3768_6450" x1="328.518" y1="197.271" x2="304.182" y2="223.28" gradientUnits="userSpaceOnUse">
<stop stop-color="#231F20"/>
<stop offset="1" stop-color="white"/>
</linearGradient>
<linearGradient id="paint16_linear_3768_6450" x1="233.883" y1="184.02" x2="223.312" y2="149.907" gradientUnits="userSpaceOnUse">
<stop stop-color="#231F20"/>
<stop offset="1" stop-color="white"/>
</linearGradient>
<linearGradient id="paint17_linear_3768_6450" x1="300.169" y1="120.948" x2="289.148" y2="131.893" gradientUnits="userSpaceOnUse">
<stop stop-color="#231F20"/>
<stop offset="1" stop-color="white"/>
</linearGradient>
<linearGradient id="paint18_linear_3768_6450" x1="241.143" y1="170.983" x2="256.109" y2="174.965" gradientUnits="userSpaceOnUse">
<stop stop-color="#231F20"/>
<stop offset="1" stop-color="white"/>
</linearGradient>
<linearGradient id="paint19_linear_3768_6450" x1="313.683" y1="197.434" x2="309.626" y2="182.39" gradientUnits="userSpaceOnUse">
<stop stop-color="#231F20"/>
<stop offset="1" stop-color="white"/>
</linearGradient>
<linearGradient id="paint20_linear_3768_6450" x1="290.924" y1="184.047" x2="297.552" y2="174.958" gradientUnits="userSpaceOnUse">
<stop stop-color="#231F20"/>
<stop offset="1" stop-color="white"/>
</linearGradient>
<linearGradient id="paint21_linear_3768_6450" x1="268.31" y1="180.093" x2="255.141" y2="186.319" gradientUnits="userSpaceOnUse">
<stop stop-color="#231F20"/>
<stop offset="1" stop-color="white"/>
</linearGradient>
<linearGradient id="paint22_linear_3768_6450" x1="263.543" y1="158.076" x2="267.656" y2="166.556" gradientUnits="userSpaceOnUse">
<stop stop-color="#231F20"/>
<stop offset="1" stop-color="white"/>
</linearGradient>
<linearGradient id="paint23_linear_3768_6450" x1="282.456" y1="131.814" x2="279.606" y2="122.063" gradientUnits="userSpaceOnUse">
<stop stop-color="#231F20"/>
<stop offset="1" stop-color="white"/>
</linearGradient>
<linearGradient id="paint24_linear_3768_6450" x1="312.792" y1="176.513" x2="320.928" y2="178.377" gradientUnits="userSpaceOnUse">
<stop stop-color="#231F20"/>
<stop offset="1" stop-color="white"/>
</linearGradient>
<linearGradient id="paint25_linear_3768_6450" x1="300.032" y1="148.852" x2="289.706" y2="146.989" gradientUnits="userSpaceOnUse">
<stop stop-color="#231F20"/>
<stop offset="1" stop-color="white"/>
</linearGradient>
<linearGradient id="paint26_linear_3768_6450" x1="489.777" y1="185.425" x2="474.528" y2="232.782" gradientUnits="userSpaceOnUse">
<stop stop-color="#6D59FF"/>
<stop offset="0.78" stop-color="#1564AB"/>
</linearGradient>
<linearGradient id="paint27_linear_3768_6450" x1="453.059" y1="187.66" x2="426.617" y2="223.918" gradientUnits="userSpaceOnUse">
<stop stop-color="#6340AE"/>
<stop offset="0.682292" stop-color="#1524AB"/>
</linearGradient>
<linearGradient id="paint28_linear_3768_6450" x1="495.776" y1="204.884" x2="508.404" y2="251.339" gradientUnits="userSpaceOnUse">
<stop stop-color="#E7E3FF"/>
<stop offset="1" stop-color="#8ED0D1"/>
</linearGradient>
<linearGradient id="paint29_linear_3768_6450" x1="529.06" y1="219.984" x2="525.374" y2="239.521" gradientUnits="userSpaceOnUse">
<stop stop-color="#6D59FF"/>
<stop offset="0.78" stop-color="#1564AB"/>
</linearGradient>
<linearGradient id="paint30_linear_3768_6450" x1="590.709" y1="198.483" x2="542.088" y2="285.604" gradientUnits="userSpaceOnUse">
<stop stop-color="#6D59FF"/>
<stop offset="0.78" stop-color="#1564AB"/>
</linearGradient>
<linearGradient id="paint31_linear_3768_6450" x1="589.967" y1="209.202" x2="573.806" y2="241.863" gradientUnits="userSpaceOnUse">
<stop stop-color="#F3D4FF"/>
<stop offset="1" stop-color="#828CD1"/>
</linearGradient>
<linearGradient id="paint32_linear_3768_6450" x1="562.707" y1="180.192" x2="571.284" y2="191.481" gradientUnits="userSpaceOnUse">
<stop stop-color="#3D4A4A"/>
<stop offset="0.3" stop-color="#3A4747"/>
<stop offset="0.51" stop-color="#333D3D"/>
<stop offset="0.69" stop-color="#262E2E"/>
<stop offset="0.86" stop-color="#141818"/>
<stop offset="1"/>
</linearGradient>
<linearGradient id="paint33_linear_3768_6450" x1="466.459" y1="281.642" x2="453.516" y2="305.624" gradientUnits="userSpaceOnUse">
<stop stop-color="#6340AE"/>
<stop offset="0.682292" stop-color="#1524AB"/>
</linearGradient>
<linearGradient id="paint34_linear_3768_6450" x1="548.581" y1="213.895" x2="507.39" y2="302.057" gradientUnits="userSpaceOnUse">
<stop stop-color="#6340AE"/>
<stop offset="0.682292" stop-color="#1524AB"/>
</linearGradient>
<linearGradient id="paint35_linear_3768_6450" x1="394.86" y1="288.705" x2="312.683" y2="322.8" gradientUnits="userSpaceOnUse">
<stop stop-color="#30BF9B"/>
<stop offset="1" stop-color="#30BF9B" stop-opacity="0"/>
</linearGradient>
<linearGradient id="paint36_linear_3768_6450" x1="456.21" y1="320.765" x2="424.571" y2="334.224" gradientUnits="userSpaceOnUse">
<stop stop-color="#FFFFE4"/>
<stop offset="0.5" stop-color="#FFFFE4" stop-opacity="0.17"/>
<stop offset="1" stop-color="#FFFFE4" stop-opacity="0"/>
</linearGradient>
<linearGradient id="paint37_linear_3768_6450" x1="613.892" y1="293.835" x2="585.359" y2="306.251" gradientUnits="userSpaceOnUse">
<stop stop-color="#FC49EF"/>
<stop offset="0.09" stop-color="#FC49EF" stop-opacity="0.96"/>
<stop offset="0.23" stop-color="#FC49EF" stop-opacity="0.86"/>
<stop offset="0.42" stop-color="#FC49EF" stop-opacity="0.68"/>
<stop offset="0.64" stop-color="#FC49EF" stop-opacity="0.45"/>
<stop offset="0.89" stop-color="#FC49EF" stop-opacity="0.15"/>
<stop offset="1" stop-color="#FC49EF" stop-opacity="0"/>
</linearGradient>
<linearGradient id="paint38_linear_3768_6450" x1="408.713" y1="171.379" x2="378.487" y2="185.374" gradientUnits="userSpaceOnUse">
<stop stop-color="#26FFEF"/>
<stop offset="0.494792" stop-color="#26EDE5" stop-opacity="0.22"/>
<stop offset="1" stop-color="#27DBDA" stop-opacity="0"/>
</linearGradient>
<linearGradient id="paint39_linear_3768_6450" x1="486.614" y1="126.394" x2="456.387" y2="140.389" gradientUnits="userSpaceOnUse">
<stop stop-color="#26FFEF"/>
<stop offset="0.494792" stop-color="#26EDE5" stop-opacity="0.22"/>
<stop offset="1" stop-color="#27DBDA" stop-opacity="0"/>
</linearGradient>
<linearGradient id="paint40_linear_3768_6450" x1="429.801" y1="126.557" x2="416.224" y2="132.098" gradientUnits="userSpaceOnUse">
<stop stop-color="#FC49EF"/>
<stop offset="0.09" stop-color="#FC49EF" stop-opacity="0.96"/>
<stop offset="0.23" stop-color="#FC49EF" stop-opacity="0.86"/>
<stop offset="0.42" stop-color="#FC49EF" stop-opacity="0.68"/>
<stop offset="0.64" stop-color="#FC49EF" stop-opacity="0.45"/>
<stop offset="0.89" stop-color="#FC49EF" stop-opacity="0.15"/>
<stop offset="1" stop-color="#FC49EF" stop-opacity="0"/>
</linearGradient>
<linearGradient id="paint41_linear_3768_6450" x1="576.175" y1="260.421" x2="544.527" y2="273.88" gradientUnits="userSpaceOnUse">
<stop stop-color="#FFFFE4"/>
<stop offset="0.5" stop-color="#FFFFE4" stop-opacity="0.17"/>
<stop offset="1" stop-color="#FFFFE4" stop-opacity="0"/>
</linearGradient>
<linearGradient id="paint42_linear_3768_6450" x1="617.136" y1="217.265" x2="585.489" y2="230.724" gradientUnits="userSpaceOnUse">
<stop stop-color="#FFFFE4"/>
<stop offset="0.5" stop-color="#FFFFE4" stop-opacity="0.17"/>
<stop offset="1" stop-color="#FFFFE4" stop-opacity="0"/>
</linearGradient>
<clipPath id="clip0_3768_6450">
<rect width="322" height="329" fill="white" transform="translate(124 1)"/>
</clipPath>
</defs>
</svg>
