<svg width="531" height="464" viewBox="0 0 531 464" fill="none" xmlns="http://www.w3.org/2000/svg">
<g clip-path="url(#clip0_3667_7562)">
<path d="M131.05 111.235C131.05 111.235 148.041 120.581 162.119 121.308C176.198 122.063 180.243 125.456 187.282 123.49C194.321 121.524 216.275 114.925 216.275 114.925L208.912 97.7953L195.481 96.7718L177.789 95.9907L170.534 95.1288L149.497 88.2069C149.497 88.2069 130.861 74.0128 120.1 77.2718C109.339 80.5308 111.497 101.485 131.05 111.235V111.235Z" fill="url(#paint0_linear_3667_7562)" stroke="#29256A" stroke-width="0.5" stroke-linecap="round" stroke-linejoin="round"/>
<g opacity="0.15">
<path d="M131.051 105.041C131.051 105.041 148.043 114.387 162.121 115.114C176.199 115.868 180.245 119.262 187.284 117.296C192.921 115.707 208.105 111.182 213.93 109.431L216.277 114.899C216.277 114.899 194.323 121.497 187.284 123.464C180.245 125.43 176.199 122.036 162.121 121.282C148.043 120.528 131.051 111.209 131.051 111.209C117.486 104.421 112.307 92.3013 114.006 84.3828C115.247 91.5472 120.695 99.8428 131.051 105.014V105.041Z" fill="#29256A"/>
</g>
<path d="M208.506 119.127C208.992 119.827 211.581 119.692 211.581 119.692C211.581 119.692 209.316 123.194 211.419 125.564C213.523 127.934 216.058 126.56 216.058 126.56C216.759 129.254 219.106 129.308 220.05 128.984C220.994 128.661 224.581 127.072 224.581 127.072C231.107 130.143 234.937 117.807 234.937 117.807L234.398 110.67C233.616 108.003 216.139 99.4921 213.577 98.4416C209.477 96.7448 206.403 98.4416 206.403 98.4416L208.992 105.552C208.399 107.464 209.073 110.104 209.477 111.424C208.749 111.208 207.023 112.124 207.023 112.124C205.513 113.848 208.021 118.48 208.506 119.154V119.127Z" fill="#29256A" stroke="#29256A" stroke-width="0.5" stroke-linecap="round" stroke-linejoin="round"/>
<path d="M156.643 90.5506C153.677 94.7523 149.442 103.667 150.44 119.154C149.631 118.912 148.849 118.696 148.067 118.427C147.258 103.425 151.168 94.4291 154.324 89.7695L156.643 90.5237V90.5506Z" fill="url(#paint1_linear_3667_7562)" stroke="#29256A" stroke-width="0.5" stroke-linecap="round" stroke-linejoin="round"/>
<path d="M218.11 110.13C218.11 110.13 221.805 113.228 223.45 112.15C225.095 111.1 225.958 109.107 223.854 107.195C210.963 95.3168 206.432 98.4411 206.432 98.4411L209.021 105.552L218.137 110.13H218.11Z" fill="#29256A" stroke="#29256A" stroke-width="0.5" stroke-linecap="round" stroke-linejoin="round"/>
<path d="M40.2417 226.512L102.111 190.851V94.5903L40.2417 130.251V226.512Z" fill="url(#paint2_linear_3667_7562)" stroke="#29256A" stroke-width="0.5" stroke-linecap="round" stroke-linejoin="round"/>
<path d="M75.2484 79.1309L102.111 94.5908L40.2414 130.251L13.4062 114.791L75.2484 79.1309Z" fill="#F5F5F5" stroke="#29256A" stroke-width="0.5" stroke-linecap="round" stroke-linejoin="round"/>
<path d="M40.2414 130.25V226.512L13.4062 211.052V114.791L40.2414 130.25Z" fill="url(#paint3_linear_3667_7562)" stroke="#29256A" stroke-width="0.5" stroke-linecap="round" stroke-linejoin="round"/>
<path d="M40.2417 130.251L102.111 94.5906L92.2668 59.3613L49.1957 84.706L40.2417 130.251Z" fill="url(#paint4_linear_3667_7562)" stroke="#29256A" stroke-width="0.5" stroke-linecap="round" stroke-linejoin="round"/>
<path opacity="0.5" d="M40.2417 226.512L102.111 190.851V94.5903L40.2417 130.251V226.512Z" fill="#29256A" stroke="#29256A" stroke-width="0.5" stroke-linecap="round" stroke-linejoin="round"/>
<path opacity="0.5" d="M40.2417 130.251L102.111 94.5906L92.2668 59.3613L49.1957 84.706L40.2417 130.251Z" fill="#29256A" stroke="#29256A" stroke-width="0.5" stroke-linecap="round" stroke-linejoin="round"/>
<path d="M65.4319 43.874L92.2671 59.3609L49.196 84.7055L22.3608 69.2187L65.4319 43.874Z" fill="url(#paint5_linear_3667_7562)" stroke="#29256A" stroke-width="0.5" stroke-linecap="round" stroke-linejoin="round"/>
<path d="M49.1954 84.7051L40.2414 130.25L13.4062 114.79L22.3603 69.2183L49.1954 84.7051Z" fill="url(#paint6_linear_3667_7562)" stroke="#29256A" stroke-width="0.5" stroke-linecap="round" stroke-linejoin="round"/>
<path d="M130.401 345.747L132.451 354.77C141.998 367.213 161.794 388.195 176.088 387.306C178.677 387.144 180.7 386.606 182.264 385.798C180.862 388.41 177.706 389.003 172.501 389.326C158.207 390.215 139.301 371.792 130.401 358.864C127.165 354.177 129.727 347.525 130.374 345.747H130.401Z" fill="#29256A" stroke="#29256A" stroke-width="0.5" stroke-linecap="round" stroke-linejoin="round"/>
<path d="M135.12 330.771C135.12 330.771 129.241 346.743 135.255 354.608C144.803 367.051 161.794 388.221 176.088 387.332C190.382 386.443 188.063 374.135 181.59 365.731C175.117 357.328 163.007 346.07 160.634 331.041C158.665 318.678 135.093 330.771 135.093 330.771H135.12Z" fill="url(#paint7_linear_3667_7562)" stroke="#29256A" stroke-width="0.5" stroke-linecap="round" stroke-linejoin="round"/>
<g opacity="0.15">
<path d="M176.09 387.332C161.796 388.221 142 367.24 132.453 354.796C126.411 346.932 135.123 330.771 135.123 330.771C135.123 330.771 137.685 329.452 141.191 328.132C141.407 332.576 141.596 336.347 141.596 336.347C141.596 336.347 134.26 342.057 140.49 353.261C144.535 360.56 145.452 361.099 151.763 367.697C155.593 371.684 176.036 388.14 186.501 380.276C185.745 384.046 182.725 386.901 176.117 387.305L176.09 387.332Z" fill="#29256A"/>
</g>
<path d="M158.745 373.488C163.114 365.974 172.77 363.388 179 362.5C179.485 363.065 179.944 363.631 180.402 364.196C174.631 364.924 164.544 367.186 160.364 374.431C159.366 376.155 158.206 378.606 157.37 380.087C156.884 379.683 156.399 379.306 155.94 378.902C156.75 377.502 157.855 375.131 158.772 373.515L158.745 373.488Z" fill="#1C3B47" stroke="#29256A" stroke-width="0.5" stroke-linecap="round" stroke-linejoin="round"/>
<path d="M87.1113 227.858L98.4657 186.272L128.241 202.917C138.786 213.502 173.2 257.996 179.214 269.389C181.048 272.864 181.452 276.931 180.32 280.702L163.059 338.205C163.059 338.205 148.9 346.878 133.581 331.202L140.566 281.052L87.1113 227.858V227.858Z" fill="url(#paint8_linear_3667_7562)" stroke="#29256A" stroke-width="0.5" stroke-linecap="round" stroke-linejoin="round"/>
<g opacity="0.15">
<path d="M133.554 331.202L137.464 281.671L81.5557 232.733L98.4389 186.272L106.665 183.875L99.7334 224.141L143.883 279.005L138.462 335.458C136.844 334.3 135.226 332.899 133.554 331.202V331.202Z" fill="#29256A"/>
</g>
<path d="M159.797 328.401C162.387 328.294 164.463 328.024 166.189 327.674L165.596 329.667C163.978 329.963 162.09 330.179 159.878 330.26C148.659 330.691 138.95 325.95 134.257 322.745L134.419 320.375C138.734 323.419 148.659 328.859 159.797 328.455V328.401Z" fill="#1C3B47" stroke="#29256A" stroke-width="0.5" stroke-linecap="round" stroke-linejoin="round"/>
<path d="M25.4626 358.972L24.7614 368.21C30.2363 382.916 42.9662 408.772 56.8827 412.139C59.3909 412.758 61.4945 412.812 63.2476 412.516C61.1439 414.59 57.9345 414.24 52.8911 413.028C38.9476 409.661 26.3257 386.498 21.6329 371.55C19.9338 366.109 24.3299 360.507 25.4626 358.999V358.972Z" fill="#29256A" stroke="#29256A" stroke-width="0.5" stroke-linecap="round" stroke-linejoin="round"/>
<path d="M34.3905 346.043C34.3905 346.043 24.061 359.564 27.5131 368.856C32.9881 383.561 42.967 408.771 56.9104 412.138C70.8539 415.505 72.2564 403.035 68.5345 393.123C64.8396 383.184 56.5598 368.856 58.7174 353.827C60.4974 341.437 34.3905 346.07 34.3905 346.07V346.043Z" fill="url(#paint9_linear_3667_7562)" stroke="#29256A" stroke-width="0.5" stroke-linecap="round" stroke-linejoin="round"/>
<g opacity="0.15">
<path d="M56.8826 412.139C42.9391 408.772 30.2093 382.916 24.7614 368.21C21.3092 358.918 34.3896 346.044 34.3896 346.044C34.3896 346.044 37.2215 345.532 40.9703 345.316C39.8645 349.653 38.9206 353.289 38.9206 353.289C38.9206 353.289 30.2363 356.575 32.8793 369.126C34.6054 377.314 36.4663 377.691 39.4061 386.256C41.213 391.481 56.5859 412.92 68.8843 408.476C67.0503 411.87 63.3284 413.701 56.8826 412.166V412.139Z" fill="#29256A"/>
</g>
<path d="M47.1986 256.3L41.3731 289.563L32.8506 347.74C32.8506 347.74 43.7465 362.553 58.6878 353.8L101.894 248.058C101.894 248.058 108.07 234.914 111.225 197.207L54.3996 195.483L47.1986 256.3Z" fill="url(#paint10_linear_3667_7562)" stroke="#29256A" stroke-width="0.5" stroke-linecap="round" stroke-linejoin="round"/>
<g opacity="0.15">
<path d="M41.3998 289.563L45.5532 253.552L50.4887 202.001L86.4397 200.466L64.8907 212.155C60.7373 231.089 50.8663 280.351 50.1381 287.192L38.9456 353.261L32.9043 352.399V347.739L41.4268 289.563H41.3998Z" fill="#29256A"/>
</g>
<path d="M44.3956 393.824C50.7875 387.925 60.7934 388.302 66.9965 389.272C67.2932 389.972 67.5629 390.646 67.8326 391.292C62.1149 390.296 51.8124 389.488 45.6632 395.171C44.2069 396.517 42.3729 398.537 41.1323 399.695C40.7817 399.184 40.458 398.672 40.1074 398.133C41.2941 397.029 43.0471 395.09 44.4226 393.824H44.3956Z" fill="#1C3B47" stroke="#29256A" stroke-width="0.5" stroke-linecap="round" stroke-linejoin="round"/>
<path d="M34.2266 338.394C35.7908 340.414 37.1933 341.922 39.8633 343.942C46.6867 349.087 55.8026 348.333 60.4684 347.471L59.929 349.437C58.2568 349.706 56.1802 349.949 53.9147 349.949C49.168 349.949 43.5312 348.979 38.7845 345.397C36.6539 343.781 35.3324 342.703 33.876 341.06L34.2536 338.394H34.2266Z" fill="#1C3B47" stroke="#29256A" stroke-width="0.5" stroke-linecap="round" stroke-linejoin="round"/>
<path d="M52.809 196.642V151.555C52.809 151.555 49.6804 116.946 59.929 96.0988C70.9328 73.7169 99.9525 74.902 116.242 75.1444C123.929 75.2521 130.402 80.8543 131.696 88.4227C133.287 97.634 134.285 112.959 132.074 137.684C127.57 188.051 127.732 196.642 127.732 196.642C127.732 196.642 108.96 215.307 85.8202 212.452C62.68 209.597 54.2384 200.925 52.809 196.642Z" fill="url(#paint11_linear_3667_7562)" stroke="#29256A" stroke-width="0.5" stroke-linecap="round" stroke-linejoin="round"/>
<g opacity="0.15">
<path d="M59.9282 96.0994L62.1128 92.3018C90.3504 117.242 76.4069 161.845 76.4069 161.845L61.1958 207.174C55.9636 203.107 51.9181 195.512 51.1899 193.357L52.7812 151.583C52.7812 151.583 49.6527 116.973 59.9012 96.1263L59.9282 96.0994Z" fill="#29256A"/>
</g>
<path d="M52.4599 145.146C61.0634 143.745 78.6478 137.066 82.3966 130.952C90.137 118.32 85.0936 100.974 84.8509 100.22L82.5045 100.274C82.5584 100.463 87.1703 118.023 79.8614 129.928C76.4093 135.557 60.3891 141.483 52.3521 142.775L52.4599 145.146V145.146Z" fill="url(#paint12_linear_3667_7562)" stroke="#29256A" stroke-width="0.5" stroke-linecap="round" stroke-linejoin="round"/>
<path d="M51.2169 193.33C59.0921 198.07 74.492 202.918 95.3398 203.565C112.385 204.103 122.714 195.835 127.866 190.367C128 190.825 128.027 190.987 128.135 191.283C128.135 191.283 127.866 200.117 127.056 203.565C119.829 209.086 109.068 214.581 94.8543 214.581C94.2879 214.581 93.7216 214.581 93.1282 214.581C73.8986 213.988 63.4882 208.413 54.2105 203.726C53.5902 201.033 50.9741 196.535 50.6235 193.815C50.6235 193.815 50.8663 193.653 51.1899 193.357L51.2169 193.33Z" fill="#29256A" stroke="#29256A" stroke-width="0.5" stroke-linecap="round" stroke-linejoin="round"/>
<path d="M50.6513 193.788C58.5266 198.501 73.6567 204.777 94.5315 205.423C111.577 205.962 123.012 196.75 128.163 191.283C129.512 195.431 129.269 198.663 128.649 201.895C128.379 203.268 127.597 204.534 126.437 205.342C119.263 210.406 109.095 215.092 95.9609 215.092C95.3946 215.092 94.8282 215.092 94.2348 215.092C75.0052 214.5 59.4435 209.463 50.1659 204.803C49.3568 201.329 49.3028 197.477 50.6783 193.841L50.6513 193.788Z" fill="url(#paint13_linear_3667_7562)" stroke="#29256A" stroke-width="0.5" stroke-linecap="round" stroke-linejoin="round"/>
<path d="M119.074 195.269C118.454 194.919 117.618 194.946 116.674 195.485L107.612 200.71C105.724 201.787 104.214 204.427 104.214 206.582V216.978C104.241 218.055 104.618 218.809 105.239 219.16L106.938 220.156C106.318 219.806 105.94 219.052 105.94 217.975V207.578C105.913 205.45 107.423 202.784 109.311 201.707L118.373 196.481C119.317 195.943 120.153 195.889 120.773 196.266L119.074 195.269V195.269Z" fill="#29256A" stroke="#29256A" stroke-width="0.5" stroke-linecap="round" stroke-linejoin="round"/>
<path d="M109.285 201.707C107.397 202.784 105.887 205.423 105.887 207.578V217.975C105.914 220.102 107.451 220.991 109.339 219.914L118.401 214.689C120.262 213.611 121.772 210.972 121.772 208.817V198.421C121.745 196.293 120.208 195.404 118.347 196.481L109.285 201.707Z" fill="url(#paint14_linear_3667_7562)" stroke="#29256A" stroke-width="0.5" stroke-linecap="round" stroke-linejoin="round"/>
<path d="M95.4492 184.818L126.06 172.455L131.238 135.475L100.654 147.838L95.4492 184.818Z" fill="white" stroke="#29256A" stroke-width="0.5" stroke-linecap="round" stroke-linejoin="round"/>
<path d="M122.986 129.038L131.239 135.475L100.655 147.838L92.4023 141.401L122.986 129.038Z" fill="white" stroke="#29256A" stroke-width="0.5" stroke-linecap="round" stroke-linejoin="round"/>
<path d="M100.655 147.838L95.45 184.818L87.2241 178.381L92.4024 141.401L100.655 147.838Z" fill="url(#paint15_linear_3667_7562)" stroke="#29256A" stroke-width="0.5" stroke-linecap="round" stroke-linejoin="round"/>
<path d="M117.455 153.36C117.455 150.64 119.667 147.165 122.364 145.603C123.847 144.741 125.169 144.66 126.059 145.172L127.434 145.953L127.057 146.492C127.165 146.842 127.245 147.219 127.245 147.677C127.245 150.397 125.034 153.872 122.337 155.434C121.636 155.838 120.961 156.08 120.341 156.161L119.99 156.673L118.615 155.892C117.86 155.434 117.401 154.599 117.401 153.36H117.455Z" fill="#BACFD6" stroke="#29256A" stroke-width="0.5" stroke-linecap="round" stroke-linejoin="round"/>
<path d="M118.832 154.141C118.832 156.861 121.044 157.777 123.741 156.215C126.465 154.653 128.649 151.178 128.649 148.458C128.649 145.738 126.438 144.822 123.741 146.384C121.017 147.946 118.832 151.421 118.832 154.141Z" fill="#F5F5F5" stroke="#29256A" stroke-width="0.5" stroke-linecap="round" stroke-linejoin="round"/>
<path d="M115.245 168.2C115.245 165.48 117.457 162.006 120.154 160.443C121.637 159.582 122.959 159.501 123.849 160.012L125.224 160.794L124.847 161.332C124.955 161.682 125.035 162.059 125.035 162.517C125.035 165.238 122.824 168.712 120.127 170.274C119.426 170.678 118.751 170.921 118.131 171.001L117.781 171.513L116.405 170.732C115.65 170.274 115.191 169.439 115.191 168.2H115.245Z" fill="#BACFD6" stroke="#29256A" stroke-width="0.5" stroke-linecap="round" stroke-linejoin="round"/>
<path d="M116.622 168.982C116.622 171.702 118.834 172.618 121.531 171.056C124.255 169.494 126.439 166.019 126.439 163.299C126.439 160.579 124.228 159.663 121.531 161.225C118.807 162.787 116.622 166.262 116.622 168.982Z" fill="#F5F5F5" stroke="#29256A" stroke-width="0.5" stroke-linecap="round" stroke-linejoin="round"/>
<path d="M126.626 36.8715V72.7742L124.28 80.6927C124.28 80.6927 116.782 60.3039 89.4077 66.2024L91.2147 25.29L120.639 29.5725L126.599 36.8715H126.626Z" fill="#BACFD6" stroke="#29256A" stroke-width="0.5" stroke-linecap="round" stroke-linejoin="round"/>
<path d="M99.279 86.8346L95.665 96.0998C95.665 96.0998 95.5841 101.46 88.464 98.847C81.3439 96.2344 67.5083 80.182 67.5083 80.182L76.8399 63.2676L100.897 80.7745L99.3059 86.8615L99.279 86.8346Z" fill="#FFD8CC" stroke="#29256A" stroke-width="0.5" stroke-linecap="round" stroke-linejoin="round"/>
<g opacity="0.15">
<path d="M82.6928 74.8762L86.2528 70.1089L100.898 80.7746L99.3063 86.8617L95.6923 96.1269C95.6923 96.1269 95.6923 96.9079 95.2608 97.7429C80.2115 94.026 82.7198 74.93 82.7198 74.93L82.6928 74.8762Z" fill="#29256A"/>
</g>
<path d="M119.615 52.3047C119.615 52.3047 120.289 63.6976 119.615 68.5457C118.941 73.4207 116.055 80.5581 115.947 82.8744C115.839 85.1907 115.219 88.6652 113.034 89.5271C110.823 90.3889 101.842 90.4428 95.288 86.5374C88.7343 82.632 82.747 76.3565 81.1558 73.5823C79.5645 70.8081 73.766 63.1859 72.4984 57.5029C71.2308 51.8199 71.8242 39.4573 79.16 36.3869C86.4958 33.2895 102.435 31.9428 110.364 39.4842C118.293 46.9987 118.347 49.5036 119.642 52.3047H119.615Z" fill="#FFD8CC" stroke="#29256A" stroke-width="0.5" stroke-linecap="round" stroke-linejoin="round"/>
<path d="M119.263 84.3018C119.263 84.3018 119.236 84.3551 119.209 84.3818C119.209 84.3818 119.236 84.3285 119.263 84.3018Z" fill="#C4CBEB" stroke="#29256A" stroke-width="0.5" stroke-linecap="round" stroke-linejoin="round"/>
<path d="M100.897 53.2743C100.897 53.2743 114.221 54.3247 117.187 53.7053C122.473 52.6279 124.928 46.5409 124.146 40.5347C123.336 34.5285 117.619 27.5796 114.382 25.4787C111.119 23.3779 101.491 18.8261 94.6134 19.0416C87.736 19.257 76.9211 22.6507 72.3901 27.7142C67.5625 33.101 66.5107 37.3296 65.8094 43.2011C65.0812 49.0727 68.2098 61.7046 69.7201 63.5899C71.2304 65.4753 80.5081 72.4511 80.5081 72.4511L86.3875 75.2253C86.3875 75.2253 85.5245 65.4484 85.8751 61.112C86.2257 56.7757 97.0946 60.708 100.951 53.2205L100.897 53.2743Z" fill="#29256A" stroke="#29256A" stroke-width="0.5" stroke-linecap="round" stroke-linejoin="round"/>
<path d="M81.7747 74.5783C81.7747 74.5783 80.7768 65.3939 76.111 62.0002C73.2252 59.8994 72.3083 62.0541 71.9576 62.7813C71.607 63.5085 70.9598 68.3566 74.7356 71.023C78.5114 73.6895 81.7747 74.6052 81.7747 74.6052V74.5783Z" fill="#FFD8CC" stroke="#29256A" stroke-width="0.5" stroke-linecap="round" stroke-linejoin="round"/>
<path d="M63.8141 78.1877L64.7041 88.9073C64.7041 88.9073 76.463 102.293 95.6117 101.997C130.133 101.458 127.598 81.8776 128.434 74.2554L125.467 78.3493L120.235 84.3824L113.789 88.8265L104.188 91.3044L90.6762 91.7084L63.7871 78.1877H63.8141Z" fill="#CEE0E8" stroke="#29256A" stroke-width="0.5" stroke-linecap="round" stroke-linejoin="round"/>
<path d="M64.1108 89.608C64.3266 89.3386 64.6233 87.561 64.6233 87.561C64.7311 87.6957 76.8946 101.055 95.0454 101.055C95.2342 101.055 95.45 101.055 95.6388 101.055C122.932 100.651 126.007 88.1266 128.192 78.3228C128.38 78.9961 128.596 80.3158 128.812 81.4201C127.625 90.5237 122.798 102.509 95.6657 102.913C95.45 102.913 95.2342 102.913 95.0185 102.913C76.7328 102.913 65.3784 90.9816 64.1108 89.608V89.608Z" fill="url(#paint16_linear_3667_7562)" stroke="#29256A" stroke-width="0.5" stroke-linecap="round" stroke-linejoin="round"/>
<path d="M65.5675 62.7549L63.8145 78.1879C63.8145 78.1879 70.557 90.5235 91.216 92.4897C111.875 94.4559 125.657 84.4904 128.462 74.2556V41.8543C128.462 38.0028 127.248 34.2052 124.821 31.1616C119.966 25.1016 109.879 14.1665 89.5439 15.594C50.761 18.2873 65.5945 62.728 65.5945 62.728L65.5675 62.7549ZM79.0795 55.7521C80.7786 50.6616 96.3943 37.5719 112.064 35.0132C125.98 32.7507 125.36 45.6789 125.36 45.6789L125.468 72.4241C125.468 72.4241 125.468 90.766 98.3361 90.766C79.6459 90.766 78.1356 79.6423 78.1356 79.6423C78.1356 79.6423 77.3804 60.8157 79.0795 55.7521V55.7521Z" fill="#CEE0E8" stroke="#29256A" stroke-width="0.5" stroke-linecap="round" stroke-linejoin="round"/>
<g opacity="0.3">
<path d="M110.852 37.1144C101.871 38.5688 92.9707 43.9825 87.4958 48.7767C83.7469 52.0626 83.7739 57.8803 87.3609 61.3278C90.3276 64.2097 94.5619 66.4991 100.414 66.1758C111.607 65.5564 122.125 62.7822 122.53 53.1669V46.4065C122.53 46.4065 123.042 35.1213 110.879 37.0874L110.852 37.1144Z" fill="#CADDFF"/>
</g>
<g opacity="0.15">
<path d="M89.5457 15.6212C92.4045 15.4326 95.0206 15.4865 97.5018 15.7289C42.0515 17.722 70.1273 68.8422 70.1273 68.8422L70.9903 86.5646C65.839 82.9285 63.8433 78.1882 63.8433 78.1882L63.0072 61.8125C63.0072 61.8125 50.7358 18.3146 89.5457 15.6212Z" fill="#29256A"/>
</g>
<path d="M75.8964 165.83C95.7733 165.83 108.908 154.141 109.097 153.953C110.364 152.794 110.445 150.855 109.285 149.589C108.126 148.323 106.184 148.243 104.916 149.401C103.756 150.451 77.4337 173.533 42.8312 147.246C41.4827 146.223 39.5409 146.465 38.4891 147.839C37.4642 149.185 37.7069 151.124 39.0824 152.175C52.6483 162.464 65.2163 165.83 75.8695 165.83H75.8964Z" fill="white" stroke="#29256A" stroke-width="0.5" stroke-linecap="round" stroke-linejoin="round"/>
<path d="M75.8964 182.206C95.7733 182.206 108.908 170.517 109.097 170.328C110.364 169.17 110.445 167.231 109.285 165.965C108.126 164.699 106.184 164.618 104.916 165.776C103.756 166.827 77.4337 189.909 42.8312 163.622C41.4827 162.598 39.5409 162.868 38.4891 164.214C37.4642 165.561 37.7069 167.5 39.0824 168.551C52.6483 178.839 65.2163 182.206 75.8695 182.206H75.8964Z" fill="white" stroke="#29256A" stroke-width="0.5" stroke-linecap="round" stroke-linejoin="round"/>
<path d="M29.6146 86.5107L30.5585 83.5211C30.5585 83.5211 40.6183 75.7911 43.7469 68.8153L47.3069 64.7752C47.3069 64.7752 53.8606 61.4085 51.3524 56.2642C50.2197 53.9209 46.4439 54.8367 43.1805 60.2504L38.9192 64.7214L37.355 64.5867L36.7077 55.0791L38.5686 40.5349C38.5686 40.5349 39.4317 36.6295 37.6516 35.9292C35.8716 35.229 34.2804 35.9292 33.6601 39.7538C33.0398 43.5515 30.7203 53.6247 30.7203 53.6247L31.8801 38.8111C31.8801 38.8111 32.3655 34.0708 30.0191 34.0708C27.6727 34.0708 26.8906 35.1481 26.54 37.6261C26.1894 40.104 25.1915 46.7296 25.1915 46.7296L22.4136 58.9306L16.669 64.6944L14.5384 79.3464L12.8662 83.5211L15.1047 96.557L24.6791 93.2172L29.5876 86.4838L29.6146 86.5107Z" fill="#29256A" stroke="#29256A" stroke-width="0.5" stroke-linecap="round" stroke-linejoin="round"/>
<path d="M22.4156 58.9307L29.3469 65.5294C30.156 66.4721 30.5066 67.738 30.2908 68.9769L29.0502 75.845C29.0502 75.845 28.5378 78.2691 26.6768 78.6461C24.8159 79.0232 24.0877 77.4072 24.4114 75.9528C24.735 74.4984 25.625 69.5425 25.625 69.5425L21.7144 64.6945L19.6916 61.8934C19.6916 61.8934 19.341 58.6344 22.4425 58.9307H22.4156Z" fill="#3B3B89" stroke="#29256A" stroke-width="0.5" stroke-linecap="round" stroke-linejoin="round"/>
<path d="M19.9877 61.7855C19.9877 61.7855 18.8819 61.0045 17.4256 61.9202C15.9692 62.809 16.4546 64.6136 16.8862 65.0984C17.3177 65.5832 19.9068 69.7848 19.9068 69.7848L20.7968 74.3636C20.7968 74.3636 20.9856 77.03 23.3859 77.0031C25.7863 77.0031 24.5726 72.4244 24.4917 71.4278C24.3838 70.4313 23.4399 66.9299 23.4399 66.9299C23.4399 66.9299 21.1204 62.6205 20.0147 61.7855H19.9877Z" fill="#3B3B89" stroke="#29256A" stroke-width="0.5" stroke-linecap="round" stroke-linejoin="round"/>
<path d="M61.8191 92.9478C61.8191 92.9478 48.9275 101.54 39.5689 114.576L26.866 123.14C26.866 123.14 27.8369 91.1971 29.6439 86.5106C29.6439 86.5106 20.4741 89.8235 12.8955 83.521C12.8955 83.521 -1.83007 116.407 0.219645 143.583C2.24239 170.732 23.252 158.666 23.252 158.666L64.2734 135.153C68.2649 132.864 71.5553 129.47 73.5511 125.349C78.4057 115.357 83.7997 97.2572 61.8461 92.9478H61.8191Z" fill="url(#paint17_linear_3667_7562)" stroke="#29256A" stroke-width="0.5" stroke-linecap="round" stroke-linejoin="round"/>
<g opacity="0.15">
<path d="M12.894 83.5479C13.0558 83.6826 13.1907 83.7634 13.3525 83.8981C9.22609 94.8332 1.80934 117.646 3.29269 137.415C5.31544 164.565 26.3251 152.498 26.3251 152.498L67.3464 128.985C70.5019 127.181 73.1719 124.676 75.1677 121.659C74.6553 122.979 74.0889 124.218 73.5495 125.349C71.5268 129.497 68.2634 132.864 64.2718 135.153L23.2505 158.666C23.2505 158.666 2.21389 170.732 0.191138 143.583C-1.83161 116.434 12.867 83.521 12.867 83.521L12.894 83.5479Z" fill="#29256A"/>
</g>
<path d="M53.5377 141.294C52.1083 125.133 43.2891 118.238 38.1108 115.545L39.5672 114.575C39.7021 114.387 39.8369 114.198 39.9987 114.01C45.5815 117.215 53.9962 124.595 55.7492 140.028L53.5646 141.267L53.5377 141.294Z" fill="url(#paint18_linear_3667_7562)" stroke="#29256A" stroke-width="0.5" stroke-linecap="round" stroke-linejoin="round"/>
<path d="M255.017 229.109L245.357 233.197L262.797 274.288L272.457 270.199L255.017 229.109Z" fill="#BACFD6" stroke="#29256A" stroke-width="0.5" stroke-linecap="round" stroke-linejoin="round"/>
<path d="M245.373 233.191L261.097 215.873L255.028 229.097L245.373 233.191Z" fill="#EBF3F6" stroke="#29256A" stroke-width="0.5" stroke-linecap="round" stroke-linejoin="round"/>
<path d="M475.858 347.659C475.858 347.659 479.742 346.07 481.252 345.101C485.487 342.407 490.152 340.253 496.302 344.158C502.451 348.063 524.728 369.987 528.315 379.495C531.875 389.003 530.634 406.51 516.664 403.924C505.714 401.904 495.007 394.686 487.132 385.151C482.655 379.737 476.856 375.59 470.114 373.65L469.332 373.435L457.006 362.123L462.751 352.75L475.831 347.659H475.858Z" fill="url(#paint19_linear_3667_7562)" stroke="#29256A" stroke-width="0.5" stroke-linecap="round" stroke-linejoin="round"/>
<path d="M528.314 379.495C524.754 369.987 502.45 348.063 496.301 344.158C495.762 343.835 495.249 343.538 494.764 343.296C493.065 342.461 491.069 342.488 489.424 343.404C486.187 345.208 483.517 348.117 484.137 352.75C485.621 363.496 499.214 366.459 502.1 374.889C504.176 381.003 508.788 394.093 517.607 401.931C519.603 403.681 522.597 404.085 524.781 402.577C530.93 398.349 531.011 386.686 528.314 379.522V379.495Z" fill="#29256A" stroke="#29256A" stroke-width="0.5" stroke-linecap="round" stroke-linejoin="round"/>
<path d="M353.171 265.619C353.171 265.619 370.594 276.042 382.784 298.963C382.784 298.963 412.667 323.876 428.687 356.089C428.687 356.089 438.208 344.75 454.551 345.342C470.895 345.935 472.891 348.871 472.891 348.871C472.891 348.871 467.443 357.032 470.976 372.815C470.976 372.815 442.415 392.288 429.658 391.615C416.901 390.941 396.134 376.289 388.718 368.236C381.301 360.183 332.162 322.907 332.162 322.907C332.162 322.907 317.948 302.733 325.23 286.492C332.512 270.251 344.055 262.952 353.171 265.619Z" fill="url(#paint20_linear_3667_7562)" stroke="#29256A" stroke-width="0.5" stroke-linecap="round" stroke-linejoin="round"/>
<g opacity="0.15">
<path d="M454.496 345.343C438.152 344.75 428.632 356.089 428.632 356.089C412.638 323.849 382.729 298.963 382.729 298.963C370.565 276.042 353.116 265.619 353.116 265.619C344.027 262.979 332.457 270.251 325.175 286.492C324.204 288.701 323.637 290.963 323.341 293.226C330.865 279.166 343.73 276.042 352.334 278.547C352.334 278.547 367.437 285.334 379.6 308.255C379.6 308.255 409.483 333.169 425.503 365.381C425.503 365.381 435.024 354.042 451.367 354.635C467.711 355.227 471.541 356.682 471.541 356.682L472.836 348.844C472.836 348.844 470.813 345.908 454.496 345.316V345.343Z" fill="#29256A"/>
</g>
<g opacity="0.15">
<path d="M345.81 300.713L367.494 350.298L329.763 320.483L345.81 300.713Z" fill="#29256A"/>
</g>
<path d="M452.394 345.37C451.692 345.37 451.018 345.423 450.344 345.477C448.591 352.049 446.352 366.405 453.607 382.807C454.174 382.484 454.74 382.188 455.306 381.865C448.105 365.489 450.722 351.295 452.394 345.37Z" fill="#1C3B47" stroke="#29256A" stroke-width="0.5" stroke-linecap="round" stroke-linejoin="round"/>
<path d="M373.56 130.896C373.56 130.896 367.115 124.648 364.822 120.231C362.557 115.814 362.907 110.211 360.345 107.141C360.345 107.141 360.345 102.293 365.739 107.06C365.739 107.06 368.571 112.797 370.108 113.47C370.108 113.47 372.617 106.575 372.32 104.34C372.023 102.104 372.401 92.6505 373.911 91.1961C375.421 89.7417 376.716 90.7652 376.581 93.9972C376.446 97.2292 377.175 105.471 377.175 105.471L378.847 94.7513C378.847 94.7513 378.523 88.5835 379.521 87.6678C380.519 86.779 382.488 87.3446 382.569 89.5531C382.649 91.7617 382.353 98.8183 382.353 98.8183L382.083 104.017C382.083 104.017 384.349 92.0041 384.591 90.3611C384.834 88.7182 387.962 87.4523 387.612 92.3273C387.261 97.1754 385.967 106.09 385.967 106.09C385.967 106.09 388.124 95.6671 389.338 94.6705C390.552 93.7009 392.062 93.8087 391.145 98.3874C390.228 102.966 386.021 130.277 386.021 130.277L373.56 130.95V130.896Z" fill="#29256A" stroke="#29256A" stroke-width="0.5" stroke-linecap="round" stroke-linejoin="round"/>
<path d="M322.102 156.914C322.102 156.914 334.131 158.153 345.539 163.836L367.196 164.806L370.54 127.772C370.54 127.772 383.782 121.819 386.992 130.007C386.992 130.007 389.797 164.698 385.967 175.552C382.11 186.406 382.164 189.234 375.826 192.386C369.488 195.537 327.011 189.019 320.106 188.292C320.106 188.292 291.06 159.607 322.075 156.914H322.102Z" fill="url(#paint21_linear_3667_7562)" stroke="#29256A" stroke-width="0.5" stroke-linecap="round" stroke-linejoin="round"/>
<g opacity="0.15">
<path d="M385.968 175.553C389.825 164.698 386.993 130.008 386.993 130.008C386.507 127.638 385.725 128.365 384.754 126.991C385.024 130.331 387.344 159.473 383.703 169.762C379.846 180.616 379.9 183.444 373.562 186.596C367.601 189.558 348.857 181.451 338.636 180.185C338.771 183.525 320.134 188.292 320.134 188.292C327.012 189.02 369.516 195.511 375.854 192.386C382.192 189.235 382.138 186.434 385.995 175.553H385.968Z" fill="#29256A"/>
</g>
<path d="M267.596 181.801C267.596 181.801 239.898 193.678 253.167 227.076C266.437 260.474 282.16 291.394 292.921 305.372C303.682 319.378 360.481 294.653 353.199 265.618C353.199 265.618 348.884 254.01 341.332 231.628C333.16 207.361 352.498 166.852 317.787 155.81L301.228 158.018L267.623 181.801H267.596Z" fill="url(#paint22_linear_3667_7562)" stroke="#29256A" stroke-width="0.5" stroke-linecap="round" stroke-linejoin="round"/>
<path d="M273.611 212.964C285.828 192.414 259.29 191.606 261.097 185.977C253.842 193.922 245.238 207.12 253.141 227.077C258.076 239.521 263.362 251.614 268.594 262.63C264.36 247.682 261.205 233.811 273.611 212.964V212.964Z" fill="#BACFD6" stroke="#29256A" stroke-width="0.5" stroke-linecap="round" stroke-linejoin="round"/>
<path d="M358.566 269.524C358.566 269.524 348.83 254.01 341.305 231.628C336.478 217.245 341.225 196.291 338.716 179.996C338.689 180.05 338.662 180.104 338.635 180.158C337.044 183.147 335.372 186.676 334.536 190.015C332.163 206.849 330.949 222.444 335.075 234.725C340.982 252.286 349.127 271.221 352.363 278.547C353.873 274.426 359.672 273.968 358.566 269.497V269.524Z" fill="#BACFD6" stroke="#29256A" stroke-width="0.5" stroke-linecap="round" stroke-linejoin="round"/>
<path d="M334.292 379.037C334.292 379.037 338.418 380.41 344.675 380.222C350.932 380.033 355.059 382.888 355.598 394.227C355.949 401.607 362.61 425.578 361.289 438.749C360.426 447.341 353.602 449.172 347.912 446.479C344.891 445.051 342.922 444.539 340.872 442.654C332.701 435.113 325.392 424.932 325.257 400.26C325.149 383.508 317.786 384.073 317.786 384.073L334.319 379.037H334.292Z" fill="url(#paint23_linear_3667_7562)" stroke="#29256A" stroke-width="0.5" stroke-linecap="round" stroke-linejoin="round"/>
<path d="M344.435 429.106C344.435 429.106 335.615 431.072 329.952 427.732C330.383 428.702 330.815 429.618 331.273 430.507C333.674 431.368 336.236 431.665 338.501 431.665C341.926 431.665 344.65 431.045 344.893 430.991L344.435 429.106V429.106Z" fill="#1C3B47" stroke="#29256A" stroke-width="0.5" stroke-linecap="round" stroke-linejoin="round"/>
<path d="M355.571 394.226C355.166 385.635 352.712 381.918 348.801 380.679C347.237 381.325 345.376 383.076 344.163 387.655C341.789 396.623 341.735 423.476 342.598 430.129C343.192 434.654 345.349 441.118 347.884 446.451C353.575 449.117 360.398 447.34 361.261 438.748C362.583 425.577 355.921 401.606 355.571 394.226Z" fill="#29256A" stroke="#29256A" stroke-width="0.5" stroke-linecap="round" stroke-linejoin="round"/>
<path d="M288.606 297.859C288.606 297.859 270.482 310.14 263.2 339.471C255.918 368.802 252.223 380.68 260.287 386.228C268.351 391.776 287.797 396.544 301.012 396.651L326.067 399.075C326.067 399.075 326.256 387.656 333.106 379.495L303.628 361.26C303.628 361.26 311.827 349.868 319.513 346.582C327.2 343.296 348.371 334.839 348.83 316.093C349.288 297.347 333.025 280.836 333.025 280.836C333.025 280.836 298.585 269.336 288.579 297.859H288.606Z" fill="url(#paint24_linear_3667_7562)" stroke="#29256A" stroke-width="0.5" stroke-linecap="round" stroke-linejoin="round"/>
<path d="M298.665 396.57C299.285 396.597 299.878 396.624 300.472 396.624C300.525 388.705 303.007 377.124 314.415 367.508L312.689 366.512C301.389 376.45 298.826 388.355 298.665 396.57Z" fill="#1C3B47" stroke="#29256A" stroke-width="0.5" stroke-linecap="round" stroke-linejoin="round"/>
<g opacity="0.15">
<path d="M311.53 342.03C283.292 345.801 290.709 361.341 291.491 363.496C291.491 363.496 295.941 361.664 303.628 361.26C303.628 361.26 311.827 349.868 319.513 346.582C327.2 343.296 348.371 334.839 348.829 316.093C348.937 311.298 347.966 306.639 346.429 302.356C346.375 302.626 339.66 338.259 311.53 342.03V342.03Z" fill="#29256A"/>
</g>
<path d="M287.931 298.263C287.931 298.263 336.261 294.169 353.468 260.717L350.367 254.011C350.367 254.011 328.359 285.604 283.832 291.583L287.958 298.263H287.931Z" fill="url(#paint25_linear_3667_7562)" stroke="#29256A" stroke-width="0.5" stroke-linecap="round" stroke-linejoin="round"/>
<path d="M279.06 267.047C271.913 267.047 264.55 264.596 258.428 257.647C255.326 254.146 252.549 250.994 251.605 244.934C251.281 242.807 252.737 240.813 254.868 240.49C256.972 240.167 258.994 241.621 259.318 243.749C259.911 247.574 261.503 249.351 264.119 252.314C277.819 267.774 298.451 252.61 299.341 251.964C301.068 250.671 303.522 251.021 304.816 252.745C306.111 254.469 305.76 256.893 304.061 258.186C298.613 262.307 289.039 267.047 279.087 267.047H279.06Z" fill="#F5F5F5" stroke="#29256A" stroke-width="0.5" stroke-linecap="round" stroke-linejoin="round"/>
<path d="M282.646 280.353C275.499 280.353 268.136 277.902 262.014 270.953C258.912 267.451 257.402 262.523 257.51 256.328C257.564 254.173 259.344 252.422 261.501 252.503C263.659 252.557 265.358 254.335 265.331 256.489C265.277 259.371 265.655 263.331 267.866 265.808C281.405 281.107 302.064 265.916 302.927 265.27C304.653 263.977 307.108 264.327 308.402 266.051C309.697 267.775 309.346 270.199 307.647 271.491C302.199 275.612 292.625 280.353 282.673 280.353H282.646Z" fill="#F5F5F5" stroke="#29256A" stroke-width="0.5" stroke-linecap="round" stroke-linejoin="round"/>
<path d="M289.659 233.919C278.223 236.208 268.838 234.834 261.745 229.771C261.071 229.286 260.45 228.801 259.83 228.289C248.341 218.432 248.017 200.844 257.807 189.289C262.716 183.499 267.57 181.829 267.57 181.829L268.676 181.155L267.57 178.57C257.51 181.667 251.82 190.044 248.718 197.235C245.32 205.046 245.428 214.015 249.5 221.475C251.631 225.434 254.813 229.609 259.452 232.922C265.035 236.881 271.751 238.874 279.545 238.874C282.97 238.874 286.611 238.497 290.414 237.716L289.632 233.892L289.659 233.919Z" fill="url(#paint26_linear_3667_7562)" stroke="#29256A" stroke-width="0.5" stroke-linecap="round" stroke-linejoin="round"/>
<path d="M271.32 153.549C271.32 131.409 266.789 126.561 263.31 123.814C262.582 125.753 261.962 127.773 261.476 129.82C258.536 141.913 259.453 154.626 263.229 166.477L265.171 172.564C269.001 171.81 271.32 164.08 271.32 153.576V153.549Z" fill="url(#paint27_linear_3667_7562)"/>
<path d="M319.03 116.542C314.445 110.805 309.806 105.203 289.956 105.203C274.745 105.203 267.085 113.849 263.31 123.814C265.602 127.747 271.239 139.032 269.243 151.556C268.11 158.613 269 171.81 265.171 172.537L267.598 178.571C267.598 178.571 269.89 182.772 286.18 182.799C304.277 182.799 319.164 174.019 321.807 164.323L323.21 129.282C323.21 125.619 321.295 119.424 319.003 116.569L319.03 116.542Z" fill="url(#paint28_linear_3667_7562)" stroke="#29256A" stroke-width="0.5" stroke-linecap="round" stroke-linejoin="round"/>
<path d="M265.172 172.537L266.224 175.123L265.172 172.537Z" fill="#CEE0E8" stroke="#29256A" stroke-width="0.5" stroke-linecap="round" stroke-linejoin="round"/>
<path d="M286.182 182.799C269.893 182.799 267.6 178.57 267.6 178.57V181.802C267.6 181.802 269.893 186.004 286.182 186.031C304.279 186.031 319.167 177.25 321.81 167.554V164.322C319.14 174.018 304.279 182.826 286.182 182.799V182.799Z" fill="#1C3B47" stroke="#29256A" stroke-width="0.5" stroke-linecap="round" stroke-linejoin="round"/>
<g opacity="0.15">
<path d="M297.48 105.095C294.783 104.907 292.275 104.961 289.956 105.203C342.412 107.088 315.847 155.461 315.847 155.461L314.714 173.992C319.569 170.544 321.807 164.323 321.807 164.323L322.616 148.836C322.616 148.836 334.186 107.654 297.48 105.122V105.095Z" fill="#29256A"/>
</g>
<path d="M188.466 212.64C188.466 212.64 190.624 206.984 192.566 204.937C194.508 202.89 197.663 203.294 198.283 205.099C198.283 205.099 201.763 203.186 203.084 206.041C203.084 206.041 207.318 205.126 209.152 208.519C209.152 208.519 212.524 209.139 212.362 212.559C212.2 215.98 211.634 219.805 211.634 219.805L214.304 230.255L204.082 235.238L196.611 223.872L189.356 217.677L188.439 212.613L188.466 212.64Z" fill="#29256A" stroke="#29256A" stroke-width="0.5" stroke-linecap="round" stroke-linejoin="round"/>
<path d="M210.554 243.748C210.554 243.748 204.971 242.294 201.384 239.52C197.77 236.746 195.262 232.517 195.262 232.517C195.262 232.517 182.963 214.956 182.559 211.186C182.154 207.442 186.362 208.277 189.625 212.532C192.861 216.815 193.509 218.404 193.509 218.404C193.509 218.404 204.62 219.966 206.131 226.457L206.94 228.773L214.356 230.228L219.049 239.277L210.581 243.695L210.554 243.748Z" fill="#29256A" stroke="#29256A" stroke-width="0.5" stroke-linecap="round" stroke-linejoin="round"/>
<path d="M252.707 192.252C252.707 192.252 247.961 216.385 251.008 223.037L248.77 234.592L214.302 230.229C214.302 230.229 207.29 234.053 210.526 243.722C210.526 243.722 240.328 257.782 252.492 257.728C264.655 257.647 268.62 258.267 272.476 249.917C276.306 241.568 283.75 227.67 288.119 211.321C293.971 189.397 259.261 170.624 252.68 192.279L252.707 192.252Z" fill="url(#paint29_linear_3667_7562)" stroke="#29256A" stroke-width="0.5" stroke-linecap="round" stroke-linejoin="round"/>
<g opacity="0.15">
<path d="M251.035 223.064L248.797 234.619L214.329 230.255C214.329 230.255 207.317 234.08 210.553 243.749C210.553 243.749 211.443 244.18 212.98 244.854C211.281 236.666 217.296 233.38 217.296 233.38L251.763 237.743L254.002 226.188C250.954 219.536 252.734 192.252 252.734 192.252C252.734 192.252 247.987 216.385 251.035 223.037V223.064Z" fill="#29256A"/>
</g>
<path d="M336.02 307.286L312.071 306.936L283.995 224.95L307.944 225.3L336.02 307.286Z" fill="url(#paint30_linear_3667_7562)" stroke="#29256A" stroke-width="0.5" stroke-linecap="round" stroke-linejoin="round"/>
<path d="M302.28 182.206L286.179 182.017L317.626 164.349L333.727 164.51L302.28 182.206Z" fill="url(#paint31_linear_3667_7562)" stroke="#29256A" stroke-width="0.5" stroke-linecap="round" stroke-linejoin="round"/>
<path d="M307.944 225.3L283.995 224.95L286.18 182.018L302.281 182.206L307.944 225.3Z" fill="url(#paint32_linear_3667_7562)" stroke="#29256A" stroke-width="0.5" stroke-linecap="round" stroke-linejoin="round"/>
<path d="M333.729 164.511L302.282 182.206L307.945 225.3L361.076 194.676L333.729 164.511Z" fill="url(#paint33_linear_3667_7562)" stroke="#29256A" stroke-width="0.5" stroke-linecap="round" stroke-linejoin="round"/>
<path d="M361.075 194.676L307.944 225.299L336.02 307.286L389.178 276.635L361.075 194.676Z" fill="url(#paint34_linear_3667_7562)" stroke="#29256A" stroke-width="0.5" stroke-linecap="round" stroke-linejoin="round"/>
<path d="M362.396 291.611L335.561 209.14L315.711 174.665L319.11 172.726L339.202 207.74L366.118 290.399L362.396 291.611Z" stroke="#29256A" stroke-width="0.5" stroke-linecap="round" stroke-linejoin="round"/>
<path d="M362.396 291.611L335.561 209.14L315.711 174.665L319.11 172.726L339.202 207.74L366.118 290.399L362.396 291.611Z" fill="#29256A" fill-opacity="0.2"/>
<path d="M515.587 375.886C506.579 388.356 497.248 390.592 492.528 390.834C493.202 391.453 493.849 392.073 494.551 392.639C500.025 391.911 508.737 388.733 517.178 377.017L515.587 375.886Z" fill="#1C3B47" stroke="#29256A" stroke-width="0.5" stroke-linecap="round" stroke-linejoin="round"/>
</g>
<defs>
<linearGradient id="paint0_linear_3667_7562" x1="113.681" y1="100.435" x2="216.275" y2="100.435" gradientUnits="userSpaceOnUse">
<stop stop-color="#DDE7FF"/>
<stop offset="1" stop-color="#9FD0E3"/>
</linearGradient>
<linearGradient id="paint1_linear_3667_7562" x1="147.986" y1="104.475" x2="156.643" y2="104.475" gradientUnits="userSpaceOnUse">
<stop stop-color="#A05AC1"/>
<stop offset="1" stop-color="#142387"/>
</linearGradient>
<linearGradient id="paint2_linear_3667_7562" x1="40.2417" y1="160.551" x2="102.111" y2="160.551" gradientUnits="userSpaceOnUse">
<stop stop-color="#F3D4FF"/>
<stop offset="1" stop-color="#828CD1"/>
</linearGradient>
<linearGradient id="paint3_linear_3667_7562" x1="13.4062" y1="170.651" x2="40.2414" y2="170.651" gradientUnits="userSpaceOnUse">
<stop stop-color="#F3D4FF"/>
<stop offset="1" stop-color="#828CD1"/>
</linearGradient>
<linearGradient id="paint4_linear_3667_7562" x1="40.2417" y1="94.8061" x2="2.02522" y2="94.8061" gradientUnits="userSpaceOnUse">
<stop stop-color="#F3D4FF"/>
<stop offset="1" stop-color="#828CD1"/>
</linearGradient>
<linearGradient id="paint5_linear_3667_7562" x1="22.3608" y1="64.2898" x2="92.2671" y2="64.2898" gradientUnits="userSpaceOnUse">
<stop stop-color="#F3D4FF"/>
<stop offset="1" stop-color="#828CD1"/>
</linearGradient>
<linearGradient id="paint6_linear_3667_7562" x1="13.4062" y1="99.7342" x2="49.1954" y2="99.7342" gradientUnits="userSpaceOnUse">
<stop stop-color="#F3D4FF"/>
<stop offset="1" stop-color="#828CD1"/>
</linearGradient>
<linearGradient id="paint7_linear_3667_7562" x1="132.531" y1="356.412" x2="186.687" y2="356.412" gradientUnits="userSpaceOnUse">
<stop stop-color="#DDE7FF"/>
<stop offset="1" stop-color="#9FD0E3"/>
</linearGradient>
<linearGradient id="paint8_linear_3667_7562" x1="87.1113" y1="263.41" x2="180.913" y2="263.41" gradientUnits="userSpaceOnUse">
<stop stop-color="#DDE7FF"/>
<stop offset="1" stop-color="#9FD0E3"/>
</linearGradient>
<linearGradient id="paint9_linear_3667_7562" x1="26.785" y1="378.956" x2="70.2876" y2="378.956" gradientUnits="userSpaceOnUse">
<stop stop-color="#DDE7FF"/>
<stop offset="1" stop-color="#9FD0E3"/>
</linearGradient>
<linearGradient id="paint10_linear_3667_7562" x1="32.8506" y1="276.042" x2="111.252" y2="276.042" gradientUnits="userSpaceOnUse">
<stop stop-color="#DDE7FF"/>
<stop offset="1" stop-color="#9FD0E3"/>
</linearGradient>
<linearGradient id="paint11_linear_3667_7562" x1="52.3505" y1="143.906" x2="133.341" y2="143.906" gradientUnits="userSpaceOnUse">
<stop stop-color="#DDE7FF"/>
<stop offset="1" stop-color="#9FD0E3"/>
</linearGradient>
<linearGradient id="paint12_linear_3667_7562" x1="52.3521" y1="122.683" x2="86.6849" y2="122.683" gradientUnits="userSpaceOnUse">
<stop stop-color="#A05AC1"/>
<stop offset="1" stop-color="#142387"/>
</linearGradient>
<linearGradient id="paint13_linear_3667_7562" x1="49.5725" y1="203.187" x2="129.134" y2="203.187" gradientUnits="userSpaceOnUse">
<stop stop-color="#A05AC1"/>
<stop offset="1" stop-color="#142387"/>
</linearGradient>
<linearGradient id="paint14_linear_3667_7562" x1="105.914" y1="208.198" x2="121.799" y2="208.198" gradientUnits="userSpaceOnUse">
<stop stop-color="#A05AC1"/>
<stop offset="1" stop-color="#142387"/>
</linearGradient>
<linearGradient id="paint15_linear_3667_7562" x1="87.2241" y1="163.109" x2="100.655" y2="163.109" gradientUnits="userSpaceOnUse">
<stop stop-color="#DDE7FF"/>
<stop offset="1" stop-color="#9FD0E3"/>
</linearGradient>
<linearGradient id="paint16_linear_3667_7562" x1="64.1108" y1="90.6315" x2="128.785" y2="90.6315" gradientUnits="userSpaceOnUse">
<stop stop-color="#A05AC1"/>
<stop offset="1" stop-color="#142387"/>
</linearGradient>
<linearGradient id="paint17_linear_3667_7562" x1="0.00388491" y1="122.44" x2="77.8663" y2="122.44" gradientUnits="userSpaceOnUse">
<stop stop-color="#DDE7FF"/>
<stop offset="1" stop-color="#9FD0E3"/>
</linearGradient>
<linearGradient id="paint18_linear_3667_7562" x1="38.1108" y1="127.665" x2="55.7222" y2="127.665" gradientUnits="userSpaceOnUse">
<stop stop-color="#A05AC1"/>
<stop offset="1" stop-color="#142387"/>
</linearGradient>
<linearGradient id="paint19_linear_3667_7562" x1="457.033" y1="373.112" x2="530.014" y2="373.112" gradientUnits="userSpaceOnUse">
<stop stop-color="#DDE7FF"/>
<stop offset="1" stop-color="#9FD0E3"/>
</linearGradient>
<linearGradient id="paint20_linear_3667_7562" x1="323.154" y1="328.374" x2="472.864" y2="328.374" gradientUnits="userSpaceOnUse">
<stop stop-color="#DDE7FF"/>
<stop offset="1" stop-color="#9FD0E3"/>
</linearGradient>
<linearGradient id="paint21_linear_3667_7562" x1="307.781" y1="159.446" x2="387.99" y2="159.446" gradientUnits="userSpaceOnUse">
<stop stop-color="#DDE7FF"/>
<stop offset="1" stop-color="#9FD0E3"/>
</linearGradient>
<linearGradient id="paint22_linear_3667_7562" x1="249.553" y1="232.625" x2="353.792" y2="232.625" gradientUnits="userSpaceOnUse">
<stop stop-color="#DDE7FF"/>
<stop offset="1" stop-color="#9FD0E3"/>
</linearGradient>
<linearGradient id="paint23_linear_3667_7562" x1="317.759" y1="413.323" x2="361.451" y2="413.323" gradientUnits="userSpaceOnUse">
<stop stop-color="#DDE7FF"/>
<stop offset="1" stop-color="#9FD0E3"/>
</linearGradient>
<linearGradient id="paint24_linear_3667_7562" x1="255.729" y1="338.798" x2="348.857" y2="338.798" gradientUnits="userSpaceOnUse">
<stop stop-color="#DDE7FF"/>
<stop offset="1" stop-color="#9FD0E3"/>
</linearGradient>
<linearGradient id="paint25_linear_3667_7562" x1="283.805" y1="276.15" x2="353.441" y2="276.15" gradientUnits="userSpaceOnUse">
<stop stop-color="#A05AC1"/>
<stop offset="1" stop-color="#142387"/>
</linearGradient>
<linearGradient id="paint26_linear_3667_7562" x1="246.318" y1="208.736" x2="290.441" y2="208.736" gradientUnits="userSpaceOnUse">
<stop stop-color="#A05AC1"/>
<stop offset="1" stop-color="#142387"/>
</linearGradient>
<linearGradient id="paint27_linear_3667_7562" x1="258.435" y1="121.546" x2="274.822" y2="169.677" gradientUnits="userSpaceOnUse">
<stop stop-color="#FF3AA3"/>
<stop offset="0.21" stop-color="#A165FE"/>
<stop offset="0.46" stop-color="#3394FF"/>
<stop offset="0.77" stop-color="#4EB8FF"/>
<stop offset="1" stop-color="#0AE2FF"/>
</linearGradient>
<linearGradient id="paint28_linear_3667_7562" x1="263.31" y1="143.988" x2="323.21" y2="143.988" gradientUnits="userSpaceOnUse">
<stop stop-color="#DDE7FF"/>
<stop offset="1" stop-color="#9FD0E3"/>
</linearGradient>
<linearGradient id="paint29_linear_3667_7562" x1="209.69" y1="220.209" x2="288.793" y2="220.209" gradientUnits="userSpaceOnUse">
<stop stop-color="#DDE7FF"/>
<stop offset="1" stop-color="#9FD0E3"/>
</linearGradient>
<linearGradient id="paint30_linear_3667_7562" x1="284.718" y1="221.062" x2="310.944" y2="271.396" gradientUnits="userSpaceOnUse">
<stop stop-color="#F3D4FF"/>
<stop offset="1" stop-color="#828CD1"/>
</linearGradient>
<linearGradient id="paint31_linear_3667_7562" x1="301.144" y1="169.663" x2="332.868" y2="194.857" gradientUnits="userSpaceOnUse">
<stop stop-color="#F3D4FF"/>
<stop offset="1" stop-color="#828CD1"/>
</linearGradient>
<linearGradient id="paint32_linear_3667_7562" x1="284.718" y1="178.412" x2="308.758" y2="225.462" gradientUnits="userSpaceOnUse">
<stop stop-color="#F3D4FF"/>
<stop offset="1" stop-color="#828CD1"/>
</linearGradient>
<linearGradient id="paint33_linear_3667_7562" x1="319.76" y1="180.599" x2="354.752" y2="217.828" gradientUnits="userSpaceOnUse">
<stop stop-color="#F3D4FF"/>
<stop offset="1" stop-color="#828CD1"/>
</linearGradient>
<linearGradient id="paint34_linear_3667_7562" x1="313.189" y1="230.904" x2="379.956" y2="261.592" gradientUnits="userSpaceOnUse">
<stop stop-color="#F3D4FF"/>
<stop offset="1" stop-color="#828CD1"/>
</linearGradient>
<clipPath id="clip0_3667_7562">
<rect width="531" height="464" fill="white"/>
</clipPath>
</defs>
</svg>
