<svg width="472" height="118" viewBox="0 0 472 118" fill="none" xmlns="http://www.w3.org/2000/svg">
<path d="M117.856 54.9947C115.643 22.4869 87.5016 -2.07425 54.9938 0.138516C38.7992 1.24221 24.5804 8.77962 14.6579 20.0857L14.631 20.0642C14.5664 20.1557 14.5018 20.2472 14.4372 20.3388C4.57932 31.6987 -0.960679 46.8058 0.137629 63.0005C0.239923 64.5457 0.422973 66.0639 0.643712 67.566C0.65448 67.636 0.665248 67.7006 0.670632 67.7706C0.82138 68.7612 0.993664 69.7465 1.18748 70.721C1.18748 70.7371 1.19287 70.7587 1.19825 70.7748C1.37592 71.6578 1.57512 72.5353 1.79586 73.4021C8.61183 100.574 34.0667 119.816 62.9996 117.851C95.5074 115.639 120.069 87.4971 117.856 54.9893V54.9947ZM105.015 55.8669C105.29 59.8671 105.037 63.7865 104.321 67.5553C104.31 67.5337 104.305 67.5122 104.294 67.4906C100.019 57.0352 91.5556 49.487 84.1151 45.3199C85.6226 27.607 79.6088 20.1396 72.809 18.9282C72.626 18.8905 72.4375 18.8636 72.2491 18.8367C66.8491 18.1422 61.9121 21.9593 61.2229 27.3593C60.5284 32.7593 64.3456 37.6963 69.7456 38.3855C70.214 38.4447 70.6824 38.4609 71.1454 38.4555C71.1777 39.0531 71.1939 39.6884 71.1992 40.3506C64.9109 38.7947 59.0317 38.4878 53.6694 38.9669C51.6666 39.1015 49.6584 39.3546 47.6664 39.7261C48.334 33.7446 50.5791 27.0309 54.9346 22.1154C59.1448 17.3669 65.4008 14.6426 72.2329 15.3425C73.5251 15.4771 74.9087 15.7948 76.1524 16.2093C76.2116 16.2309 76.2708 16.247 76.3247 16.2632C92.1371 22.7077 103.777 37.7125 105.015 55.8669ZM63.8933 64.8795C63.8933 64.8795 63.8826 64.8902 63.8826 64.901C62.4774 66.9307 60.803 68.9335 58.8325 70.8717C55.8875 67.7383 53.5186 64.3626 51.7258 60.8685C51.6343 60.6801 51.5374 60.5024 51.4459 60.314C51.4459 60.3086 51.4405 60.2978 51.4351 60.2924C50.3799 58.0581 49.4807 55.6031 48.7916 52.9327C52.9856 51.9474 57.0935 51.5813 61.0237 51.7751C61.2337 51.7913 61.4329 51.7913 61.6429 51.8128C61.6483 51.8128 61.659 51.8128 61.6644 51.8128C64.1249 52.0174 66.693 52.4643 69.3472 53.1965C68.1035 57.3205 66.3645 61.0569 64.2379 64.3626C64.1195 64.5349 64.0172 64.7072 63.8987 64.8849L63.8933 64.8795ZM43.7308 15.4825C43.7308 15.4825 43.7092 15.5094 43.6985 15.5256C36.7856 24.452 34.4813 35.5482 34.5836 44.0762C18.4912 51.6298 15.0294 60.567 17.3821 67.0653C17.4414 67.243 17.5114 67.4207 17.5867 67.5929C19.6864 72.6161 25.4579 74.9796 30.4811 72.8799C35.5042 70.7802 37.8677 65.0087 35.7734 59.9855C35.5904 59.5494 35.3696 59.1349 35.1327 58.7419C35.6388 58.4135 36.188 58.0743 36.7694 57.7351C38.5623 63.9642 41.2219 69.2296 44.3176 73.6336C45.4321 75.2973 46.6542 76.907 47.9679 78.4468C42.4548 80.8588 35.515 82.2747 29.0759 80.9611C22.8575 79.6905 17.3714 75.6311 14.561 69.3696C14.028 68.1852 13.6134 66.8284 13.355 65.5417C13.1935 64.4165 13.0589 63.2858 12.9835 62.1391C11.546 41.0074 24.6557 22.1908 43.7362 15.4933L43.7308 15.4825ZM62.1221 105.016C49.5723 105.872 37.8408 101.587 28.9736 93.9793C40.1613 95.5029 50.9236 91.9549 58.2511 87.5994C72.8467 97.7695 82.3169 96.2943 86.7694 91.0128C86.8932 90.8728 87.0117 90.722 87.1247 90.5713C90.425 86.2426 89.5851 80.0566 85.2565 76.7617C80.9279 73.4614 74.7418 74.3012 71.4469 78.6299C71.1616 79.0067 70.9139 79.4051 70.6878 79.8035C70.1548 79.529 69.5895 79.2275 69.008 78.8991C73.5089 74.2312 76.7123 69.2889 78.9789 64.4003C79.8673 62.5967 80.6479 60.7339 81.3263 58.8172C86.1772 62.3867 90.8773 67.6899 92.9554 73.9244C94.9636 79.9435 94.1937 86.7272 90.1774 92.2887C89.4129 93.344 88.4491 94.383 87.4639 95.2498C87.4477 95.2606 87.437 95.2768 87.4208 95.2875C80.3895 100.811 71.6892 104.365 62.1167 105.011L62.1221 105.016Z" fill="url(#paint0_linear_3604_8518)"/>
<path style="mix-blend-mode:overlay" opacity="0.9" d="M72.8146 18.9281C72.6315 18.8905 72.4431 18.8635 72.2546 18.8366C71.3017 18.7128 70.3595 18.7397 69.455 18.8851C75.0973 21.9539 79.216 30.5088 77.0517 47.3873C76.3356 52.9757 74.672 58.295 72.2708 63.1727C70.3272 67.3668 67.6784 71.6039 64.125 75.6795C65.8317 76.9608 67.5007 78.0322 69.0243 78.899C73.5252 74.2312 76.7286 69.2888 78.9952 64.4003C81.3964 59.5225 83.0547 54.2032 83.7761 48.6148C86.3496 28.5222 80.0289 20.2203 72.8199 18.9335L72.8146 18.9281Z" fill="url(#paint1_radial_3604_8518)"/>
<g style="mix-blend-mode:overlay" opacity="0.8">
<path d="M77.0461 47.3873C79.2104 30.5143 75.0971 21.9593 69.4495 18.8851C69.2287 18.9174 69.0134 18.9659 68.798 19.0143C74.3219 22.1908 78.3005 30.735 76.1631 47.3819C75.4471 52.9704 73.7835 58.2896 71.3823 63.1674C69.5033 67.2268 66.9567 71.3186 63.5811 75.265C63.7587 75.4049 63.9418 75.5395 64.1194 75.6687C67.6782 71.5985 70.3217 67.3614 72.2652 63.162C74.6664 58.2842 76.3247 52.965 77.0461 47.3765V47.3873Z" fill="white"/>
</g>
<path style="mix-blend-mode:overlay" opacity="0.5" d="M55.5961 85.6613C55.0631 85.2575 54.557 84.8322 54.0455 84.4122C45.7167 87.8848 34.1683 90.0653 22.7061 87.4057C24.585 89.7961 26.6793 92.0089 28.9783 93.9847C40.1659 95.5084 50.9283 91.9604 58.2557 87.6049C57.3835 86.9965 56.5006 86.3558 55.5907 85.6667L55.5961 85.6613Z" fill="url(#paint2_radial_3604_8518)"/>
<path style="mix-blend-mode:overlay" opacity="0.6" d="M54.0461 84.4067C53.793 84.1967 53.5346 83.9867 53.2816 83.7714C44.8881 87.1255 33.2913 89.1283 21.8506 86.2802C22.1305 86.6571 22.4105 87.034 22.7012 87.4001C34.1635 90.0597 45.7119 87.8792 54.0407 84.4067H54.0461Z" fill="url(#paint3_linear_3604_8518)"/>
<path style="mix-blend-mode:overlay" opacity="0.9" d="M17.3865 67.0653C17.4457 67.243 17.5157 67.4207 17.5911 67.593C17.9626 68.4813 18.4525 69.2835 19.0286 69.9942C18.8671 63.5712 24.2186 55.7323 39.9126 49.164C45.1134 46.9889 50.5457 45.7722 55.9727 45.406C60.5812 44.9915 65.5721 45.1638 70.8752 46.2082C71.1282 44.087 71.2251 42.1111 71.2144 40.356C64.9206 38.7947 59.0361 38.4878 53.6737 38.9723C48.2468 39.333 42.8091 40.5552 37.6137 42.7303C18.9263 50.5476 14.8992 60.174 17.3865 67.0599V67.0653Z" fill="url(#paint4_radial_3604_8518)"/>
<g style="mix-blend-mode:overlay" opacity="0.8">
<path d="M39.9139 49.1694C24.2199 55.7323 18.8684 63.5766 19.0299 69.9996C19.1699 70.1718 19.3206 70.3387 19.4714 70.5002C19.4606 64.1258 24.8714 56.4107 40.3554 49.9339C45.5562 47.7588 50.9885 46.5421 56.4155 46.176C60.8679 45.7775 65.6865 45.9283 70.7957 46.8866C70.8281 46.6605 70.8496 46.4398 70.8765 46.219C65.5734 45.1746 60.5826 45.0023 55.974 45.4168C50.547 45.7775 45.1093 46.9997 39.9139 49.1748V49.1694Z" fill="white"/>
</g>
<path style="mix-blend-mode:overlay" opacity="0.4" d="M83.7864 48.6094C83.7002 49.2717 83.5926 49.9231 83.4795 50.5799C90.6508 56.0553 98.312 64.9656 101.742 76.2233C102.878 73.4021 103.739 70.4841 104.299 67.5014C100.024 57.0514 91.5714 49.5086 84.1309 45.3361C84.0394 46.3913 83.9264 47.4788 83.781 48.6094H83.7864Z" fill="url(#paint5_radial_3604_8518)"/>
<path style="mix-blend-mode:overlay" opacity="0.5" d="M83.4789 50.5798C83.4251 50.9082 83.3712 51.2313 83.3066 51.5597C90.408 57.1481 97.94 66.193 101.192 77.5261C101.38 77.0954 101.563 76.6647 101.736 76.2286C98.3061 64.9709 90.6448 56.0606 83.4735 50.5852L83.4789 50.5798Z" fill="url(#paint6_linear_3604_8518)"/>
<path style="mix-blend-mode:overlay" opacity="0.9" d="M86.7862 90.9967C86.91 90.8567 87.0284 90.7059 87.1415 90.5552C87.723 89.7907 88.1752 88.9616 88.5036 88.1055C83.0228 91.4597 73.558 90.7436 60.023 80.4335C55.5436 77.0201 51.7641 72.9176 48.7384 68.4006C46.0788 64.6157 43.7314 60.2063 41.9817 55.0917C40.0166 55.9316 38.256 56.836 36.7432 57.7244C38.536 63.9535 41.2172 69.2028 44.3129 73.6068C47.3386 78.1238 51.1127 82.2263 55.5975 85.6397C71.7114 97.9149 82.0591 96.5905 86.7808 90.9913L86.7862 90.9967Z" fill="url(#paint7_radial_3604_8518)"/>
<g style="mix-blend-mode:overlay" opacity="0.8">
<path d="M60.0223 80.4388C73.5573 90.7489 83.0221 91.4649 88.5029 88.1108C88.5837 87.9008 88.6483 87.6909 88.7129 87.4809C83.1998 90.6789 73.8103 89.8498 60.4638 79.6743C55.9844 76.2609 52.2049 72.1584 49.1792 67.6413C46.6057 63.9857 44.3337 59.7324 42.6055 54.8331C42.3955 54.9193 42.1909 55.0054 41.9863 55.0969C43.7361 60.2116 46.0781 64.621 48.7431 68.4059C51.7688 72.9229 55.5429 77.0254 60.0277 80.4388H60.0223Z" fill="white"/>
</g>
<path style="mix-blend-mode:overlay" opacity="0.3" d="M37.6041 42.7195C38.2179 42.4611 38.8424 42.2296 39.4616 42.0035C40.6191 33.0555 44.5009 21.9647 52.539 13.3667C49.5294 13.7974 46.5683 14.5081 43.7041 15.5095C36.7912 24.4359 34.4869 35.5321 34.5892 44.0601C35.5475 43.6079 36.5489 43.161 37.5988 42.7249L37.6041 42.7195Z" fill="url(#paint8_radial_3604_8518)"/>
<path style="mix-blend-mode:overlay" opacity="0.4" d="M39.4609 42.0034C39.7732 41.8903 40.0801 41.7719 40.3923 41.6642C41.6845 32.7216 45.7493 21.6739 53.9381 13.1943C53.4698 13.2482 53.0067 13.302 52.5383 13.372C44.5002 21.97 40.6131 33.0608 39.4609 42.0088V42.0034Z" fill="url(#paint9_linear_3604_8518)"/>
<path style="mix-blend-mode:multiply" opacity="0.4" d="M54.9937 0.138491C38.799 1.24218 24.5802 8.77959 14.6578 20.0857C14.5824 20.1718 14.507 20.258 14.4316 20.3441C16.3644 22.2608 22.6743 26.0403 25.2371 27.6123C30.2602 22.2069 36.5755 17.9914 43.7306 15.4825C44.2313 14.8364 44.7482 14.2011 45.2973 13.582C51.9626 6.06074 61.0613 2.08745 71.619 2.08745C72.7927 2.08745 75.1885 2.27589 75.237 2.27589C68.8356 0.439988 62.0196 -0.340672 54.9883 0.138491H54.9937Z" fill="url(#paint10_linear_3604_8518)"/>
<path style="mix-blend-mode:multiply" opacity="0.4" d="M62.1275 105.016C49.5777 105.872 37.8463 101.587 28.979 93.9792C28.1553 93.8661 27.3262 93.7315 26.4971 93.5646C16.65 91.5511 8.66033 85.6611 3.38414 76.5193C2.7973 75.5018 2.26968 74.4627 1.7959 73.4128C8.61187 100.585 34.0668 119.827 62.9997 117.862C63.1289 114.885 62.2513 107.972 62.1275 105.022V105.016Z" fill="url(#paint11_linear_3604_8518)"/>
<path style="mix-blend-mode:multiply" opacity="0.4" d="M117.856 54.9948C116.041 54.8117 107.19 55.5063 105.015 55.867C105.29 59.8672 105.037 63.7866 104.321 67.5553C104.627 68.3037 104.918 69.0682 105.177 69.8489C108.359 79.3783 107.249 89.2469 101.973 98.3887C101.397 99.3847 100.773 100.343 100.116 101.264C100.105 101.28 100.089 101.301 100.078 101.318C100.078 101.318 100.105 101.296 100.121 101.28C112.106 89.6238 119.083 72.9823 117.861 54.9948H117.856Z" fill="url(#paint12_linear_3604_8518)"/>
<path style="mix-blend-mode:multiply" opacity="0.5" d="M72.2283 15.3426C73.5205 15.4772 74.9041 15.7948 76.1478 16.2094C76.207 16.2309 76.2662 16.2471 76.3201 16.2632C81.4078 18.336 86.0649 21.3025 90.0812 24.9689C90.092 24.9743 90.0974 24.9797 90.1082 24.9904C92.0464 22.7777 95.772 20.3442 95.772 20.3442C95.772 20.3442 90.0651 14.5081 81.3325 12.6937C75.2218 11.4231 61.4391 10.1956 52.7441 24.9904C52.7441 24.9904 52.7764 24.9581 52.8303 24.9097C53.471 23.9352 54.1547 22.993 54.93 22.1208C59.1402 17.3723 65.3962 14.648 72.2283 15.3479V15.3426Z" fill="url(#paint13_linear_3604_8518)"/>
<path style="mix-blend-mode:multiply" opacity="0.5" d="M90.1831 92.2833C89.4186 93.3385 88.4549 94.3776 87.4697 95.2444C87.4266 95.2821 87.3781 95.3305 87.3351 95.3682C82.9957 98.7385 78.1017 101.285 72.9171 102.933C72.9063 102.933 72.8955 102.943 72.8848 102.943C73.8323 105.727 74.0746 110.168 74.0746 110.168C74.0746 110.168 81.9835 108.144 87.9165 101.49C92.0729 96.8326 100.03 85.5104 91.5614 70.5809C91.5614 70.5809 91.5722 70.6294 91.5883 70.694C92.1105 71.7385 92.5843 72.7991 92.9558 73.9082C94.964 79.9273 94.1941 86.711 90.1777 92.2725L90.1831 92.2833Z" fill="url(#paint14_linear_3604_8518)"/>
<path style="mix-blend-mode:multiply" opacity="0.5" d="M14.5773 69.3803C14.0443 68.1959 13.6297 66.8392 13.3713 65.5524C13.3605 65.4932 13.3443 65.434 13.3336 65.3748C12.5852 59.9317 12.8275 54.4186 13.9904 49.1047C13.9904 49.0939 13.9904 49.0832 13.9904 49.0724C11.1047 48.5017 7.13675 46.4882 7.13675 46.4882C7.13675 46.4882 4.93475 54.3486 7.72898 62.8174C9.68871 68.7451 15.514 81.2948 32.6724 81.4294C32.6724 81.4294 32.6293 81.4133 32.5594 81.3971C31.3964 81.3271 30.2335 81.2087 29.0922 80.9718C22.8738 79.7012 17.3876 75.6418 14.5773 69.3803Z" fill="url(#paint15_linear_3604_8518)"/>
<path style="mix-blend-mode:multiply" opacity="0.6" d="M69.7458 38.3908C70.2142 38.45 70.6826 38.4662 71.1456 38.4608C71.1456 38.4608 70.8388 32.3286 70.085 29.1844C69.3313 26.0402 68.2222 23.9567 67.0001 22.7776C66.1279 21.9324 63.366 20.8825 61.2232 27.3647C60.5287 32.7647 64.3458 37.7017 69.7458 38.3908Z" fill="url(#paint16_linear_3604_8518)"/>
<path style="mix-blend-mode:multiply" opacity="0.5" d="M35.7732 59.991C35.5902 59.5549 35.3695 59.1403 35.1326 58.7473C35.1326 58.7473 29.9802 62.0799 27.6328 64.3035C25.2855 66.527 24.0364 68.5298 23.6273 70.1773C23.3311 71.3563 23.7995 74.269 30.4863 72.8853C35.5094 70.7856 37.873 65.0141 35.7786 59.991H35.7732Z" fill="url(#paint17_linear_3604_8518)"/>
<path style="mix-blend-mode:multiply" opacity="0.6" d="M71.4681 78.6084C71.1828 78.9852 70.9351 79.3837 70.709 79.7821C70.709 79.7821 76.1736 82.5817 79.2693 83.5023C82.3704 84.423 84.7286 84.5037 86.3599 84.0353C87.5282 83.7015 89.8163 81.8387 85.2777 76.7402C80.9491 73.4399 74.763 74.2797 71.4681 78.6084Z" fill="url(#paint18_linear_3604_8518)"/>
<path style="mix-blend-mode:multiply" opacity="0.3" d="M69.3462 53.1913C68.1025 57.3153 66.3636 61.0517 64.2369 64.3574C64.1185 64.5297 64.0162 64.702 63.8977 64.8797C63.8977 64.885 63.887 64.8904 63.887 64.9012C62.4818 66.9309 60.8074 68.9337 58.8369 70.8719C60.1883 72.3094 61.6473 73.6984 63.2517 75.0175C65.2652 76.6057 67.2411 77.8871 69.0286 78.8992C73.5295 74.2314 76.7329 69.289 78.9995 64.4005C79.8878 62.5969 80.6685 60.7341 81.3468 58.8174C79.2687 57.2884 77.169 56.0717 75.2308 55.2479C73.228 54.3919 71.2683 53.7243 69.3516 53.1967L69.3462 53.1913Z" fill="url(#paint19_linear_3604_8518)"/>
<path style="mix-blend-mode:multiply" opacity="0.3" d="M28.979 93.9793C40.1666 95.503 50.929 91.955 58.2564 87.5995C57.3842 86.9911 56.5013 86.3504 55.5914 85.6613C52.7595 83.5077 50.2129 81.0742 47.9625 78.4415C42.4494 80.8535 35.5096 82.2694 29.0705 80.9558C22.8521 79.6852 17.366 75.6257 14.5556 69.3643C14.0226 68.1799 13.608 66.8231 13.3496 65.5364C14.9755 76.9394 20.7309 86.9049 28.979 93.9847V93.9793Z" fill="url(#paint20_linear_3604_8518)"/>
<path style="mix-blend-mode:multiply" opacity="0.3" d="M58.8326 70.8663C55.8876 67.7329 53.5187 64.3572 51.7259 60.8631C51.6344 60.6746 51.5375 60.497 51.4459 60.3085C51.4459 60.3031 51.4406 60.2924 51.4352 60.287C50.3799 58.0527 49.4808 55.5976 48.7917 52.9272C46.875 53.3795 44.9476 53.9448 43.004 54.6716C40.6244 55.6192 38.5354 56.6852 36.7695 57.7243C38.5624 63.9534 41.222 69.2188 44.3177 73.6228C45.4322 75.2864 46.6543 76.8962 47.968 78.436C50.3315 77.4023 52.442 76.1855 54.1271 74.9203C55.8661 73.6121 57.422 72.2553 58.838 70.8663H58.8326Z" fill="url(#paint21_linear_3604_8518)"/>
<path style="mix-blend-mode:multiply" opacity="0.3" d="M43.6982 15.5255C36.7853 24.452 34.481 35.5481 34.5833 44.0708C35.547 43.6185 36.5484 43.1716 37.6037 42.7302C40.8824 41.3573 44.2527 40.372 47.6607 39.7314C48.3283 33.7499 50.5734 27.0362 54.9289 22.1207C59.1391 17.3722 65.3952 14.6479 72.2273 15.3478C73.5194 15.4824 74.9031 15.8001 76.1467 16.2146C76.206 16.2362 76.2652 16.2523 76.319 16.2685C70.0307 13.7058 63.0801 12.4944 55.8604 12.9843C51.6179 13.2751 47.5584 14.1419 43.7251 15.4824C43.7144 15.4986 43.7036 15.5094 43.6928 15.5255H43.6982Z" fill="url(#paint22_linear_3604_8518)"/>
<path style="mix-blend-mode:multiply" opacity="0.3" d="M104.298 67.4907C100.023 57.0352 91.5599 49.4871 84.1194 45.3199C84.0279 46.3806 83.9148 47.4735 83.7694 48.6095C83.3172 52.1359 82.4881 55.5493 81.3359 58.8173C86.1868 62.3868 90.8869 67.6899 92.9651 73.9244C94.9733 79.9436 94.2034 86.7272 90.187 92.2888C89.4225 93.344 88.4588 94.3831 87.4735 95.2499C87.4574 95.2607 87.4466 95.2768 87.4305 95.2876C96.0931 88.4824 102.22 78.6676 104.32 67.5553C104.309 67.5338 104.304 67.5122 104.293 67.4907H104.298Z" fill="url(#paint23_linear_3604_8518)"/>
<path style="mix-blend-mode:multiply" opacity="0.3" d="M47.6297 46.8274C47.8935 48.9863 48.2865 51.0107 48.7872 52.9327C52.9812 51.9475 57.0891 51.5814 61.0193 51.7752C61.2293 51.7913 61.4285 51.7913 61.6385 51.8129C61.6439 51.8129 61.6546 51.8129 61.66 51.8129C64.1204 52.0175 66.6885 52.4643 69.3428 53.1965C69.9135 51.3122 70.3819 49.3524 70.7264 47.3066C71.0979 44.7654 71.2164 42.4126 71.2002 40.356C64.9119 38.8001 59.0327 38.4932 53.6704 38.9724C51.6676 39.107 49.6594 39.36 47.6674 39.7315C47.382 42.2996 47.3766 44.7331 47.6297 46.8274Z" fill="url(#paint24_linear_3604_8518)"/>
<path d="M295.836 43.8177L288.25 64.9602H288.304L295.884 43.9416L295.836 43.8177Z" fill="white"/>
<path d="M161.057 43.8177L153.471 64.9602H153.492L161.083 43.8985L161.057 43.8177Z" fill="white"/>
<path d="M162.951 49.0995L168.647 64.9603H157.233L154.353 72.9553H171.559L176.437 86.5065H187.35L167.457 36.6089L162.951 49.0995Z" fill="white"/>
<path d="M153.47 64.9602L161.056 43.8178L161.083 43.8985L164.292 35.0098H155.909L135.445 86.5064H145.723L153.492 64.9602H153.47Z" fill="white"/>
<path d="M220.419 59.9803C217.932 58.5158 214.637 57.1483 210.523 55.8831C208.176 55.1186 206.335 54.4026 205 53.7457C203.664 53.0943 202.738 52.3459 202.222 51.5114C201.699 50.6769 201.441 49.6917 201.441 48.5611C201.441 46.5744 202.211 45.04 203.745 43.9525C205.28 42.8703 207.428 42.3266 210.184 42.3266C212.446 42.3266 214.804 42.6657 217.264 43.3441C219.724 44.0225 221.905 44.9485 223.805 46.1222L225.227 37.788C223.283 36.6143 220.925 35.6775 218.147 34.9776C215.369 34.2777 212.602 33.9277 209.845 33.9277C206.093 33.9277 202.841 34.5361 200.09 35.7582C197.333 36.9804 195.201 38.7194 193.688 40.9752C192.175 43.2364 191.416 45.9014 191.416 48.9702C191.416 51.5922 191.928 53.8588 192.94 55.7808C193.957 57.7029 195.616 59.3611 197.92 60.7609C200.224 62.1607 203.25 63.4259 207.002 64.5565C209.711 65.3695 211.816 66.1394 213.307 66.8608C214.798 67.5823 215.837 68.3845 216.424 69.2674C217.011 70.1504 217.307 71.2002 217.307 72.417C217.307 74.5436 216.435 76.2018 214.696 77.397C212.957 78.5923 210.55 79.1899 207.482 79.1899C204.817 79.1899 202.028 78.7753 199.115 77.9354C196.202 77.1009 193.661 76.0295 191.492 74.7159L190.544 83.3193C191.809 84.1807 193.392 84.9237 195.287 85.5536C197.182 86.1835 199.228 86.6842 201.419 87.0449C203.611 87.4057 205.791 87.5887 207.955 87.5887C214.055 87.5887 218.842 86.1997 222.32 83.4216C225.797 80.6435 227.536 76.7941 227.536 71.8678C227.536 69.2459 226.971 66.9793 225.841 65.0572C224.71 63.1352 222.906 61.4447 220.419 59.9749V59.9803Z" fill="white"/>
<path d="M274.493 35.0098H230.922V43.4086H274.493V35.0098Z" fill="white"/>
<path d="M257.89 46.9242H247.521V86.5064H257.89V46.9242Z" fill="white"/>
<path d="M288.25 64.9602L295.836 43.8178L295.884 43.9416L299.104 35.0098H290.689L270.225 86.5064H280.524L285.402 72.9552H285.423L288.304 64.9602H288.25Z" fill="white"/>
<path d="M297.747 49.1424L303.427 64.9602H292.045L289.165 72.9552H306.34L311.217 86.5064H322.13L302.253 36.6519L297.747 49.1424Z" fill="white"/>
<path d="M355.671 65.6387C358.159 64.2389 360.188 62.3545 361.771 59.9803C363.354 57.6114 364.146 54.8441 364.146 51.6783C364.146 48.2434 363.376 45.2877 361.841 42.8003C360.307 40.3184 358.116 38.3964 355.268 37.0396C352.419 35.6829 349.033 35.0045 345.103 35.0045H341.501V42.8003H343.746C350.61 42.8003 354.045 45.7346 354.045 51.6084C354.045 57.4821 350.497 60.4164 343.407 60.4164H341.501V68.2068H346.793L357.636 86.5012H369.222L355.671 65.6279V65.6387Z" fill="white"/>
<path d="M337.98 35.0098H328.16V86.5118H337.98V35.0098Z" fill="white"/>
<path d="M395.162 44.8891L400.81 39.6775C404.239 36.6949 406.888 34.1375 408.751 32.0001C410.619 29.8628 411.911 27.9138 412.638 26.1425C413.36 24.3766 413.72 22.5892 413.72 20.7909C413.72 17.9644 412.994 15.4771 411.54 13.3289C410.086 11.1861 408.04 9.51175 405.397 8.31115C402.753 7.11055 399.642 6.51294 396.056 6.51294C392.47 6.51294 389.536 7.14824 386.914 8.41344C384.292 9.68403 382.263 11.4822 380.814 13.8188C379.371 16.1554 378.645 18.9281 378.645 22.1423H389.461C389.461 20.7156 389.735 19.4988 390.279 18.4974C390.823 17.496 391.587 16.7315 392.573 16.2039C393.558 15.6763 394.699 15.4071 396.007 15.4071C397.316 15.4071 398.446 15.6601 399.442 16.1662C400.444 16.6723 401.224 17.3937 401.795 18.3251C402.366 19.2565 402.651 20.371 402.651 21.6793C402.651 22.8476 402.414 23.9297 401.935 24.9204C401.456 25.911 400.767 26.8962 399.857 27.8707C398.952 28.8452 397.849 29.9166 396.562 31.0849L379.339 46.1651V54.3755H414.296V45.1745H395.157V44.873L395.162 44.8891ZM424.617 43.1394C422.959 43.1394 421.538 43.7208 420.364 44.8784C419.19 46.0413 418.609 47.4357 418.625 49.0616C418.609 50.7198 419.19 52.1358 420.364 53.3041C421.543 54.4724 422.959 55.0592 424.617 55.0592C425.678 55.0592 426.658 54.79 427.557 54.2517C428.456 53.7133 429.188 52.9918 429.748 52.082C430.308 51.1775 430.599 50.1653 430.615 49.0616C430.599 47.4303 429.99 46.0359 428.784 44.8784C427.578 43.7154 426.189 43.1394 424.623 43.1394H424.617ZM469.185 17.6575C467.57 14.0288 465.271 11.2669 462.277 9.36639C459.289 7.46588 455.731 6.51832 451.612 6.51832C447.493 6.51832 443.945 7.46588 440.968 9.36639C437.996 11.2669 435.703 14.0234 434.098 17.6468C432.494 21.2647 431.681 25.6687 431.665 30.848C431.649 36.0273 432.451 40.4582 434.061 44.1408C435.676 47.8233 437.975 50.6445 440.952 52.6042C443.935 54.5639 447.488 55.5438 451.607 55.5438C455.725 55.5438 459.295 54.5693 462.272 52.6257C465.249 50.6822 467.543 47.8664 469.158 44.1731C470.773 40.4851 471.581 36.0434 471.581 30.8426C471.597 25.6795 470.795 21.2809 469.185 17.6522V17.6575ZM457.588 42.4341C456.064 44.9483 454.078 46.2028 451.617 46.2028C449.986 46.2028 448.549 45.6482 447.305 44.5338C446.061 43.4193 445.098 41.7234 444.414 39.4514C443.73 37.174 443.396 34.3098 443.412 30.8534C443.429 25.7495 444.188 21.9646 445.695 19.4988C447.203 17.033 449.179 15.8001 451.623 15.8001C453.27 15.8001 454.702 16.3439 455.935 17.4368C457.168 18.5297 458.127 20.1826 458.816 22.4061C459.51 24.6296 459.855 27.4454 459.855 30.8588C459.871 36.0703 459.117 39.9306 457.594 42.4448L457.588 42.4341Z" fill="#03E2FE"/>
<defs>
<linearGradient id="paint0_linear_3604_8518" x1="18.7335" y1="99.2608" x2="93.9676" y2="24.0321" gradientUnits="userSpaceOnUse">
<stop stop-color="#E6007A"/>
<stop offset="0.21" stop-color="#703AC2"/>
<stop offset="0.46" stop-color="#006BE7"/>
<stop offset="0.77" stop-color="#0094F8"/>
<stop offset="1" stop-color="#03E2FE"/>
</linearGradient>
<radialGradient id="paint1_radial_3604_8518" cx="0" cy="0" r="1" gradientUnits="userSpaceOnUse" gradientTransform="translate(75.8134 47.0535) scale(22.4346 22.4346)">
<stop stop-color="white"/>
<stop offset="1" stop-color="white" stop-opacity="0"/>
</radialGradient>
<radialGradient id="paint2_radial_3604_8518" cx="0" cy="0" r="1" gradientUnits="userSpaceOnUse" gradientTransform="translate(42.6533 88.6709) scale(13.0505)">
<stop stop-color="white"/>
<stop offset="1" stop-color="white" stop-opacity="0"/>
</radialGradient>
<linearGradient id="paint3_linear_3604_8518" x1="23.0673" y1="86.4633" x2="35.6494" y2="86.2856" gradientUnits="userSpaceOnUse">
<stop stop-color="white" stop-opacity="0"/>
<stop offset="1" stop-color="white"/>
</linearGradient>
<radialGradient id="paint4_radial_3604_8518" cx="0" cy="0" r="1" gradientUnits="userSpaceOnUse" gradientTransform="translate(40.2443 50.4064) rotate(-120) scale(22.4346)">
<stop stop-color="white"/>
<stop offset="1" stop-color="white" stop-opacity="0"/>
</radialGradient>
<radialGradient id="paint5_radial_3604_8518" cx="0" cy="0" r="1" gradientUnits="userSpaceOnUse" gradientTransform="translate(92.8616 58.3171) rotate(-120) scale(13.0505)">
<stop stop-color="white"/>
<stop offset="1" stop-color="white" stop-opacity="0"/>
</radialGradient>
<linearGradient id="paint6_linear_3604_8518" x1="100.743" y1="76.3831" x2="94.3024" y2="65.5729" gradientUnits="userSpaceOnUse">
<stop stop-color="white" stop-opacity="0"/>
<stop offset="1" stop-color="white"/>
</linearGradient>
<radialGradient id="paint7_radial_3604_8518" cx="0" cy="0" r="1" gradientUnits="userSpaceOnUse" gradientTransform="translate(59.8698 78.4968) rotate(120) scale(22.4346)">
<stop stop-color="white"/>
<stop offset="1" stop-color="white" stop-opacity="0"/>
</radialGradient>
<radialGradient id="paint8_radial_3604_8518" cx="0" cy="0" r="1" gradientUnits="userSpaceOnUse" gradientTransform="translate(41.4692 30.0072) rotate(120) scale(13.0505)">
<stop stop-color="white"/>
<stop offset="1" stop-color="white" stop-opacity="0"/>
</radialGradient>
<linearGradient id="paint9_linear_3604_8518" x1="53.1734" y1="14.1484" x2="47.0363" y2="25.1336" gradientUnits="userSpaceOnUse">
<stop stop-color="white" stop-opacity="0"/>
<stop offset="1" stop-color="white"/>
</linearGradient>
<linearGradient id="paint10_linear_3604_8518" x1="55.9035" y1="8.56962" x2="36.6831" y2="14.1581" gradientUnits="userSpaceOnUse">
<stop stop-color="#231F20"/>
<stop offset="1" stop-color="white"/>
</linearGradient>
<linearGradient id="paint11_linear_3604_8518" x1="19.5842" y1="81.8709" x2="35.6604" y2="98.647" gradientUnits="userSpaceOnUse">
<stop stop-color="#231F20"/>
<stop offset="1" stop-color="white"/>
</linearGradient>
<linearGradient id="paint12_linear_3604_8518" x1="105.86" y1="79.346" x2="111.449" y2="62.3384" gradientUnits="userSpaceOnUse">
<stop stop-color="#231F20"/>
<stop offset="1" stop-color="white"/>
</linearGradient>
<linearGradient id="paint13_linear_3604_8518" x1="64.664" y1="18.2929" x2="90.4312" y2="24.1936" gradientUnits="userSpaceOnUse">
<stop stop-color="#231F20"/>
<stop offset="1" stop-color="white"/>
</linearGradient>
<linearGradient id="paint14_linear_3604_8518" x1="91.4136" y1="84.2564" x2="73.4199" y2="103.621" gradientUnits="userSpaceOnUse">
<stop stop-color="#231F20"/>
<stop offset="1" stop-color="white"/>
</linearGradient>
<linearGradient id="paint15_linear_3604_8518" x1="20.9163" y1="74.4557" x2="13.1429" y2="49.1903" gradientUnits="userSpaceOnUse">
<stop stop-color="#231F20"/>
<stop offset="1" stop-color="white"/>
</linearGradient>
<linearGradient id="paint16_linear_3604_8518" x1="70.295" y1="27.7954" x2="62.1438" y2="35.9519" gradientUnits="userSpaceOnUse">
<stop stop-color="#231F20"/>
<stop offset="1" stop-color="white"/>
</linearGradient>
<linearGradient id="paint17_linear_3604_8518" x1="26.3264" y1="64.8146" x2="37.4611" y2="67.7981" gradientUnits="userSpaceOnUse">
<stop stop-color="#231F20"/>
<stop offset="1" stop-color="white"/>
</linearGradient>
<linearGradient id="paint18_linear_3604_8518" x1="80.3679" y1="84.3825" x2="77.3797" y2="73.2451" gradientUnits="userSpaceOnUse">
<stop stop-color="#231F20"/>
<stop offset="1" stop-color="white"/>
</linearGradient>
<linearGradient id="paint19_linear_3604_8518" x1="63.4078" y1="74.4737" x2="68.3017" y2="67.7223" gradientUnits="userSpaceOnUse">
<stop stop-color="#231F20"/>
<stop offset="1" stop-color="white"/>
</linearGradient>
<linearGradient id="paint20_linear_3604_8518" x1="46.5627" y1="71.5502" x2="36.7802" y2="76.2126" gradientUnits="userSpaceOnUse">
<stop stop-color="#231F20"/>
<stop offset="1" stop-color="white"/>
</linearGradient>
<linearGradient id="paint21_linear_3604_8518" x1="43.0148" y1="55.2638" x2="46.0405" y2="61.5522" gradientUnits="userSpaceOnUse">
<stop stop-color="#231F20"/>
<stop offset="1" stop-color="white"/>
</linearGradient>
<linearGradient id="paint22_linear_3604_8518" x1="57.0986" y1="35.8388" x2="55.0043" y2="28.6137" gradientUnits="userSpaceOnUse">
<stop stop-color="#231F20"/>
<stop offset="1" stop-color="white"/>
</linearGradient>
<linearGradient id="paint23_linear_3604_8518" x1="79.6992" y1="68.9013" x2="85.7561" y2="70.3011" gradientUnits="userSpaceOnUse">
<stop stop-color="#231F20"/>
<stop offset="1" stop-color="white"/>
</linearGradient>
<linearGradient id="paint24_linear_3604_8518" x1="70.1934" y1="48.4426" x2="62.5053" y2="47.0428" gradientUnits="userSpaceOnUse">
<stop stop-color="#231F20"/>
<stop offset="1" stop-color="white"/>
</linearGradient>
</defs>
</svg>
