<svg width="250" height="250" viewBox="0 0 250 250" fill="none" xmlns="http://www.w3.org/2000/svg">
<path d="M67.1276 168.08L44.2852 181.361L67.2759 194.643L90.1183 181.361L67.1276 168.08Z" fill="url(#paint0_radial_3447_6549)" stroke="#29256A" stroke-width="0.5" stroke-linejoin="round"/>
<path d="M67.2758 194.643L67.2017 221.074L90.0428 207.793L90.1182 181.361L67.2758 194.643Z" fill="url(#paint1_radial_3447_6549)" stroke="#29256A" stroke-width="0.5" stroke-linejoin="round"/>
<path d="M44.2849 181.361L44.2472 194.578L44.2095 207.793L67.2015 221.074L67.2756 194.643L44.2849 181.361Z" fill="url(#paint2_radial_3447_6549)" stroke="#29256A" stroke-width="0.5" stroke-linejoin="round"/>
<path d="M90.4785 181.381C90.4473 181.308 90.3965 181.244 90.3263 181.204L67.424 167.973C67.3095 167.906 67.1664 167.906 67.0545 167.973L44.3136 181.196C44.2472 181.234 44.1991 181.292 44.1666 181.359C44.1094 181.424 44.0742 181.508 44.0742 181.598L44.0001 207.922C43.9975 208.057 44.069 208.182 44.1848 208.247L67.0884 221.478C67.1456 221.511 67.208 221.528 67.2718 221.528C67.2874 221.528 67.303 221.524 67.3186 221.521C67.3329 221.522 67.3473 221.526 67.3603 221.526C67.424 221.526 67.4891 221.509 67.5463 221.477L90.3015 208.245C90.4121 208.18 90.4798 208.062 90.4824 207.928L90.5566 181.601C90.5566 181.519 90.5279 181.443 90.4811 181.379L90.4785 181.381ZM67.2393 168.615L89.5834 181.523L67.3876 194.429L46.1701 182.172L45.0434 181.521L67.2393 168.615ZM44.7195 182.082L67.0637 194.99L67.022 209.85L66.9908 220.675L44.6466 207.767L44.7195 182.082ZM89.8319 207.767L67.6387 220.671L67.6725 208.849L67.7115 194.99L85.0391 184.915L89.9035 182.086L89.8306 207.767H89.8319Z" fill="#29256A"/>
<path d="M102.299 70.1941L79.458 83.4757L102.449 96.7573L125.291 83.4757L102.299 70.1941Z" fill="url(#paint3_radial_3447_6549)" stroke="#29256A" stroke-width="0.5" stroke-linejoin="round"/>
<path d="M102.449 96.7572L102.375 123.19L125.216 109.907L125.291 83.4756L102.449 96.7572Z" fill="url(#paint4_radial_3447_6549)" stroke="#29256A" stroke-width="0.5" stroke-linejoin="round"/>
<path d="M79.4583 83.4756L79.4205 96.6921L79.3828 109.909L102.375 123.19L102.449 96.7572L79.4583 83.4756Z" fill="url(#paint5_radial_3447_6549)" stroke="#29256A" stroke-width="0.5" stroke-linejoin="round"/>
<path d="M125.652 83.4953C125.621 83.4224 125.57 83.3586 125.5 83.3182L102.597 70.0874C102.483 70.021 102.34 70.021 102.228 70.0874L79.4869 83.3104C79.4206 83.3482 79.3724 83.4067 79.3399 83.4731C79.2827 83.5382 79.2475 83.6228 79.2475 83.7126L79.1734 110.036C79.1708 110.172 79.2423 110.297 79.3581 110.362L102.262 123.593C102.319 123.625 102.381 123.642 102.445 123.642C102.461 123.642 102.476 123.638 102.492 123.636C102.506 123.637 102.521 123.641 102.534 123.641C102.597 123.641 102.662 123.624 102.72 123.591L125.475 110.359C125.585 110.294 125.653 110.177 125.656 110.043L125.73 83.7153C125.73 83.6332 125.701 83.5577 125.654 83.494L125.652 83.4953ZM102.413 70.7291L124.757 83.6371L102.561 96.5438L81.3434 84.2867L80.2168 83.6358L102.413 70.7291ZM79.8928 84.1969L102.237 97.1049L102.195 111.964L102.164 122.789L79.82 109.881L79.8928 84.1969ZM125.005 109.881L102.812 122.786L102.846 110.963L102.885 97.1049L120.212 87.0295L125.077 84.2008L125.004 109.881H125.005Z" fill="#29256A"/>
<path d="M67.2031 129.25L44.3607 142.533L67.3514 155.815L90.1939 142.533L67.2031 129.25Z" fill="url(#paint6_radial_3447_6549)" stroke="#29256A" stroke-width="0.5" stroke-linejoin="round"/>
<path d="M67.3514 155.815L67.2772 182.247L90.1183 168.965L90.1938 142.533L67.3514 155.815Z" fill="url(#paint7_radial_3447_6549)" stroke="#29256A" stroke-width="0.5" stroke-linejoin="round"/>
<path d="M44.3606 142.533L44.3229 155.748L44.2852 168.965L67.2772 182.247L67.3513 155.815L44.3606 142.533Z" fill="url(#paint8_radial_3447_6549)" stroke="#29256A" stroke-width="0.5" stroke-linejoin="round"/>
<path d="M90.5541 142.552C90.5228 142.479 90.4721 142.416 90.4018 142.375L67.4996 129.145C67.3851 129.078 67.242 129.078 67.1301 129.145L44.3892 142.368C44.3228 142.405 44.2747 142.464 44.2422 142.53C44.1849 142.595 44.1498 142.68 44.1498 142.77L44.0756 169.093C44.073 169.229 44.1446 169.354 44.2604 169.419L67.1639 182.65C67.2212 182.682 67.2836 182.699 67.3474 182.699C67.363 182.699 67.3786 182.695 67.3942 182.693C67.4085 182.694 67.4228 182.698 67.4358 182.698C67.4996 182.698 67.5646 182.681 67.6219 182.648L90.3771 169.416C90.4877 169.351 90.5554 169.234 90.558 169.1L90.6321 142.772C90.6321 142.69 90.6035 142.615 90.5567 142.551L90.5541 142.552ZM67.3148 129.786L89.659 142.694L67.4632 155.601L46.2456 143.344L45.119 142.693L67.3148 129.786ZM44.7951 143.254L67.1392 156.162L67.0976 171.021L67.0664 181.847L44.7222 168.939L44.7951 143.254ZM89.9075 168.939L67.7142 181.843L67.7481 170.02L67.7871 156.162L85.1147 146.087L89.979 143.258L89.9062 168.939H89.9075Z" fill="#29256A"/>
<path d="M137.571 173.264L114.729 186.546L137.719 199.828L160.562 186.546L137.571 173.264Z" fill="url(#paint9_radial_3447_6549)" stroke="#29256A" stroke-width="0.5" stroke-linejoin="round"/>
<path d="M137.719 199.828L137.645 226.259L160.486 212.978L160.562 186.546L137.719 199.828Z" fill="url(#paint10_radial_3447_6549)" stroke="#29256A" stroke-width="0.5" stroke-linejoin="round"/>
<path d="M114.728 186.546L114.691 199.763L114.653 212.978L137.645 226.259L137.719 199.828L114.728 186.546Z" fill="url(#paint11_radial_3447_6549)" stroke="#29256A" stroke-width="0.5" stroke-linejoin="round"/>
<path d="M160.922 186.565C160.891 186.492 160.84 186.429 160.77 186.388L137.868 173.157C137.753 173.091 137.61 173.091 137.498 173.157L114.757 186.38C114.691 186.418 114.643 186.477 114.61 186.543C114.553 186.608 114.518 186.693 114.518 186.783L114.444 213.106C114.441 213.242 114.512 213.367 114.628 213.432L137.532 226.663C137.589 226.695 137.652 226.712 137.715 226.712C137.731 226.712 137.747 226.708 137.762 226.706C137.776 226.707 137.791 226.711 137.804 226.711C137.868 226.711 137.933 226.694 137.99 226.661L160.745 213.429C160.856 213.364 160.923 213.247 160.926 213.113L161 186.785C161 186.703 160.971 186.628 160.925 186.564L160.922 186.565ZM137.683 173.799L160.027 186.707L137.831 199.614L116.614 187.357L115.487 186.706L137.683 173.799ZM115.163 187.267L137.507 200.175L137.465 215.034L137.434 225.859L115.09 212.951L115.163 187.267ZM160.275 212.951L138.082 225.856L138.116 214.033L138.155 200.175L155.483 190.1L160.347 187.271L160.274 212.951H160.275Z" fill="#29256A"/>
<path d="M102.473 192.321L79.631 205.603L102.623 218.885L125.464 205.602L102.473 192.321Z" fill="url(#paint12_radial_3447_6549)" stroke="#29256A" stroke-width="0.5" stroke-linejoin="round"/>
<path d="M102.623 218.885L102.547 245.317L125.39 232.035L125.464 205.602L102.623 218.885Z" fill="url(#paint13_radial_3447_6549)" stroke="#29256A" stroke-width="0.5" stroke-linejoin="round"/>
<path d="M79.6313 205.604L79.5936 218.819L79.5571 232.035L102.548 245.317L102.623 218.885L79.6313 205.604Z" fill="url(#paint14_radial_3447_6549)" stroke="#29256A" stroke-width="0.5" stroke-linejoin="round"/>
<path d="M125.826 205.623C125.795 205.55 125.744 205.486 125.674 205.446L102.772 192.215C102.657 192.149 102.514 192.149 102.402 192.215L79.6613 205.438C79.5962 205.476 79.5468 205.534 79.5143 205.601C79.457 205.666 79.4219 205.751 79.4219 205.84L79.3477 232.164C79.3451 232.299 79.4167 232.424 79.5325 232.489L102.436 245.72C102.493 245.753 102.556 245.77 102.619 245.77C102.635 245.77 102.651 245.766 102.666 245.763C102.681 245.765 102.695 245.768 102.708 245.768C102.772 245.768 102.837 245.752 102.894 245.719L125.649 232.487C125.76 232.422 125.827 232.305 125.83 232.171L125.904 205.843C125.904 205.761 125.876 205.685 125.829 205.622L125.826 205.623ZM102.587 192.857L124.931 205.765L102.735 218.672L81.5177 206.414L80.3911 205.764L102.587 192.857ZM80.0672 206.325L102.411 219.233L102.37 234.092L102.338 244.917L79.9943 232.009L80.0672 206.325ZM125.18 232.009L102.986 244.913L103.02 233.091L103.059 219.233L120.387 209.157L125.251 206.328L125.178 232.009H125.18Z" fill="#29256A"/>
<path d="M137.054 134.271L114.212 147.552L137.204 160.834L160.045 147.552L137.054 134.271Z" fill="url(#paint15_radial_3447_6549)" stroke="#29256A" stroke-width="0.5" stroke-linejoin="round"/>
<path d="M137.204 160.834L137.129 187.267L159.971 173.984L160.045 147.552L137.204 160.834Z" fill="url(#paint16_radial_3447_6549)" stroke="#29256A" stroke-width="0.5" stroke-linejoin="round"/>
<path d="M114.212 147.552L114.175 160.769L114.138 173.984L137.129 187.267L137.204 160.834L114.212 147.552Z" fill="url(#paint17_radial_3447_6549)" stroke="#29256A" stroke-width="0.5" stroke-linejoin="round"/>
<path d="M160.478 147.458C160.447 147.385 160.397 147.321 160.326 147.281L137.424 134.05C137.31 133.983 137.166 133.983 137.055 134.05L114.314 147.273C114.247 147.311 114.199 147.369 114.167 147.436C114.109 147.501 114.074 147.585 114.074 147.675L114 173.999C113.997 174.134 114.069 174.259 114.185 174.324L137.088 187.555C137.146 187.588 137.208 187.604 137.272 187.604C137.287 187.604 137.303 187.601 137.319 187.598C137.333 187.599 137.347 187.603 137.36 187.603C137.424 187.603 137.489 187.586 137.546 187.554L160.302 174.322C160.412 174.256 160.48 174.139 160.482 174.005L160.557 147.678C160.557 147.596 160.528 147.52 160.481 147.456L160.478 147.458ZM137.239 134.692L159.583 147.6L137.388 160.506L116.17 148.249L115.043 147.598L137.239 134.692ZM114.72 148.159L137.064 161.067L137.022 175.927L136.991 186.752L114.647 173.844L114.72 148.159ZM159.832 173.844L137.639 186.748L137.672 174.926L137.712 161.067L155.039 150.992L159.903 148.163L159.831 173.844H159.832Z" fill="#29256A"/>
<path d="M102.473 153.41L79.631 166.692L102.623 179.973L125.464 166.692L102.473 153.41Z" fill="url(#paint18_radial_3447_6549)" stroke="#29256A" stroke-width="0.5" stroke-linejoin="round"/>
<path d="M102.623 179.973L102.547 206.407L125.39 193.124L125.464 166.692L102.623 179.973Z" fill="url(#paint19_radial_3447_6549)" stroke="#29256A" stroke-width="0.5" stroke-linejoin="round"/>
<path d="M79.6313 166.692L79.5936 179.908L79.5571 193.124L102.548 206.407L102.623 179.973L79.6313 166.692Z" fill="url(#paint20_radial_3447_6549)" stroke="#29256A" stroke-width="0.5" stroke-linejoin="round"/>
<path d="M125.826 166.712C125.795 166.639 125.744 166.575 125.674 166.535L102.772 153.304C102.657 153.237 102.514 153.237 102.402 153.304L79.6613 166.527C79.5962 166.564 79.5468 166.623 79.5143 166.689C79.457 166.755 79.4219 166.839 79.4219 166.929L79.3477 193.253C79.3451 193.388 79.4167 193.513 79.5325 193.578L102.436 206.809C102.493 206.841 102.556 206.858 102.619 206.858C102.635 206.858 102.651 206.854 102.666 206.852C102.681 206.853 102.695 206.857 102.708 206.857C102.772 206.857 102.837 206.84 102.894 206.808L125.649 193.575C125.76 193.51 125.827 193.393 125.83 193.259L125.904 166.932C125.904 166.85 125.876 166.773 125.829 166.71L125.826 166.712ZM102.587 153.945L124.931 166.853L102.735 179.76L81.5177 167.503L80.3911 166.852L102.587 153.945ZM80.0672 167.413L102.411 180.321L102.37 195.181L102.338 206.006L79.9943 193.098L80.0672 167.413ZM125.18 193.098L102.986 206.002L103.02 194.179L103.059 180.321L120.387 170.246L125.251 167.417L125.178 193.098H125.18Z" fill="#29256A"/>
<path d="M215.734 138.108C215.504 137.975 215.202 137.96 214.86 138.089C212.41 139.009 209.881 139.816 207.312 140.478C196.788 143.196 187.947 142.949 183.288 140.246C183.083 140.128 182.817 140.164 182.551 140.319L193.25 146.539C193.517 146.385 193.784 146.349 193.987 146.466C198.647 149.17 207.488 149.415 218.011 146.699C220.579 146.037 223.109 145.229 225.559 144.31C225.9 144.181 226.201 144.196 226.432 144.329L215.734 138.108Z" fill="url(#paint21_linear_3447_6549)" stroke="#29256A" stroke-width="0.5"/>
<path d="M159.793 217.328L159.699 184.193L149 177.972L149.094 211.107C149.132 224.059 154.718 235.972 163.254 240.935L173.953 247.155C165.416 242.191 159.83 230.28 159.793 217.328Z" fill="url(#paint22_linear_3447_6549)" stroke="#29256A" stroke-width="0.5"/>
<path d="M182.55 140.319C182.283 140.473 182.016 140.744 181.815 141.097C177.185 149.167 168.377 159.609 157.87 169.04C155.307 171.343 152.78 173.455 150.334 175.365C149.56 175.968 148.997 177.065 149 177.97L159.699 184.191C159.695 183.286 160.258 182.189 161.032 181.585C163.479 179.676 166.005 177.564 168.569 175.26C179.075 165.828 187.884 155.387 192.513 147.318C192.716 146.964 192.982 146.693 193.248 146.54L182.55 140.319Z" fill="url(#paint23_radial_3447_6549)" stroke="#29256A" stroke-width="0.5"/>
<path d="M226.904 145.368C226.9 144.463 226.334 144.017 225.558 144.31C223.109 145.229 220.579 146.037 218.011 146.699C207.486 149.417 198.645 149.17 193.987 146.466C193.782 146.349 193.515 146.385 193.25 146.539C192.985 146.694 192.716 146.964 192.515 147.317C187.885 155.387 179.077 165.83 168.57 175.26C166.007 177.563 163.48 179.676 161.034 181.585C160.26 182.189 159.697 183.286 159.7 184.191L159.794 217.326C159.855 238.664 174.976 257.177 193.534 246.455C212.093 235.734 227.06 199.839 227 178.501L226.905 145.366L226.904 145.368Z" fill="url(#paint24_radial_3447_6549)" stroke="#29256A" stroke-width="0.5"/>
<path opacity="0.47" d="M226.904 145.368C226.9 144.463 226.334 144.017 225.558 144.31C223.109 145.229 220.579 146.037 218.011 146.699C207.486 149.417 198.645 149.17 193.987 146.466C193.782 146.349 193.515 146.385 193.25 146.539C192.985 146.694 192.716 146.964 192.515 147.317C187.885 155.387 179.077 165.83 168.57 175.26C166.007 177.563 163.48 179.676 161.034 181.585C160.26 182.189 159.697 183.286 159.7 184.191L159.794 217.326C159.832 230.624 165.719 242.823 174.642 247.535C167.096 242.043 162.259 230.895 162.225 218.845L162.13 185.71C162.127 184.805 162.69 183.708 163.464 183.104C165.911 181.195 168.437 179.082 171 176.779C181.507 167.347 190.315 156.906 194.945 148.836C195.148 148.483 195.413 148.211 195.68 148.058C195.947 147.903 196.214 147.868 196.417 147.985C201.077 150.688 209.918 150.934 220.441 148.218C222.635 147.651 224.796 146.976 226.907 146.219V145.368H226.904Z" fill="url(#paint25_linear_3447_6549)"/>
<path d="M220.568 154.198C219.44 154.481 218.329 154.733 217.236 154.956L217.296 176.302C217.322 185.71 213.859 199.015 208.257 211.027C202.289 223.825 194.769 233.531 187.625 237.658C183.6 239.983 180.017 240.389 176.705 238.902C177.447 239.571 178.224 240.147 179.036 240.614C182.628 242.681 186.528 242.442 190.964 239.88C198.108 235.754 205.628 226.047 211.597 213.249C217.199 201.237 220.662 187.931 220.636 178.524L220.568 154.198Z" fill="url(#paint26_radial_3447_6549)" stroke="#29256A" stroke-width="0.5"/>
<path d="M217.236 154.956C209.715 156.494 203.021 156.64 197.634 155.408C192.201 163.494 183.988 172.727 174.867 180.914C172.764 182.804 170.636 184.614 168.523 186.313L168.533 189.922C169.523 189.075 170.512 188.211 171.496 187.329C180.617 179.142 188.83 169.908 194.263 161.822C199.651 163.055 206.344 162.908 213.866 161.37L213.926 182.716C213.952 192.124 210.489 205.43 204.889 217.441C204.701 217.842 204.513 218.239 204.324 218.633C205.692 216.248 207.01 213.706 208.259 211.029C213.861 199.017 217.324 185.711 217.297 176.303L217.236 154.957V154.956Z" fill="url(#paint27_linear_3447_6549)" stroke="#29256A" stroke-width="0.5"/>
<path d="M213.926 182.716L213.866 161.37C206.344 162.908 199.651 163.055 194.263 161.823C188.83 169.907 180.617 179.142 171.496 187.329C170.512 188.213 169.523 189.077 168.533 189.922L168.611 217.306C168.635 226.157 171.864 234.538 176.707 238.902C180.019 240.389 183.602 239.982 187.626 237.658C193.274 234.395 199.158 227.642 204.324 218.633C204.514 218.239 204.701 217.842 204.889 217.441C210.491 205.43 213.954 192.124 213.926 182.716Z" fill="url(#paint28_linear_3447_6549)" stroke="#29256A" stroke-width="0.5"/>
<path d="M191.664 197.48C193.292 194.788 194.922 192.098 196.55 189.406C197.071 188.546 197.65 187.977 198.211 187.653C200.179 186.515 201.923 188.402 200.093 191.426C197.85 195.133 195.605 198.839 193.362 202.547C192.863 203.371 192.205 204.038 191.552 204.416C190.925 204.777 190.305 204.873 189.83 204.588C188.755 203.945 187.677 203.301 186.6 202.655C184.863 201.618 186.556 197.755 188.456 196.657C189.02 196.331 189.604 196.248 190.12 196.558C190.636 196.864 191.15 197.171 191.664 197.479M193.308 183.183C186.717 186.99 181.391 196.222 181.413 203.8C181.434 211.379 186.795 214.435 193.386 210.628C199.981 206.818 205.308 197.588 205.285 190.01C205.263 182.431 199.903 179.375 193.308 183.185" fill="url(#paint29_radial_3447_6549)"/>
<path d="M191.664 197.48C193.292 194.788 194.922 192.098 196.55 189.406C197.071 188.546 197.65 187.977 198.211 187.653C200.179 186.515 201.923 188.402 200.093 191.426C197.85 195.133 195.605 198.839 193.362 202.547C192.863 203.371 192.205 204.038 191.552 204.416C190.925 204.777 190.305 204.873 189.83 204.588C188.755 203.945 187.677 203.301 186.6 202.655C184.863 201.618 186.556 197.755 188.456 196.657C189.02 196.331 189.604 196.248 190.12 196.558C190.636 196.864 191.15 197.171 191.664 197.479M193.308 183.183C186.717 186.99 181.391 196.222 181.413 203.8C181.434 211.379 186.795 214.435 193.386 210.628C199.981 206.818 205.308 197.588 205.285 190.01C205.263 182.431 199.903 179.375 193.308 183.185" stroke="#29256A" stroke-width="0.5"/>
<path d="M102.48 1H101.512V41.6859H102.48V1Z" fill="white"/>
<path d="M105.159 47.5108C104.817 46.6036 104.103 45.9634 103.471 45.3966C103.229 45.1805 103 44.9746 102.805 44.7666C102.646 44.5974 102.656 44.157 102.666 43.7696L102.67 43.5821L101.218 43.5576L101.214 43.733C101.198 44.3344 101.178 45.1581 101.749 45.7636C101.985 46.0143 102.248 46.2488 102.503 46.4771C103.059 46.9767 103.583 47.4476 103.8 48.0205C104.071 48.7402 103.755 49.6699 103.113 50.0532C102.474 50.4303 101.512 50.2387 101.092 49.6495C100.97 49.4782 100.911 49.2968 100.937 49.1785H100.927C100.931 49.148 100.935 49.1214 100.935 49.0929C100.935 48.6872 100.611 48.3569 100.211 48.3569C99.8912 48.3569 99.6221 48.571 99.5263 48.8666H99.5181C99.5161 48.8768 99.5181 48.8911 99.5141 48.9033C99.4977 48.9645 99.4875 49.0277 99.4875 49.0929C99.4875 49.1072 99.4916 49.1194 99.4916 49.1337C99.4631 49.5863 99.5997 50.0593 99.9096 50.4915C100.462 51.2683 101.412 51.6964 102.364 51.6964C102.882 51.6964 103.4 51.568 103.853 51.3009C105.104 50.5588 105.679 48.8931 105.159 47.5088V47.5108Z" fill="#7882E0"/>
<path d="M103.563 43.068C103.775 42.1739 103.222 41.2774 102.328 41.0656C101.434 40.8538 100.537 41.4068 100.326 42.3009C100.114 43.1949 100.667 44.0914 101.561 44.3032C102.455 44.5151 103.351 43.962 103.563 43.068Z" fill="#7882E0"/>
<path d="M104.681 96.792L103.712 97.3364V95.7726C103.712 95.0876 103.154 94.529 102.469 94.529C101.784 94.529 101.225 95.0876 101.225 95.7726V97.3058L100.257 96.792V95.7726C100.257 94.5534 101.25 93.5605 102.469 93.5605C103.688 93.5605 104.681 94.5514 104.681 95.7726V96.792Z" fill="#7882E0"/>
<path d="M126 84.474L125.031 85.049V82.7594C125.031 82.0214 124.807 81.5667 124.677 81.4403C124.611 81.5443 124.491 81.8807 124.491 82.7186L123.533 82.1661C123.641 80.7573 124.185 80.4434 124.65 80.4434C125.431 80.4434 125.998 81.4179 125.998 82.7594V84.474H126Z" fill="#7882E0"/>
<path d="M79.9684 85.0632L79 84.5107V82.7594C79 81.4179 79.5668 80.4434 80.3476 80.4434C80.8084 80.4434 81.3466 80.7512 81.4608 82.1254L80.5148 82.6983C80.5148 81.842 80.3782 81.53 80.3171 81.4342C80.2029 81.5443 79.9684 82.001 79.9684 82.7594V85.0632Z" fill="#7882E0"/>
<path d="M104.681 71.2281L103.712 70.6837V70.068C103.712 69.383 103.154 68.8244 102.469 68.8244C101.784 68.8244 101.225 69.383 101.225 70.068V70.6837L100.257 71.2587V70.068C100.257 68.8488 101.25 67.856 102.469 67.856C103.688 67.856 104.681 68.8468 104.681 70.068V71.2281Z" fill="#7882E0"/>
<path d="M102.709 54.6029L101.74 54.6086L101.979 94.827L102.947 94.8212L102.709 54.6029Z" fill="white"/>
<path d="M101.095 54.6372L79.6145 80.8535L80.3636 81.4673L101.844 55.251L101.095 54.6372Z" fill="white"/>
<path d="M103.336 54.4392L102.591 55.0588L124.646 81.549L125.391 80.9294L103.336 54.4392Z" fill="white"/>
<path d="M103.643 49.4985C103.429 49.2416 103.115 49.0826 102.762 49.0683V49.0642H101.832V49.0683C101.498 49.0826 101.198 49.2273 100.986 49.4557C101.011 49.5229 101.045 49.5861 101.092 49.6534C101.229 49.8369 101.412 49.9817 101.628 50.0836V50.0306H102.96V54.467H101.628V51.6168C101.286 51.5352 100.956 51.3945 100.66 51.2049V55.4334H103.926V50.2752C103.926 49.9755 103.82 49.7044 103.641 49.4964L103.643 49.4985Z" fill="white"/>
<defs>
<radialGradient id="paint0_radial_3447_6549" cx="0" cy="0" r="1" gradientUnits="userSpaceOnUse" gradientTransform="translate(67.2017 194.576) scale(24.7405 24.7551)">
<stop stop-color="white"/>
<stop offset="1" stop-color="#E575E8"/>
</radialGradient>
<radialGradient id="paint1_radial_3447_6549" cx="0" cy="0" r="1" gradientUnits="userSpaceOnUse" gradientTransform="translate(67.1639 194.576) scale(24.7808 24.7954)">
<stop stop-color="white"/>
<stop offset="1" stop-color="#E575E8"/>
</radialGradient>
<radialGradient id="paint2_radial_3447_6549" cx="0" cy="0" r="1" gradientUnits="userSpaceOnUse" gradientTransform="translate(67.1624 194.577) scale(0.0650484 0.0650846)">
<stop stop-color="white"/>
<stop offset="1" stop-color="#B146A4"/>
</radialGradient>
<radialGradient id="paint3_radial_3447_6549" cx="0" cy="0" r="1" gradientUnits="userSpaceOnUse" gradientTransform="translate(102.375 96.6922) scale(24.7405 24.7551)">
<stop stop-color="white"/>
<stop offset="0.84" stop-color="#2FC5FE"/>
<stop offset="1" stop-color="#2CC2FF"/>
</radialGradient>
<radialGradient id="paint4_radial_3447_6549" cx="0" cy="0" r="1" gradientUnits="userSpaceOnUse" gradientTransform="translate(102.337 96.6921) scale(24.7809 24.7954)">
<stop stop-color="white"/>
<stop offset="0.7" stop-color="#23B2F6"/>
<stop offset="0.79" stop-color="#14A0F5"/>
<stop offset="0.89" stop-color="#0B96F4"/>
<stop offset="1" stop-color="#0893F4"/>
</radialGradient>
<radialGradient id="paint5_radial_3447_6549" cx="0" cy="0" r="1" gradientUnits="userSpaceOnUse" gradientTransform="translate(102.336 96.6921) scale(0.0650485 0.0650867)">
<stop stop-color="white"/>
<stop offset="0.09" stop-color="#E8FCFE"/>
<stop offset="0.28" stop-color="#ADF6FD"/>
<stop offset="0.52" stop-color="#58EEFB"/>
<stop offset="0.56" stop-color="#47CEEE"/>
<stop offset="0.63" stop-color="#31A8DE"/>
<stop offset="0.7" stop-color="#2087D1"/>
<stop offset="0.76" stop-color="#126EC7"/>
<stop offset="0.84" stop-color="#085CC0"/>
<stop offset="0.91" stop-color="#0252BC"/>
<stop offset="1" stop-color="#014FBB"/>
</radialGradient>
<radialGradient id="paint6_radial_3447_6549" cx="0" cy="0" r="1" gradientUnits="userSpaceOnUse" gradientTransform="translate(67.2773 155.749) scale(24.7405 24.7563)">
<stop stop-color="white"/>
<stop offset="0.84" stop-color="#2FC5FE"/>
<stop offset="1" stop-color="#2CC2FF"/>
</radialGradient>
<radialGradient id="paint7_radial_3447_6549" cx="0" cy="0" r="1" gradientUnits="userSpaceOnUse" gradientTransform="translate(67.2395 155.749) scale(24.7809 24.7946)">
<stop stop-color="white"/>
<stop offset="0.7" stop-color="#23B2F6"/>
<stop offset="0.79" stop-color="#14A0F5"/>
<stop offset="0.89" stop-color="#0B96F4"/>
<stop offset="1" stop-color="#0893F4"/>
</radialGradient>
<radialGradient id="paint8_radial_3447_6549" cx="0" cy="0" r="1" gradientUnits="userSpaceOnUse" gradientTransform="translate(67.2382 155.749) scale(0.0650485 0.0650846)">
<stop stop-color="white"/>
<stop offset="0.09" stop-color="#E8FCFE"/>
<stop offset="0.28" stop-color="#ADF6FD"/>
<stop offset="0.52" stop-color="#58EEFB"/>
<stop offset="0.56" stop-color="#47CEEE"/>
<stop offset="0.63" stop-color="#31A8DE"/>
<stop offset="0.7" stop-color="#2087D1"/>
<stop offset="0.76" stop-color="#126EC7"/>
<stop offset="0.84" stop-color="#085CC0"/>
<stop offset="0.91" stop-color="#0252BC"/>
<stop offset="1" stop-color="#014FBB"/>
</radialGradient>
<radialGradient id="paint9_radial_3447_6549" cx="0" cy="0" r="1" gradientUnits="userSpaceOnUse" gradientTransform="translate(137.645 199.763) scale(24.7405 24.7551)">
<stop stop-color="white"/>
<stop offset="0.84" stop-color="#2FC5FE"/>
<stop offset="1" stop-color="#2CC2FF"/>
</radialGradient>
<radialGradient id="paint10_radial_3447_6549" cx="0" cy="0" r="1" gradientUnits="userSpaceOnUse" gradientTransform="translate(137.607 199.762) scale(24.7808 24.7946)">
<stop stop-color="white"/>
<stop offset="0.7" stop-color="#23B2F6"/>
<stop offset="0.79" stop-color="#14A0F5"/>
<stop offset="0.89" stop-color="#0B96F4"/>
<stop offset="1" stop-color="#0893F4"/>
</radialGradient>
<radialGradient id="paint11_radial_3447_6549" cx="0" cy="0" r="1" gradientUnits="userSpaceOnUse" gradientTransform="translate(137.607 199.763) scale(0.0650484 0.0650867)">
<stop stop-color="white"/>
<stop offset="0.09" stop-color="#E8FCFE"/>
<stop offset="0.56" stop-color="#47CEEE"/>
<stop offset="0.63" stop-color="#31A8DE"/>
<stop offset="0.7" stop-color="#2087D1"/>
<stop offset="0.76" stop-color="#126EC7"/>
<stop offset="0.84" stop-color="#085CC0"/>
<stop offset="0.91" stop-color="#0252BC"/>
<stop offset="1" stop-color="#014FBB"/>
</radialGradient>
<radialGradient id="paint12_radial_3447_6549" cx="0" cy="0" r="1" gradientUnits="userSpaceOnUse" gradientTransform="translate(102.548 218.82) scale(24.7405 24.7563)">
<stop stop-color="white"/>
<stop offset="0.84" stop-color="#2FC5FE"/>
<stop offset="1" stop-color="#2CC2FF"/>
</radialGradient>
<radialGradient id="paint13_radial_3447_6549" cx="0" cy="0" r="1" gradientUnits="userSpaceOnUse" gradientTransform="translate(102.51 218.819) scale(24.7808 24.7954)">
<stop stop-color="white"/>
<stop offset="0.7" stop-color="#23B2F6"/>
<stop offset="0.79" stop-color="#14A0F5"/>
<stop offset="0.89" stop-color="#0B96F4"/>
<stop offset="1" stop-color="#0893F4"/>
</radialGradient>
<radialGradient id="paint14_radial_3447_6549" cx="0" cy="0" r="1" gradientUnits="userSpaceOnUse" gradientTransform="translate(102.51 218.82) scale(0.0650485 0.0650846)">
<stop stop-color="white"/>
<stop offset="0.09" stop-color="#E8FCFE"/>
<stop offset="0.28" stop-color="#ADF6FD"/>
<stop offset="0.52" stop-color="#58EEFB"/>
<stop offset="0.56" stop-color="#47CEEE"/>
<stop offset="0.63" stop-color="#31A8DE"/>
<stop offset="0.7" stop-color="#2087D1"/>
<stop offset="0.76" stop-color="#126EC7"/>
<stop offset="0.84" stop-color="#085CC0"/>
<stop offset="0.91" stop-color="#0252BC"/>
<stop offset="1" stop-color="#014FBB"/>
</radialGradient>
<radialGradient id="paint15_radial_3447_6549" cx="0" cy="0" r="1" gradientUnits="userSpaceOnUse" gradientTransform="translate(137.129 160.769) scale(24.7406 24.7551)">
<stop stop-color="white"/>
<stop offset="1" stop-color="#E575E8"/>
</radialGradient>
<radialGradient id="paint16_radial_3447_6549" cx="0" cy="0" r="1" gradientUnits="userSpaceOnUse" gradientTransform="translate(137.091 160.769) scale(24.7809 24.7954)">
<stop stop-color="white"/>
<stop offset="1" stop-color="#E575E8"/>
</radialGradient>
<radialGradient id="paint17_radial_3447_6549" cx="0" cy="0" r="1" gradientUnits="userSpaceOnUse" gradientTransform="translate(137.091 160.769) scale(0.0650484 0.0650867)">
<stop stop-color="white"/>
<stop offset="1" stop-color="#B146A4"/>
</radialGradient>
<radialGradient id="paint18_radial_3447_6549" cx="0" cy="0" r="1" gradientUnits="userSpaceOnUse" gradientTransform="translate(102.548 179.908) scale(24.7405 24.7551)">
<stop stop-color="white"/>
<stop offset="0.84" stop-color="#2FC5FE"/>
<stop offset="1" stop-color="#2CC2FF"/>
</radialGradient>
<radialGradient id="paint19_radial_3447_6549" cx="0" cy="0" r="1" gradientUnits="userSpaceOnUse" gradientTransform="translate(102.51 179.908) scale(24.7808 24.7954)">
<stop stop-color="white"/>
<stop offset="0.7" stop-color="#23B2F6"/>
<stop offset="0.79" stop-color="#14A0F5"/>
<stop offset="0.89" stop-color="#0B96F4"/>
<stop offset="1" stop-color="#0893F4"/>
</radialGradient>
<radialGradient id="paint20_radial_3447_6549" cx="0" cy="0" r="1" gradientUnits="userSpaceOnUse" gradientTransform="translate(102.51 179.908) scale(0.0650485 0.0650867)">
<stop stop-color="white"/>
<stop offset="0.09" stop-color="#E8FCFE"/>
<stop offset="0.28" stop-color="#ADF6FD"/>
<stop offset="0.52" stop-color="#58EEFB"/>
<stop offset="0.56" stop-color="#47CEEE"/>
<stop offset="0.63" stop-color="#31A8DE"/>
<stop offset="0.7" stop-color="#2087D1"/>
<stop offset="0.76" stop-color="#126EC7"/>
<stop offset="0.84" stop-color="#085CC0"/>
<stop offset="0.91" stop-color="#0252BC"/>
<stop offset="1" stop-color="#014FBB"/>
</radialGradient>
<linearGradient id="paint21_linear_3447_6549" x1="228.827" y1="134.16" x2="169.16" y2="154.121" gradientUnits="userSpaceOnUse">
<stop stop-color="white"/>
<stop offset="0.09" stop-color="#E8FCFE"/>
<stop offset="0.71" stop-color="#39CFFD"/>
<stop offset="0.84" stop-color="#2FC5FE"/>
<stop offset="1" stop-color="#2CC2FF"/>
</linearGradient>
<linearGradient id="paint22_linear_3447_6549" x1="170.623" y1="168.828" x2="156.957" y2="234.086" gradientUnits="userSpaceOnUse">
<stop stop-color="#46CEEE"/>
<stop offset="0.71" stop-color="#1B80CE"/>
<stop offset="1" stop-color="#014FBB"/>
</linearGradient>
<radialGradient id="paint23_radial_3447_6549" cx="0" cy="0" r="1" gradientUnits="userSpaceOnUse" gradientTransform="translate(182.402 142.254) scale(65.3005 65.3389)">
<stop stop-color="white"/>
<stop offset="0.09" stop-color="#E8FCFE"/>
<stop offset="0.71" stop-color="#39CFFD"/>
<stop offset="0.84" stop-color="#2FC5FE"/>
<stop offset="1" stop-color="#2CC2FF"/>
</radialGradient>
<radialGradient id="paint24_radial_3447_6549" cx="0" cy="0" r="1" gradientUnits="userSpaceOnUse" gradientTransform="translate(182.402 193.348) scale(183.435 183.543)">
<stop stop-color="white"/>
<stop offset="0.09" stop-color="#E8FCFE"/>
<stop offset="0.28" stop-color="#ADF6FD"/>
<stop offset="0.52" stop-color="#58EEFB"/>
<stop offset="0.59" stop-color="#4BE1FC"/>
<stop offset="0.71" stop-color="#39CFFD"/>
<stop offset="0.84" stop-color="#2FC5FE"/>
<stop offset="1" stop-color="#2CC2FF"/>
</radialGradient>
<linearGradient id="paint25_linear_3447_6549" x1="200.132" y1="148.664" x2="163.359" y2="236.14" gradientUnits="userSpaceOnUse">
<stop stop-color="white"/>
<stop offset="0.52" stop-color="white"/>
<stop offset="0.53" stop-color="white"/>
<stop offset="1" stop-color="white"/>
</linearGradient>
<radialGradient id="paint26_radial_3447_6549" cx="0" cy="0" r="1" gradientUnits="userSpaceOnUse" gradientTransform="translate(198.671 198.101) scale(34.6966 34.717)">
<stop stop-color="white"/>
<stop offset="0.09" stop-color="#E8FCFE"/>
<stop offset="0.28" stop-color="#ADF6FD"/>
<stop offset="0.52" stop-color="#58EEFB"/>
<stop offset="0.59" stop-color="#4BE1FC"/>
<stop offset="0.71" stop-color="#39CFFD"/>
<stop offset="0.84" stop-color="#2FC5FE"/>
<stop offset="1" stop-color="#2CC2FF"/>
</radialGradient>
<linearGradient id="paint27_linear_3447_6549" x1="344.397" y1="196.33" x2="184.883" y2="184.959" gradientUnits="userSpaceOnUse">
<stop stop-color="#2CC2FF"/>
<stop offset="1" stop-color="#014FBB"/>
</linearGradient>
<linearGradient id="paint28_linear_3447_6549" x1="93.5487" y1="139.899" x2="258.928" y2="237.703" gradientUnits="userSpaceOnUse">
<stop stop-color="#2CC2FF"/>
<stop offset="1" stop-color="#014FBB"/>
</linearGradient>
<radialGradient id="paint29_radial_3447_6549" cx="0" cy="0" r="1" gradientUnits="userSpaceOnUse" gradientTransform="translate(185.941 195.625) scale(95.9144 95.9707)">
<stop stop-color="white"/>
<stop offset="0.09" stop-color="#E8FCFE"/>
<stop offset="0.28" stop-color="#ADF6FD"/>
<stop offset="0.52" stop-color="#58EEFB"/>
<stop offset="0.59" stop-color="#4BE1FC"/>
<stop offset="0.71" stop-color="#39CFFD"/>
<stop offset="0.84" stop-color="#2FC5FE"/>
<stop offset="1" stop-color="#2CC2FF"/>
</radialGradient>
</defs>
</svg>
