<svg width="250" height="250" viewBox="0 0 250 250" fill="none" xmlns="http://www.w3.org/2000/svg">
<path d="M158.519 179.538C158.519 182.426 156.496 185.94 153.954 187.412L75.8063 232.364C73.2919 233.835 71.2418 232.664 71.2145 229.776L70.9409 128.183L89.8018 117.313C92.3162 115.869 94.3389 112.355 94.3389 109.467L94.2842 87.8623L153.571 53.7531C156.113 52.2818 158.163 53.4535 158.163 56.3414L158.519 179.538V179.538Z" fill="url(#paint0_linear_3447_6166)" stroke="#29256A" stroke-width="0.5" stroke-linejoin="round"/>
<path d="M148.772 150.969L148.786 155.686L80.7936 194.812L80.78 190.095L148.772 150.969Z" fill="#CCCEFD" stroke="#29256A" stroke-width="0.5" stroke-linejoin="round"/>
<path d="M148.697 124.426L148.71 129.123L80.7179 168.249L80.7045 163.552L148.697 124.426Z" fill="#CCCEFD" stroke="#29256A" stroke-width="0.5" stroke-linejoin="round"/>
<path d="M148.659 111.135L148.673 115.851L80.6801 154.977L80.6667 150.261L148.659 111.135Z" fill="#CCCEFD" stroke="#29256A" stroke-width="0.5" stroke-linejoin="round"/>
<path d="M105.373 189.257L105.386 193.954L80.8314 208.084L80.818 203.387L105.373 189.257Z" fill="#CCCEFD" stroke="#29256A" stroke-width="0.5" stroke-linejoin="round"/>
<path d="M148.735 137.698L148.748 142.395L80.7556 181.521L80.7422 176.824L148.735 137.698Z" fill="#CCCEFD" stroke="#29256A" stroke-width="0.5" stroke-linejoin="round"/>
<path d="M138.237 97.4324L138.255 103.828L90.9959 131.023L90.9777 124.627L138.237 97.4324Z" fill="#65C8FF" stroke="#29256A" stroke-width="0.5" stroke-linejoin="round"/>
<path d="M70.9376 128.171L64.0112 127.055L87.355 86.7551L94.2816 87.8711L70.9376 128.171Z" fill="#8C8FD9" stroke="#29256A" stroke-width="0.5" stroke-linejoin="round"/>
<path d="M156.851 53.4262C156.004 52.9358 154.856 53.0175 153.571 53.7532L94.284 87.8627L87.3433 86.7455L146.658 52.636C147.942 51.9006 149.091 51.8186 149.91 52.309L156.851 53.4262Z" fill="#CCCEFD" stroke="#29256A" stroke-width="0.5" stroke-linejoin="round"/>
<path d="M72.5536 232.691L65.6396 231.574C64.8201 231.111 64.3011 230.103 64.3011 228.659L64 127.066L70.9407 128.184L71.2143 229.776C71.2418 231.22 71.7335 232.228 72.5536 232.691Z" fill="#CCCEFD" stroke="#29256A" stroke-width="0.5" stroke-linejoin="round"/>
<path d="M165.884 146.709L159.379 150.469C158.969 150.687 158.559 150.741 158.258 150.578L153.666 147.962C153.365 147.771 152.956 147.853 152.545 148.071C152.163 148.289 151.753 148.698 151.452 149.243L146.86 157.143C146.587 157.634 146.204 158.043 145.767 158.288L139.289 162.02C138.441 162.511 137.731 163.709 137.731 164.717L137.758 172.155C137.758 172.618 137.594 173.163 137.294 173.68L132.728 181.554C132.209 182.453 132.127 183.461 132.537 183.924L137.32 186.703C137.621 186.866 137.785 187.221 137.813 187.684V195.121C137.813 195.611 138.004 195.966 138.277 196.129L132.483 192.778C132.209 192.615 132.045 192.261 132.045 191.798L132.018 184.333C132.018 183.979 131.936 183.706 131.745 183.515L126.961 180.737C126.333 180.382 126.333 179.238 126.961 178.203L131.498 170.329C131.799 169.812 131.991 169.267 131.963 168.804V161.366C131.963 160.358 132.646 159.159 133.494 158.669L140 154.936C140.409 154.691 140.792 154.283 141.093 153.792L145.658 145.891C145.986 145.374 146.368 144.965 146.778 144.72C147.188 144.502 147.571 144.448 147.872 144.611L152.492 147.226C152.792 147.39 153.202 147.335 153.585 147.118L160.117 143.358C160.554 143.113 160.937 143.085 161.211 143.249L167.005 146.6C166.704 146.437 166.322 146.464 165.885 146.709L165.884 146.709Z" fill="#B247A4" stroke="#29256A" stroke-width="0.5" stroke-linejoin="round"/>
<path d="M144.017 210.514L138.25 207.163C138.031 207.027 137.895 206.782 137.895 206.373L137.84 190.218L143.608 193.568L143.662 209.724C143.662 210.133 143.798 210.378 144.017 210.514Z" fill="#B247A4" stroke="#29256A" stroke-width="0.5" stroke-linejoin="round"/>
<path d="M162.102 182.943L162.148 199.093C162.15 199.907 161.567 200.829 160.935 201.193C160.729 201.312 160.517 201.371 160.319 201.347L152.905 200.548L145.502 209.873C145.305 210.125 145.093 210.309 144.887 210.428C144.255 210.792 143.669 210.542 143.666 209.729L143.621 193.579L145.907 192.263C146.308 192.032 146.71 192.001 147.008 192.17L151.613 194.785C151.919 194.959 152.321 194.903 152.722 194.672C153.124 194.441 153.524 194.036 153.829 193.51L158.404 185.612C158.682 185.112 159.083 184.681 159.502 184.44L162.102 182.944L162.102 182.943Z" fill="#DA5FCA" stroke="#29256A" stroke-width="0.5" stroke-linejoin="round"/>
<path d="M152.588 156.746C159.638 152.689 165.381 155.931 165.404 164.026C165.427 172.121 159.721 181.951 152.671 186.008C145.62 190.065 139.895 186.813 139.872 178.718C139.849 170.623 145.537 160.804 152.588 156.747V156.746Z" fill="url(#paint1_linear_3447_6166)" stroke="#29256A" stroke-width="0.5" stroke-linejoin="round"/>
<path d="M172.538 158.659C173.151 159.008 173.154 160.147 172.546 161.198L167.971 169.076C167.692 169.576 167.519 170.136 167.521 170.596L167.542 178.031C167.545 179.01 166.849 180.212 165.994 180.704L162.102 182.943L159.502 184.44C159.083 184.68 158.682 185.112 158.404 185.612L153.829 193.51C153.524 194.035 153.124 194.441 152.722 194.672C152.321 194.903 151.919 194.959 151.613 194.785L147.008 192.17C146.71 192.001 146.308 192.032 145.907 192.263L143.621 193.579L139.38 196.019C138.525 196.511 137.824 196.113 137.821 195.134L137.8 187.679C137.799 187.219 137.623 186.859 137.326 186.691L132.738 184.085C132.125 183.737 132.122 182.598 132.731 181.547L137.289 173.679C137.585 173.168 137.758 172.608 137.756 172.148L137.735 164.713C137.732 163.714 138.428 162.512 139.283 162.02L145.775 158.285C146.194 158.044 146.577 157.643 146.873 157.132L151.448 149.234C151.752 148.709 152.153 148.303 152.555 148.072C152.956 147.841 153.358 147.785 153.664 147.959L158.269 150.574C158.567 150.743 158.969 150.692 159.37 150.461L165.897 146.705C166.752 146.213 167.453 146.611 167.456 147.61L167.477 155.046C167.478 155.525 167.654 155.885 167.934 156.064L172.539 158.659H172.538ZM152.671 186.008C159.722 181.951 165.427 172.121 165.404 164.026C165.382 155.931 159.638 152.689 152.588 156.746C145.537 160.804 139.85 170.623 139.872 178.718C139.895 186.813 145.621 190.065 152.671 186.008" fill="#DA5FCA"/>
<path d="M152.671 186.008C159.722 181.951 165.427 172.121 165.404 164.026C165.382 155.931 159.638 152.689 152.588 156.746C145.537 160.804 139.85 170.623 139.872 178.718C139.895 186.813 145.621 190.065 152.671 186.008M172.538 158.659C173.151 159.008 173.154 160.147 172.546 161.198L167.971 169.076C167.692 169.576 167.519 170.136 167.521 170.596L167.542 178.031C167.545 179.01 166.849 180.212 165.994 180.704L162.102 182.943L159.502 184.44C159.083 184.68 158.682 185.112 158.404 185.612L153.829 193.51C153.524 194.035 153.124 194.441 152.722 194.672C152.321 194.903 151.919 194.959 151.613 194.785L147.008 192.17C146.71 192.001 146.308 192.032 145.907 192.263L143.621 193.579L139.38 196.019C138.525 196.511 137.824 196.113 137.821 195.134L137.8 187.679C137.799 187.219 137.623 186.859 137.326 186.691L132.738 184.085C132.125 183.737 132.122 182.598 132.731 181.547L137.289 173.679C137.585 173.168 137.758 172.608 137.756 172.148L137.735 164.713C137.732 163.714 138.428 162.512 139.283 162.02L145.775 158.285C146.194 158.044 146.577 157.643 146.873 157.132L151.448 149.234C151.752 148.709 152.153 148.303 152.555 148.072C152.956 147.841 153.358 147.785 153.664 147.959L158.269 150.574C158.567 150.743 158.969 150.692 159.37 150.461L165.897 146.705C166.752 146.213 167.453 146.611 167.456 147.61L167.477 155.046C167.478 155.525 167.654 155.885 167.934 156.064L172.539 158.659H172.538Z" stroke="#29256A" stroke-width="0.5" stroke-linejoin="round"/>
<path d="M94.2815 87.8711L94.3429 109.477C94.351 112.356 92.3159 115.869 89.8025 117.316L70.9375 128.171L94.2813 87.8711H94.2815Z" fill="#CCCEFD" stroke="#29256A" stroke-width="0.5" stroke-linejoin="round"/>
<path fill-rule="evenodd" clip-rule="evenodd" d="M133.194 39.738L118.515 60.7882L118.541 60.8056C116.1 64.5667 126.298 75.6264 141.298 85.5056C156.36 95.4002 170.542 100.367 173.027 96.623L173.027 96.6231L187.706 75.573L133.194 39.738Z" fill="url(#paint2_linear_3447_6166)"/>
<path d="M118.515 60.7882L118.31 60.6452C118.271 60.7005 118.256 60.7692 118.269 60.8354C118.282 60.9017 118.321 60.96 118.377 60.9971L118.515 60.7882ZM133.194 39.738L133.331 39.5291C133.218 39.4548 133.066 39.484 132.989 39.595L133.194 39.738ZM118.541 60.8056L118.751 60.9417C118.826 60.8264 118.793 60.6722 118.678 60.5967L118.541 60.8056ZM141.298 85.5056L141.161 85.7144L141.161 85.7145L141.298 85.5056ZM173.027 96.623L173.163 96.4131C173.048 96.3387 172.894 96.3706 172.819 96.4847L173.027 96.623ZM173.027 96.6231L172.891 96.833C173.004 96.9062 173.155 96.8766 173.232 96.7661L173.027 96.6231ZM187.706 75.573L187.911 75.716C187.95 75.6606 187.965 75.592 187.952 75.5257C187.939 75.4594 187.9 75.4011 187.844 75.3641L187.706 75.573ZM118.72 60.9312L133.399 39.881L132.989 39.595L118.31 60.6452L118.72 60.9312ZM118.678 60.5967L118.652 60.5793L118.377 60.9971L118.404 61.0145L118.678 60.5967ZM118.331 60.6695C117.644 61.7294 117.88 63.2398 118.733 64.9729C119.596 66.7237 121.128 68.7878 123.195 71.0307C127.332 75.5196 133.649 80.767 141.161 85.7144L141.436 85.2968C133.948 80.3651 127.665 75.143 123.563 70.6919C121.511 68.4649 120.014 66.4414 119.182 64.752C118.341 63.0449 118.218 61.7623 118.751 60.9417L118.331 60.6695ZM141.161 85.7145C148.703 90.6696 156.033 94.3956 161.796 96.4146C164.676 97.4234 167.178 98.0109 169.127 98.1064C171.056 98.2009 172.535 97.8159 173.235 96.7612L172.819 96.4847C172.276 97.3019 171.051 97.7 169.151 97.607C167.271 97.5149 164.82 96.9443 161.961 95.9427C156.247 93.9407 148.954 90.2361 141.435 85.2966L141.161 85.7145ZM173.163 96.4132L173.163 96.4131L172.891 96.8329L172.891 96.833L173.163 96.4132ZM187.501 75.43L172.822 96.4801L173.232 96.7661L187.911 75.716L187.501 75.43ZM133.057 39.9469L187.569 75.7819L187.844 75.3641L133.331 39.5291L133.057 39.9469Z" fill="#29256A"/>
<path d="M187.706 75.5725C190.191 71.8286 179.984 60.7496 164.961 50.8548C149.899 40.9601 135.717 35.9937 133.232 39.7376C130.747 43.4816 140.954 54.5606 155.977 64.4553C171.039 74.35 185.221 79.3165 187.706 75.5725Z" fill="#29256A" stroke="#29256A" stroke-width="0.5" stroke-linejoin="round"/>
<path d="M103.376 18L222.378 92.2295L221.002 94.6363L166.299 75.7637L102 20.3686L103.376 18Z" fill="#29256A" stroke="#29256A" stroke-width="0.5" stroke-linejoin="round"/>
<path d="M158.08 36.8725L222.378 92.2295L167.675 73.3569L103.376 18L158.08 36.8725Z" fill="url(#paint3_linear_3447_6166)" stroke="#29256A" stroke-width="0.5" stroke-linecap="round" stroke-linejoin="round"/>
<path d="M163.049 58.3049L179.526 70.4154L187.706 76.5279L191.758 79.6224L193.746 81.1888L194.664 81.9911C194.664 81.9911 194.969 82.2585 195.046 82.3349C195.696 83.9776 196.384 85.3148 197.034 86.8047L199.022 91.1599C200.321 94.0634 201.583 97.005 202.768 99.9467C203.953 102.888 205.061 105.868 206.055 108.848C207.011 111.828 207.89 114.884 208.196 117.826L211.407 117.559C211.063 114.12 210.146 110.988 209.152 107.855C208.12 104.76 207.011 101.742 205.788 98.7242C204.565 95.7443 203.303 92.7644 202.003 89.8228L198.066 81.1506C198.066 81.1506 197.951 80.7303 197.76 80.5775C197.645 80.3865 197.569 80.1955 197.416 80.0809C197.187 79.8517 197.034 79.6988 196.843 79.546C196.499 79.2404 196.154 78.973 195.81 78.6673L193.784 77.0628L189.694 73.9301L181.475 67.7793L164.961 55.6306L163.049 58.2285V58.3049Z" fill="#575CC2" stroke="#29256A" stroke-width="0.5" stroke-linejoin="round"/>
<path d="M168.324 58.1521L168.095 61.9724L164.731 59.5274L164.96 55.707L168.324 58.1521Z" fill="#8C8FD9" stroke="#29256A" stroke-width="0.5" stroke-linejoin="round"/>
<path d="M170.618 59.8331L170.389 63.6534L168.095 61.9725L168.325 58.1521L170.618 59.8331Z" fill="#575CC2" stroke="#29256A" stroke-width="0.5" stroke-linejoin="round"/>
<path d="M174.02 62.3162L173.753 66.1366L170.389 63.6534L170.618 59.833L174.02 62.3162Z" fill="#8C8FD9" stroke="#29256A" stroke-width="0.5" stroke-linejoin="round"/>
<path d="M176.314 63.9971L176.047 67.8175L173.753 66.1365L174.021 62.3162L176.314 63.9971Z" fill="#575CC2" stroke="#29256A" stroke-width="0.5" stroke-linejoin="round"/>
<path d="M179.678 66.5185L179.41 70.3007L176.046 67.8174L176.314 63.9971L179.678 66.5185Z" fill="#8C8FD9" stroke="#29256A" stroke-width="0.5" stroke-linejoin="round"/>
<path d="M181.972 68.1995L181.704 72.0199L179.411 70.3007L179.678 66.5186L181.972 68.1995Z" fill="#575CC2" stroke="#29256A" stroke-width="0.5" stroke-linejoin="round"/>
<path d="M185.336 70.6827L185.03 74.503L181.704 72.0198L181.972 68.1995L185.336 70.6827Z" fill="#8C8FD9" stroke="#29256A" stroke-width="0.5" stroke-linejoin="round"/>
<path d="M187.591 72.402L187.285 76.2224L185.03 74.5032L185.336 70.6829L187.591 72.402Z" fill="#575CC2" stroke="#29256A" stroke-width="0.5" stroke-linejoin="round"/>
<path d="M190.955 74.9615L190.611 78.7436L187.285 76.2222L187.591 72.4019L190.955 74.9615Z" fill="#8C8FD9" stroke="#29256A" stroke-width="0.5" stroke-linejoin="round"/>
<path d="M193.211 76.6806L192.829 80.5009L190.611 78.7436L190.955 74.9614L193.211 76.6806Z" fill="#575CC2" stroke="#29256A" stroke-width="0.5" stroke-linejoin="round"/>
<path d="M196.537 79.355C196.46 79.8517 196.422 80.3865 196.345 80.8832C196.269 81.3798 196.078 81.8383 195.696 82.1057C195.581 82.1057 195.543 82.3349 195.466 82.4495C195.39 82.6023 195.313 82.6787 195.237 82.7933L195.122 82.5641L195.046 82.4113V82.3349L195.007 82.2967C195.007 82.2967 195.007 82.2203 195.007 82.3349L194.855 82.1821L194.205 81.609L192.79 80.4629L193.173 76.6426C194.281 77.5213 195.39 78.3617 196.498 79.3168L196.537 79.355Z" fill="#8C8FD9" stroke="#29256A" stroke-width="0.5" stroke-linejoin="round"/>
<path d="M198.486 82.2583L196.422 85.4674L195.237 82.8314C195.237 82.8314 195.389 82.6404 195.466 82.4876C195.542 82.3729 195.581 82.1437 195.695 82.1437C196.078 81.8763 196.269 81.4179 196.345 80.9212C196.422 80.4246 196.498 79.9279 196.536 79.3931L197.224 80.0043C197.224 80.0043 197.568 80.2718 197.683 80.5392C197.76 80.6538 197.76 80.8066 197.912 80.883L198.065 81.265L198.524 82.2965L198.486 82.2583Z" fill="#575CC2" stroke="#29256A" stroke-width="0.5" stroke-linejoin="round"/>
<path d="M200.245 86.0405L198.142 89.2495L196.422 85.4674L198.486 82.2583L200.245 86.0405Z" fill="#8C8FD9" stroke="#29256A" stroke-width="0.5" stroke-linejoin="round"/>
<path d="M201.391 88.6384L199.289 91.8475L198.142 89.2496L200.245 86.0405L201.391 88.6384Z" fill="#575CC2" stroke="#29256A" stroke-width="0.5" stroke-linejoin="round"/>
<path d="M203.112 92.4588L200.971 95.6297L199.289 91.8475L201.391 88.6384L203.112 92.4588Z" fill="#8C8FD9" stroke="#29256A" stroke-width="0.5" stroke-linejoin="round"/>
<path d="M204.258 95.0948L202.079 98.2657L200.971 95.6296L203.112 92.4587L204.258 95.0948Z" fill="#575CC2" stroke="#29256A" stroke-width="0.5" stroke-linejoin="round"/>
<path d="M205.864 98.9917L203.609 102.086C203.112 100.787 202.615 99.5266 202.042 98.2277L204.22 95.095C204.756 96.3939 205.329 97.6928 205.826 98.9917H205.864Z" fill="#8C8FD9" stroke="#29256A" stroke-width="0.5" stroke-linejoin="round"/>
<path d="M206.896 101.666L204.602 104.722L203.608 102.086L205.864 98.9915L206.896 101.666Z" fill="#575CC2" stroke="#29256A" stroke-width="0.5" stroke-linejoin="round"/>
<path d="M208.349 105.639C207.546 106.632 206.782 107.626 205.941 108.619C205.52 107.32 205.061 106.021 204.564 104.722L206.858 101.666C207.355 103.003 207.852 104.302 208.311 105.639H208.349Z" fill="#8C8FD9" stroke="#29256A" stroke-width="0.5" stroke-linejoin="round"/>
<path d="M209.266 108.39C208.425 109.383 207.661 110.338 206.782 111.293C206.552 110.414 206.246 109.536 205.941 108.619C206.782 107.625 207.546 106.632 208.349 105.639C208.655 106.556 208.999 107.434 209.266 108.39Z" fill="#575CC2" stroke="#29256A" stroke-width="0.5" stroke-linejoin="round"/>
<path d="M210.451 112.477C209.572 113.432 208.654 114.349 207.737 115.19C207.584 114.54 207.469 113.891 207.316 113.241L206.781 111.293C207.661 110.338 208.425 109.383 209.266 108.389C209.725 109.727 210.069 111.14 210.451 112.515V112.477Z" fill="#8C8FD9" stroke="#29256A" stroke-width="0.5" stroke-linejoin="round"/>
<path d="M211.101 115.381C210.145 116.298 209.152 117.1 208.196 117.826C208.043 116.947 208.005 116.069 207.775 115.19C208.693 114.35 209.61 113.433 210.489 112.478C210.719 113.433 210.91 114.388 211.101 115.381Z" fill="#575CC2" stroke="#29256A" stroke-width="0.5" stroke-linejoin="round"/>
<path d="M207.814 109.612C207.088 109.841 206.782 110.071 206.323 110.376C205.941 110.682 205.558 110.987 205.214 111.369C204.565 112.095 204.068 112.898 203.762 113.738C203.074 115.419 202.959 117.138 202.959 118.781C203.035 120.462 203.227 121.837 203.379 123.365L203.838 127.835L205.635 145.676L208.846 145.332L207.049 127.491L206.591 123.022C206.438 121.57 206.247 119.965 206.208 118.666C206.208 117.329 206.323 115.992 206.743 114.922C206.935 114.349 207.24 113.891 207.623 113.509C207.814 113.318 208.005 113.127 208.196 112.974C208.349 112.859 208.693 112.707 208.693 112.707L207.814 109.612Z" fill="#575CC2" stroke="#29256A" stroke-width="0.5" stroke-linejoin="round"/>
<path d="M207.775 113.356C206.858 112.745 205.826 112.248 204.755 111.943C205.214 111.293 205.826 110.72 206.514 110.223C206.972 110.567 207.431 110.949 207.775 111.331C208.119 111.752 208.54 112.172 208.654 112.707C208.654 112.707 208.387 112.821 208.272 112.936C208.119 113.05 207.928 113.165 207.775 113.318V113.356Z" fill="#8C8FD9" stroke="#29256A" stroke-width="0.5" stroke-linejoin="round"/>
<path d="M207.202 114.044C206.17 113.662 205.062 113.394 203.953 113.318C204.182 112.859 204.45 112.363 204.756 111.942C205.864 112.248 206.897 112.745 207.776 113.356C207.546 113.547 207.355 113.814 207.202 114.082V114.044Z" fill="#575CC2" stroke="#29256A" stroke-width="0.5" stroke-linejoin="round"/>
<path d="M206.59 115.381C205.482 115.304 204.335 115.304 203.226 115.457C203.379 114.731 203.609 114.006 203.914 113.318C205.061 113.432 206.17 113.662 207.164 114.044C206.934 114.426 206.705 114.884 206.552 115.381H206.59Z" fill="#8C8FD9" stroke="#29256A" stroke-width="0.5" stroke-linejoin="round"/>
<path d="M206.361 116.413C205.252 116.489 204.182 116.68 203.035 116.909C203.073 116.413 203.15 115.954 203.264 115.457C204.373 115.343 205.52 115.305 206.628 115.381C206.514 115.687 206.437 116.069 206.361 116.413Z" fill="#575CC2" stroke="#29256A" stroke-width="0.5" stroke-linejoin="round"/>
<path d="M206.208 118.055C205.138 118.323 204.029 118.628 202.997 119.01C202.997 118.323 202.997 117.635 203.035 116.909C204.144 116.642 205.214 116.489 206.361 116.412C206.285 116.947 206.208 117.482 206.208 118.055Z" fill="#8C8FD9" stroke="#29256A" stroke-width="0.5" stroke-linejoin="round"/>
<path d="M206.246 119.201C205.176 119.545 204.144 119.965 203.112 120.386C203.073 119.965 203.035 119.469 202.997 119.01C204.029 118.628 205.138 118.284 206.208 118.055C206.208 118.437 206.208 118.819 206.208 119.201H206.246Z" fill="#575CC2" stroke="#29256A" stroke-width="0.5" stroke-linejoin="round"/>
<path d="M206.399 121.035L203.303 122.296L203.112 120.424C204.144 120.003 205.214 119.583 206.246 119.239C206.246 119.774 206.323 120.424 206.399 121.073V121.035Z" fill="#8C8FD9" stroke="#29256A" stroke-width="0.5" stroke-linejoin="round"/>
<path d="M206.514 122.296L203.417 123.556L203.264 122.296L206.399 121.035L206.514 122.296Z" fill="#575CC2" stroke="#29256A" stroke-width="0.5" stroke-linejoin="round"/>
<path d="M206.705 124.206L203.609 125.429L203.418 123.557L206.514 122.296L206.705 124.206Z" fill="#8C8FD9" stroke="#29256A" stroke-width="0.5" stroke-linejoin="round"/>
<path d="M206.858 125.467L203.723 126.727L203.608 125.428L206.705 124.206L206.858 125.467Z" fill="#575CC2" stroke="#29256A" stroke-width="0.5" stroke-linejoin="round"/>
<path d="M207.049 127.339L203.914 128.599L203.723 126.727L206.858 125.467L207.049 127.339Z" fill="#8C8FD9" stroke="#29256A" stroke-width="0.5" stroke-linejoin="round"/>
<path d="M207.164 128.638L204.067 129.86L203.914 128.599L207.049 127.339L207.164 128.638Z" fill="#575CC2" stroke="#29256A" stroke-width="0.5" stroke-linejoin="round"/>
<path d="M207.355 130.509L204.258 131.77L204.067 129.86L207.164 128.637L207.355 130.509Z" fill="#8C8FD9" stroke="#29256A" stroke-width="0.5" stroke-linejoin="round"/>
<path d="M207.47 131.77L204.373 133.031L204.258 131.77L207.355 130.51L207.47 131.77Z" fill="#575CC2" stroke="#29256A" stroke-width="0.5" stroke-linejoin="round"/>
<path d="M207.661 133.68L204.564 134.903L204.373 133.031L207.47 131.77L207.661 133.68Z" fill="#8C8FD9" stroke="#29256A" stroke-width="0.5" stroke-linejoin="round"/>
<path d="M207.814 134.941L204.679 136.202L204.564 134.903L207.661 133.68L207.814 134.941Z" fill="#575CC2" stroke="#29256A" stroke-width="0.5" stroke-linejoin="round"/>
<path d="M208.005 136.813L204.87 138.074L204.679 136.202L207.814 134.941L208.005 136.813Z" fill="#8C8FD9" stroke="#29256A" stroke-width="0.5" stroke-linejoin="round"/>
<path d="M208.12 138.112L205.023 139.373L204.87 138.074L208.005 136.813L208.12 138.112Z" fill="#575CC2" stroke="#29256A" stroke-width="0.5" stroke-linejoin="round"/>
<path d="M208.311 139.984L205.214 141.244L205.023 139.373L208.12 138.112L208.311 139.984Z" fill="#8C8FD9" stroke="#29256A" stroke-width="0.5" stroke-linejoin="round"/>
<path d="M208.426 141.245L205.329 142.505L205.214 141.245L208.311 139.984L208.426 141.245Z" fill="#575CC2" stroke="#29256A" stroke-width="0.5" stroke-linejoin="round"/>
<path d="M208.617 143.155L205.52 144.416L205.329 142.505L208.426 141.245L208.617 143.155Z" fill="#8C8FD9" stroke="#29256A" stroke-width="0.5" stroke-linejoin="round"/>
<path d="M208.769 144.415L205.635 145.676L205.52 144.415L208.616 143.155L208.769 144.415Z" fill="#575CC2" stroke="#29256A" stroke-width="0.5" stroke-linejoin="round"/>
<path d="M208.082 111.713C208.082 111.713 208.158 111.713 208.234 111.751C208.311 111.751 208.426 111.828 208.502 111.866C208.693 111.981 208.884 112.057 209.037 112.248C209.381 112.554 209.687 112.974 209.916 113.509C210.413 114.579 210.528 115.763 210.681 117.329L211.56 126.154L213.357 143.804L216.568 143.46L214.771 125.81L213.892 116.985C213.739 115.61 213.624 113.814 212.86 112.172C212.478 111.331 211.942 110.529 211.178 109.841C210.796 109.497 210.375 109.23 209.878 108.963C209.649 108.848 209.381 108.733 209.114 108.657C208.808 108.581 208.655 108.504 208.158 108.504L208.043 111.713H208.082Z" fill="#575CC2" stroke="#29256A" stroke-width="0.5" stroke-linejoin="round"/>
<path d="M210.795 109.536C210.49 110.644 209.954 111.637 209.305 112.516C209.037 112.21 208.731 111.981 208.425 111.828C208.54 111.293 208.616 110.758 208.616 110.185C208.578 109.612 208.616 109.077 208.196 108.504C208.616 108.504 208.769 108.581 209.037 108.657C209.266 108.733 209.496 108.81 209.687 108.886C210.107 109.039 210.49 109.306 210.834 109.536H210.795Z" fill="#8C8FD9" stroke="#29256A" stroke-width="0.5" stroke-linejoin="round"/>
<path d="M212.019 110.758C211.407 111.713 210.643 112.554 209.802 113.241C209.649 112.974 209.496 112.707 209.305 112.516C209.993 111.637 210.528 110.644 210.796 109.536C211.254 109.879 211.675 110.3 212.019 110.758Z" fill="#575CC2" stroke="#29256A" stroke-width="0.5" stroke-linejoin="round"/>
<path d="M213.127 112.821C212.21 113.547 211.292 114.12 210.298 114.655C210.184 114.159 209.993 113.662 209.801 113.28C210.642 112.592 211.407 111.752 212.019 110.797C212.516 111.446 212.86 112.172 213.127 112.86V112.821Z" fill="#8C8FD9" stroke="#29256A" stroke-width="0.5" stroke-linejoin="round"/>
<path d="M213.51 114.235C212.554 114.808 211.522 115.266 210.49 115.686C210.452 115.304 210.375 114.961 210.299 114.617C211.293 114.12 212.21 113.509 213.128 112.783C213.281 113.28 213.433 113.738 213.51 114.235Z" fill="#575CC2" stroke="#29256A" stroke-width="0.5" stroke-linejoin="round"/>
<path d="M213.816 116.259L210.719 117.52C210.643 116.909 210.605 116.221 210.528 115.724C211.56 115.304 212.592 114.846 213.548 114.273C213.701 114.96 213.777 115.724 213.854 116.297L213.816 116.259Z" fill="#8C8FD9" stroke="#29256A" stroke-width="0.5" stroke-linejoin="round"/>
<path d="M213.93 117.52L210.834 118.781L210.681 117.52L213.815 116.26L213.93 117.52Z" fill="#575CC2" stroke="#29256A" stroke-width="0.5" stroke-linejoin="round"/>
<path d="M214.121 119.392L211.025 120.615L210.834 118.781L213.93 117.52L214.121 119.392Z" fill="#8C8FD9" stroke="#29256A" stroke-width="0.5" stroke-linejoin="round"/>
<path d="M214.236 120.653L211.14 121.914L211.025 120.615L214.121 119.392L214.236 120.653Z" fill="#575CC2" stroke="#29256A" stroke-width="0.5" stroke-linejoin="round"/>
<path d="M214.427 122.525L211.331 123.747L211.14 121.914L214.236 120.653L214.427 122.525Z" fill="#8C8FD9" stroke="#29256A" stroke-width="0.5" stroke-linejoin="round"/>
<path d="M214.58 123.786L211.445 125.008L211.33 123.747L214.427 122.525L214.58 123.786Z" fill="#575CC2" stroke="#29256A" stroke-width="0.5" stroke-linejoin="round"/>
<path d="M214.771 125.619L211.637 126.88L211.446 125.008L214.58 123.786L214.771 125.619Z" fill="#8C8FD9" stroke="#29256A" stroke-width="0.5" stroke-linejoin="round"/>
<path d="M214.886 126.918L211.751 128.141L211.636 126.88L214.771 125.619L214.886 126.918Z" fill="#575CC2" stroke="#29256A" stroke-width="0.5" stroke-linejoin="round"/>
<path d="M215.077 128.752L211.942 130.013L211.751 128.141L214.886 126.918L215.077 128.752Z" fill="#8C8FD9" stroke="#29256A" stroke-width="0.5" stroke-linejoin="round"/>
<path d="M215.192 130.013L212.095 131.274L211.942 130.013L215.077 128.752L215.192 130.013Z" fill="#575CC2" stroke="#29256A" stroke-width="0.5" stroke-linejoin="round"/>
<path d="M215.383 131.885L212.286 133.107L212.095 131.273L215.191 130.013L215.383 131.885Z" fill="#8C8FD9" stroke="#29256A" stroke-width="0.5" stroke-linejoin="round"/>
<path d="M215.497 133.145L212.401 134.406L212.286 133.107L215.383 131.885L215.497 133.145Z" fill="#575CC2" stroke="#29256A" stroke-width="0.5" stroke-linejoin="round"/>
<path d="M215.689 135.017L212.592 136.24L212.401 134.406L215.497 133.146L215.689 135.017Z" fill="#8C8FD9" stroke="#29256A" stroke-width="0.5" stroke-linejoin="round"/>
<path d="M215.842 136.278L212.707 137.501L212.592 136.24L215.689 135.018L215.842 136.278Z" fill="#575CC2" stroke="#29256A" stroke-width="0.5" stroke-linejoin="round"/>
<path d="M216.033 138.112L212.898 139.373L212.707 137.501L215.842 136.278L216.033 138.112Z" fill="#8C8FD9" stroke="#29256A" stroke-width="0.5" stroke-linejoin="round"/>
<path d="M216.147 139.373L213.051 140.633L212.898 139.373L216.032 138.112L216.147 139.373Z" fill="#575CC2" stroke="#29256A" stroke-width="0.5" stroke-linejoin="round"/>
<path d="M216.339 141.245L213.242 142.505L213.051 140.633L216.147 139.373L216.339 141.245Z" fill="#8C8FD9" stroke="#29256A" stroke-width="0.5" stroke-linejoin="round"/>
<path d="M216.453 142.505L213.356 143.766L213.242 142.505L216.338 141.245L216.453 142.505Z" fill="#575CC2" stroke="#29256A" stroke-width="0.5" stroke-linejoin="round"/>
<path d="M207.695 113.803L204.5 114.127L207.948 148.107L211.142 147.783L207.695 113.803Z" fill="#575CC2" stroke="#29256A" stroke-width="0.5" stroke-linejoin="round"/>
<path d="M207.775 146.326L210.872 145.141L211.063 146.899L207.928 148.121L207.775 146.326Z" fill="#8C8FD9" stroke="#29256A" stroke-width="0.5" stroke-linejoin="round"/>
<path d="M207.623 145.103L210.757 143.919L210.872 145.141L207.776 146.326L207.623 145.103Z" fill="#575CC2" stroke="#29256A" stroke-width="0.5" stroke-linejoin="round"/>
<path d="M207.469 143.308L210.566 142.124L210.757 143.919L207.622 145.103L207.469 143.308Z" fill="#8C8FD9" stroke="#29256A" stroke-width="0.5" stroke-linejoin="round"/>
<path d="M207.317 142.123L210.451 140.901L210.566 142.123L207.47 143.308L207.317 142.123Z" fill="#575CC2" stroke="#29256A" stroke-width="0.5" stroke-linejoin="round"/>
<path d="M207.164 140.328L210.26 139.105L210.451 140.901L207.317 142.123L207.164 140.328Z" fill="#8C8FD9" stroke="#29256A" stroke-width="0.5" stroke-linejoin="round"/>
<path d="M207.011 139.105L210.145 137.883L210.26 139.105L207.164 140.328L207.011 139.105Z" fill="#575CC2" stroke="#29256A" stroke-width="0.5" stroke-linejoin="round"/>
<path d="M206.858 137.31L209.954 136.087L210.145 137.883L207.011 139.105L206.858 137.31Z" fill="#8C8FD9" stroke="#29256A" stroke-width="0.5" stroke-linejoin="round"/>
<path d="M206.705 136.087L209.84 134.903L209.955 136.087L206.858 137.31L206.705 136.087Z" fill="#575CC2" stroke="#29256A" stroke-width="0.5" stroke-linejoin="round"/>
<path d="M206.552 134.291L209.648 133.107L209.839 134.903L206.705 136.087L206.552 134.291Z" fill="#8C8FD9" stroke="#29256A" stroke-width="0.5" stroke-linejoin="round"/>
<path d="M206.399 133.069L209.534 131.885L209.649 133.107L206.552 134.292L206.399 133.069Z" fill="#575CC2" stroke="#29256A" stroke-width="0.5" stroke-linejoin="round"/>
<path d="M206.247 131.312L209.343 130.089L209.534 131.885L206.399 133.069L206.247 131.312Z" fill="#8C8FD9" stroke="#29256A" stroke-width="0.5" stroke-linejoin="round"/>
<path d="M206.132 130.089L209.228 128.867L209.343 130.089L206.247 131.312L206.132 130.089Z" fill="#575CC2" stroke="#29256A" stroke-width="0.5" stroke-linejoin="round"/>
<path d="M205.941 128.294L209.037 127.071L209.228 128.867L206.132 130.089L205.941 128.294Z" fill="#8C8FD9" stroke="#29256A" stroke-width="0.5" stroke-linejoin="round"/>
<path d="M205.826 127.071L208.922 125.849L209.037 127.071L205.941 128.294L205.826 127.071Z" fill="#575CC2" stroke="#29256A" stroke-width="0.5" stroke-linejoin="round"/>
<path d="M205.635 125.275L208.731 124.053L208.922 125.849L205.826 127.071L205.635 125.275Z" fill="#8C8FD9" stroke="#29256A" stroke-width="0.5" stroke-linejoin="round"/>
<path d="M205.52 124.053L208.616 122.869L208.731 124.053L205.635 125.275L205.52 124.053Z" fill="#575CC2" stroke="#29256A" stroke-width="0.5" stroke-linejoin="round"/>
<path d="M205.329 122.258L208.426 121.073L208.617 122.869L205.52 124.053L205.329 122.258Z" fill="#8C8FD9" stroke="#29256A" stroke-width="0.5" stroke-linejoin="round"/>
<path d="M205.214 121.035L208.311 119.851L208.426 121.073L205.329 122.257L205.214 121.035Z" fill="#575CC2" stroke="#29256A" stroke-width="0.5" stroke-linejoin="round"/>
<path d="M205.023 119.278L208.12 118.055L208.311 119.851L205.214 121.035L205.023 119.278Z" fill="#8C8FD9" stroke="#29256A" stroke-width="0.5" stroke-linejoin="round"/>
<path d="M204.908 118.055L208.005 116.833L208.12 118.055L205.023 119.278L204.908 118.055Z" fill="#575CC2" stroke="#29256A" stroke-width="0.5" stroke-linejoin="round"/>
<path d="M204.717 116.259L207.814 115.037L208.005 116.832L204.908 118.055L204.717 116.259Z" fill="#8C8FD9" stroke="#29256A" stroke-width="0.5" stroke-linejoin="round"/>
<path d="M204.602 115.037L207.699 113.814L207.814 115.037L204.717 116.259L204.602 115.037Z" fill="#575CC2" stroke="#29256A" stroke-width="0.5" stroke-linejoin="round"/>
<path d="M212.007 113.184L208.812 113.508L212.179 146.689L215.373 146.366L212.007 113.184Z" fill="#575CC2" stroke="#29256A" stroke-width="0.5" stroke-linejoin="round"/>
<path d="M212.019 144.95L215.154 143.766L215.306 145.523L212.21 146.708L212.019 144.95Z" fill="#8C8FD9" stroke="#29256A" stroke-width="0.5" stroke-linejoin="round"/>
<path d="M211.904 143.766L215.001 142.582L215.154 143.766L212.019 144.95L211.904 143.766Z" fill="#575CC2" stroke="#29256A" stroke-width="0.5" stroke-linejoin="round"/>
<path d="M211.713 142.009L214.848 140.824L215 142.582L211.904 143.766L211.713 142.009Z" fill="#8C8FD9" stroke="#29256A" stroke-width="0.5" stroke-linejoin="round"/>
<path d="M211.598 140.824L214.733 139.64L214.848 140.824L211.713 142.009L211.598 140.824Z" fill="#575CC2" stroke="#29256A" stroke-width="0.5" stroke-linejoin="round"/>
<path d="M211.407 139.067L214.542 137.883L214.733 139.64L211.598 140.824L211.407 139.067Z" fill="#8C8FD9" stroke="#29256A" stroke-width="0.5" stroke-linejoin="round"/>
<path d="M211.292 137.883L214.427 136.698L214.542 137.883L211.407 139.067L211.292 137.883Z" fill="#575CC2" stroke="#29256A" stroke-width="0.5" stroke-linejoin="round"/>
<path d="M211.14 136.163L214.236 134.941L214.427 136.698L211.292 137.883L211.14 136.163Z" fill="#8C8FD9" stroke="#29256A" stroke-width="0.5" stroke-linejoin="round"/>
<path d="M210.987 134.941L214.121 133.757L214.236 134.941L211.14 136.164L210.987 134.941Z" fill="#575CC2" stroke="#29256A" stroke-width="0.5" stroke-linejoin="round"/>
<path d="M210.834 133.222L213.93 132L214.121 133.757L210.986 134.941L210.834 133.222Z" fill="#8C8FD9" stroke="#29256A" stroke-width="0.5" stroke-linejoin="round"/>
<path d="M210.719 131.999L213.815 130.815L213.93 131.999L210.834 133.222L210.719 131.999Z" fill="#575CC2" stroke="#29256A" stroke-width="0.5" stroke-linejoin="round"/>
<path d="M210.528 130.28L213.663 129.096L213.816 130.815L210.719 131.999L210.528 130.28Z" fill="#8C8FD9" stroke="#29256A" stroke-width="0.5" stroke-linejoin="round"/>
<path d="M210.413 129.096L213.509 127.873L213.662 129.096L210.528 130.28L210.413 129.096Z" fill="#575CC2" stroke="#29256A" stroke-width="0.5" stroke-linejoin="round"/>
<path d="M210.222 127.338L213.357 126.154L213.51 127.873L210.413 129.096L210.222 127.338Z" fill="#8C8FD9" stroke="#29256A" stroke-width="0.5" stroke-linejoin="round"/>
<path d="M210.107 126.154L213.242 124.932L213.357 126.154L210.222 127.338L210.107 126.154Z" fill="#575CC2" stroke="#29256A" stroke-width="0.5" stroke-linejoin="round"/>
<path d="M209.916 124.397L213.051 123.213L213.242 124.932L210.107 126.154L209.916 124.397Z" fill="#8C8FD9" stroke="#29256A" stroke-width="0.5" stroke-linejoin="round"/>
<path d="M209.801 123.212L212.936 122.028L213.051 123.212L209.916 124.397L209.801 123.212Z" fill="#575CC2" stroke="#29256A" stroke-width="0.5" stroke-linejoin="round"/>
<path d="M209.649 121.455L212.745 120.271L212.936 122.028L209.802 123.212L209.649 121.455Z" fill="#8C8FD9" stroke="#29256A" stroke-width="0.5" stroke-linejoin="round"/>
<path d="M209.495 120.271L212.63 119.087L212.745 120.271L209.648 121.455L209.495 120.271Z" fill="#575CC2" stroke="#29256A" stroke-width="0.5" stroke-linejoin="round"/>
<path d="M209.343 118.514L212.439 117.329L212.63 119.087L209.496 120.271L209.343 118.514Z" fill="#8C8FD9" stroke="#29256A" stroke-width="0.5" stroke-linejoin="round"/>
<path d="M209.228 117.329L212.325 116.145L212.439 117.329L209.343 118.513L209.228 117.329Z" fill="#575CC2" stroke="#29256A" stroke-width="0.5" stroke-linejoin="round"/>
<path d="M209.037 115.572L212.171 114.387L212.324 116.145L209.228 117.329L209.037 115.572Z" fill="#8C8FD9" stroke="#29256A" stroke-width="0.5" stroke-linejoin="round"/>
<path d="M208.922 114.388L212.019 113.203L212.171 114.388L209.037 115.572L208.922 114.388Z" fill="#575CC2" stroke="#29256A" stroke-width="0.5" stroke-linejoin="round"/>
<path d="M209.921 111.741L206.726 112.065L210.471 148.972L213.665 148.648L209.921 111.741Z" fill="#575CC2" stroke="#29256A" stroke-width="0.5" stroke-linejoin="round"/>
<path d="M210.107 113.738L207.011 114.999L206.82 113.051L209.916 111.79L210.107 113.738Z" fill="#8C8FD9" stroke="#29256A" stroke-width="0.5" stroke-linejoin="round"/>
<path d="M210.26 115.037L207.125 116.336L207.011 114.999L210.107 113.738L210.26 115.037Z" fill="#575CC2" stroke="#29256A" stroke-width="0.5" stroke-linejoin="round"/>
<path d="M210.452 116.985L207.355 118.284L207.126 116.336L210.261 115.037L210.452 116.985Z" fill="#8C8FD9" stroke="#29256A" stroke-width="0.5" stroke-linejoin="round"/>
<path d="M210.605 118.322L207.47 119.583L207.355 118.284L210.452 116.985L210.605 118.322Z" fill="#575CC2" stroke="#29256A" stroke-width="0.5" stroke-linejoin="round"/>
<path d="M210.795 120.271L207.66 121.532L207.469 119.583L210.604 118.323L210.795 120.271Z" fill="#8C8FD9" stroke="#29256A" stroke-width="0.5" stroke-linejoin="round"/>
<path d="M210.91 121.57L207.814 122.869L207.661 121.531L210.795 120.271L210.91 121.57Z" fill="#575CC2" stroke="#29256A" stroke-width="0.5" stroke-linejoin="round"/>
<path d="M211.101 123.518L208.005 124.817L207.814 122.869L210.91 121.57L211.101 123.518Z" fill="#8C8FD9" stroke="#29256A" stroke-width="0.5" stroke-linejoin="round"/>
<path d="M211.254 124.855L208.119 126.116L208.005 124.817L211.101 123.518L211.254 124.855Z" fill="#575CC2" stroke="#29256A" stroke-width="0.5" stroke-linejoin="round"/>
<path d="M211.445 126.804L208.349 128.064L208.119 126.116L211.254 124.855L211.445 126.804Z" fill="#8C8FD9" stroke="#29256A" stroke-width="0.5" stroke-linejoin="round"/>
<path d="M211.598 128.102L208.463 129.401L208.349 128.064L211.445 126.803L211.598 128.102Z" fill="#575CC2" stroke="#29256A" stroke-width="0.5" stroke-linejoin="round"/>
<path d="M211.789 130.051L208.655 131.35L208.463 129.401L211.598 128.103L211.789 130.051Z" fill="#8C8FD9" stroke="#29256A" stroke-width="0.5" stroke-linejoin="round"/>
<path d="M211.904 131.388L208.808 132.649L208.655 131.35L211.789 130.051L211.904 131.388Z" fill="#575CC2" stroke="#29256A" stroke-width="0.5" stroke-linejoin="round"/>
<path d="M212.095 133.336L208.999 134.597L208.807 132.649L211.904 131.388L212.095 133.336Z" fill="#8C8FD9" stroke="#29256A" stroke-width="0.5" stroke-linejoin="round"/>
<path d="M212.248 134.636L209.113 135.935L208.999 134.597L212.095 133.337L212.248 134.636Z" fill="#575CC2" stroke="#29256A" stroke-width="0.5" stroke-linejoin="round"/>
<path d="M212.439 136.584L209.343 137.883L209.113 135.934L212.248 134.635L212.439 136.584Z" fill="#8C8FD9" stroke="#29256A" stroke-width="0.5" stroke-linejoin="round"/>
<path d="M212.592 137.921L209.457 139.182L209.343 137.883L212.439 136.584L212.592 137.921Z" fill="#575CC2" stroke="#29256A" stroke-width="0.5" stroke-linejoin="round"/>
<path d="M212.783 139.869L209.649 141.13L209.457 139.181L212.592 137.921L212.783 139.869Z" fill="#8C8FD9" stroke="#29256A" stroke-width="0.5" stroke-linejoin="round"/>
<path d="M212.898 141.168L209.802 142.467L209.649 141.13L212.783 139.869L212.898 141.168Z" fill="#575CC2" stroke="#29256A" stroke-width="0.5" stroke-linejoin="round"/>
<path d="M213.089 143.117L209.993 144.416L209.801 142.467L212.898 141.168L213.089 143.117Z" fill="#8C8FD9" stroke="#29256A" stroke-width="0.5" stroke-linejoin="round"/>
<path d="M213.242 144.454L210.107 145.715L209.993 144.416L213.089 143.117L213.242 144.454Z" fill="#575CC2" stroke="#29256A" stroke-width="0.5" stroke-linejoin="round"/>
<path d="M213.433 146.402L210.337 147.663L210.107 145.715L213.242 144.454L213.433 146.402Z" fill="#8C8FD9" stroke="#29256A" stroke-width="0.5" stroke-linejoin="round"/>
<path d="M213.586 147.701L210.451 149L210.337 147.663L213.433 146.402L213.586 147.701Z" fill="#575CC2" stroke="#29256A" stroke-width="0.5" stroke-linejoin="round"/>
<defs>
<linearGradient id="paint0_linear_3447_6166" x1="90.8956" y1="90.576" x2="168.003" y2="102.456" gradientUnits="userSpaceOnUse">
<stop stop-color="#F8EDFF"/>
<stop offset="0.40625" stop-color="#EBEFFF"/>
<stop offset="1" stop-color="#E9FBFF"/>
</linearGradient>
<linearGradient id="paint1_linear_3447_6166" x1="152.638" y1="154.998" x2="152.638" y2="187.754" gradientUnits="userSpaceOnUse">
<stop stop-color="white"/>
<stop offset="1" stop-color="#FFAFF5"/>
</linearGradient>
<linearGradient id="paint2_linear_3447_6166" x1="177.5" y1="90" x2="133.571" y2="42.1691" gradientUnits="userSpaceOnUse">
<stop stop-color="#453ACE"/>
<stop offset="1" stop-color="#0F469A"/>
</linearGradient>
<linearGradient id="paint3_linear_3447_6166" x1="217" y1="87" x2="108.83" y2="-70.7646" gradientUnits="userSpaceOnUse">
<stop stop-color="#5971FF"/>
<stop offset="1" stop-color="#15ABAB"/>
</linearGradient>
</defs>
</svg>
