<svg width="250" height="250" viewBox="0 0 250 250" fill="none" xmlns="http://www.w3.org/2000/svg">
<path d="M135.062 105.326L135.258 104.071L128.345 123.236L128.663 122.858L135.062 105.326Z" fill="#CEE0E8" stroke="#29256A" stroke-width="0.5" stroke-linecap="round" stroke-linejoin="round"/>
<path d="M142.156 108.079L139.781 108.064L133.398 125.611L135.243 127.245L142.156 108.079Z" fill="#BACFD6" stroke="#29256A" stroke-width="0.5" stroke-linecap="round" stroke-linejoin="round"/>
<path d="M139.781 108.064L135.062 105.326L128.663 122.858L133.398 125.611L139.781 108.064Z" fill="#CEE0E8" stroke="#29256A" stroke-width="0.5" stroke-linecap="round" stroke-linejoin="round"/>
<path d="M121.675 140.889L119.33 142.432L137.966 131.692L138.284 131.299L121.675 140.889Z" fill="#1F787D" stroke="#29256A" stroke-width="0.5" stroke-linecap="round" stroke-linejoin="round"/>
<path d="M139.964 105.371L135.229 102.618L135.062 105.326L139.782 108.064L139.964 105.371Z" fill="#CEE0E8" stroke="#29256A" stroke-width="0.5" stroke-linecap="round" stroke-linejoin="round"/>
<path d="M147.164 106.884L147.209 106.295L148.147 91.9241L147.875 94.7982L147.164 106.884Z" fill="#04555B" stroke="#29256A" stroke-width="0.5" stroke-linecap="round" stroke-linejoin="round"/>
<path d="M142.414 103.753L139.964 105.371L139.782 108.064L142.157 108.079L142.414 103.753Z" fill="#BACFD6" stroke="#29256A" stroke-width="0.5" stroke-linecap="round" stroke-linejoin="round"/>
<path d="M121.66 135.096L119.315 133.734L119.33 142.432L121.675 140.889L121.66 135.096Z" fill="#1F787D" stroke="#29256A" stroke-width="0.5" stroke-linecap="round" stroke-linejoin="round"/>
<path d="M119.315 133.734L114.581 130.996L114.611 139.694L119.33 142.432L119.315 133.734Z" fill="#CEE0E8" stroke="#29256A" stroke-width="0.5" stroke-linecap="round" stroke-linejoin="round"/>
<path d="M133.398 125.611L128.664 122.858L114.581 130.996L119.315 133.734L133.398 125.611Z" fill="#EBF3F6" stroke="#29256A" stroke-width="0.5" stroke-linecap="round" stroke-linejoin="round"/>
<path d="M135.244 127.245L133.398 125.611L119.315 133.734L121.66 135.096L135.244 127.245Z" fill="#1F787D" stroke="#29256A" stroke-width="0.5" stroke-linecap="round" stroke-linejoin="round"/>
<path d="M81.9064 169.993L79.3046 171.309L86.6562 169.131L86.8226 168.541L81.9064 169.993Z" fill="#1F787D" stroke="#29256A" stroke-width="0.5" stroke-linecap="round" stroke-linejoin="round"/>
<path d="M93.7052 131.874L93.6144 132.116L139.963 105.371L142.413 103.753L93.7052 131.874Z" fill="#BACFD6" stroke="#29256A" stroke-width="0.5" stroke-linecap="round" stroke-linejoin="round"/>
<path d="M89.7265 128.364L81.9059 169.993L86.8221 168.541L93.7048 131.874L142.413 103.753L142.156 108.079L135.243 127.245L121.659 135.096L121.674 140.889L138.283 131.299L147.163 106.884L147.874 94.7979L89.7265 128.364Z" fill="#CEE0E8" stroke="#29256A" stroke-width="0.5" stroke-linecap="round" stroke-linejoin="round"/>
<path d="M148.146 91.924L143.426 89.1709L82.9193 124.099L87.6389 126.852L148.146 91.924Z" fill="#EBF3F6" stroke="#29256A" stroke-width="0.5" stroke-linecap="round" stroke-linejoin="round"/>
<path d="M147.874 94.7982L148.146 91.9241L87.6391 126.852L89.7266 128.364L147.874 94.7982Z" fill="#BACFD6" stroke="#29256A" stroke-width="0.5" stroke-linecap="round" stroke-linejoin="round"/>
<path d="M89.7269 128.364L87.6394 126.852L79.3046 171.309L81.9064 169.993L89.7269 128.364Z" fill="#BACFD6" stroke="#29256A" stroke-width="0.5" stroke-linecap="round" stroke-linejoin="round"/>
<path d="M87.6396 126.852L82.9201 124.099L74.5701 168.556L79.3048 171.309L87.6396 126.852Z" fill="#CEE0E8" stroke="#29256A" stroke-width="0.5" stroke-linecap="round" stroke-linejoin="round"/>
<path d="M69.6229 168.935V162.264L72.6937 160.403L69.6229 168.935Z" fill="#EBF3F6" stroke="#29256A" stroke-width="0.5" stroke-linecap="round" stroke-linejoin="round"/>
<path d="M195.401 159.299L135.196 124.31L135.227 137.607L195.431 172.595L195.401 159.299Z" fill="#09C8D6" stroke="#29256A" stroke-width="0.5" stroke-linecap="round" stroke-linejoin="round"/>
<path d="M205.143 130.043L144.938 95.0549L135.196 124.31L195.401 159.298L205.143 130.043Z" fill="#CEE0E8" stroke="#29256A" stroke-width="0.5" stroke-linecap="round" stroke-linejoin="round"/>
<path d="M210.181 81.1383L167.493 56.4817L144.939 95.055L205.143 130.043L210.181 81.1383Z" fill="#CEE0E8" stroke="#29256A" stroke-width="0.5" stroke-linecap="round" stroke-linejoin="round"/>
<path d="M199.682 80.2154L177.748 67.5391C172.968 64.7709 166.841 66.3895 164.058 71.1696L151.019 93.4513L201.406 122.737L204.764 90.1839C205.188 86.1451 203.191 82.2424 199.682 80.2154V80.2154Z" fill="url(#paint0_linear_3447_6331)" stroke="#29256A" stroke-width="0.5" stroke-linecap="round" stroke-linejoin="round"/>
<path d="M215.776 79.2475L173.088 54.5908L167.492 56.4817L210.179 81.1383L215.776 79.2475Z" fill="#EBF3F6" stroke="#29256A" stroke-width="0.5" stroke-linecap="round" stroke-linejoin="round"/>
<path d="M210.18 81.1383L212.979 80.2004V128.954L205.143 130.043L210.18 81.1383Z" fill="#BACFD6" stroke="#29256A" stroke-width="0.5" stroke-linecap="round" stroke-linejoin="round"/>
<path d="M215.777 82.4392L216.987 123.206L212.978 128.954V80.2004L215.777 82.4392Z" fill="#BACFD6" stroke="#29256A" stroke-width="0.5" stroke-linecap="round" stroke-linejoin="round"/>
<path d="M205.142 130.043L212.978 128.954L198.744 168.299L195.401 159.298L205.142 130.043Z" fill="#08AAB6" stroke="#29256A" stroke-width="0.5" stroke-linecap="round" stroke-linejoin="round"/>
<path d="M198.743 168.299L212.977 128.954L216.986 123.206L203.13 168.102L195.43 172.595L198.743 168.299Z" fill="#BACFD6" stroke="#29256A" stroke-width="0.5" stroke-linecap="round" stroke-linejoin="round"/>
<path d="M193.632 173.215L133.427 138.242L132.973 138.923L193.178 173.911L193.632 173.215Z" fill="#09C8D6" stroke="#29256A" stroke-width="0.5" stroke-linecap="round" stroke-linejoin="round"/>
<path d="M190.878 170.81L130.673 135.822L133.426 138.242L193.631 173.215L190.878 170.81Z" fill="#09C8D6" stroke="#29256A" stroke-width="0.5" stroke-linecap="round" stroke-linejoin="round"/>
<path d="M190.878 170.81L130.673 135.822L125.818 143.053L186.022 178.026L190.878 170.81Z" fill="#09C8D6" stroke="#29256A" stroke-width="0.5" stroke-linecap="round" stroke-linejoin="round"/>
<path d="M83.2807 176.392L75.7929 170.674L68.2749 191.488L76.2921 195.573L83.2807 176.392Z" fill="#CEE0E8" stroke="#29256A" stroke-width="0.5" stroke-linecap="round" stroke-linejoin="round"/>
<path d="M83.7961 168.405L76.1873 164.2L75.794 170.674L83.2818 176.392L83.7961 168.405Z" fill="#068791" stroke="#29256A" stroke-width="0.5" stroke-linecap="round" stroke-linejoin="round"/>
<path d="M88.2127 166.272L78.0778 163.292L76.187 164.2L83.7957 168.405L88.2127 166.272Z" fill="#068A94" stroke="#29256A" stroke-width="0.5" stroke-linecap="round" stroke-linejoin="round"/>
<path d="M61.2567 204.255L53.7538 199.884V202.062L61.2718 209.338L61.2567 204.255Z" fill="#CEE0E8" stroke="#29256A" stroke-width="0.5" stroke-linecap="round" stroke-linejoin="round"/>
<path d="M76.2927 195.573L68.2755 191.488L53.7538 199.884L61.2567 204.255L76.2927 195.573Z" fill="#EBF3F6" stroke="#29256A" stroke-width="0.5" stroke-linecap="round" stroke-linejoin="round"/>
<path d="M121.537 198.628L83.2818 176.392L76.2933 195.573L114.549 217.809L121.537 198.628Z" fill="url(#paint1_linear_3447_6331)" stroke="#29256A" stroke-width="0.5" stroke-linecap="round" stroke-linejoin="round"/>
<path d="M121.537 198.628L83.2818 176.392L76.2933 195.573L114.549 217.809L121.537 198.628Z" fill="url(#paint2_linear_3447_6331)" stroke="#29256A" stroke-width="0.5" stroke-linecap="round" stroke-linejoin="round"/>
<path d="M122.066 190.641L83.7949 168.405L83.2806 176.392L121.536 198.628L122.066 190.641Z" fill="#068993" stroke="#29256A" stroke-width="0.5" stroke-linecap="round" stroke-linejoin="round"/>
<path d="M126.469 188.509L88.2131 166.272L83.7961 168.405L122.067 190.641L126.469 188.509Z" fill="#078C96" stroke="#29256A" stroke-width="0.5" stroke-linecap="round" stroke-linejoin="round"/>
<path d="M131.612 203.106L121.538 198.629L114.549 217.809L124.094 223.921L131.612 203.106Z" fill="#CEE0E8" stroke="#29256A" stroke-width="0.5" stroke-linecap="round" stroke-linejoin="round"/>
<path d="M99.5274 226.492L61.2566 204.256L61.2717 209.338L99.5274 231.575V226.492Z" fill="#CEE0E8" stroke="#29256A" stroke-width="0.5" stroke-linecap="round" stroke-linejoin="round"/>
<path d="M114.548 217.809L76.2926 195.573L61.2566 204.256L99.5274 226.492L114.548 217.809Z" fill="url(#paint3_linear_3447_6331)" stroke="#29256A" stroke-width="0.5" stroke-linecap="round" stroke-linejoin="round"/>
<path d="M132.004 196.647L122.066 190.642L121.536 198.629L131.611 203.106L132.004 196.647Z" fill="#068993" stroke="#29256A" stroke-width="0.5" stroke-linecap="round" stroke-linejoin="round"/>
<path d="M133.896 195.724L126.468 188.509L122.067 190.641L132.005 196.647L133.896 195.724Z" fill="#078C96" stroke="#29256A" stroke-width="0.5" stroke-linecap="round" stroke-linejoin="round"/>
<path d="M124.093 223.921L114.548 217.809L99.5271 226.492L109.556 232.316L124.093 223.921Z" fill="#EBF3F6" stroke="#29256A" stroke-width="0.5" stroke-linecap="round" stroke-linejoin="round"/>
<path d="M132.004 196.647L131.611 203.106L124.093 223.92L109.556 232.316L109.571 234.494L125.227 225.448L133.517 202.652L133.895 195.724L132.004 196.647Z" fill="#BACFD6" stroke="#29256A" stroke-width="0.5" stroke-linecap="round" stroke-linejoin="round"/>
<path d="M109.556 232.316L99.5271 226.492V231.575L109.571 234.494L109.556 232.316Z" fill="#CEE0E8" stroke="#29256A" stroke-width="0.5" stroke-linecap="round" stroke-linejoin="round"/>
<path d="M134.925 207.538L74.7203 172.55L72.1337 171.46L132.338 206.449L134.925 207.538Z" fill="#09C8D6" stroke="#29256A" stroke-width="0.5" stroke-linecap="round" stroke-linejoin="round"/>
<path d="M141.64 203.65L81.4354 168.662L75.0217 165.954L135.226 200.943L141.64 203.65Z" fill="#09C8D6" stroke="#29256A" stroke-width="0.5" stroke-linecap="round" stroke-linejoin="round"/>
<path d="M186.022 178.025L125.817 143.052L106.092 172.353L166.297 207.341L186.022 178.025Z" fill="#EBF3F6" stroke="#29256A" stroke-width="0.5" stroke-linecap="round" stroke-linejoin="round"/>
<path d="M166.963 212.408L106.758 177.42L98.7413 182.049L158.946 217.037L166.963 212.408Z" fill="#09C8D6" stroke="#29256A" stroke-width="0.5" stroke-linecap="round" stroke-linejoin="round"/>
<path d="M166.296 207.341L106.092 172.353C105.109 173.82 103.914 174.939 102.734 175.635C101.463 176.376 100.177 176.588 99.1638 176.164L159.368 211.153C160.397 211.576 161.668 211.365 162.938 210.623C164.118 209.943 165.313 208.808 166.296 207.341Z" fill="#EBF3F6" stroke="#29256A" stroke-width="0.5" stroke-linecap="round" stroke-linejoin="round"/>
<path d="M159.369 211.153L99.1642 176.165L81.4356 168.662L141.64 203.65L159.369 211.153Z" fill="#EBF3F6" stroke="#29256A" stroke-width="0.5" stroke-linecap="round" stroke-linejoin="round"/>
<path d="M135.227 200.942L132.338 206.448L134.925 207.537L156.48 216.659C157.237 216.977 158.068 217.098 158.946 217.052L166.978 212.423C167.704 211.622 168.4 210.744 169.051 209.776L193.178 173.926L193.632 173.245L190.878 170.84L186.023 178.055L166.297 207.371C165.314 208.838 164.119 209.958 162.939 210.654C161.669 211.395 160.383 211.607 159.369 211.183L141.656 203.695L135.242 200.988L135.227 200.942Z" fill="#BACFD6" stroke="#29256A" stroke-width="0.5" stroke-linecap="round" stroke-linejoin="round"/>
<path d="M135.227 200.943L75.0229 165.954L72.1337 171.46L132.338 206.449L135.227 200.943Z" fill="#09C8D6" stroke="#29256A" stroke-width="0.5" stroke-linecap="round" stroke-linejoin="round"/>
<path d="M129.827 203.923L69.6224 168.934L72.7234 173.699L132.928 208.688L129.827 203.923Z" fill="#BACFD6" stroke="#29256A" stroke-width="0.5" stroke-linecap="round" stroke-linejoin="round"/>
<path d="M195.402 159.299L135.197 124.31L72.6935 160.403L132.898 195.391L195.402 159.299Z" fill="#EBF3F6" stroke="#29256A" stroke-width="0.5" stroke-linecap="round" stroke-linejoin="round"/>
<path d="M132.898 195.391L72.6931 160.403L69.6224 168.935L129.827 203.923L132.898 195.391Z" fill="#CEE0E8" stroke="#29256A" stroke-width="0.5" stroke-linecap="round" stroke-linejoin="round"/>
<path d="M132.928 208.688L129.827 203.923L132.897 202.395L138.237 203.424L132.928 208.688Z" fill="#BACFD6" stroke="#29256A" stroke-width="0.5" stroke-linecap="round" stroke-linejoin="round"/>
<path d="M195.402 159.298L198.745 168.299L138.238 203.423L132.898 195.391L195.402 159.298Z" fill="#CEE0E8" stroke="#29256A" stroke-width="0.5" stroke-linecap="round" stroke-linejoin="round"/>
<path d="M138.237 203.423L198.744 168.299L195.431 172.595L132.927 208.688L138.237 203.423Z" fill="#BACFD6" stroke="#29256A" stroke-width="0.5" stroke-linecap="round" stroke-linejoin="round"/>
<path d="M205.946 122.193L212.163 120.786L224.976 100.198L214.916 103.208L205.946 122.193Z" fill="#BACFD6" stroke="#29256A" stroke-width="0.5" stroke-linecap="round" stroke-linejoin="round"/>
<path d="M214.917 103.209L224.976 100.198L223.358 92.5745L213.298 95.5998L214.917 103.209Z" fill="#CEE0E8" stroke="#29256A" stroke-width="0.5" stroke-linecap="round" stroke-linejoin="round"/>
<path d="M215.778 79.2476L223.357 92.5743L213.297 95.5996L210.181 81.1384L215.778 79.2476Z" fill="#EBF3F6" stroke="#29256A" stroke-width="0.5" stroke-linecap="round" stroke-linejoin="round"/>
<path d="M210.182 81.1384L206.975 106.4L205.946 122.193L214.916 103.208L213.298 95.5996L210.182 81.1384Z" fill="#CEE0E8" stroke="#29256A" stroke-width="0.5" stroke-linecap="round" stroke-linejoin="round"/>
<path d="M145.786 58.8112L150.082 53.1689L146.225 57.2078L141.914 62.8501L145.786 58.8112Z" fill="#BACFD6"/>
<path d="M167.493 56.4817L173.089 54.5909L150.082 53.1689L145.786 58.8112L167.493 56.4817Z" fill="#EBF3F6"/>
<path d="M145.786 58.8112L141.914 62.8501L148.812 88.2933L156.436 77.3113L167.493 56.4817L145.786 58.8112Z" fill="#CEE0E8"/>
<path d="M165.224 58.675L147.102 60.7928L144.893 63.6064L149.719 85.4948L149.779 85.6159L165.224 58.675Z" fill="#BACFD6"/>
<path d="M181.229 45.4242L171.2 39.6003L167.131 72.2439L177.16 78.0678L181.229 45.4242Z" fill="#CEE0E8" stroke="#29256A" stroke-width="0.5" stroke-linecap="round" stroke-linejoin="round"/>
<path d="M185.102 43.2005L175.058 37.3616L171.2 39.6003L181.23 45.4241L185.102 43.2005Z" fill="#EBF3F6" stroke="#29256A" stroke-width="0.5" stroke-linecap="round" stroke-linejoin="round"/>
<path d="M181.229 45.4243L177.16 78.0679L181.546 65.0589L185.948 62.5025L185.101 43.2007L181.229 45.4243Z" fill="#BACFD6" stroke="#29256A" stroke-width="0.5" stroke-linecap="round" stroke-linejoin="round"/>
<path d="M192.604 51.9588L182.574 46.135L179.988 69.6723L190.032 75.5112L192.604 51.9588Z" fill="url(#paint4_linear_3447_6331)" stroke="#29256A" stroke-width="0.5" stroke-linecap="round" stroke-linejoin="round"/>
<path d="M194.464 51.3538L184.435 45.53L182.574 46.1351L192.603 51.9589L194.464 51.3538Z" fill="url(#paint5_linear_3447_6331)" stroke="#29256A" stroke-width="0.5" stroke-linecap="round" stroke-linejoin="round"/>
<path d="M192.603 51.9591L190.031 75.5115L195.311 67.6304L194.464 51.354L192.603 51.9591Z" fill="#056B73" stroke="#29256A" stroke-width="0.5" stroke-linecap="round" stroke-linejoin="round"/>
<path d="M199.032 55.7105L188.988 49.8716L184.919 82.5152L194.948 88.339L199.032 55.7105Z" fill="#CEE0E8" stroke="#29256A" stroke-width="0.5" stroke-linecap="round" stroke-linejoin="round"/>
<path d="M202.89 53.4718L192.861 47.6328L188.989 49.8716L199.033 55.7105L202.89 53.4718Z" fill="#EBF3F6" stroke="#29256A" stroke-width="0.5" stroke-linecap="round" stroke-linejoin="round"/>
<path d="M199.032 55.7107L194.948 88.3392L199.834 75.073L203.737 72.7888L202.889 53.4719L199.032 55.7107Z" fill="#BACFD6" stroke="#29256A" stroke-width="0.5" stroke-linecap="round" stroke-linejoin="round"/>
<path d="M201.423 122.737L151.021 93.4519L139.131 126.595L189.896 156.107L201.423 122.737Z" fill="url(#paint6_linear_3447_6331)" stroke="#29256A" stroke-width="0.5" stroke-linecap="round" stroke-linejoin="round"/>
<path d="M77.1712 163.005L139.131 126.61L189.911 156.122L129.132 193.213L129.026 193.152C128.179 193.773 122.506 197.509 114.519 192.502C105.247 186.693 107.47 180.506 107.47 180.506L132.369 166L120.873 160.826L97.8798 175.227C97.8798 175.227 92.4342 179.871 83.6304 174.637C74.5089 169.207 77.1864 163.035 77.1864 163.035L77.1712 163.005Z" fill="url(#paint7_linear_3447_6331)" stroke="#29256A" stroke-width="0.5" stroke-linecap="round" stroke-linejoin="round"/>
<path d="M132.898 195.391L129.827 203.923L138.238 203.423L132.898 195.391Z" fill="#EBF3F6" stroke="#29256A" stroke-width="0.5" stroke-linecap="round" stroke-linejoin="round"/>
<path d="M103.538 222.166L102.146 227.339L98.6821 232.512C98.6821 232.512 98.7275 240.469 93.8264 239.607C88.9254 238.745 86.2177 233.42 86.2177 233.42C86.2177 233.42 76.0374 228.368 75.1751 225.146C74.3129 221.908 76.3701 219.745 79.5468 220.577C82.7234 221.409 90.7103 222.514 92.4953 221.424C93.0399 221.092 93.8264 218.944 93.8264 218.944C95.566 216.962 98.1376 214.814 98.1376 214.814L103.538 222.181V222.166Z" fill="url(#paint8_linear_3447_6331)" stroke="#29256A" stroke-width="0.5" stroke-linecap="round" stroke-linejoin="round"/>
<path d="M94.4611 239.834C94.2493 239.834 94.0224 239.819 93.7955 239.773C88.8793 238.911 84.6589 234.207 84.6136 234.146C84.2959 233.949 75.8551 228.428 74.9929 225.146C74.9929 225.1 74.9929 225.04 75.008 224.994C75.0232 224.949 75.0837 224.919 75.1291 224.904C75.2501 224.873 75.4013 224.858 75.5526 224.858C77.1712 224.858 79.9999 226.431 80.5444 226.749C80.8924 226.946 81.4218 227.294 82.0571 227.702C83.8118 228.821 86.4741 230.516 88.5465 231.378C91.2693 232.512 96.2763 237.308 95.3536 239.607C95.3233 239.667 95.2779 239.713 95.2174 239.728C94.9754 239.773 94.7182 239.803 94.446 239.803L94.4611 239.834Z" fill="#29256A"/>
<path d="M75.5525 225.07C76.8988 225.07 79.2435 226.25 80.4536 226.946C81.7848 227.717 85.6421 230.394 88.4859 231.589C91.3298 232.769 96.0342 237.459 95.2022 239.576C94.9753 239.622 94.7333 239.652 94.4761 239.652C94.2795 239.652 94.0677 239.637 93.8408 239.592C88.9397 238.729 84.7648 234.025 84.7648 234.025C84.7648 234.025 76.0366 228.352 75.1744 225.115C75.2954 225.085 75.4164 225.07 75.5525 225.07M75.5525 224.692C75.3861 224.692 75.2198 224.707 75.0836 224.737C74.9777 224.767 74.9021 224.828 74.8416 224.903C74.7962 224.994 74.7811 225.1 74.7962 225.191C75.6584 228.443 83.7513 233.813 84.4925 234.297C84.9311 234.781 88.9549 239.092 93.7501 239.939C93.9921 239.985 94.219 240 94.461 240C94.7333 240 94.9905 239.97 95.2627 239.924C95.3838 239.894 95.4896 239.818 95.535 239.697C96.5183 237.232 91.3752 232.376 88.6221 231.226C86.5497 230.364 83.9176 228.685 82.1629 227.566C81.5125 227.157 80.9831 226.825 80.6351 226.613C80.0754 226.295 77.2165 224.692 75.5525 224.692V224.692Z" fill="#29256A"/>
<path d="M66.3557 206.207L62.4076 210.79C62.4076 210.79 60.2747 220.88 55.7367 218.913C51.1987 216.947 40.7461 207.129 38.7947 204.452C36.8434 201.775 39.3695 201.094 41.5932 200.958C43.8168 200.837 51.4407 202.743 55.7821 200.867C57.0679 200.307 58.4141 198.25 58.4141 198.25L69.4567 190.792L66.3557 206.207Z" fill="url(#paint9_linear_3447_6331)" stroke="#29256A" stroke-width="0.5" stroke-linecap="round" stroke-linejoin="round"/>
<path d="M155.407 59.1894C155.407 59.1894 146.241 54.8632 139.827 59.7642C133.428 64.6653 132.157 69.5361 130.146 71.79C128.149 74.0439 118.438 82.046 118.438 82.046C118.438 82.046 110.556 84.8444 102.161 92.2566C102.161 92.2566 102.282 96.2198 101.057 102.074C101.057 102.074 116.032 99.7292 126.031 93.0129C136.03 86.2966 146.906 75.5868 146.906 75.5868C146.906 75.5868 154.424 65.2855 155.407 59.1894V59.1894Z" fill="url(#paint10_linear_3447_6331)" stroke="#29256A" stroke-width="0.5" stroke-linecap="round" stroke-linejoin="round"/>
<g opacity="0.15">
<path d="M152.911 58.282C150.763 64.3024 140.432 67.8724 140.432 67.8724C140.432 67.8724 137.633 81.1537 124.246 89.4432C116.562 94.2081 106.427 97.0671 101.753 98.0352C101.586 99.2302 101.359 100.592 101.057 102.074C101.057 102.074 116.032 99.7294 126.031 93.0131C136.03 86.2968 146.906 75.587 146.906 75.587C146.906 75.587 154.424 65.2857 155.407 59.1896C155.407 59.1896 154.424 58.7358 152.896 58.282H152.911Z" fill="#29256A"/>
</g>
<path d="M137.966 118.835C137.966 118.835 123.686 124.008 117.091 128.198C110.495 132.388 95.5803 143.749 88.2892 151.055C80.998 158.376 58.4138 198.25 58.4138 198.25C58.4138 198.25 65.3721 197.57 66.3553 206.207L101.434 166.121L148.448 142.221C148.448 142.221 158.508 120.272 137.95 118.85L137.966 118.835Z" fill="url(#paint11_linear_3447_6331)" stroke="#29256A" stroke-width="0.5" stroke-linecap="round" stroke-linejoin="round"/>
<g opacity="0.15">
<path d="M148.57 123.493C150.506 130.24 142.549 130.89 142.549 130.89L99.6499 162.551L65.0096 201.85C65.6449 202.939 66.1441 204.346 66.3559 206.207L101.435 166.121L148.449 142.22C148.449 142.22 153.879 130.346 148.57 123.509V123.493Z" fill="#29256A"/>
</g>
<path d="M131.703 166.287C131.703 166.287 131.613 166.287 131.582 166.242L125.744 161.386L124.397 158.936C124.352 158.86 124.367 158.754 124.443 158.694C124.473 158.664 124.518 158.648 124.564 158.648C124.609 158.648 124.654 158.648 124.685 158.694L132.293 165.032C132.293 165.032 132.384 165.183 132.339 165.259L131.87 166.182C131.87 166.182 131.794 166.272 131.734 166.272H131.703V166.287Z" fill="#CEE0E8"/>
<path d="M124.579 158.845L132.188 165.183L131.719 166.106L125.88 161.25L124.579 158.86M124.579 158.482C124.488 158.482 124.413 158.512 124.337 158.573C124.201 158.694 124.155 158.89 124.246 159.042L125.547 161.432C125.547 161.432 125.608 161.507 125.638 161.538L131.477 166.393C131.477 166.393 131.628 166.484 131.719 166.484C131.749 166.484 131.764 166.484 131.795 166.484C131.9 166.454 132.006 166.393 132.052 166.287L132.521 165.365C132.596 165.213 132.566 165.017 132.43 164.896L124.821 158.558C124.821 158.558 124.67 158.467 124.579 158.467V158.482Z" fill="#29256A"/>
<path d="M115.155 175.833C115.155 175.833 115.049 175.817 115.019 175.772C114.959 175.712 114.959 175.606 115.019 175.53L125.729 161.114C125.729 161.114 125.805 161.039 125.865 161.039C125.865 161.039 125.865 161.039 125.88 161.039C125.926 161.039 125.971 161.039 126.001 161.084L131.84 165.94C131.84 165.94 131.916 166.046 131.901 166.106C131.901 166.167 131.855 166.227 131.81 166.257L115.261 175.802C115.261 175.802 115.201 175.833 115.17 175.833H115.155Z" fill="#BACFD6"/>
<path d="M125.865 161.235L131.704 166.091L115.155 175.636L125.865 161.22M125.865 160.842C125.865 160.842 125.835 160.842 125.819 160.842C125.714 160.842 125.623 160.902 125.562 160.993L114.853 175.409C114.747 175.56 114.762 175.757 114.868 175.893C114.943 175.969 115.049 176.014 115.155 176.014C115.216 176.014 115.291 175.999 115.337 175.969L131.885 166.424C131.991 166.363 132.067 166.257 132.067 166.121C132.067 165.985 132.021 165.879 131.931 165.803L126.092 160.948C126.092 160.948 125.94 160.857 125.85 160.857L125.865 160.842Z" fill="#29256A"/>
<path d="M142.776 118.834C142.776 118.834 142.716 135.02 142.474 139.906C142.474 139.906 123.338 159.253 118.634 169.797C113.944 180.325 94.1434 218.913 94.1434 218.913C94.1434 218.913 101.828 218.913 102.463 227.324C102.463 227.324 124.896 204.195 127.922 197.237C129.676 193.198 132.974 179.205 132.974 179.205C132.974 179.205 168.597 162.808 172.954 153.369C177.311 143.93 174.24 137.637 176.161 126.383C176.978 121.587 151.474 110.711 142.791 118.834H142.776Z" fill="url(#paint12_linear_3447_6331)" stroke="#29256A" stroke-width="0.5" stroke-linecap="round" stroke-linejoin="round"/>
<g opacity="0.15">
<path d="M174.029 127.154C172.198 138.197 175.194 140.451 170.867 149.814C166.511 159.253 130.887 175.651 130.887 175.651C130.887 175.651 127.59 189.643 125.835 193.682C123.112 199.959 104.567 219.397 100.982 223.134C101.587 224.223 102.025 225.584 102.161 227.324C102.161 227.324 124.594 204.195 127.62 197.237C129.374 193.198 132.672 179.206 132.672 179.206C132.672 179.206 168.296 162.808 172.652 153.369C177.024 143.93 173.938 141.721 175.859 130.467C176.01 129.62 175.315 128.44 174.044 127.139L174.029 127.154Z" fill="#29256A"/>
</g>
<path d="M172.198 66.3748L183.21 75.5719C183.21 75.5719 182.696 86.8262 181.244 99.1394C179.716 112.027 178.006 115.809 175.843 126.368C175.843 126.368 169.43 130.074 151.217 127.366C137.482 125.324 137.966 118.819 137.966 118.819C137.966 118.819 136.907 92.5744 137.406 86.206C137.905 79.8376 137.678 71.1548 142.171 64.8318C146.664 58.5089 155.422 59.1744 155.422 59.1744L172.213 66.3748H172.198Z" fill="url(#paint13_linear_3447_6331)" stroke="#29256A" stroke-width="0.5" stroke-linecap="round" stroke-linejoin="round"/>
<g style="mix-blend-mode:darken">
<path d="M181.441 77.9468C181.441 77.9468 176.268 88.8078 174.8 101.121C173.273 114.009 175.632 121.361 173.454 131.919C175.042 131.148 175.829 130.467 175.829 130.467C178.007 119.908 179.702 112.043 181.229 99.1394C182.697 86.8111 183.196 77.9316 183.196 77.9316H181.411L181.441 77.9468Z" fill="#BACFD6"/>
</g>
<path d="M178.097 120.044C173.937 122.45 165.799 124.915 154.756 125.233C145.741 125.505 140.28 121.3 137.542 118.532C137.482 118.759 137.451 118.849 137.391 119.001C137.391 119.001 137.542 123.493 137.966 125.233C141.793 128.031 147.48 130.83 154.998 130.83C155.301 130.83 155.603 130.83 155.906 130.83C166.071 130.527 171.577 127.699 176.494 125.324C176.826 123.947 178.203 121.663 178.384 120.286C178.384 120.286 178.263 120.196 178.082 120.06L178.097 120.044Z" fill="#29256A" stroke="#29256A" stroke-width="0.5" stroke-linecap="round" stroke-linejoin="round"/>
<path d="M178.4 120.271C174.24 122.677 166.238 125.853 155.195 126.171C146.18 126.443 140.129 121.754 137.406 119.001C136.544 121.572 136.907 123.463 137.406 125.49C141.233 128.289 146.921 131.087 154.439 131.087C154.742 131.087 155.044 131.087 155.347 131.087C165.512 130.784 171.684 129.574 176.6 127.199C178.234 126.7 179.111 122.132 178.385 120.287L178.4 120.271Z" fill="url(#paint14_linear_3447_6331)" stroke="#29256A" stroke-width="0.5" stroke-linecap="round" stroke-linejoin="round"/>
<path d="M149.524 133.16L148.631 133.659C148.949 133.477 149.161 133.099 149.161 132.555L150.053 132.055C150.053 132.6 149.856 132.978 149.524 133.16Z" fill="#10242B" stroke="#29256A" stroke-width="0.5" stroke-linecap="round" stroke-linejoin="round"/>
<path d="M149.175 127.275L150.068 126.776L150.053 132.055L149.16 132.555L149.175 127.275Z" fill="#10242B" stroke="#29256A" stroke-width="0.5" stroke-linecap="round" stroke-linejoin="round"/>
<path d="M148.283 123.796L143.488 121.134C142.989 120.861 142.55 120.831 142.217 121.013L141.325 121.512C141.658 121.33 142.096 121.361 142.595 121.633L147.391 124.295C148.389 124.84 149.191 126.186 149.191 127.275L150.083 126.776C150.083 125.687 149.282 124.341 148.283 123.796Z" fill="#29256A" stroke="#29256A" stroke-width="0.5" stroke-miterlimit="10"/>
<path d="M147.375 124.295C148.373 124.84 149.175 126.186 149.175 127.275V132.554C149.16 133.644 148.343 134.097 147.36 133.538L142.565 130.875C141.581 130.331 140.78 128.984 140.78 127.895V122.616C140.795 121.527 141.612 121.073 142.595 121.618L147.39 124.28L147.375 124.295Z" fill="url(#paint15_linear_3447_6331)" stroke="#29256A" stroke-width="0.5" stroke-linecap="round" stroke-linejoin="round"/>
<path d="M183.226 75.5869C183.226 75.5869 190.29 80.1552 189.518 88.3842C188.747 96.6131 175.087 119.167 172.758 122.389C170.428 125.611 171.775 125.188 160.959 134.082C158.281 136.276 147.541 145.473 147.541 145.473C147.541 145.473 139.418 140.299 141.642 135.156L165.421 112.784C165.421 112.784 171.805 92.1961 174.588 86.6748C177.387 81.1536 180.079 76.6307 183.195 75.5869H183.226Z" fill="url(#paint16_linear_3447_6331)" stroke="#29256A" stroke-width="0.5" stroke-linecap="round" stroke-linejoin="round"/>
<path d="M56.8858 219.352C56.4925 219.352 56.0841 219.261 55.6757 219.08C51.062 217.068 40.6094 207.236 38.658 204.543C38.2496 203.983 38.1286 203.635 38.2648 203.378C38.3253 203.257 38.4614 203.121 38.7942 203.121C39.4144 203.121 40.4581 203.605 40.5035 203.62C43.9222 205.314 47.1896 207.523 48.4299 208.4L49.2317 208.96C50.8654 210.095 53.089 211.653 55.116 213.15C57.4455 214.875 59.1397 217.87 59.17 218.172C59.17 218.233 59.17 218.293 59.1095 218.339C58.4136 219.004 57.6573 219.337 56.8858 219.337V219.352Z" fill="#29256A"/>
<path d="M38.7646 203.333C39.3545 203.333 40.3983 203.817 40.3983 203.817C43.5749 205.39 46.6608 207.432 48.2945 208.582C49.9281 209.731 52.5905 211.577 54.9805 213.331C57.2949 215.041 58.9437 218.021 58.9588 218.217C58.3538 218.792 57.6579 219.155 56.8713 219.155C56.5083 219.155 56.1301 219.079 55.7368 218.898C51.1988 216.931 40.7462 207.114 38.7948 204.437C38.1746 203.575 38.341 203.333 38.7646 203.333M38.7646 202.954C38.341 202.954 38.1595 203.151 38.0687 203.302C37.857 203.711 38.1746 204.24 38.4772 204.664C40.4437 207.371 50.9265 217.234 55.5704 219.261C56.0091 219.443 56.4327 219.548 56.8562 219.548C57.6731 219.548 58.4597 219.201 59.2009 218.505C59.2916 218.414 59.337 218.293 59.3219 218.172C59.2765 217.854 57.5672 214.783 55.1923 213.029C53.1501 211.516 50.9114 209.958 49.2777 208.824L48.5062 208.279C47.2658 207.402 43.9833 205.193 40.5495 203.484C40.3529 203.393 39.3696 202.969 38.7495 202.969H38.7646V202.954Z" fill="#29256A"/>
<path d="M144.697 43.3668V62.4266L145.938 66.6318C145.938 66.6318 149.916 55.801 164.423 58.9323L163.455 37.2102L147.844 39.4943L144.682 43.3668H144.697Z" fill="#BACFD6" stroke="#29256A" stroke-width="0.5" stroke-linecap="round" stroke-linejoin="round"/>
<path d="M159.204 69.8992L161.125 74.8154C161.125 74.8154 161.171 77.6593 164.953 76.2676C168.734 74.8911 176.056 66.3596 176.056 66.3596L171.109 57.3743L158.357 66.6772L159.204 69.8992Z" fill="#E8B5A7" stroke="#29256A" stroke-width="0.5" stroke-linecap="round" stroke-linejoin="round"/>
<path d="M168.008 63.5459L166.118 61.0046L158.342 66.6621L159.19 69.8841L161.111 74.8003C161.111 74.8003 161.111 75.2087 161.338 75.6474C169.309 73.6658 167.993 63.5308 167.993 63.5308L168.008 63.5459Z" fill="#E8B5A7" stroke="#29256A" stroke-width="0.5" stroke-linecap="round" stroke-linejoin="round"/>
<path d="M148.418 51.5657C148.418 51.5657 148.055 57.6164 148.418 60.2031C148.782 62.7898 150.309 66.5715 150.37 67.8119C150.415 69.0371 150.748 70.8826 151.913 71.3515C153.078 71.8053 157.842 71.8356 161.322 69.7632C164.801 67.6908 167.977 64.363 168.825 62.8805C169.672 61.4132 172.742 57.3593 173.408 54.3339C174.074 51.3085 173.771 44.7586 169.868 43.125C165.981 41.4913 157.525 40.7652 153.32 44.7586C149.114 48.7521 149.084 50.0833 148.403 51.5657H148.418Z" fill="#FFD8CC" stroke="#29256A" stroke-width="0.5" stroke-linecap="round" stroke-linejoin="round"/>
<path d="M148.616 68.78C148.616 68.78 148.525 68.7649 148.495 68.7195C148.495 68.7195 148.48 68.6892 148.465 68.6892C148.404 68.5985 148.42 68.4775 148.51 68.417C148.541 68.3867 148.586 68.3716 148.631 68.3716C148.677 68.3716 148.737 68.3867 148.767 68.4321C148.828 68.5077 148.828 68.659 148.752 68.7195C148.707 68.7498 148.662 68.7649 148.616 68.7649V68.78Z" fill="#C4CBEB"/>
<path d="M148.616 68.5527C148.616 68.5527 148.616 68.5679 148.631 68.583C148.631 68.583 148.631 68.5679 148.616 68.5527ZM148.616 68.1897C148.541 68.1897 148.465 68.2048 148.404 68.2653C148.238 68.3863 148.193 68.5981 148.314 68.7645C148.314 68.7645 148.344 68.8099 148.359 68.825C148.435 68.9158 148.541 68.9612 148.646 68.9612C148.737 68.9612 148.813 68.9309 148.888 68.8704C149.04 68.7343 149.07 68.5074 148.934 68.341C148.858 68.2502 148.737 68.1897 148.616 68.1897V68.1897Z" fill="#29256A"/>
<path d="M158.357 52.0798C158.357 52.0798 151.293 52.6395 149.72 52.3067C146.921 51.7319 145.605 48.5099 146.029 45.3182C146.453 42.1264 149.493 38.4355 151.217 37.3312C152.942 36.2118 158.055 33.7916 161.7 33.9126C165.346 34.0336 171.079 35.8337 173.499 38.5262C176.071 41.3852 176.615 43.6391 176.994 46.7401C177.372 49.8562 175.723 56.5725 174.921 57.5709C174.119 58.5692 169.203 62.2753 169.203 62.2753L166.087 63.7577C166.087 63.7577 166.541 58.5692 166.359 56.27C166.163 53.9707 160.415 56.0582 158.372 52.0798H158.357Z" fill="#29256A"/>
<path d="M168.492 63.3796C168.492 63.3796 169.022 58.5087 171.488 56.6935C173.015 55.5741 173.499 56.7238 173.681 57.1019C173.862 57.4801 174.21 60.0668 172.214 61.4736C170.217 62.8955 168.477 63.3644 168.477 63.3644L168.492 63.3796Z" fill="#E8B5A7" stroke="#29256A" stroke-width="0.5" stroke-linecap="round" stroke-linejoin="round"/>
<path d="M178.007 65.3009L177.523 70.9885C177.523 70.9885 171.291 78.0981 161.125 77.9469C142.822 77.6595 144.168 67.2674 143.715 63.2134L145.288 65.3916L148.056 68.5985L151.475 70.9583L156.557 72.2743L163.727 72.4861L177.992 65.3009H178.007Z" fill="url(#paint17_linear_3447_6331)" stroke="#29256A" stroke-width="0.5" stroke-linecap="round" stroke-linejoin="round"/>
<path d="M177.855 71.3818C177.734 71.2457 177.583 70.2927 177.583 70.2927C177.522 70.3683 171.078 77.4628 161.458 77.4628C161.352 77.4628 161.246 77.4628 161.14 77.4628C146.664 77.2359 145.03 70.5952 143.88 65.3916C143.79 65.7546 143.669 66.4505 143.548 67.0253C144.168 71.8507 146.739 78.2191 161.125 78.446C161.246 78.446 161.352 78.446 161.473 78.446C171.169 78.446 177.19 72.1079 177.855 71.3818V71.3818Z" fill="url(#paint18_linear_3447_6331)" stroke="#29256A" stroke-width="0.5" stroke-linecap="round" stroke-linejoin="round"/>
<path d="M164.377 32.0672C153.592 31.3109 148.237 37.1196 145.666 40.3416C144.38 41.945 143.729 43.9569 143.729 46.0141V63.2133C145.227 68.6589 152.518 73.9382 163.485 72.9095C174.452 71.8809 178.022 65.3008 178.022 65.3008L177.084 57.1172C177.084 57.1172 184.95 33.5043 164.377 32.0672ZM170.413 66.0722C170.413 66.0722 169.611 71.9868 159.703 71.9868C145.302 71.9868 145.302 62.2451 145.302 62.2451L145.363 48.0411C145.363 48.0411 145.045 41.1735 152.412 42.3837C160.717 43.7451 169.006 50.7034 169.899 53.396C170.791 56.0885 170.398 66.0874 170.398 66.0874L170.413 66.0722Z" fill="url(#paint19_linear_3447_6331)" stroke="#29256A" stroke-width="0.5" stroke-linecap="round" stroke-linejoin="round"/>
<g opacity="0.3">
<path d="M153.077 43.4878C157.842 44.2593 162.561 47.1334 165.466 49.6898C167.462 51.4445 167.447 54.5153 165.541 56.3607C163.968 57.8885 161.729 59.0987 158.628 58.9323C152.699 58.5995 147.117 57.1322 146.905 52.0193V48.4343C146.905 48.4343 146.633 42.4441 153.077 43.4878Z" fill="#CADDFF"/>
</g>
<g style="mix-blend-mode:darken">
<path d="M164.378 32.0673C162.866 31.9614 161.474 31.9917 160.158 32.1278C189.564 33.1716 174.68 60.3393 174.68 60.3393L174.226 69.7482C176.949 67.8119 178.023 65.3009 178.023 65.3009L178.476 56.603C178.476 56.603 184.951 33.5044 164.378 32.0673Z" fill="#BACFD6"/>
</g>
<path d="M123.641 183.199L162.865 160.509V158.331L123.641 180.976V183.199Z" fill="#29256A" stroke="#29256A" stroke-width="0.5" stroke-linecap="round" stroke-linejoin="round"/>
<path d="M62.438 147.878L123.641 183.199V180.975L62.438 145.639V147.878Z" fill="#3F15AB" stroke="#29256A" stroke-width="0.5" stroke-linecap="round" stroke-linejoin="round"/>
<path d="M123.641 180.975L162.864 158.331L101.661 122.994L62.4377 145.639L123.641 180.975Z" fill="url(#paint20_linear_3447_6331)" stroke="#29256A" stroke-width="0.5" stroke-linecap="round" stroke-linejoin="round"/>
<path d="M138.994 162.021L134.728 159.556C134.638 159.51 134.592 159.435 134.592 159.374C134.592 159.314 134.638 159.253 134.728 159.193L137.088 157.831C137.194 157.771 137.361 157.725 137.527 157.725C137.693 157.725 137.845 157.756 137.966 157.831L142.231 160.297C142.322 160.342 142.367 160.418 142.367 160.479C142.367 160.539 142.322 160.6 142.231 160.66L139.872 162.021C139.766 162.082 139.599 162.127 139.433 162.127C139.266 162.127 139.115 162.097 138.994 162.021ZM143.215 159.647L140.401 158.028C140.31 157.983 140.265 157.907 140.265 157.846C140.265 157.786 140.31 157.725 140.401 157.665L142.761 156.304C142.867 156.243 143.033 156.198 143.199 156.198C143.366 156.198 143.517 156.228 143.638 156.304L146.452 157.922C146.542 157.968 146.588 158.043 146.588 158.104C146.588 158.164 146.542 158.225 146.452 158.285L144.092 159.647C143.986 159.707 143.82 159.752 143.653 159.752C143.487 159.752 143.336 159.722 143.215 159.647ZM132.989 158.557L130.175 156.939C130.085 156.893 130.039 156.818 130.039 156.757C130.039 156.697 130.085 156.636 130.175 156.576L132.535 155.214C132.641 155.154 132.807 155.109 132.974 155.109C133.14 155.109 133.291 155.139 133.412 155.214L136.226 156.833C136.317 156.878 136.362 156.954 136.362 157.015C136.362 157.075 136.317 157.136 136.226 157.196L133.866 158.557C133.76 158.618 133.594 158.663 133.428 158.663C133.261 158.663 133.11 158.633 132.989 158.557V158.557ZM147.223 157.257L142.957 154.791C142.867 154.745 142.821 154.67 142.821 154.609C142.821 154.549 142.867 154.488 142.957 154.428L145.317 153.066C145.423 153.006 145.589 152.961 145.756 152.961C145.922 152.961 146.074 152.991 146.195 153.066L150.46 155.532C150.551 155.577 150.596 155.653 150.596 155.714C150.596 155.774 150.551 155.835 150.46 155.895L148.101 157.257C147.995 157.317 147.828 157.362 147.662 157.362C147.495 157.362 147.344 157.332 147.223 157.257ZM138.677 157.03L135.863 155.411C135.772 155.366 135.727 155.29 135.727 155.23C135.727 155.169 135.772 155.109 135.863 155.048L138.223 153.687C138.329 153.626 138.495 153.581 138.661 153.581C138.828 153.581 138.979 153.611 139.1 153.687L141.914 155.305C142.004 155.351 142.05 155.426 142.05 155.487C142.05 155.547 142.004 155.608 141.914 155.668L139.554 157.03C139.448 157.09 139.282 157.136 139.115 157.136C138.949 157.136 138.798 157.105 138.677 157.03ZM128.451 155.941L125.637 154.322C125.546 154.277 125.501 154.201 125.501 154.14C125.501 154.08 125.546 154.019 125.637 153.959L127.997 152.597C128.103 152.537 128.269 152.492 128.436 152.492C128.602 152.492 128.753 152.522 128.874 152.597L131.688 154.216C131.779 154.261 131.824 154.337 131.824 154.398C131.824 154.458 131.779 154.519 131.688 154.579L129.328 155.941C129.222 156.001 129.056 156.046 128.89 156.046C128.723 156.046 128.572 156.016 128.451 155.941ZM134.139 154.413L131.325 152.794C131.234 152.749 131.189 152.673 131.189 152.613C131.189 152.552 131.234 152.492 131.325 152.431L133.685 151.07C133.791 151.009 133.957 150.964 134.123 150.964C134.29 150.964 134.441 150.994 134.562 151.07L137.376 152.688C137.466 152.734 137.512 152.809 137.512 152.87C137.512 152.93 137.466 152.991 137.376 153.051L135.016 154.413C134.91 154.473 134.744 154.519 134.577 154.519C134.411 154.519 134.26 154.488 134.139 154.413V154.413ZM141.233 153.793L138.419 152.174C138.329 152.129 138.283 152.053 138.283 151.992C138.283 151.932 138.329 151.871 138.419 151.811L140.779 150.449C140.885 150.389 141.051 150.344 141.218 150.344C141.384 150.344 141.536 150.374 141.657 150.449L144.47 152.068C144.561 152.113 144.606 152.189 144.606 152.25C144.606 152.31 144.561 152.371 144.47 152.431L142.11 153.793C142.004 153.853 141.838 153.898 141.672 153.898C141.505 153.898 141.354 153.868 141.233 153.793ZM123.928 153.308L121.114 151.69C121.024 151.645 120.978 151.569 120.978 151.508C120.978 151.448 121.024 151.387 121.114 151.327L123.474 149.965C123.58 149.905 123.746 149.86 123.913 149.86C124.079 149.86 124.23 149.89 124.351 149.965L127.165 151.584C127.256 151.629 127.301 151.705 127.301 151.766C127.301 151.826 127.256 151.887 127.165 151.947L124.805 153.308C124.699 153.369 124.533 153.414 124.367 153.414C124.2 153.414 124.049 153.384 123.928 153.308ZM129.616 151.781L126.802 150.162C126.711 150.117 126.666 150.041 126.666 149.981C126.666 149.92 126.711 149.86 126.802 149.799L129.162 148.438C129.268 148.377 129.434 148.332 129.6 148.332C129.767 148.332 129.918 148.362 130.039 148.438L132.853 150.056C132.943 150.102 132.989 150.177 132.989 150.238C132.989 150.298 132.943 150.359 132.853 150.419L130.493 151.781C130.387 151.841 130.221 151.887 130.054 151.887C129.888 151.887 129.737 151.856 129.616 151.781ZM136.71 151.16L133.896 149.542C133.806 149.496 133.76 149.421 133.76 149.36C133.76 149.3 133.806 149.239 133.896 149.179L136.256 147.817C136.362 147.757 136.529 147.712 136.695 147.712C136.861 147.712 137.013 147.742 137.134 147.817L139.947 149.436C140.038 149.481 140.083 149.557 140.083 149.618C140.083 149.678 140.038 149.739 139.947 149.799L137.587 151.16C137.482 151.221 137.315 151.266 137.149 151.266C136.982 151.266 136.831 151.236 136.71 151.16ZM119.405 150.676L116.591 149.058C116.501 149.012 116.455 148.937 116.455 148.876C116.455 148.816 116.501 148.755 116.591 148.695L118.951 147.333C119.057 147.273 119.224 147.227 119.39 147.227C119.556 147.227 119.708 147.258 119.829 147.333L122.642 148.952C122.733 148.997 122.778 149.073 122.778 149.133C122.778 149.194 122.733 149.254 122.642 149.315L120.282 150.676C120.176 150.737 120.01 150.782 119.844 150.782C119.677 150.782 119.526 150.752 119.405 150.676ZM125.093 149.149L122.279 147.53C122.188 147.485 122.143 147.409 122.143 147.349C122.143 147.288 122.188 147.227 122.279 147.167L124.639 145.806C124.745 145.745 124.911 145.7 125.078 145.7C125.244 145.7 125.395 145.73 125.516 145.806L128.33 147.424C128.421 147.47 128.466 147.545 128.466 147.606C128.466 147.666 128.421 147.727 128.33 147.787L125.97 149.149C125.864 149.209 125.698 149.254 125.531 149.254C125.365 149.254 125.214 149.224 125.093 149.149ZM132.187 148.528L129.374 146.91C129.283 146.864 129.237 146.789 129.237 146.728C129.237 146.668 129.283 146.607 129.374 146.547L131.733 145.185C131.839 145.125 132.006 145.079 132.172 145.079C132.338 145.079 132.49 145.11 132.611 145.185L135.424 146.804C135.515 146.849 135.56 146.925 135.56 146.985C135.56 147.046 135.515 147.106 135.424 147.167L133.065 148.528C132.959 148.589 132.792 148.634 132.626 148.634C132.459 148.634 132.308 148.604 132.187 148.528V148.528ZM114.882 148.044L112.069 146.426C111.978 146.38 111.932 146.305 111.932 146.244C111.932 146.184 111.978 146.123 112.069 146.063L114.428 144.701C114.534 144.641 114.701 144.595 114.867 144.595C115.033 144.595 115.185 144.626 115.306 144.701L118.119 146.32C118.21 146.365 118.255 146.441 118.255 146.501C118.255 146.562 118.21 146.622 118.119 146.683L115.759 148.044C115.654 148.105 115.487 148.15 115.321 148.15C115.154 148.15 115.003 148.12 114.882 148.044ZM120.57 146.517L117.756 144.898C117.665 144.853 117.62 144.777 117.62 144.716C117.62 144.656 117.665 144.595 117.756 144.535L120.116 143.174C120.222 143.113 120.388 143.068 120.555 143.068C120.721 143.068 120.872 143.098 120.993 143.174L123.807 144.792C123.898 144.837 123.943 144.913 123.943 144.974C123.943 145.034 123.898 145.095 123.807 145.155L121.447 146.517C121.341 146.577 121.175 146.622 121.008 146.622C120.842 146.622 120.691 146.592 120.57 146.517ZM127.664 145.896L124.851 144.278C124.76 144.232 124.715 144.157 124.715 144.096C124.715 144.036 124.76 143.975 124.851 143.915L127.21 142.553C127.316 142.493 127.483 142.447 127.649 142.447C127.816 142.447 127.967 142.478 128.088 142.553L130.901 144.172C130.992 144.217 131.038 144.293 131.038 144.353C131.038 144.414 130.992 144.474 130.901 144.535L128.542 145.896C128.436 145.957 128.269 146.002 128.103 146.002C127.937 146.002 127.785 145.972 127.664 145.896ZM110.359 145.412L107.546 143.794C107.455 143.748 107.409 143.673 107.409 143.612C107.409 143.552 107.455 143.491 107.546 143.431L109.905 142.069C110.011 142.009 110.178 141.963 110.344 141.963C110.51 141.963 110.662 141.994 110.783 142.069L113.596 143.688C113.687 143.733 113.732 143.809 113.732 143.869C113.732 143.93 113.687 143.99 113.596 144.051L111.237 145.412C111.131 145.473 110.964 145.518 110.798 145.518C110.631 145.518 110.48 145.488 110.359 145.412ZM116.047 143.884L113.233 142.266C113.143 142.221 113.097 142.145 113.097 142.084C113.097 142.024 113.143 141.963 113.233 141.903L115.593 140.541C115.699 140.481 115.865 140.436 116.032 140.436C116.198 140.436 116.349 140.466 116.47 140.541L119.284 142.16C119.375 142.205 119.42 142.281 119.42 142.342C119.42 142.402 119.375 142.463 119.284 142.523L116.924 143.884C116.818 143.945 116.652 143.99 116.486 143.99C116.319 143.99 116.168 143.96 116.047 143.884ZM123.141 143.264L120.328 141.646C120.237 141.6 120.192 141.525 120.192 141.464C120.192 141.404 120.237 141.343 120.328 141.283L122.688 139.921C122.793 139.861 122.96 139.815 123.126 139.815C123.293 139.815 123.444 139.846 123.565 139.921L126.378 141.54C126.469 141.585 126.515 141.661 126.515 141.721C126.515 141.782 126.469 141.842 126.378 141.903L124.019 143.264C123.913 143.325 123.746 143.37 123.58 143.37C123.414 143.37 123.262 143.34 123.141 143.264ZM105.836 142.78L103.023 141.162C102.932 141.116 102.887 141.041 102.887 140.98C102.887 140.92 102.932 140.859 103.023 140.799L105.382 139.437C105.488 139.377 105.655 139.331 105.821 139.331C105.988 139.331 106.139 139.362 106.26 139.437L109.073 141.056C109.164 141.101 109.21 141.177 109.21 141.237C109.21 141.298 109.164 141.358 109.073 141.419L106.714 142.78C106.608 142.841 106.441 142.886 106.275 142.886C106.109 142.886 105.957 142.856 105.836 142.78ZM111.524 141.252L108.71 139.634C108.62 139.588 108.574 139.513 108.574 139.452C108.574 139.392 108.62 139.331 108.71 139.271L111.07 137.909C111.176 137.849 111.342 137.804 111.509 137.804C111.675 137.804 111.827 137.834 111.948 137.909L114.761 139.528C114.852 139.573 114.897 139.649 114.897 139.709C114.897 139.77 114.852 139.83 114.761 139.891L112.401 141.252C112.295 141.313 112.129 141.358 111.963 141.358C111.796 141.358 111.645 141.328 111.524 141.252ZM118.618 140.632L115.805 139.014C115.714 138.968 115.669 138.893 115.669 138.832C115.669 138.772 115.714 138.711 115.805 138.651L118.165 137.289C118.271 137.229 118.437 137.183 118.603 137.183C118.77 137.183 118.921 137.214 119.042 137.289L121.856 138.908C121.946 138.953 121.992 139.029 121.992 139.089C121.992 139.15 121.946 139.21 121.856 139.271L119.496 140.632C119.39 140.693 119.224 140.738 119.057 140.738C118.891 140.738 118.739 140.708 118.618 140.632ZM101.313 140.148L98.4998 138.53C98.4091 138.484 98.3637 138.409 98.3637 138.348C98.3637 138.288 98.4091 138.227 98.4998 138.167L100.86 136.805C100.965 136.745 101.132 136.699 101.298 136.699C101.465 136.699 101.616 136.729 101.737 136.805L104.551 138.424C104.641 138.469 104.687 138.545 104.687 138.605C104.687 138.666 104.641 138.726 104.551 138.787L102.191 140.148C102.085 140.209 101.918 140.254 101.752 140.254C101.586 140.254 101.434 140.224 101.313 140.148ZM107.001 138.62L104.187 137.002C104.097 136.956 104.051 136.881 104.051 136.82C104.051 136.76 104.097 136.699 104.187 136.639L106.547 135.277C106.653 135.217 106.82 135.171 106.986 135.171C107.152 135.171 107.304 135.202 107.425 135.277L110.238 136.896C110.329 136.941 110.374 137.017 110.374 137.077C110.374 137.138 110.329 137.198 110.238 137.259L107.878 138.62C107.773 138.681 107.606 138.726 107.44 138.726C107.273 138.726 107.122 138.696 107.001 138.62ZM114.096 138L111.282 136.382C111.191 136.336 111.146 136.261 111.146 136.2C111.146 136.14 111.191 136.079 111.282 136.019L113.642 134.657C113.748 134.597 113.914 134.551 114.08 134.551C114.247 134.551 114.398 134.581 114.519 134.657L117.333 136.276C117.423 136.321 117.469 136.397 117.469 136.457C117.469 136.518 117.423 136.578 117.333 136.639L114.973 138C114.867 138.061 114.701 138.106 114.534 138.106C114.368 138.106 114.217 138.076 114.096 138ZM96.7905 137.516L93.9769 135.898C93.8861 135.852 93.8408 135.777 93.8408 135.716C93.8408 135.655 93.8861 135.595 93.9769 135.534L96.3367 134.173C96.4426 134.113 96.609 134.067 96.7754 134.067C96.9418 134.067 97.093 134.097 97.214 134.173L100.028 135.792C100.118 135.837 100.164 135.913 100.164 135.973C100.164 136.034 100.118 136.094 100.028 136.155L97.6678 137.516C97.562 137.577 97.3956 137.622 97.2292 137.622C97.0628 137.622 96.9115 137.592 96.7905 137.516ZM102.478 135.988L98.2124 133.523C98.1216 133.477 98.0763 133.402 98.0763 133.341C98.0763 133.281 98.1216 133.22 98.2124 133.16L100.572 131.798C100.678 131.738 100.844 131.692 101.011 131.692C101.177 131.692 101.329 131.723 101.45 131.798L105.715 134.264C105.806 134.309 105.851 134.385 105.851 134.445C105.851 134.506 105.806 134.566 105.715 134.627L103.356 135.988C103.25 136.049 103.083 136.094 102.917 136.094C102.75 136.094 102.599 136.064 102.478 135.988ZM109.573 135.368L106.759 133.75C106.668 133.704 106.623 133.629 106.623 133.568C106.623 133.507 106.668 133.447 106.759 133.386L109.119 132.025C109.225 131.965 109.391 131.919 109.557 131.919C109.724 131.919 109.875 131.949 109.996 132.025L112.81 133.644C112.901 133.689 112.946 133.765 112.946 133.825C112.946 133.886 112.901 133.946 112.81 134.007L110.45 135.368C110.344 135.429 110.178 135.474 110.011 135.474C109.845 135.474 109.694 135.444 109.573 135.368ZM105.035 132.751L102.221 131.133C102.13 131.087 102.085 131.012 102.085 130.951C102.085 130.891 102.13 130.83 102.221 130.77L104.581 129.408C104.687 129.348 104.853 129.302 105.019 129.302C105.186 129.302 105.337 129.332 105.458 129.408L108.272 131.027C108.362 131.072 108.408 131.148 108.408 131.208C108.408 131.269 108.362 131.329 108.272 131.39L105.912 132.751C105.806 132.812 105.64 132.857 105.473 132.857C105.307 132.857 105.156 132.827 105.035 132.751Z" fill="#29256A"/>
<path d="M130.599 166.937L127.786 165.319C127.695 165.273 127.649 165.198 127.649 165.137C127.649 165.077 127.695 165.016 127.786 164.956L130.145 163.594C130.251 163.534 130.418 163.489 130.584 163.489C130.75 163.489 130.902 163.519 131.023 163.594L133.836 165.213C133.927 165.258 133.972 165.334 133.972 165.394C133.972 165.455 133.927 165.516 133.836 165.576L131.476 166.937C131.371 166.998 131.204 167.043 131.038 167.043C130.871 167.043 130.72 167.013 130.599 166.937ZM134.623 164.547L130.357 162.082C130.266 162.036 130.221 161.961 130.221 161.9C130.221 161.84 130.266 161.779 130.357 161.719L132.717 160.357C132.823 160.297 132.989 160.251 133.156 160.251C133.322 160.251 133.473 160.282 133.594 160.357L137.86 162.823C137.951 162.868 137.996 162.944 137.996 163.004C137.996 163.065 137.951 163.125 137.86 163.186L135.5 164.547C135.394 164.608 135.228 164.653 135.061 164.653C134.895 164.653 134.744 164.623 134.623 164.547V164.547ZM126.076 164.32L123.263 162.702C123.172 162.657 123.126 162.581 123.126 162.52C123.126 162.46 123.172 162.399 123.263 162.339L125.622 160.977C125.728 160.917 125.895 160.872 126.061 160.872C126.227 160.872 126.379 160.902 126.5 160.977L129.313 162.596C129.404 162.641 129.449 162.717 129.449 162.778C129.449 162.838 129.404 162.899 129.313 162.959L126.954 164.32C126.848 164.381 126.681 164.426 126.515 164.426C126.348 164.426 126.197 164.396 126.076 164.32ZM121.538 161.704L118.725 160.085C118.634 160.04 118.588 159.964 118.588 159.903C118.588 159.843 118.634 159.782 118.725 159.722L121.084 158.361C121.19 158.3 121.357 158.255 121.523 158.255C121.689 158.255 121.841 158.285 121.962 158.361L124.775 159.979C124.866 160.024 124.911 160.1 124.911 160.161C124.911 160.221 124.866 160.282 124.775 160.342L122.416 161.704C122.31 161.764 122.143 161.809 121.977 161.809C121.81 161.809 121.659 161.779 121.538 161.704ZM128.633 161.083L125.819 159.465C125.728 159.419 125.683 159.344 125.683 159.283C125.683 159.223 125.728 159.162 125.819 159.102L128.179 157.74C128.285 157.68 128.451 157.634 128.617 157.634C128.784 157.634 128.935 157.665 129.056 157.74L131.87 159.359C131.961 159.404 132.006 159.48 132.006 159.54C132.006 159.601 131.961 159.661 131.87 159.722L129.51 161.083C129.404 161.144 129.238 161.189 129.071 161.189C128.905 161.189 128.754 161.159 128.633 161.083ZM117 159.087L114.187 157.468C114.096 157.423 114.05 157.347 114.05 157.287C114.05 157.226 114.096 157.166 114.187 157.105L116.546 155.744C116.652 155.683 116.819 155.638 116.985 155.638C117.151 155.638 117.303 155.668 117.424 155.744L120.237 157.362C120.328 157.408 120.373 157.483 120.373 157.544C120.373 157.604 120.328 157.665 120.237 157.725L117.877 159.087C117.772 159.147 117.605 159.193 117.439 159.193C117.272 159.193 117.121 159.162 117 159.087ZM124.095 158.466L121.281 156.848C121.19 156.802 121.145 156.727 121.145 156.666C121.145 156.606 121.19 156.545 121.281 156.485L123.641 155.123C123.747 155.063 123.913 155.018 124.079 155.018C124.246 155.018 124.397 155.048 124.518 155.123L127.332 156.742C127.422 156.787 127.468 156.863 127.468 156.923C127.468 156.984 127.422 157.044 127.332 157.105L124.972 158.466C124.866 158.527 124.7 158.572 124.533 158.572C124.367 158.572 124.216 158.542 124.095 158.466ZM112.462 156.47L109.648 154.851C109.558 154.806 109.512 154.73 109.512 154.67C109.512 154.609 109.558 154.549 109.648 154.488L112.008 153.127C112.114 153.066 112.281 153.021 112.447 153.021C112.613 153.021 112.765 153.051 112.886 153.127L115.699 154.745C115.79 154.791 115.835 154.866 115.835 154.927C115.835 154.987 115.79 155.048 115.699 155.108L113.339 156.47C113.234 156.53 113.067 156.576 112.901 156.576C112.734 156.576 112.583 156.545 112.462 156.47ZM119.557 155.849L116.743 154.231C116.652 154.186 116.607 154.11 116.607 154.049C116.607 153.989 116.652 153.928 116.743 153.868L119.103 152.506C119.209 152.446 119.375 152.401 119.541 152.401C119.708 152.401 119.859 152.431 119.98 152.506L122.794 154.125C122.884 154.17 122.93 154.246 122.93 154.307C122.93 154.367 122.884 154.428 122.794 154.488L120.434 155.849C120.328 155.91 120.162 155.955 119.995 155.955C119.829 155.955 119.678 155.925 119.557 155.849ZM107.924 153.853L105.11 152.234C105.02 152.189 104.974 152.113 104.974 152.053C104.974 151.992 105.02 151.932 105.11 151.871L107.47 150.51C107.576 150.449 107.743 150.404 107.909 150.404C108.075 150.404 108.227 150.434 108.348 150.51L111.161 152.128C111.252 152.174 111.297 152.249 111.297 152.31C111.297 152.37 111.252 152.431 111.161 152.491L108.801 153.853C108.696 153.913 108.529 153.959 108.363 153.959C108.196 153.959 108.045 153.928 107.924 153.853ZM115.018 153.233L112.205 151.614C112.114 151.569 112.069 151.493 112.069 151.432C112.069 151.372 112.114 151.311 112.205 151.251L114.565 149.89C114.671 149.829 114.837 149.784 115.003 149.784C115.17 149.784 115.321 149.814 115.442 149.89L118.256 151.508C118.346 151.553 118.392 151.629 118.392 151.69C118.392 151.75 118.346 151.811 118.256 151.871L115.896 153.233C115.79 153.293 115.624 153.338 115.457 153.338C115.291 153.338 115.14 153.308 115.018 153.233ZM103.386 151.236L100.572 149.617C100.482 149.572 100.436 149.496 100.436 149.436C100.436 149.375 100.482 149.315 100.572 149.254L102.932 147.893C103.038 147.832 103.204 147.787 103.371 147.787C103.537 147.787 103.689 147.817 103.81 147.893L106.623 149.511C106.714 149.557 106.759 149.632 106.759 149.693C106.759 149.753 106.714 149.814 106.623 149.874L104.263 151.236C104.157 151.296 103.991 151.342 103.825 151.342C103.658 151.342 103.507 151.311 103.386 151.236ZM110.48 150.616L107.667 148.997C107.576 148.952 107.531 148.876 107.531 148.816C107.531 148.755 107.576 148.695 107.667 148.634L110.027 147.273C110.133 147.212 110.299 147.167 110.465 147.167C110.632 147.167 110.783 147.197 110.904 147.273L113.718 148.891C113.808 148.937 113.854 149.012 113.854 149.073C113.854 149.133 113.808 149.194 113.718 149.254L111.358 150.616C111.252 150.676 111.086 150.722 110.919 150.722C110.753 150.722 110.601 150.691 110.48 150.616ZM98.8631 148.619L96.0495 147C95.9588 146.955 95.9134 146.879 95.9134 146.819C95.9134 146.758 95.9588 146.698 96.0495 146.637L98.4093 145.276C98.5152 145.215 98.6816 145.17 98.848 145.17C99.0144 145.17 99.1656 145.2 99.2866 145.276L102.1 146.894C102.191 146.94 102.236 147.015 102.236 147.076C102.236 147.136 102.191 147.197 102.1 147.257L99.7404 148.619C99.6346 148.679 99.4682 148.725 99.3018 148.725C99.1354 148.725 98.9841 148.695 98.8631 148.619ZM105.958 147.999L103.144 146.38C103.053 146.335 103.008 146.259 103.008 146.199C103.008 146.138 103.053 146.078 103.144 146.017L105.504 144.656C105.61 144.595 105.776 144.55 105.942 144.55C106.109 144.55 106.26 144.58 106.381 144.656L109.195 146.274C109.285 146.32 109.331 146.395 109.331 146.456C109.331 146.516 109.285 146.577 109.195 146.637L106.835 147.999C106.729 148.059 106.563 148.105 106.396 148.105C106.23 148.105 106.079 148.074 105.958 147.999ZM94.3251 146.002L91.5115 144.383C91.4207 144.338 91.3753 144.262 91.3753 144.202C91.3753 144.141 91.4207 144.081 91.5115 144.02L93.8713 142.659C93.9771 142.598 94.1435 142.553 94.3099 142.553C94.4763 142.553 94.6276 142.583 94.7486 142.659L97.5622 144.277C97.653 144.323 97.6983 144.399 97.6983 144.459C97.6983 144.52 97.653 144.58 97.5622 144.641L95.2024 146.002C95.0965 146.062 94.9301 146.108 94.7637 146.108C94.5973 146.108 94.4461 146.078 94.3251 146.002ZM101.42 145.382L98.6059 143.763C98.5152 143.718 98.4698 143.642 98.4698 143.582C98.4698 143.521 98.5152 143.461 98.6059 143.4L100.966 142.039C101.072 141.978 101.238 141.933 101.404 141.933C101.571 141.933 101.722 141.963 101.843 142.039L104.657 143.657C104.747 143.703 104.793 143.778 104.793 143.839C104.793 143.899 104.747 143.96 104.657 144.02L102.297 145.382C102.191 145.442 102.025 145.488 101.858 145.488C101.692 145.488 101.541 145.457 101.42 145.382ZM89.787 143.385L85.5213 140.919C85.4305 140.874 85.3851 140.798 85.3851 140.738C85.3851 140.677 85.4305 140.617 85.5213 140.556L87.8811 139.195C87.9869 139.134 88.1533 139.089 88.3197 139.089C88.4861 139.089 88.6374 139.119 88.7584 139.195L93.0242 141.661C93.1149 141.706 93.1603 141.782 93.1603 141.842C93.1603 141.903 93.1149 141.963 93.0242 142.024L90.6644 143.385C90.5585 143.446 90.3921 143.491 90.2257 143.491C90.0593 143.491 89.908 143.461 89.787 143.385ZM96.8815 142.765L94.0679 141.146C93.9771 141.101 93.9318 141.025 93.9318 140.965C93.9318 140.904 93.9771 140.844 94.0679 140.783L96.4277 139.422C96.5336 139.361 96.7 139.316 96.8664 139.316C97.0328 139.316 97.184 139.346 97.305 139.422L100.119 141.04C100.209 141.086 100.255 141.161 100.255 141.222C100.255 141.282 100.209 141.343 100.119 141.403L97.7588 142.765C97.653 142.825 97.4866 142.871 97.3202 142.871C97.1538 142.871 97.0025 142.84 96.8815 142.765ZM92.3435 140.148L89.5299 138.529C89.4391 138.484 89.3937 138.408 89.3937 138.348C89.3937 138.287 89.4391 138.227 89.5299 138.166L91.8897 136.805C91.9955 136.744 92.1619 136.699 92.3283 136.699C92.4947 136.699 92.646 136.729 92.767 136.805L95.5806 138.423C95.6713 138.469 95.7167 138.544 95.7167 138.605C95.7167 138.665 95.6713 138.726 95.5806 138.786L93.2208 140.148C93.1149 140.208 92.9485 140.254 92.7821 140.254C92.6157 140.254 92.4645 140.224 92.3435 140.148Z" fill="#29256A"/>
<path style="mix-blend-mode:screen" d="M138.994 161.643L134.728 159.178C134.638 159.132 134.592 159.057 134.592 158.996C134.592 158.936 134.638 158.875 134.728 158.815L137.088 157.453C137.194 157.393 137.361 157.347 137.527 157.347C137.693 157.347 137.845 157.378 137.966 157.453L142.231 159.919C142.322 159.964 142.367 160.04 142.367 160.1C142.367 160.161 142.322 160.221 142.231 160.282L139.872 161.643C139.766 161.704 139.599 161.749 139.433 161.749C139.266 161.749 139.115 161.719 138.994 161.643ZM143.215 159.268L140.401 157.65C140.31 157.604 140.265 157.529 140.265 157.468C140.265 157.408 140.31 157.347 140.401 157.287L142.761 155.925C142.867 155.865 143.033 155.819 143.199 155.819C143.366 155.819 143.517 155.85 143.638 155.925L146.452 157.544C146.542 157.589 146.588 157.665 146.588 157.725C146.588 157.786 146.542 157.846 146.452 157.907L144.092 159.268C143.986 159.329 143.82 159.374 143.653 159.374C143.487 159.374 143.336 159.344 143.215 159.268ZM132.989 158.179L130.175 156.561C130.085 156.515 130.039 156.44 130.039 156.379C130.039 156.319 130.085 156.258 130.175 156.198L132.535 154.836C132.641 154.776 132.807 154.73 132.974 154.73C133.14 154.73 133.291 154.761 133.412 154.836L136.226 156.455C136.317 156.5 136.362 156.576 136.362 156.636C136.362 156.697 136.317 156.757 136.226 156.818L133.866 158.179C133.76 158.24 133.594 158.285 133.428 158.285C133.261 158.285 133.11 158.255 132.989 158.179V158.179ZM147.223 156.878L142.957 154.413C142.867 154.367 142.821 154.292 142.821 154.231C142.821 154.171 142.867 154.11 142.957 154.05L145.317 152.688C145.423 152.628 145.589 152.582 145.756 152.582C145.922 152.582 146.074 152.613 146.195 152.688L150.46 155.154C150.551 155.199 150.596 155.275 150.596 155.335C150.596 155.396 150.551 155.456 150.46 155.517L148.101 156.878C147.995 156.939 147.828 156.984 147.662 156.984C147.495 156.984 147.344 156.954 147.223 156.878ZM138.677 156.651L135.863 155.033C135.772 154.988 135.727 154.912 135.727 154.851C135.727 154.791 135.772 154.73 135.863 154.67L138.223 153.308C138.329 153.248 138.495 153.203 138.661 153.203C138.828 153.203 138.979 153.233 139.1 153.308L141.914 154.927C142.004 154.972 142.05 155.048 142.05 155.109C142.05 155.169 142.004 155.23 141.914 155.29L139.554 156.651C139.448 156.712 139.282 156.757 139.115 156.757C138.949 156.757 138.798 156.727 138.677 156.651ZM128.451 155.562L125.637 153.944C125.546 153.898 125.501 153.823 125.501 153.762C125.501 153.702 125.546 153.641 125.637 153.581L127.997 152.219C128.103 152.159 128.269 152.113 128.436 152.113C128.602 152.113 128.753 152.144 128.874 152.219L131.688 153.838C131.779 153.883 131.824 153.959 131.824 154.019C131.824 154.08 131.779 154.14 131.688 154.201L129.328 155.562C129.222 155.623 129.056 155.668 128.89 155.668C128.723 155.668 128.572 155.638 128.451 155.562ZM134.139 154.035L131.325 152.416C131.234 152.371 131.189 152.295 131.189 152.234C131.189 152.174 131.234 152.113 131.325 152.053L133.685 150.692C133.791 150.631 133.957 150.586 134.123 150.586C134.29 150.586 134.441 150.616 134.562 150.692L137.376 152.31C137.466 152.355 137.512 152.431 137.512 152.492C137.512 152.552 137.466 152.613 137.376 152.673L135.016 154.035C134.91 154.095 134.744 154.14 134.577 154.14C134.411 154.14 134.26 154.11 134.139 154.035V154.035ZM141.233 153.414L138.419 151.796C138.329 151.75 138.283 151.675 138.283 151.614C138.283 151.554 138.329 151.493 138.419 151.433L140.779 150.071C140.885 150.011 141.051 149.965 141.218 149.965C141.384 149.965 141.536 149.996 141.657 150.071L144.47 151.69C144.561 151.735 144.606 151.811 144.606 151.871C144.606 151.932 144.561 151.992 144.47 152.053L142.11 153.414C142.004 153.475 141.838 153.52 141.672 153.52C141.505 153.52 141.354 153.49 141.233 153.414ZM123.928 152.93L121.114 151.312C121.024 151.266 120.978 151.191 120.978 151.13C120.978 151.07 121.024 151.009 121.114 150.949L123.474 149.587C123.58 149.527 123.746 149.481 123.913 149.481C124.079 149.481 124.23 149.512 124.351 149.587L127.165 151.206C127.256 151.251 127.301 151.327 127.301 151.387C127.301 151.448 127.256 151.508 127.165 151.569L124.805 152.93C124.699 152.991 124.533 153.036 124.367 153.036C124.2 153.036 124.049 153.006 123.928 152.93ZM129.616 151.402L126.802 149.784C126.711 149.739 126.666 149.663 126.666 149.602C126.666 149.542 126.711 149.481 126.802 149.421L129.162 148.059C129.268 147.999 129.434 147.954 129.6 147.954C129.767 147.954 129.918 147.984 130.039 148.059L132.853 149.678C132.943 149.723 132.989 149.799 132.989 149.86C132.989 149.92 132.943 149.981 132.853 150.041L130.493 151.402C130.387 151.463 130.221 151.508 130.054 151.508C129.888 151.508 129.737 151.478 129.616 151.402ZM136.71 150.782L133.896 149.164C133.806 149.118 133.76 149.043 133.76 148.982C133.76 148.922 133.806 148.861 133.896 148.801L136.256 147.439C136.362 147.379 136.529 147.333 136.695 147.333C136.861 147.333 137.013 147.364 137.134 147.439L139.947 149.058C140.038 149.103 140.083 149.179 140.083 149.239C140.083 149.3 140.038 149.36 139.947 149.421L137.587 150.782C137.482 150.843 137.315 150.888 137.149 150.888C136.982 150.888 136.831 150.858 136.71 150.782ZM119.405 150.298L116.591 148.68C116.501 148.634 116.455 148.559 116.455 148.498C116.455 148.438 116.501 148.377 116.591 148.317L118.951 146.955C119.057 146.895 119.224 146.849 119.39 146.849C119.556 146.849 119.708 146.88 119.829 146.955L122.642 148.574C122.733 148.619 122.778 148.695 122.778 148.755C122.778 148.816 122.733 148.876 122.642 148.937L120.282 150.298C120.176 150.359 120.01 150.404 119.844 150.404C119.677 150.404 119.526 150.374 119.405 150.298ZM125.093 148.77L122.279 147.152C122.188 147.106 122.143 147.031 122.143 146.97C122.143 146.91 122.188 146.849 122.279 146.789L124.639 145.427C124.745 145.367 124.911 145.322 125.078 145.322C125.244 145.322 125.395 145.352 125.516 145.427L128.33 147.046C128.421 147.091 128.466 147.167 128.466 147.227C128.466 147.288 128.421 147.348 128.33 147.409L125.97 148.77C125.864 148.831 125.698 148.876 125.531 148.876C125.365 148.876 125.214 148.846 125.093 148.77ZM132.187 148.15L129.374 146.532C129.283 146.486 129.237 146.411 129.237 146.35C129.237 146.29 129.283 146.229 129.374 146.169L131.733 144.807C131.839 144.747 132.006 144.701 132.172 144.701C132.338 144.701 132.49 144.732 132.611 144.807L135.424 146.426C135.515 146.471 135.56 146.547 135.56 146.607C135.56 146.668 135.515 146.728 135.424 146.789L133.065 148.15C132.959 148.211 132.792 148.256 132.626 148.256C132.459 148.256 132.308 148.226 132.187 148.15V148.15ZM114.882 147.666L112.069 146.048C111.978 146.002 111.932 145.927 111.932 145.866C111.932 145.806 111.978 145.745 112.069 145.685L114.428 144.323C114.534 144.263 114.701 144.217 114.867 144.217C115.033 144.217 115.185 144.248 115.306 144.323L118.119 145.942C118.21 145.987 118.255 146.063 118.255 146.123C118.255 146.184 118.21 146.244 118.119 146.305L115.759 147.666C115.654 147.727 115.487 147.772 115.321 147.772C115.154 147.772 115.003 147.742 114.882 147.666ZM120.57 146.138L117.756 144.52C117.665 144.474 117.62 144.399 117.62 144.338C117.62 144.278 117.665 144.217 117.756 144.157L120.116 142.795C120.222 142.735 120.388 142.689 120.555 142.689C120.721 142.689 120.872 142.72 120.993 142.795L123.807 144.414C123.898 144.459 123.943 144.535 123.943 144.595C123.943 144.656 123.898 144.716 123.807 144.777L121.447 146.138C121.341 146.199 121.175 146.244 121.008 146.244C120.842 146.244 120.691 146.214 120.57 146.138ZM127.664 145.518L124.851 143.9C124.76 143.854 124.715 143.779 124.715 143.718C124.715 143.658 124.76 143.597 124.851 143.537L127.21 142.175C127.316 142.115 127.483 142.069 127.649 142.069C127.816 142.069 127.967 142.1 128.088 142.175L130.901 143.794C130.992 143.839 131.038 143.915 131.038 143.975C131.038 144.036 130.992 144.096 130.901 144.157L128.542 145.518C128.436 145.579 128.269 145.624 128.103 145.624C127.937 145.624 127.785 145.594 127.664 145.518ZM110.359 145.034L107.546 143.416C107.455 143.37 107.409 143.295 107.409 143.234C107.409 143.174 107.455 143.113 107.546 143.052L109.905 141.691C110.011 141.631 110.178 141.585 110.344 141.585C110.51 141.585 110.662 141.615 110.783 141.691L113.596 143.31C113.687 143.355 113.732 143.431 113.732 143.491C113.732 143.552 113.687 143.612 113.596 143.673L111.237 145.034C111.131 145.095 110.964 145.14 110.798 145.14C110.631 145.14 110.48 145.11 110.359 145.034ZM116.047 143.506L113.233 141.888C113.143 141.842 113.097 141.767 113.097 141.706C113.097 141.646 113.143 141.585 113.233 141.525L115.593 140.163C115.699 140.103 115.865 140.057 116.032 140.057C116.198 140.057 116.349 140.088 116.47 140.163L119.284 141.782C119.375 141.827 119.42 141.903 119.42 141.963C119.42 142.024 119.375 142.084 119.284 142.145L116.924 143.506C116.818 143.567 116.652 143.612 116.486 143.612C116.319 143.612 116.168 143.582 116.047 143.506ZM123.141 142.886L120.328 141.268C120.237 141.222 120.192 141.147 120.192 141.086C120.192 141.026 120.237 140.965 120.328 140.904L122.688 139.543C122.793 139.483 122.96 139.437 123.126 139.437C123.293 139.437 123.444 139.467 123.565 139.543L126.378 141.162C126.469 141.207 126.515 141.283 126.515 141.343C126.515 141.404 126.469 141.464 126.378 141.525L124.019 142.886C123.913 142.947 123.746 142.992 123.58 142.992C123.414 142.992 123.262 142.962 123.141 142.886ZM105.836 142.402L103.023 140.783C102.932 140.738 102.887 140.662 102.887 140.602C102.887 140.541 102.932 140.481 103.023 140.42L105.382 139.059C105.488 138.999 105.655 138.953 105.821 138.953C105.988 138.953 106.139 138.983 106.26 139.059L109.073 140.678C109.164 140.723 109.21 140.799 109.21 140.859C109.21 140.92 109.164 140.98 109.073 141.041L106.714 142.402C106.608 142.463 106.441 142.508 106.275 142.508C106.109 142.508 105.957 142.478 105.836 142.402ZM111.524 140.874L108.71 139.256C108.62 139.21 108.574 139.135 108.574 139.074C108.574 139.014 108.62 138.953 108.71 138.893L111.07 137.531C111.176 137.471 111.342 137.425 111.509 137.425C111.675 137.425 111.827 137.456 111.948 137.531L114.761 139.15C114.852 139.195 114.897 139.271 114.897 139.331C114.897 139.392 114.852 139.452 114.761 139.513L112.401 140.874C112.295 140.935 112.129 140.98 111.963 140.98C111.796 140.98 111.645 140.95 111.524 140.874ZM118.618 140.254L115.805 138.635C115.714 138.59 115.669 138.514 115.669 138.454C115.669 138.393 115.714 138.333 115.805 138.272L118.165 136.911C118.271 136.851 118.437 136.805 118.603 136.805C118.77 136.805 118.921 136.835 119.042 136.911L121.856 138.53C121.946 138.575 121.992 138.651 121.992 138.711C121.992 138.772 121.946 138.832 121.856 138.893L119.496 140.254C119.39 140.315 119.224 140.36 119.057 140.36C118.891 140.36 118.739 140.33 118.618 140.254ZM101.313 139.77L98.4998 138.151C98.4091 138.106 98.3637 138.03 98.3637 137.97C98.3637 137.909 98.4091 137.849 98.4998 137.788L100.86 136.427C100.965 136.366 101.132 136.321 101.298 136.321C101.465 136.321 101.616 136.351 101.737 136.427L104.551 138.046C104.641 138.091 104.687 138.167 104.687 138.227C104.687 138.288 104.641 138.348 104.551 138.409L102.191 139.77C102.085 139.83 101.918 139.876 101.752 139.876C101.586 139.876 101.434 139.846 101.313 139.77ZM107.001 138.242L104.187 136.624C104.097 136.578 104.051 136.503 104.051 136.442C104.051 136.382 104.097 136.321 104.187 136.261L106.547 134.899C106.653 134.839 106.82 134.793 106.986 134.793C107.152 134.793 107.304 134.824 107.425 134.899L110.238 136.518C110.329 136.563 110.374 136.639 110.374 136.699C110.374 136.76 110.329 136.82 110.238 136.881L107.878 138.242C107.773 138.303 107.606 138.348 107.44 138.348C107.273 138.348 107.122 138.318 107.001 138.242ZM114.096 137.622L111.282 136.003C111.191 135.958 111.146 135.882 111.146 135.822C111.146 135.761 111.191 135.701 111.282 135.64L113.642 134.279C113.748 134.218 113.914 134.173 114.08 134.173C114.247 134.173 114.398 134.203 114.519 134.279L117.333 135.898C117.423 135.943 117.469 136.019 117.469 136.079C117.469 136.14 117.423 136.2 117.333 136.261L114.973 137.622C114.867 137.682 114.701 137.728 114.534 137.728C114.368 137.728 114.217 137.698 114.096 137.622ZM96.7905 137.138L93.9769 135.519C93.8861 135.474 93.8408 135.398 93.8408 135.338C93.8408 135.277 93.8861 135.217 93.9769 135.156L96.3367 133.795C96.4426 133.734 96.609 133.689 96.7754 133.689C96.9418 133.689 97.093 133.719 97.214 133.795L100.028 135.413C100.118 135.459 100.164 135.534 100.164 135.595C100.164 135.655 100.118 135.716 100.028 135.777L97.6678 137.138C97.562 137.198 97.3956 137.244 97.2292 137.244C97.0628 137.244 96.9115 137.214 96.7905 137.138ZM102.478 135.61L98.2124 133.144C98.1216 133.099 98.0763 133.023 98.0763 132.963C98.0763 132.902 98.1216 132.842 98.2124 132.781L100.572 131.42C100.678 131.359 100.844 131.314 101.011 131.314C101.177 131.314 101.329 131.344 101.45 131.42L105.715 133.886C105.806 133.931 105.851 134.007 105.851 134.067C105.851 134.128 105.806 134.188 105.715 134.249L103.356 135.61C103.25 135.671 103.083 135.716 102.917 135.716C102.75 135.716 102.599 135.686 102.478 135.61ZM109.573 134.99L106.759 133.371C106.668 133.326 106.623 133.25 106.623 133.19C106.623 133.129 106.668 133.069 106.759 133.008L109.119 131.647C109.225 131.586 109.391 131.541 109.557 131.541C109.724 131.541 109.875 131.571 109.996 131.647L112.81 133.265C112.901 133.311 112.946 133.386 112.946 133.447C112.946 133.507 112.901 133.568 112.81 133.629L110.45 134.99C110.344 135.05 110.178 135.096 110.011 135.096C109.845 135.096 109.694 135.066 109.573 134.99ZM105.035 132.373L102.221 130.754C102.13 130.709 102.085 130.633 102.085 130.573C102.085 130.512 102.13 130.452 102.221 130.391L104.581 129.03C104.687 128.969 104.853 128.924 105.019 128.924C105.186 128.924 105.337 128.954 105.458 129.03L108.272 130.649C108.362 130.694 108.408 130.77 108.408 130.83C108.408 130.891 108.362 130.951 108.272 131.012L105.912 132.373C105.806 132.433 105.64 132.479 105.473 132.479C105.307 132.479 105.156 132.449 105.035 132.373Z" fill="url(#paint21_linear_3447_6331)"/>
<path style="mix-blend-mode:screen" d="M130.599 166.559L127.786 164.941C127.695 164.895 127.649 164.82 127.649 164.759C127.649 164.699 127.695 164.638 127.786 164.578L130.145 163.216C130.251 163.156 130.418 163.11 130.584 163.11C130.75 163.11 130.902 163.141 131.023 163.216L133.836 164.835C133.927 164.88 133.972 164.956 133.972 165.016C133.972 165.077 133.927 165.137 133.836 165.198L131.476 166.559C131.371 166.62 131.204 166.665 131.038 166.665C130.871 166.665 130.72 166.635 130.599 166.559ZM134.623 164.169L130.357 161.704C130.266 161.658 130.221 161.583 130.221 161.522C130.221 161.462 130.266 161.401 130.357 161.341L132.717 159.979C132.823 159.919 132.989 159.873 133.156 159.873C133.322 159.873 133.473 159.903 133.594 159.979L137.86 162.445C137.951 162.49 137.996 162.566 137.996 162.626C137.996 162.687 137.951 162.747 137.86 162.808L135.5 164.169C135.394 164.23 135.228 164.275 135.061 164.275C134.895 164.275 134.744 164.245 134.623 164.169V164.169ZM126.076 163.942L123.263 162.324C123.172 162.278 123.126 162.203 123.126 162.142C123.126 162.082 123.172 162.021 123.263 161.961L125.622 160.599C125.728 160.539 125.895 160.493 126.061 160.493C126.227 160.493 126.379 160.524 126.5 160.599L129.313 162.218C129.404 162.263 129.449 162.339 129.449 162.399C129.449 162.46 129.404 162.52 129.313 162.581L126.954 163.942C126.848 164.003 126.681 164.048 126.515 164.048C126.348 164.048 126.197 164.018 126.076 163.942ZM121.538 161.325L118.725 159.707C118.634 159.661 118.588 159.586 118.588 159.525C118.588 159.465 118.634 159.404 118.725 159.344L121.084 157.982C121.19 157.922 121.357 157.876 121.523 157.876C121.689 157.876 121.841 157.907 121.962 157.982L124.775 159.601C124.866 159.646 124.911 159.722 124.911 159.782C124.911 159.843 124.866 159.903 124.775 159.964L122.416 161.325C122.31 161.386 122.143 161.431 121.977 161.431C121.81 161.431 121.659 161.401 121.538 161.325ZM128.633 160.705L125.819 159.087C125.728 159.041 125.683 158.966 125.683 158.905C125.683 158.845 125.728 158.784 125.819 158.724L128.179 157.362C128.285 157.302 128.451 157.256 128.617 157.256C128.784 157.256 128.935 157.287 129.056 157.362L131.87 158.981C131.961 159.026 132.006 159.102 132.006 159.162C132.006 159.223 131.961 159.283 131.87 159.344L129.51 160.705C129.404 160.766 129.238 160.811 129.071 160.811C128.905 160.811 128.754 160.781 128.633 160.705ZM117 158.708L114.187 157.09C114.096 157.045 114.05 156.969 114.05 156.908C114.05 156.848 114.096 156.787 114.187 156.727L116.546 155.365C116.652 155.305 116.819 155.26 116.985 155.26C117.151 155.26 117.303 155.29 117.424 155.365L120.237 156.984C120.328 157.029 120.373 157.105 120.373 157.166C120.373 157.226 120.328 157.287 120.237 157.347L117.877 158.708C117.772 158.769 117.605 158.814 117.439 158.814C117.272 158.814 117.121 158.784 117 158.708ZM124.095 158.088L121.281 156.47C121.19 156.424 121.145 156.349 121.145 156.288C121.145 156.228 121.19 156.167 121.281 156.107L123.641 154.745C123.747 154.685 123.913 154.639 124.079 154.639C124.246 154.639 124.397 154.67 124.518 154.745L127.332 156.364C127.422 156.409 127.468 156.485 127.468 156.545C127.468 156.606 127.422 156.666 127.332 156.727L124.972 158.088C124.866 158.149 124.7 158.194 124.533 158.194C124.367 158.194 124.216 158.164 124.095 158.088ZM112.462 156.092L109.648 154.473C109.558 154.428 109.512 154.352 109.512 154.291C109.512 154.231 109.558 154.17 109.648 154.11L112.008 152.748C112.114 152.688 112.281 152.643 112.447 152.643C112.613 152.643 112.765 152.673 112.886 152.748L115.699 154.367C115.79 154.412 115.835 154.488 115.835 154.549C115.835 154.609 115.79 154.67 115.699 154.73L113.339 156.092C113.234 156.152 113.067 156.197 112.901 156.197C112.734 156.197 112.583 156.167 112.462 156.092ZM119.557 155.471L116.743 153.853C116.652 153.807 116.607 153.732 116.607 153.671C116.607 153.611 116.652 153.55 116.743 153.49L119.103 152.128C119.209 152.068 119.375 152.022 119.541 152.022C119.708 152.022 119.859 152.053 119.98 152.128L122.794 153.747C122.884 153.792 122.93 153.868 122.93 153.928C122.93 153.989 122.884 154.049 122.794 154.11L120.434 155.471C120.328 155.532 120.162 155.577 119.995 155.577C119.829 155.577 119.678 155.547 119.557 155.471ZM107.924 153.475L105.11 151.856C105.02 151.811 104.974 151.735 104.974 151.674C104.974 151.614 105.02 151.553 105.11 151.493L107.47 150.132C107.576 150.071 107.743 150.026 107.909 150.026C108.075 150.026 108.227 150.056 108.348 150.132L111.161 151.75C111.252 151.796 111.297 151.871 111.297 151.932C111.297 151.992 111.252 152.053 111.161 152.113L108.801 153.475C108.696 153.535 108.529 153.58 108.363 153.58C108.196 153.58 108.045 153.55 107.924 153.475ZM115.018 152.854L112.205 151.236C112.114 151.19 112.069 151.115 112.069 151.054C112.069 150.994 112.114 150.933 112.205 150.873L114.565 149.511C114.671 149.451 114.837 149.405 115.003 149.405C115.17 149.405 115.321 149.436 115.442 149.511L118.256 151.13C118.346 151.175 118.392 151.251 118.392 151.311C118.392 151.372 118.346 151.432 118.256 151.493L115.896 152.854C115.79 152.915 115.624 152.96 115.457 152.96C115.291 152.96 115.14 152.93 115.018 152.854ZM103.386 150.858L100.572 149.239C100.482 149.194 100.436 149.118 100.436 149.058C100.436 148.997 100.482 148.937 100.572 148.876L102.932 147.515C103.038 147.454 103.204 147.409 103.371 147.409C103.537 147.409 103.689 147.439 103.81 147.515L106.623 149.133C106.714 149.179 106.759 149.254 106.759 149.315C106.759 149.375 106.714 149.436 106.623 149.496L104.263 150.858C104.157 150.918 103.991 150.964 103.825 150.964C103.658 150.964 103.507 150.933 103.386 150.858ZM110.48 150.237L107.667 148.619C107.576 148.573 107.531 148.498 107.531 148.437C107.531 148.377 107.576 148.316 107.667 148.256L110.027 146.894C110.133 146.834 110.299 146.789 110.465 146.789C110.632 146.789 110.783 146.819 110.904 146.894L113.718 148.513C113.808 148.558 113.854 148.634 113.854 148.695C113.854 148.755 113.808 148.816 113.718 148.876L111.358 150.237C111.252 150.298 111.086 150.343 110.919 150.343C110.753 150.343 110.601 150.313 110.48 150.237ZM98.8631 148.241L96.0495 146.622C95.9588 146.577 95.9134 146.501 95.9134 146.441C95.9134 146.38 95.9588 146.32 96.0495 146.259L98.4093 144.898C98.5152 144.837 98.6816 144.792 98.848 144.792C99.0144 144.792 99.1656 144.822 99.2866 144.898L102.1 146.516C102.191 146.562 102.236 146.637 102.236 146.698C102.236 146.758 102.191 146.819 102.1 146.879L99.7404 148.241C99.6346 148.301 99.4682 148.347 99.3018 148.347C99.1354 148.347 98.9841 148.316 98.8631 148.241ZM105.958 147.621L103.144 146.002C103.053 145.957 103.008 145.881 103.008 145.82C103.008 145.76 103.053 145.699 103.144 145.639L105.504 144.277C105.61 144.217 105.776 144.172 105.942 144.172C106.109 144.172 106.26 144.202 106.381 144.277L109.195 145.896C109.285 145.941 109.331 146.017 109.331 146.078C109.331 146.138 109.285 146.199 109.195 146.259L106.835 147.621C106.729 147.681 106.563 147.726 106.396 147.726C106.23 147.726 106.079 147.696 105.958 147.621ZM94.3251 145.624L91.5115 144.005C91.4207 143.96 91.3753 143.884 91.3753 143.824C91.3753 143.763 91.4207 143.703 91.5115 143.642L93.8713 142.281C93.9771 142.22 94.1435 142.175 94.3099 142.175C94.4763 142.175 94.6276 142.205 94.7486 142.281L97.5622 143.899C97.653 143.945 97.6983 144.02 97.6983 144.081C97.6983 144.141 97.653 144.202 97.5622 144.262L95.2024 145.624C95.0965 145.684 94.9301 145.73 94.7637 145.73C94.5973 145.73 94.4461 145.699 94.3251 145.624ZM101.42 145.004L98.6059 143.385C98.5152 143.34 98.4698 143.264 98.4698 143.203C98.4698 143.143 98.5152 143.082 98.6059 143.022L100.966 141.661C101.072 141.6 101.238 141.555 101.404 141.555C101.571 141.555 101.722 141.585 101.843 141.661L104.657 143.279C104.747 143.324 104.793 143.4 104.793 143.461C104.793 143.521 104.747 143.582 104.657 143.642L102.297 145.004C102.191 145.064 102.025 145.109 101.858 145.109C101.692 145.109 101.541 145.079 101.42 145.004ZM89.787 143.007L85.5213 140.541C85.4305 140.496 85.3851 140.42 85.3851 140.36C85.3851 140.299 85.4305 140.239 85.5213 140.178L87.8811 138.817C87.9869 138.756 88.1533 138.711 88.3197 138.711C88.4861 138.711 88.6374 138.741 88.7584 138.817L93.0242 141.282C93.1149 141.328 93.1603 141.403 93.1603 141.464C93.1603 141.524 93.1149 141.585 93.0242 141.645L90.6644 143.007C90.5585 143.067 90.3921 143.113 90.2257 143.113C90.0593 143.113 89.908 143.082 89.787 143.007ZM96.8815 142.387L94.0679 140.768C93.9771 140.723 93.9318 140.647 93.9318 140.587C93.9318 140.526 93.9771 140.466 94.0679 140.405L96.4277 139.044C96.5336 138.983 96.7 138.938 96.8664 138.938C97.0328 138.938 97.184 138.968 97.305 139.044L100.119 140.662C100.209 140.708 100.255 140.783 100.255 140.844C100.255 140.904 100.209 140.965 100.119 141.025L97.7588 142.387C97.653 142.447 97.4866 142.493 97.3202 142.493C97.1538 142.493 97.0025 142.462 96.8815 142.387ZM92.3435 139.77L89.5299 138.151C89.4391 138.106 89.3937 138.03 89.3937 137.97C89.3937 137.909 89.4391 137.849 89.5299 137.788L91.8897 136.427C91.9955 136.366 92.1619 136.321 92.3283 136.321C92.4947 136.321 92.646 136.351 92.767 136.427L95.5806 138.045C95.6713 138.091 95.7167 138.166 95.7167 138.227C95.7167 138.287 95.6713 138.348 95.5806 138.408L93.2208 139.77C93.1149 139.83 92.9485 139.876 92.7821 139.876C92.6157 139.876 92.4645 139.845 92.3435 139.77Z" fill="url(#paint22_linear_3447_6331)"/>
<path d="M130.131 142.508C128.86 142.795 127.62 142.039 128.391 140.647C130.509 136.805 136.666 136.472 139.721 135.58C139.933 135.489 140.069 135.383 140.251 135.292C144.759 133.16 151.369 143.385 147.572 145.458C141.537 148.755 141.521 148.604 140.538 149.799C139.752 150.767 138.436 152.537 136.454 154.866C135.259 156.258 133.081 154.897 135.153 151.735C134.382 152.658 133.474 153.853 132.551 155.366C131.084 157.786 128.8 155.426 129.269 154.413C129.813 153.202 130.615 151.539 131.386 150.102C130.176 151.69 128.83 153.399 128.316 153.989C126.727 155.835 124.489 153.913 125.926 151.871C126.531 151.009 127.106 150.132 127.696 149.239C126.622 150.223 125.2 151.493 124.186 150.449C122.689 148.891 126.425 145.367 130.146 142.493L130.131 142.508Z" fill="#29256A"/>
<path d="M83.2518 107.762C84.0535 106.673 84.9763 104.978 85.9898 104.086C85.9898 104.086 83.4485 100.561 84.3258 98.8521C84.3258 98.8521 87.094 95.5545 87.805 95.252C88.7428 94.8435 96.1852 93.3914 99.4223 92.4081C104.792 90.7744 109.784 99.2303 106.562 101.257C104.883 101.998 104.293 102.407 103.204 103.405C102.448 104.101 101.873 104.963 101.147 105.705C99.9215 106.96 97.1231 108.851 95.3835 109.138C94.6574 109.259 93.8406 109.032 93.6288 108.321C93.2506 106.99 97.5012 105.069 96.639 104.056C94.9599 103.436 90.2404 105.78 90.2404 105.78C90.2404 105.78 87.5024 107.716 85.8385 110.182C84.3409 112.406 81.361 110.303 83.2367 107.762H83.2518Z" fill="#29256A"/>
<path d="M200.016 142.826L200.213 141.57L193.3 160.751L193.617 160.358L200.016 142.826Z" fill="#CEE0E8" stroke="#29256A" stroke-width="0.5" stroke-linecap="round" stroke-linejoin="round"/>
<path d="M207.11 145.579L204.735 145.563L198.352 163.111L200.197 164.759L207.11 145.579Z" fill="#BACFD6" stroke="#29256A" stroke-width="0.5" stroke-linecap="round" stroke-linejoin="round"/>
<path d="M204.735 145.563L200.016 142.825L193.617 160.357L198.352 163.11L204.735 145.563Z" fill="#CEE0E8" stroke="#29256A" stroke-width="0.5" stroke-linecap="round" stroke-linejoin="round"/>
<path d="M186.629 178.389L184.284 179.947L202.92 169.192L203.238 168.798L186.629 178.389Z" fill="#1F787D" stroke="#29256A" stroke-width="0.5" stroke-linecap="round" stroke-linejoin="round"/>
<path d="M204.918 142.871L200.183 140.118L200.016 142.825L204.736 145.563L204.918 142.871Z" fill="#CEE0E8" stroke="#29256A" stroke-width="0.5" stroke-linecap="round" stroke-linejoin="round"/>
<path d="M212.118 144.384L212.163 143.794L213.101 129.423L212.829 132.297L212.118 144.384Z" fill="#04555B" stroke="#29256A" stroke-width="0.5" stroke-linecap="round" stroke-linejoin="round"/>
<path d="M207.368 141.252L204.918 142.871L204.736 145.563L207.111 145.578L207.368 141.252Z" fill="#BACFD6" stroke="#29256A" stroke-width="0.5" stroke-linecap="round" stroke-linejoin="round"/>
<path d="M186.614 172.595L184.269 171.234L184.284 179.947L186.629 178.389L186.614 172.595Z" fill="#BACFD6" stroke="#29256A" stroke-width="0.5" stroke-linecap="round" stroke-linejoin="round"/>
<path d="M184.269 171.234L179.535 168.496L179.565 177.194L184.285 179.947L184.269 171.234Z" fill="#CEE0E8" stroke="#29256A" stroke-width="0.5" stroke-linecap="round" stroke-linejoin="round"/>
<path d="M198.352 163.11L193.618 160.357L179.535 168.496L184.269 171.234L198.352 163.11Z" fill="#EBF3F6" stroke="#29256A" stroke-width="0.5" stroke-linecap="round" stroke-linejoin="round"/>
<path d="M200.198 164.76L198.352 163.111L184.269 171.234L186.614 172.595L200.198 164.76Z" fill="#BACFD6" stroke="#29256A" stroke-width="0.5" stroke-linecap="round" stroke-linejoin="round"/>
<path d="M146.86 207.492L144.259 208.808L151.61 206.645L151.777 206.04L146.86 207.492Z" fill="#BACFD6" stroke="#29256A" stroke-width="0.5" stroke-linecap="round" stroke-linejoin="round"/>
<path d="M158.659 169.373L158.568 169.63L204.917 142.871L207.367 141.252L158.659 169.373Z" fill="#BACFD6" stroke="#29256A" stroke-width="0.5" stroke-linecap="round" stroke-linejoin="round"/>
<path d="M154.681 165.864L146.86 207.493L151.776 206.04L158.659 169.373L207.367 141.252L207.11 145.579L200.197 164.759L186.613 172.595L186.628 178.389L203.238 168.798L212.117 144.384L212.828 132.297L154.681 165.864Z" fill="#CEE0E8" stroke="#29256A" stroke-width="0.5" stroke-linecap="round" stroke-linejoin="round"/>
<path d="M213.1 129.423L208.381 126.67L147.873 161.598L152.593 164.351L213.1 129.423Z" fill="#EBF3F6" stroke="#29256A" stroke-width="0.5" stroke-linecap="round" stroke-linejoin="round"/>
<path d="M212.828 132.297L213.1 129.423L152.593 164.351L154.681 165.864L212.828 132.297Z" fill="#BACFD6" stroke="#29256A" stroke-width="0.5" stroke-linecap="round" stroke-linejoin="round"/>
<path d="M154.681 165.864L152.593 164.351L144.259 208.808L146.86 207.492L154.681 165.864Z" fill="#BACFD6" stroke="#29256A" stroke-width="0.5" stroke-linecap="round" stroke-linejoin="round"/>
<path d="M152.594 164.351L147.874 161.598L139.524 206.056L144.259 208.809L152.594 164.351Z" fill="#CEE0E8" stroke="#29256A" stroke-width="0.5" stroke-linecap="round" stroke-linejoin="round"/>
<path d="M26 120.746L122.762 176.662V91.9274L26 36V120.746Z" fill="url(#paint23_linear_3447_6331)" fill-opacity="0.7"/>
<g opacity="0.5">
<path opacity="0.7" d="M48.1331 125.808L28.6055 114.522V118.357L48.1331 129.643V125.808Z" fill="white"/>
<path opacity="0.7" d="M48.1331 118.258L28.6055 106.972V110.796L48.1331 122.083V118.258Z" fill="white"/>
<path opacity="0.7" d="M48.1331 110.358L28.6055 99.0715V102.896L48.1331 114.182V110.358Z" fill="white"/>
<path opacity="0.7" d="M48.1331 102.797L28.6055 91.511V95.3352L48.1331 106.621V102.797Z" fill="white"/>
<path opacity="0.7" d="M48.1331 94.8969L28.6055 83.6106V87.4348L48.1331 98.7211V94.8969Z" fill="white"/>
<path opacity="0.7" d="M48.1331 87.3361L28.6055 76.0498V79.885L48.1331 91.1712V87.3361Z" fill="white"/>
<path opacity="0.7" d="M48.1331 79.4359L28.6055 68.1497V71.9738L48.1331 83.2601V79.4359Z" fill="white"/>
<path opacity="0.7" d="M48.1331 71.8752L28.6055 60.5889V64.424L48.1331 75.7103V71.8752Z" fill="white"/>
<path opacity="0.7" d="M48.1331 53.9596L28.6055 42.6733V52.8858L48.1331 64.1721V53.9596Z" fill="white"/>
</g>
<g opacity="0.5">
<path opacity="0.7" d="M111.642 105.208V115.431L119.194 119.793V109.58L111.642 105.208Z" fill="white"/>
<path opacity="0.7" d="M111.642 120.483V130.706L119.194 135.067V124.855L111.642 120.483Z" fill="white"/>
<path opacity="0.7" d="M111.642 135.758V145.981L119.194 150.342V140.13L111.642 135.758Z" fill="white"/>
<path opacity="0.7" d="M111.642 151.032V161.256L119.194 165.617V155.405L111.642 151.032Z" fill="white"/>
</g>
<g opacity="0.5">
<path opacity="0.7" d="M119.194 95.2694L99.666 83.9832V94.2066L119.194 105.493V95.2694Z" fill="white"/>
<path opacity="0.7" d="M90.7014 78.8002L71.1738 67.5139V90.2837L90.7014 101.57V78.8002Z" fill="white"/>
<path opacity="0.7" d="M92.4202 119.058L72.8926 107.772V130.542L92.4202 141.828V119.058Z" fill="white"/>
</g>
<path opacity="0.5" d="M82.6561 120.494C82.6561 120.494 82.6233 120.472 82.6014 120.461C81.8789 120.056 81.2222 120.023 80.6858 120.253L70.5608 101.482L70.4842 101.329L49.3585 89.1223V89.8674L70.2653 101.954L80.2808 120.516C79.7335 120.976 79.3942 121.831 79.3942 122.981C79.3942 125.403 80.861 128.208 82.678 129.249C84.4841 130.301 85.9618 129.183 85.9618 126.772C85.9618 124.362 84.495 121.546 82.678 120.505L82.6561 120.494Z" fill="white"/>
<path opacity="0.5" d="M82.6565 122.51C82.6565 122.51 82.6346 122.51 82.6237 122.499C81.6933 121.984 80.938 122.565 80.938 123.814C80.938 125.074 81.7042 126.542 82.6565 127.09C83.5979 127.638 84.375 127.057 84.375 125.797C84.375 124.537 83.6088 123.069 82.6565 122.521V122.51Z" fill="#85009B"/>
<path opacity="0.5" d="M80.938 82.2518C80.938 82.2518 80.9161 82.2518 80.9051 82.2409C79.9747 81.7259 79.2195 82.3066 79.2195 83.5558C79.2195 83.9612 79.318 84.3666 79.4493 84.7721L68.7223 92.1027L49.3479 80.9041V81.6492L68.9412 92.9793L79.7887 85.572C80.0951 86.1199 80.4892 86.5801 80.927 86.8431C81.8684 87.3909 82.6456 86.8102 82.6456 85.5501C82.6456 84.2899 81.8793 82.8216 80.927 82.2737L80.938 82.2518Z" fill="#85009B"/>
<path opacity="0.5" d="M80.9375 82.9968C80.9375 82.9968 80.9265 82.9968 80.9156 82.9968C80.2917 82.6462 79.7881 83.0406 79.7881 83.8844C79.7881 84.7391 80.3026 85.7252 80.9375 86.0868C81.5723 86.4594 82.0868 86.0649 82.0868 85.2102C82.0868 84.3555 81.5723 83.3694 80.9375 83.0078V82.9968Z" fill="white"/>
<path opacity="0.5" d="M98.1008 104.277C98.1008 104.277 98.0351 104.244 98.0022 104.222C94.9045 102.501 92.4198 104.43 92.4198 108.572C92.4198 112.758 94.9702 117.634 98.1008 119.442C101.242 121.261 103.782 119.332 103.782 115.136C103.782 110.939 101.231 106.074 98.1008 104.255V104.277Z" fill="white"/>
<path opacity="0.5" d="M98.1013 107.367C98.1013 107.367 98.0576 107.345 98.0466 107.334C96.2077 106.315 94.73 107.454 94.73 109.92C94.73 112.407 96.2405 115.289 98.1013 116.374C99.9622 117.448 101.473 116.308 101.473 113.821C101.473 111.333 99.9622 108.451 98.1013 107.367Z" fill="#85009B"/>
<path opacity="0.5" d="M97.2261 118.861V152.271L68.4273 135.265L68.5696 121.195L49.8958 111.87V113.919L66.7197 122.324L66.5774 136.305L99.0541 155.492V119.902C99.0541 119.902 98.5725 119.727 98.1018 119.453C97.7297 119.245 97.2261 118.85 97.2261 118.85V118.861Z" fill="white"/>
<defs>
<linearGradient id="paint0_linear_3447_6331" x1="204.084" y1="102.724" x2="149.839" y2="74.3311" gradientUnits="userSpaceOnUse">
<stop stop-color="#5971FF"/>
<stop offset="1" stop-color="#15ABAB"/>
</linearGradient>
<linearGradient id="paint1_linear_3447_6331" x1="117.529" y1="207.856" x2="73.5251" y2="182.443" gradientUnits="userSpaceOnUse">
<stop stop-color="#5971FF"/>
<stop offset="1" stop-color="#15ABAB"/>
</linearGradient>
<linearGradient id="paint2_linear_3447_6331" x1="117.529" y1="207.856" x2="73.5251" y2="182.443" gradientUnits="userSpaceOnUse">
<stop stop-color="#6059FF"/>
<stop offset="0.76" stop-color="#1578AB"/>
<stop offset="0.82" stop-color="#1776AE"/>
<stop offset="0.87" stop-color="#2073B8"/>
<stop offset="0.92" stop-color="#2F6DC8"/>
<stop offset="0.96" stop-color="#4464E0"/>
<stop offset="1" stop-color="#6059FF"/>
</linearGradient>
<linearGradient id="paint3_linear_3447_6331" x1="104.323" y1="221.122" x2="63.3138" y2="195.921" gradientUnits="userSpaceOnUse">
<stop stop-color="#5971FF"/>
<stop offset="1" stop-color="#15ABAB"/>
</linearGradient>
<linearGradient id="paint4_linear_3447_6331" x1="188.716" y1="61.7156" x2="177.189" y2="57.4498" gradientUnits="userSpaceOnUse">
<stop stop-color="#5971FF"/>
<stop offset="1" stop-color="#15ABAB"/>
</linearGradient>
<linearGradient id="paint5_linear_3447_6331" x1="192.392" y1="50.8244" x2="178.52" y2="43.3518" gradientUnits="userSpaceOnUse">
<stop stop-color="#5971FF"/>
<stop offset="1" stop-color="#15ABAB"/>
</linearGradient>
<linearGradient id="paint6_linear_3447_6331" x1="195.191" y1="137.546" x2="162.093" y2="120.453" gradientUnits="userSpaceOnUse">
<stop stop-color="#5971FF"/>
<stop offset="1" stop-color="#15ABAB"/>
</linearGradient>
<linearGradient id="paint7_linear_3447_6331" x1="149.492" y1="174.138" x2="104.43" y2="143.173" gradientUnits="userSpaceOnUse">
<stop stop-color="#5971FF"/>
<stop offset="1" stop-color="#15ABAB"/>
</linearGradient>
<linearGradient id="paint8_linear_3447_6331" x1="74.9633" y1="227.218" x2="103.538" y2="227.218" gradientUnits="userSpaceOnUse">
<stop stop-color="#DDE7FF"/>
<stop offset="1" stop-color="#9FD0E3"/>
</linearGradient>
<linearGradient id="paint9_linear_3447_6331" x1="38.0989" y1="204.981" x2="69.4567" y2="204.981" gradientUnits="userSpaceOnUse">
<stop stop-color="#DDE7FF"/>
<stop offset="1" stop-color="#9FD0E3"/>
</linearGradient>
<linearGradient id="paint10_linear_3447_6331" x1="128.194" y1="83.1654" x2="127.756" y2="106.234" gradientUnits="userSpaceOnUse">
<stop stop-color="#DDE7FF"/>
<stop offset="1" stop-color="#9FD0E3"/>
</linearGradient>
<linearGradient id="paint11_linear_3447_6331" x1="58.4138" y1="162.521" x2="150.914" y2="162.521" gradientUnits="userSpaceOnUse">
<stop stop-color="#DDE7FF"/>
<stop offset="1" stop-color="#9FD0E3"/>
</linearGradient>
<linearGradient id="paint12_linear_3447_6331" x1="94.1434" y1="171.627" x2="176.176" y2="171.627" gradientUnits="userSpaceOnUse">
<stop stop-color="#DDE7FF"/>
<stop offset="1" stop-color="#9FD0E3"/>
</linearGradient>
<linearGradient id="paint13_linear_3447_6331" x1="142.822" y1="89.3372" x2="180.366" y2="105.538" gradientUnits="userSpaceOnUse">
<stop stop-color="#DDE7FF"/>
<stop offset="1" stop-color="#9FD0E3"/>
</linearGradient>
<linearGradient id="paint14_linear_3447_6331" x1="136.892" y1="125.036" x2="178.657" y2="125.036" gradientUnits="userSpaceOnUse">
<stop stop-color="#B177CC"/>
<stop offset="0.76" stop-color="#142387"/>
<stop offset="0.81" stop-color="#172488"/>
<stop offset="0.85" stop-color="#21298C"/>
<stop offset="0.88" stop-color="#313294"/>
<stop offset="0.91" stop-color="#493F9E"/>
<stop offset="0.95" stop-color="#674FAB"/>
<stop offset="0.98" stop-color="#8C63BB"/>
<stop offset="1" stop-color="#B177CC"/>
</linearGradient>
<linearGradient id="paint15_linear_3447_6331" x1="140.765" y1="127.593" x2="149.175" y2="127.593" gradientUnits="userSpaceOnUse">
<stop stop-color="#A05AC1"/>
<stop offset="1" stop-color="#142387"/>
</linearGradient>
<linearGradient id="paint16_linear_3447_6331" x1="160.339" y1="106.022" x2="178.566" y2="122.54" gradientUnits="userSpaceOnUse">
<stop stop-color="#DDE7FF"/>
<stop offset="1" stop-color="#9FD0E3"/>
</linearGradient>
<linearGradient id="paint17_linear_3447_6331" x1="143.73" y1="70.5801" x2="178.007" y2="70.5801" gradientUnits="userSpaceOnUse">
<stop stop-color="#DDE7FF"/>
<stop offset="1" stop-color="#9FD0E3"/>
</linearGradient>
<linearGradient id="paint18_linear_3447_6331" x1="143.548" y1="71.9112" x2="177.855" y2="71.9112" gradientUnits="userSpaceOnUse">
<stop stop-color="#B177CC"/>
<stop offset="0.76" stop-color="#142387"/>
<stop offset="0.81" stop-color="#172488"/>
<stop offset="0.85" stop-color="#21298C"/>
<stop offset="0.88" stop-color="#313294"/>
<stop offset="0.91" stop-color="#493F9E"/>
<stop offset="0.95" stop-color="#674FAB"/>
<stop offset="0.98" stop-color="#8C63BB"/>
<stop offset="1" stop-color="#B177CC"/>
</linearGradient>
<linearGradient id="paint19_linear_3447_6331" x1="145.923" y1="43.9871" x2="183.089" y2="64.499" gradientUnits="userSpaceOnUse">
<stop stop-color="#DDE7FF"/>
<stop offset="1" stop-color="#9FD0E3"/>
</linearGradient>
<linearGradient id="paint20_linear_3447_6331" x1="62.4377" y1="151.977" x2="162.864" y2="151.977" gradientUnits="userSpaceOnUse">
<stop stop-color="#B177CC"/>
<stop offset="0.76" stop-color="#142387"/>
<stop offset="0.81" stop-color="#172488"/>
<stop offset="0.85" stop-color="#21298C"/>
<stop offset="0.88" stop-color="#313294"/>
<stop offset="0.91" stop-color="#493F9E"/>
<stop offset="0.95" stop-color="#674FAB"/>
<stop offset="0.98" stop-color="#8C63BB"/>
<stop offset="1" stop-color="#B177CC"/>
</linearGradient>
<linearGradient id="paint21_linear_3447_6331" x1="93.7651" y1="145.397" x2="150.612" y2="145.397" gradientUnits="userSpaceOnUse">
<stop stop-color="#E7E3FF"/>
<stop offset="1" stop-color="#8ED0D1"/>
</linearGradient>
<linearGradient id="paint22_linear_3447_6331" x1="85.37" y1="151.493" x2="137.996" y2="151.493" gradientUnits="userSpaceOnUse">
<stop stop-color="#E7E3FF"/>
<stop offset="1" stop-color="#8ED0D1"/>
</linearGradient>
<linearGradient id="paint23_linear_3447_6331" x1="28.9576" y1="15.075" x2="132.242" y2="64.9208" gradientUnits="userSpaceOnUse">
<stop stop-color="#E6007A"/>
<stop offset="0.239694" stop-color="#703AC2"/>
<stop offset="0.495059" stop-color="#0070EB"/>
<stop offset="0.791212" stop-color="#0297FB"/>
<stop offset="1" stop-color="#0AE2FF"/>
</linearGradient>
</defs>
</svg>
